<?xml version="1.0" standalone="no"?>
<!DOCTYPE svg PUBLIC "-//W3C//DTD SVG 20010904//EN"
 "http://www.w3.org/TR/2001/REC-SVG-20010904/DTD/svg10.dtd">
<svg version="1.0" xmlns="http://www.w3.org/2000/svg"
 width="1350.000000pt" height="1989.000000pt" viewBox="0 0 1350.000000 1989.000000"
 preserveAspectRatio="xMidYMid meet">
<metadata>
Created by potrace 1.10, written by Peter Selinger 2001-2011
</metadata>
<g transform="translate(0.000000,1989.000000) scale(0.100000,-0.100000)"
fill="#eae6d9" stroke="none">
<path d="M4208 16579 c-23 -13 -13 -36 24 -55 23 -12 33 -13 44 -3 43 36 -17
88 -68 58z"/>
<path d="M4077 16573 c-10 -10 -8 -48 2 -58 14 -14 17 -101 4 -117 -6 -7 -9
-38 -6 -73 2 -33 5 -73 6 -90 2 -16 6 -36 11 -44 18 -29 54 -144 49 -157 -3
-8 2 -17 11 -20 11 -4 16 -18 16 -44 0 -21 7 -54 15 -73 8 -20 15 -55 15 -77
0 -22 6 -51 14 -63 8 -12 21 -61 29 -109 20 -108 40 -158 68 -165 16 -4 19
-11 14 -27 -19 -63 -23 -91 -14 -107 5 -10 9 -45 9 -79 0 -53 3 -63 20 -67 18
-5 40 -55 40 -93 0 -27 31 -63 43 -51 6 6 22 11 35 11 42 0 62 18 62 55 0 37
8 43 28 23 9 -9 15 -9 24 0 9 9 6 21 -12 54 -12 24 -29 50 -35 58 -17 21 -28
98 -29 210 -2 107 -8 125 -35 109 -13 -9 -25 -8 -49 5 -39 20 -35 31 13 40 43
8 47 36 10 60 -14 9 -25 22 -25 28 0 6 -7 19 -15 28 -13 14 -14 26 -5 63 14
63 7 77 -35 70 -32 -5 -34 -4 -40 33 -4 22 -13 44 -20 49 -17 14 -25 66 -13
89 12 21 -6 89 -30 118 -10 12 -12 26 -7 45 4 15 8 47 9 70 0 35 -5 48 -34 78
-29 30 -34 42 -35 87 -1 60 -30 120 -56 116 -9 -2 -23 3 -31 9 -8 7 -18 10
-21 6z m139 -324 c6 -10 -31 -48 -47 -49 -14 0 -19 33 -8 46 14 17 45 18 55 3z
m-40 -106 c-11 -11 -17 4 -9 23 7 18 8 18 11 1 2 -10 1 -21 -2 -24z m294 -653
c0 -16 -28 -42 -38 -36 -16 9 -15 49 0 64 10 10 15 9 25 -5 7 -9 13 -20 13
-23z m-80 -71 c0 -11 -4 -17 -10 -14 -5 3 -10 13 -10 21 0 8 5 14 10 14 6 0
10 -9 10 -21z"/>
<path d="M6946 16535 c-13 -14 -34 -25 -48 -25 -13 0 -29 -5 -36 -12 -9 -9
-19 -5 -45 20 -30 29 -35 31 -47 18 -8 -11 -10 -31 -6 -63 13 -90 14 -91 56
-42 30 35 44 43 73 44 30 1 37 -2 37 -17 0 -25 18 -30 65 -20 51 10 57 38 19
87 -31 42 -38 43 -68 10z"/>
<path d="M4290 16386 c0 -8 7 -16 15 -20 17 -6 18 -4 9 18 -8 20 -24 21 -24 2z"/>
<path d="M6905 16370 c-8 -13 3 -30 21 -30 18 0 18 14 0 29 -10 8 -16 9 -21 1z"/>
<path d="M4337 16273 c-3 -4 1 -21 8 -38 10 -25 14 -27 20 -13 4 9 5 25 3 34
-3 19 -23 30 -31 17z"/>
<path d="M4370 16158 c0 -32 15 -55 23 -35 7 19 -2 57 -14 57 -5 0 -9 -10 -9
-22z"/>
<path d="M6876 16157 c-21 -15 -19 -62 3 -62 18 0 37 53 24 66 -5 5 -16 4 -27
-4z"/>
<path d="M6866 16035 c-9 -25 -7 -85 3 -85 11 0 21 82 11 93 -4 5 -10 1 -14
-8z"/>
<path d="M4316 16003 c-6 -16 28 -63 46 -63 14 0 9 48 -8 64 -20 20 -30 20
-38 -1z"/>
<path d="M4440 15937 c0 -23 4 -36 10 -32 13 8 13 35 0 55 -7 11 -10 5 -10
-23z"/>
<path d="M6855 15768 c-6 -29 -15 -181 -19 -325 -2 -89 0 -113 11 -113 7 0 13
5 13 11 0 5 5 7 10 4 6 -4 8 -16 4 -28 -4 -12 -7 -35 -6 -50 1 -23 -3 -27 -16
-22 -38 16 -47 11 -54 -35 -4 -25 -10 -60 -14 -78 -5 -24 -2 -38 11 -52 14
-15 15 -23 6 -34 -9 -11 -8 -15 3 -19 8 -3 20 -24 26 -47 6 -23 20 -50 31 -61
29 -29 24 -57 -13 -72 -56 -24 -101 -28 -122 -12 -11 8 -32 15 -48 15 -15 0
-28 4 -28 10 0 5 -17 14 -37 20 -21 6 -47 17 -57 25 -30 23 -61 19 -74 -10 -6
-14 -16 -25 -22 -25 -16 0 -29 -43 -18 -62 5 -12 20 -18 41 -18 54 0 133 -68
108 -93 -8 -8 -20 -6 -43 7 -29 18 -32 18 -43 2 -18 -24 -34 -20 -82 25 -57
53 -89 51 -87 -4 1 -31 9 -46 48 -82 25 -25 53 -45 62 -45 9 0 27 -9 41 -20
14 -11 34 -20 45 -20 10 0 38 -10 61 -21 45 -23 128 -32 295 -31 87 0 122 9
122 33 0 4 -10 11 -22 15 -13 3 -29 12 -37 18 -8 6 -41 12 -73 12 -65 1 -76 7
-80 43 -5 36 26 50 54 25 28 -25 58 -37 58 -23 0 5 11 15 25 21 34 15 26 33
-16 35 -115 7 -132 11 -149 33 -10 13 -22 20 -29 16 -7 -4 -17 -3 -24 2 -7 5
-24 12 -38 16 -30 7 -46 35 -27 47 7 5 19 2 28 -5 26 -24 93 -29 138 -11 34
14 47 15 77 5 48 -16 59 -4 51 52 -3 23 -8 64 -12 90 -3 25 -1 77 6 115 11 63
13 118 11 265 -1 52 -3 58 -28 70 -20 9 -29 22 -31 43 -2 17 -10 37 -18 46
-13 14 -12 20 1 45 8 16 15 47 15 69 1 22 7 51 15 65 18 31 19 112 3 128 -20
20 -47 14 -53 -10z m36 -615 c15 -40 -15 -66 -50 -44 -12 8 -12 15 3 45 18 39
32 39 47 -1z m-331 -303 c39 -20 53 -40 28 -40 -7 0 -23 -3 -35 -6 -16 -4 -26
1 -38 20 -9 14 -14 30 -10 36 8 13 10 13 55 -10z m159 -176 c54 -26 58 -33 39
-52 -18 -18 -43 -15 -63 8 -11 12 -28 19 -44 18 -29 -3 -43 28 -19 43 20 13
32 11 87 -17z"/>
<path d="M6965 15560 c-8 -13 4 -32 16 -25 12 8 12 35 0 35 -6 0 -13 -4 -16
-10z"/>
<path d="M7186 15501 c-15 -17 -16 -23 -6 -36 17 -20 27 -19 39 4 7 13 6 23
-2 35 -12 16 -14 16 -31 -3z"/>
<path d="M7184 15396 c-8 -22 3 -49 19 -43 6 2 12 14 12 27 0 27 -22 39 -31
16z"/>
<path d="M4548 15103 c-1 -5 -2 -31 -2 -60 -1 -40 -6 -56 -21 -67 -25 -19 -51
-20 -65 -3 -5 6 -18 22 -28 34 -13 17 -24 20 -50 16 -38 -6 -51 -27 -34 -54 7
-10 12 -25 12 -32 0 -7 16 -28 36 -45 31 -28 43 -32 92 -32 42 0 66 -6 91 -23
64 -41 76 -47 107 -47 37 0 54 16 54 50 0 32 -17 50 -46 50 -40 0 -89 79 -97
155 -5 40 -42 85 -49 58z"/>
<path d="M4455 15041 c-7 -12 12 -24 25 -16 11 7 4 25 -10 25 -5 0 -11 -4 -15
-9z"/>
<path d="M7147 14933 c-12 -92 -29 -169 -41 -183 -7 -8 -17 -28 -20 -45 -4
-16 -15 -45 -23 -63 -14 -29 -14 -35 -1 -50 29 -34 29 -41 -2 -57 -16 -8 -30
-22 -30 -30 0 -15 -15 -19 -57 -15 -13 1 -26 -7 -33 -19 -8 -15 -21 -21 -48
-21 -52 0 -72 -14 -42 -30 16 -9 48 -10 114 -4 50 5 98 8 108 7 9 -2 22 4 28
12 16 19 66 19 73 1 8 -19 107 -19 107 0 0 7 -5 16 -10 19 -6 4 -8 15 -5 26 5
15 1 19 -18 19 -14 0 -30 -7 -37 -15 -17 -20 -49 -19 -57 2 -4 11 4 25 27 45
l34 28 -37 34 c-40 37 -44 51 -23 82 8 11 16 40 18 65 2 29 7 43 16 42 17 -4
15 8 -5 22 -15 12 -16 18 -5 47 15 44 15 91 0 106 -19 19 -26 14 -31 -25z"/>
<path d="M4411 14679 c-12 -13 -21 -36 -21 -51 0 -38 43 -82 70 -73 18 6 19 4
9 -19 -14 -30 -24 -33 -38 -9 -15 27 -21 12 -27 -59 -3 -49 -1 -68 10 -77 8
-6 12 -20 9 -30 -3 -10 2 -32 11 -49 8 -16 12 -32 9 -36 -3 -3 0 -24 7 -45 11
-34 11 -42 -3 -55 -9 -10 -17 -45 -22 -96 -6 -66 -4 -85 9 -105 11 -17 13 -30
7 -42 -43 -82 -53 -126 -45 -212 3 -47 13 -95 20 -106 20 -28 17 -53 -6 -65
-23 -12 -20 -41 8 -72 12 -14 12 -21 2 -33 -19 -23 -28 -113 -19 -206 2 -26
-3 -41 -19 -57 -24 -24 -28 -52 -11 -69 7 -7 7 -22 0 -50 -6 -22 -9 -65 -6
-97 3 -38 0 -64 -9 -79 -18 -29 -29 -164 -14 -173 6 -4 21 5 33 19 32 41 45
34 28 -15 -8 -24 -21 -49 -28 -57 -13 -13 -17 -12 -35 4 -15 14 -20 15 -20 4
0 -8 -7 -61 -16 -119 -22 -149 -22 -153 1 -165 11 -5 36 -22 55 -36 37 -28 72
-41 158 -58 71 -14 68 -15 92 19 17 23 19 34 10 50 -6 11 -17 20 -25 20 -8 0
-19 10 -26 22 -10 19 -12 19 -21 5 -12 -23 -44 -21 -79 4 -16 11 -45 25 -64
30 -31 9 -35 14 -35 44 0 81 57 159 87 119 18 -25 16 -41 -7 -47 -24 -6 -27
-41 -5 -59 9 -7 27 -24 40 -37 13 -14 30 -21 39 -18 40 16 45 171 7 219 -17
20 -21 21 -50 8 -28 -11 -34 -11 -42 1 -12 19 -7 44 9 43 6 -1 30 -2 52 -2 34
-2 41 -6 46 -28 6 -22 9 -24 20 -12 11 11 13 30 6 94 -5 43 -5 89 -1 102 8 21
20 172 38 461 7 113 2 203 -11 216 -10 10 -37 -7 -44 -28 -4 -12 -6 -51 -6
-87 1 -36 -5 -86 -14 -113 -9 -26 -14 -66 -12 -90 1 -23 -1 -106 -6 -185 -6
-117 -11 -146 -27 -165 -29 -34 -40 -7 -38 93 3 116 2 122 -18 119 -42 -4 -45
0 -38 44 4 23 11 46 16 51 8 9 11 3 26 -44 3 -11 8 -9 23 10 25 33 30 77 12
112 -10 21 -12 42 -7 71 21 126 37 251 41 320 2 42 7 114 10 160 3 45 6 111 5
147 0 36 6 81 13 100 19 47 40 200 33 236 -3 16 -9 40 -12 55 -5 20 -2 27 19
37 33 15 33 24 -5 66 -41 47 -34 85 23 126 21 16 44 30 50 32 6 2 8 13 4 25
-9 27 -67 50 -147 58 -61 6 -69 4 -88 -16z"/>
<path d="M6640 14466 c0 -10 28 -13 41 -5 10 6 7 9 -13 9 -16 0 -28 -2 -28 -4z"/>
<path d="M6745 14440 c-4 -6 8 -10 29 -10 20 0 36 5 36 10 0 6 -13 10 -29 10
-17 0 -33 -4 -36 -10z"/>
<path d="M8186 14421 c-11 -16 -36 -174 -36 -223 0 -50 -21 -169 -46 -254 -8
-28 -14 -60 -14 -72 0 -11 -4 -23 -9 -26 -4 -3 -18 -36 -31 -73 -12 -37 -36
-83 -51 -101 -16 -18 -29 -39 -29 -46 0 -8 -7 -20 -16 -27 -16 -13 -30 -32
-96 -133 -15 -22 -46 -77 -69 -120 -22 -44 -49 -91 -59 -105 -9 -14 -30 -48
-45 -74 -26 -46 -28 -48 -45 -32 -11 10 -22 38 -26 64 -4 25 -11 55 -17 66 -6
11 -13 35 -16 53 -9 52 -26 38 -29 -25 -4 -86 -9 -94 -38 -58 -13 17 -24 38
-24 47 0 10 -7 34 -16 55 -91 213 -97 226 -173 368 -35 66 -69 136 -76 155 -8
23 -18 35 -31 35 -16 0 -19 -7 -17 -39 2 -22 10 -47 18 -56 8 -9 15 -23 15
-31 0 -8 13 -54 29 -104 15 -49 34 -112 41 -140 13 -54 57 -187 90 -275 82
-215 111 -376 115 -645 2 -135 0 -178 -13 -210 -8 -22 -15 -59 -14 -81 1 -36
-4 -45 -34 -69 -19 -16 -49 -48 -65 -72 -17 -24 -48 -63 -70 -86 -38 -41 -49
-67 -29 -67 29 0 114 72 162 138 29 41 62 81 73 91 11 9 32 34 46 56 15 22 39
54 55 71 45 48 74 87 74 101 0 22 -16 15 -28 -12 -6 -14 -19 -25 -29 -25 -9 0
-29 -12 -45 -27 -33 -31 -49 -24 -19 8 31 33 41 81 41 197 0 56 4 102 8 102
32 0 108 -142 99 -185 -3 -18 1 -26 16 -31 18 -6 19 -12 13 -78 -4 -39 -13
-109 -21 -156 -7 -47 -16 -114 -20 -150 -3 -36 -9 -70 -13 -76 -9 -14 -71 -44
-91 -44 -9 0 -43 -14 -76 -31 -119 -61 -120 -61 -162 -32 -25 17 -53 26 -86
27 -45 2 -51 0 -71 -30 -11 -18 -30 -36 -41 -40 -18 -6 -17 -7 8 -11 39 -6 35
-37 -12 -80 -23 -20 -43 -48 -47 -67 -8 -37 -31 -66 -54 -66 -9 0 -25 -9 -35
-20 -10 -11 -32 -24 -49 -28 -67 -17 -27 -92 93 -177 24 -16 56 -43 72 -60 73
-75 84 -85 95 -85 23 0 63 -63 182 -290 30 -58 62 -114 72 -125 28 -31 51
-168 48 -283 -3 -100 3 -125 23 -105 15 15 39 154 39 226 0 107 31 67 140
-183 79 -183 78 -182 103 -178 25 3 34 31 18 62 -15 31 -41 126 -41 151 0 25
-122 275 -156 321 -27 35 -88 198 -99 262 -4 23 -11 42 -16 42 -19 0 -79 76
-90 113 -8 30 -19 42 -57 61 -26 14 -54 38 -64 55 -13 23 -23 30 -45 28 -22
-2 -29 3 -31 21 -6 38 16 55 61 48 28 -5 47 -2 64 9 23 15 23 18 9 34 -21 23
-20 38 3 51 15 8 27 5 55 -13 28 -18 33 -27 29 -47 -11 -55 -15 -60 -39 -60
-23 0 -25 -3 -22 -37 2 -30 8 -39 24 -41 21 -3 34 -27 34 -65 0 -21 49 -78 62
-71 4 3 5 47 2 99 -7 90 -6 93 17 108 25 15 28 15 239 -14 54 -8 83 -7 104 1
22 8 43 8 80 -1 163 -36 120 44 -47 86 -50 13 -117 31 -147 40 -30 9 -77 18
-105 21 -27 3 -79 13 -114 22 -64 17 -64 17 -87 72 -13 30 -31 68 -39 83 -32
60 -22 69 115 108 67 19 136 56 154 81 11 15 27 23 48 23 18 1 52 13 75 28 23
14 54 29 70 32 15 4 42 13 58 20 47 20 102 36 158 46 29 5 86 16 127 24 41 9
87 19 102 22 18 3 58 -9 125 -38 109 -47 160 -80 173 -112 5 -12 25 -47 44
-77 34 -51 36 -58 29 -105 -12 -74 -10 -194 4 -240 26 -90 32 -178 21 -278
-13 -106 -6 -133 26 -102 14 15 16 40 16 169 -2 215 13 238 65 98 16 -45 36
-87 43 -94 6 -6 12 -22 12 -34 0 -26 56 -182 72 -201 5 -7 14 -10 19 -7 12 7
12 67 0 80 -5 5 -21 56 -35 114 -32 131 -69 236 -96 272 -11 15 -20 31 -20 37
0 5 -7 11 -15 15 -8 3 -15 16 -15 28 0 13 -8 28 -17 34 -24 15 -48 83 -35 96
15 15 95 -70 165 -176 168 -254 287 -443 287 -457 0 -5 20 -37 45 -71 25 -34
69 -108 98 -166 28 -57 59 -108 68 -113 21 -11 45 -3 53 17 8 22 -121 281
-232 467 -26 43 -63 109 -82 145 -20 37 -48 86 -63 110 -15 24 -32 53 -38 65
-28 66 -88 143 -179 234 -53 53 -57 73 -16 73 25 0 218 -124 298 -192 29 -24
69 -55 88 -68 19 -13 43 -31 52 -39 9 -9 33 -27 52 -41 20 -14 38 -33 42 -43
3 -10 27 -44 52 -75 26 -32 58 -78 70 -104 13 -25 32 -48 43 -51 11 -3 19 -14
19 -27 0 -13 5 -20 13 -17 7 3 11 21 10 52 -1 36 -8 54 -27 74 -14 15 -26 33
-26 40 0 12 -20 60 -61 147 -10 22 -19 48 -19 58 0 10 -16 40 -35 67 -21 29
-32 55 -28 64 3 10 -5 27 -22 45 -34 36 -29 65 10 50 27 -10 45 -23 217 -151
101 -74 107 -81 102 -108 -10 -46 29 -72 146 -100 55 -13 104 -29 111 -37 6
-7 32 -20 59 -29 27 -9 66 -30 87 -47 34 -26 97 -61 265 -144 27 -13 55 -24
64 -24 9 0 28 -6 42 -14 85 -44 131 -58 166 -52 20 4 36 11 36 15 0 14 -66 54
-200 122 -25 12 -83 47 -130 78 -47 30 -99 60 -116 67 -17 6 -48 24 -70 41
-21 17 -62 43 -90 58 -63 32 -240 96 -274 100 -14 1 -30 3 -36 4 -5 0 -23 14
-40 29 -16 15 -51 46 -79 67 -27 22 -52 42 -55 45 -6 6 -84 58 -115 77 -11 6
-48 26 -82 43 -35 16 -70 42 -80 56 -16 25 -16 27 3 41 15 12 39 14 113 10 81
-5 97 -3 107 11 10 13 34 18 108 22 71 4 100 10 113 22 15 16 15 18 -11 28
-18 6 -89 9 -190 6 -88 -2 -178 -5 -198 -5 -30 -1 -39 -6 -50 -28 -19 -40 -51
-41 -78 -4 -26 38 -42 39 -64 6 -20 -31 -30 -31 -92 -1 -63 30 -134 43 -134
24 1 -14 85 -58 112 -58 9 0 20 -4 23 -10 3 -5 15 -10 27 -10 44 0 114 -82
175 -207 16 -33 35 -66 41 -74 20 -23 62 -89 62 -97 -1 -4 -9 3 -18 14 -10 12
-29 25 -41 29 -13 4 -49 32 -81 64 -105 102 -174 166 -219 201 -25 19 -55 44
-67 57 -12 12 -44 33 -72 47 -28 14 -53 34 -57 45 -4 12 -19 21 -45 25 -24 4
-40 12 -40 20 0 17 32 46 51 46 8 0 57 20 109 44 127 58 158 68 181 55 24 -12
455 -8 452 6 -7 31 -342 53 -407 26 -38 -15 -52 0 -24 26 49 45 207 95 417
133 83 15 176 57 176 80 0 21 -60 25 -100 6 -18 -9 -50 -16 -72 -17 -21 0 -60
-4 -88 -9 -27 -6 -93 -15 -145 -20 -52 -6 -120 -18 -150 -27 -57 -16 -214 -87
-240 -108 -57 -46 -218 -70 -284 -42 -25 11 -35 10 -63 -2 -40 -18 -40 -41 0
-55 20 -7 34 -7 48 2 11 7 24 10 29 7 6 -3 20 1 32 9 28 20 68 21 68 2 0 -8
-21 -24 -47 -37 -27 -12 -50 -26 -53 -31 -12 -16 -97 -10 -155 12 l-60 22 -55
-28 c-30 -15 -71 -39 -90 -52 -21 -14 -43 -21 -55 -18 -41 11 -296 -50 -380
-91 -16 -9 -45 -29 -62 -46 l-33 -31 0 27 c0 14 9 61 19 104 11 43 27 123 37
178 21 127 50 244 65 261 6 8 28 14 48 14 39 0 130 19 256 55 44 13 116 25
160 28 84 5 169 19 272 43 34 8 74 14 90 14 36 0 61 16 48 29 -10 10 -95 6
-370 -19 -120 -11 -165 -8 -165 10 0 8 94 84 211 171 72 52 389 368 389 387 0
5 16 29 35 53 31 40 47 89 28 89 -15 0 -60 -45 -101 -101 -23 -30 -55 -68 -73
-85 -17 -16 -54 -52 -83 -80 -28 -28 -69 -64 -91 -80 -22 -16 -52 -40 -66 -54
-14 -14 -62 -51 -107 -84 -88 -63 -135 -106 -223 -204 -56 -62 -93 -79 -105
-47 -4 8 10 40 31 70 35 54 39 80 10 68 -8 -3 -15 0 -15 6 0 6 8 11 18 11 9 0
32 21 51 46 19 25 55 62 80 82 25 20 78 64 116 97 39 33 96 80 128 103 31 23
57 47 57 52 0 5 8 11 19 15 10 3 35 21 55 41 63 61 42 72 -51 24 -32 -16 -78
-39 -103 -50 -25 -11 -74 -35 -110 -55 -46 -26 -72 -34 -91 -30 -27 6 -56 -16
-104 -79 -11 -14 -25 -26 -32 -26 -19 0 -25 53 -11 96 12 35 21 43 97 80 69
34 88 48 104 79 59 116 278 365 407 464 43 33 121 118 128 140 10 29 -56 2
-103 -42 -17 -15 -100 -75 -185 -132 -147 -99 -205 -150 -256 -230 -10 -16
-21 -32 -24 -35 -15 -12 -80 -129 -80 -142 0 -17 -31 -48 -48 -48 -15 0 -16
71 -2 114 20 66 68 274 94 411 32 167 39 533 9 542 -6 2 -14 0 -17 -6z m-213
-1015 c14 -41 -18 -147 -56 -185 -62 -64 -89 -24 -43 67 13 26 26 60 30 76 8
35 37 76 50 73 6 -2 14 -16 19 -31z m-27 -291 c10 -42 -3 -69 -50 -98 -24 -15
-49 -34 -56 -42 -14 -16 -16 -76 -5 -118 5 -18 2 -48 -8 -80 -9 -29 -24 -76
-33 -105 -13 -45 -19 -53 -37 -50 -20 3 -22 11 -28 108 -5 68 -13 117 -24 137
-10 20 -14 42 -10 55 4 13 45 58 91 101 45 43 86 86 89 97 10 31 63 27 71 -5z
m88 -1 c19 -7 21 -35 4 -53 -10 -11 -10 -14 0 -18 19 -7 14 -23 -7 -23 -14 0
-20 10 -25 41 -8 53 -2 65 28 53z m-420 -28 c15 -13 26 -28 26 -34 0 -6 7 -15
17 -20 10 -6 14 -16 10 -26 -8 -20 -27 -21 -27 -1 0 22 -28 18 -42 -5 -28 -44
-57 -16 -34 32 9 17 16 33 16 35 0 1 -16 3 -35 3 -46 0 -48 27 -2 33 17 2 35
5 39 5 4 1 18 -9 32 -22z m136 17 c0 -5 -9 -19 -20 -33 -14 -19 -22 -22 -30
-14 -9 9 -8 17 2 33 12 20 48 30 48 14z m-132 -186 c3 -22 -1 -27 -17 -27 -15
0 -21 6 -21 23 0 46 33 49 38 4z m-68 -22 c0 -19 -4 -35 -10 -35 -5 0 -10 16
-10 35 0 19 5 35 10 35 6 0 10 -16 10 -35z m480 -20 c0 -7 -6 -18 -12 -22 -15
-9 -58 -69 -58 -79 0 -4 -8 -26 -19 -48 -10 -23 -21 -49 -24 -58 -4 -10 -16
-18 -27 -18 -17 0 -20 6 -20 38 1 72 27 155 57 179 33 27 103 32 103 8z m-390
-95 c0 -25 -18 -36 -26 -16 -8 21 3 49 16 41 5 -3 10 -15 10 -25z m-392 -937
c-2 -12 -14 -19 -33 -21 l-30 -3 25 20 c31 25 42 26 38 4z m45 -65 c11 -8 20
-33 24 -66 l6 -52 -99 3 c-75 3 -100 7 -101 18 -4 19 5 30 57 64 73 49 86 52
113 33z m-2 -193 c0 -5 -9 -11 -21 -13 -20 -3 -27 8 -13 22 10 9 34 3 34 -9z
m-68 -52 c6 -13 8 -24 6 -26 -2 -1 -19 -12 -37 -25 -34 -24 -58 -21 -48 5 4 9
-1 17 -14 20 -13 3 -20 14 -20 29 0 22 3 24 51 22 43 -2 53 -6 62 -25z m100
-137 c15 -12 15 -15 2 -26 -26 -22 -62 10 -38 33 9 10 15 8 36 -7z m85 -129
c5 -24 -24 -21 -31 4 -4 15 -1 19 11 17 9 -2 18 -11 20 -21z"/>
<path d="M6728 14353 c-18 -4 -29 -33 -26 -63 0 -8 0 -26 -1 -40 l-1 -25 -13
25 c-17 33 -46 38 -67 9 -27 -34 -53 -19 -44 26 7 41 -4 44 -61 21 -45 -19
-45 -43 1 -62 l36 -15 -6 -57 c-6 -50 -9 -73 -14 -119 -4 -27 -24 -11 -43 35
-13 29 -19 59 -16 79 6 37 -11 56 -45 51 -29 -4 -36 -40 -14 -73 20 -31 22
-62 3 -47 -7 6 -22 9 -33 6 -15 -4 -23 2 -32 21 -14 31 -36 29 -40 -4 -4 -26
11 -47 51 -67 26 -14 31 -14 48 2 18 16 19 15 38 -27 19 -43 19 -43 0 -57 -16
-11 -18 -17 -8 -28 11 -13 16 -11 35 13 21 27 24 27 56 14 18 -7 52 -21 76
-30 l43 -16 82 42 c45 23 104 49 130 58 39 14 46 20 36 31 -6 8 -25 14 -41 14
-46 0 -88 26 -88 55 0 20 7 26 39 35 42 11 70 36 55 49 -5 5 -25 14 -45 20
-20 7 -45 21 -54 31 -16 17 -16 24 -5 44 7 14 10 32 7 40 -7 16 -9 17 -39 9z
m-79 -232 c9 -6 11 -18 7 -34 -4 -16 -1 -29 9 -37 25 -21 17 -39 -20 -46 -43
-8 -50 -2 -34 24 11 17 11 25 0 46 -23 41 1 70 38 47z"/>
<path d="M6412 14338 c5 -15 28 -18 29 -3 0 6 -7 12 -17 13 -10 3 -15 -1 -12
-10z"/>
<path d="M6897 14163 c-4 -3 -7 -14 -7 -24 0 -35 75 -54 87 -22 11 29 -58 69
-80 46z"/>
<path d="M7020 14055 c-10 -12 -8 -17 14 -26 32 -15 64 4 45 27 -15 18 -43 18
-59 -1z"/>
<path d="M6976 13989 c-10 -7 -37 -9 -61 -6 -38 6 -45 3 -59 -18 -9 -13 -30
-28 -47 -32 l-30 -8 21 -23 c15 -16 28 -21 43 -16 36 11 41 10 45 -8 2 -10 -6
-30 -17 -44 -26 -33 -26 -38 1 -64 25 -23 38 -26 38 -6 0 7 9 24 19 38 13 16
21 44 23 79 l3 54 50 3 c53 3 80 17 52 28 -9 3 -17 12 -17 20 0 17 -37 18 -64
3z"/>
<path d="M6531 13908 c-4 -13 -11 -50 -15 -83 -4 -38 -14 -67 -26 -80 -21 -23
-27 -108 -16 -232 5 -55 3 -65 -15 -82 -14 -13 -19 -26 -14 -40 4 -14 -4 -31
-29 -59 -32 -35 -34 -40 -19 -54 18 -19 9 -40 -13 -31 -21 8 -34 -14 -34 -59
0 -41 32 -70 53 -49 18 18 46 101 36 107 -12 7 -2 43 17 65 9 10 12 27 8 47
-5 24 -2 33 15 44 12 7 21 20 21 30 0 9 5 20 10 23 6 3 10 -5 10 -19 0 -14 -4
-28 -10 -31 -5 -3 -7 -19 -3 -35 3 -16 2 -37 -2 -47 -4 -10 -9 -49 -11 -86 -4
-86 -10 -104 -34 -110 -29 -7 -25 -27 5 -27 28 0 34 -25 14 -62 -7 -14 -8 -28
-1 -42 7 -15 5 -40 -6 -84 -14 -58 -14 -64 3 -82 15 -16 15 -22 5 -35 -18 -21
-29 -19 -42 10 -15 33 -26 32 -30 -2 -2 -20 -10 -29 -28 -33 -21 -5 -25 -12
-28 -49 -2 -27 2 -49 11 -60 8 -9 18 -36 22 -59 8 -50 26 -44 30 10 4 51 5 52
13 44 4 -4 8 -24 8 -44 1 -21 5 -56 9 -80 7 -39 6 -44 -14 -49 -11 -3 -21 -12
-21 -20 0 -8 -12 -25 -27 -39 -30 -28 -24 -41 22 -46 38 -4 39 -22 2 -26 -25
-3 -28 -7 -23 -27 3 -13 2 -34 -3 -46 -6 -18 -2 -31 17 -56 l26 -32 29 21 c15
11 30 18 33 15 12 -12 10 -138 -3 -148 -13 -11 -1 -49 15 -49 12 0 34 94 38
159 2 31 6 84 10 117 5 51 2 69 -15 102 -23 45 -17 56 24 46 56 -14 80 58 25
77 -33 12 -36 24 -20 81 8 27 8 44 0 58 -16 30 -26 17 -35 -42 l-8 -53 -9 38
c-6 21 -7 53 -4 72 6 32 10 35 40 35 33 0 46 13 46 47 0 8 8 27 19 41 29 43
36 72 15 72 -10 0 -25 -7 -35 -16 -19 -17 -39 -12 -39 10 0 8 6 19 14 25 8 7
18 27 21 44 4 18 14 40 22 49 16 18 14 70 -6 143 -15 55 -13 161 3 215 9 30
12 82 10 155 -2 61 -4 115 -4 122 0 6 -10 13 -22 15 -32 4 -37 52 -8 68 12 6
29 8 38 4 9 -4 24 -8 32 -9 12 0 15 -18 15 -100 0 -84 3 -100 16 -103 20 -4
46 73 52 153 2 28 14 72 26 99 21 46 22 96 2 96 -4 0 -24 11 -44 25 -20 13
-39 20 -42 15 -4 -6 -15 -10 -26 -10 -39 0 -13 -25 29 -28 40 -3 42 -4 42 -37
0 -64 -17 -79 -63 -53 -12 7 -31 13 -42 13 -12 0 -21 8 -23 20 -2 11 -13 30
-24 42 -15 16 -18 29 -13 51 8 37 -11 53 -24 20z m-2 -302 c10 -36 10 -51 0
-80 -7 -19 -16 -33 -20 -30 -9 5 -8 154 1 154 3 0 12 -20 19 -44z m35 -775 c8
-13 -11 -61 -24 -61 -11 0 -14 53 -3 63 9 10 21 9 27 -2z m-114 -118 c0 -10
-5 -25 -10 -33 -8 -13 -11 -13 -26 2 -9 9 -14 24 -11 32 9 22 47 21 47 -1z"/>
<path d="M6347 13914 c-10 -10 -9 -52 2 -58 20 -13 42 7 39 33 -3 25 -26 39
-41 25z"/>
<path d="M7077 13913 c-12 -12 -7 -43 7 -43 18 0 39 27 31 40 -7 11 -28 13
-38 3z"/>
<path d="M7020 13860 c0 -5 6 -10 14 -10 8 0 18 5 21 10 3 6 -3 10 -14 10 -12
0 -21 -4 -21 -10z"/>
<path d="M6363 13813 c-18 -7 -16 -50 2 -57 8 -3 15 -17 15 -31 0 -14 5 -25
10 -25 14 0 9 113 -5 116 -5 1 -16 0 -22 -3z"/>
<path d="M6820 13605 c-14 -17 -5 -48 13 -43 14 5 23 58 9 58 -5 0 -15 -7 -22
-15z"/>
<path d="M8906 13562 c-3 -5 -10 -21 -15 -35 l-10 -26 32 14 c19 8 32 20 32
32 0 19 -29 30 -39 15z"/>
<path d="M6657 13453 c-11 -10 -8 -41 4 -49 17 -10 32 12 24 35 -6 21 -16 26
-28 14z"/>
<path d="M6294 13407 c-9 -25 0 -62 16 -62 10 0 15 10 15 34 0 36 -21 54 -31
28z"/>
<path d="M6657 13363 c-10 -16 -12 -118 -2 -123 5 -3 19 12 30 32 15 29 17 43
10 64 -10 28 -29 42 -38 27z"/>
<path d="M6870 13285 c-9 -10 -9 -25 -3 -52 8 -34 10 -36 20 -18 19 36 24 85
9 85 -7 0 -19 -7 -26 -15z"/>
<path d="M4888 13185 c-3 -14 -1 -28 3 -31 5 -3 9 9 9 25 0 38 -6 40 -12 6z"/>
<path d="M6836 13091 c-4 -6 -4 -33 0 -61 8 -60 26 -54 28 9 1 41 -16 72 -28
52z"/>
<path d="M4830 13043 c-19 -18 -54 -41 -77 -50 -41 -17 -42 -19 -48 -78 -4
-33 -13 -71 -20 -85 -31 -61 -80 -400 -58 -400 18 0 34 27 27 44 -3 9 1 34 10
56 9 22 16 53 16 68 0 15 12 63 25 107 14 44 28 107 32 140 5 51 11 65 40 92
18 17 42 34 53 38 11 3 28 17 39 31 24 30 33 30 79 -1 20 -14 40 -25 44 -25
10 0 330 -193 407 -246 68 -47 101 -60 127 -50 13 5 12 10 -8 35 -13 17 -26
30 -30 30 -8 1 -82 53 -219 156 -52 39 -103 75 -114 82 -125 76 -129 78 -210
83 -79 5 -80 5 -115 -27z"/>
<path d="M6390 13024 c0 -16 -6 -39 -14 -49 -10 -14 -11 -28 -4 -54 8 -30 28
-66 28 -50 0 2 4 30 10 62 7 44 6 65 -5 90 l-14 32 -1 -31z"/>
<path d="M6805 12890 c-9 -15 5 -52 18 -47 15 5 16 49 0 54 -6 2 -14 -1 -18
-7z"/>
<path d="M6360 12815 c0 -8 5 -15 10 -15 6 0 10 7 10 15 0 8 -4 15 -10 15 -5
0 -10 -7 -10 -15z"/>
<path d="M6788 12769 c-34 -19 -18 -146 17 -133 19 8 28 56 20 104 -7 43 -10
45 -37 29z"/>
<path d="M6687 12624 c-10 -10 -9 -62 2 -68 11 -7 24 55 13 66 -5 5 -11 5 -15
2z"/>
<path d="M6304 12565 c-7 -18 3 -35 22 -35 8 0 14 10 14 25 0 27 -27 35 -36
10z"/>
<path d="M6745 12550 c-8 -12 20 -24 35 -15 5 3 10 10 10 16 0 12 -37 12 -45
-1z"/>
<path d="M7972 12553 c-36 -3 -52 -8 -49 -16 2 -8 45 -14 128 -17 136 -7 188
-20 336 -91 101 -48 133 -51 83 -8 -19 16 -53 39 -75 49 -22 10 -56 28 -75 38
-78 43 -183 56 -348 45z"/>
<path d="M6390 12511 c0 -12 5 -21 10 -21 6 0 10 6 10 14 0 8 -4 18 -10 21 -5
3 -10 -3 -10 -14z"/>
<path d="M6761 12473 c-15 -13 -23 -36 -30 -88 -10 -82 -38 -227 -51 -270 -5
-17 -7 -47 -3 -67 3 -24 1 -43 -7 -52 -15 -18 -5 -36 20 -36 11 0 20 10 24 26
5 19 11 24 26 19 25 -8 36 27 20 66 -10 23 -10 32 1 46 8 9 17 52 21 97 11
125 23 199 36 222 9 18 8 24 -7 38 -22 20 -24 20 -50 -1z"/>
<path d="M6119 12443 c-12 -91 -3 -115 25 -70 17 26 10 77 -10 77 -8 0 -14 -3
-15 -7z"/>
<path d="M6257 12373 c-4 -4 5 -19 20 -35 20 -21 30 -25 40 -17 17 15 16 24
-3 43 -16 17 -46 21 -57 9z"/>
<path d="M6623 12300 c-11 -44 -8 -70 8 -70 17 0 22 30 13 72 l-9 42 -12 -44z"/>
<path d="M5924 12226 c-11 -16 -10 -25 3 -59 l16 -40 -36 -29 c-20 -17 -37
-38 -37 -49 0 -10 -7 -34 -17 -53 -15 -32 -15 -37 0 -60 10 -14 17 -31 17 -38
1 -24 78 -78 157 -109 43 -17 95 -47 116 -65 36 -33 59 -40 120 -35 18 2 41
-8 66 -28 23 -18 51 -31 67 -31 16 0 58 -9 93 -19 44 -14 78 -18 112 -14 37 4
60 1 98 -16 44 -18 56 -20 98 -10 31 7 55 20 67 36 l19 25 -24 -7 c-13 -4 -27
-12 -31 -18 -9 -15 -87 9 -95 29 -3 9 4 24 16 35 11 11 21 31 21 44 0 30 38
59 57 43 18 -15 16 -31 -7 -61 -15 -18 -17 -28 -9 -33 14 -9 52 33 43 48 -3 5
-1 30 6 54 11 39 11 47 -5 64 -10 11 -33 24 -51 30 -36 12 -43 34 -23 72 9 16
7 24 -10 39 -21 20 -21 20 -31 -6 -6 -15 -10 -31 -10 -36 0 -11 -17 -12 -24 0
-3 4 -27 3 -54 -3 -36 -8 -64 -24 -105 -63 -57 -52 -66 -66 -46 -78 15 -10 71
14 91 39 13 16 20 18 40 9 15 -7 30 -7 45 0 27 12 53 -5 53 -35 0 -19 -56 -78
-73 -78 -5 0 -20 -9 -34 -20 -29 -22 -82 -27 -101 -8 -9 9 -12 8 -12 -5 0 -23
-40 -23 -41 1 -1 9 0 24 1 31 1 8 -5 20 -13 25 -20 16 -28 78 -11 97 10 12 11
23 3 53 -8 27 -7 41 2 52 16 19 39 18 55 -3 17 -24 27 -11 20 24 -6 26 -11 28
-47 28 -33 0 -46 6 -65 28 -13 16 -24 39 -24 53 0 13 -7 27 -16 31 -13 5 -15
14 -10 44 6 38 5 39 -24 39 -19 0 -34 7 -42 20 -16 25 -29 25 -59 1 -22 -18
-23 -18 -57 5 -38 26 -37 26 -161 28 -71 1 -85 -2 -97 -18z m239 -64 c41 -3
47 -7 42 -23 -13 -40 35 -81 49 -43 6 15 9 15 30 -5 14 -13 29 -19 39 -15 12
4 17 1 17 -10 0 -12 -10 -16 -35 -16 -64 0 -59 -60 6 -71 46 -7 59 -16 59 -40
0 -16 -5 -19 -19 -14 -14 4 -23 0 -30 -14 -6 -11 -23 -21 -38 -23 -20 -2 -29
-9 -31 -25 -2 -16 -12 -23 -40 -26 -80 -11 -110 -8 -116 10 -3 10 -28 28 -56
41 -53 24 -59 36 -36 68 13 17 12 21 -2 37 -16 17 -16 20 0 31 9 6 18 21 20
31 4 27 -28 32 -35 5 -5 -20 -31 -28 -41 -11 -5 8 90 102 123 121 9 5 23 7 31
3 8 -4 37 -8 63 -11z m-200 -187 c1 -5 -6 -11 -15 -13 -11 -2 -18 3 -18 13 0
17 30 18 33 0z m457 -140 c0 -13 -11 -18 -72 -30 -10 -1 -22 3 -28 10 -8 10
-6 17 11 28 11 9 18 20 14 27 -4 6 -1 18 6 26 11 13 16 11 41 -16 15 -17 28
-38 28 -45z m-52 -73 c4 -14 -34 -16 -42 -3 -6 10 13 21 28 17 6 -1 12 -8 14
-14z"/>
<path d="M6094 12049 c-7 -12 15 -41 27 -33 14 8 11 31 -6 37 -8 4 -17 2 -21
-4z"/>
<path d="M6270 11956 c0 -9 7 -16 16 -16 17 0 14 22 -4 28 -7 2 -12 -3 -12
-12z"/>
<path d="M6150 11915 c0 -8 7 -15 15 -15 8 0 15 7 15 15 0 8 -7 15 -15 15 -8
0 -15 -7 -15 -15z"/>
<path d="M4311 12216 c-15 -18 -5 -81 16 -101 7 -8 32 -19 53 -25 38 -10 55
-30 27 -30 -8 0 -22 -9 -32 -20 -16 -17 -20 -18 -34 -6 -14 11 -21 11 -50 -1
-30 -12 -33 -17 -28 -46 3 -18 15 -59 26 -92 12 -33 23 -76 26 -96 4 -26 12
-38 26 -42 19 -5 20 -7 4 -31 -9 -14 -14 -30 -10 -35 12 -20 -6 -79 -26 -84
-14 -4 -19 -14 -19 -39 1 -27 2 -30 11 -15 6 9 14 15 20 12 12 -8 12 -62 -1
-70 -5 -3 -10 -22 -10 -41 0 -19 -7 -51 -15 -71 -8 -19 -15 -51 -15 -70 0 -19
-7 -50 -16 -69 -9 -19 -13 -41 -10 -50 6 -15 8 -15 26 1 16 15 22 15 35 5 24
-20 18 -39 -17 -48 -17 -4 -37 -17 -45 -29 -12 -19 -11 -24 10 -49 24 -28 24
-28 60 -11 44 21 43 19 51 90 6 48 5 57 -9 57 -17 0 -35 37 -28 58 8 20 23 14
33 -13 8 -22 13 -24 30 -15 19 10 19 13 5 40 -8 16 -15 42 -15 59 0 16 -4 33
-10 36 -15 9 -12 68 5 93 11 15 14 32 9 57 -7 38 14 75 43 75 19 0 16 29 -4
37 -22 9 -53 35 -53 45 0 5 6 8 14 8 22 0 30 19 36 83 6 60 2 65 -30 45 -15
-10 -22 -10 -32 0 -9 9 -8 15 8 27 19 14 19 15 -3 21 -12 3 -25 14 -28 24 -9
29 5 70 24 70 21 0 61 40 61 61 1 21 31 55 69 76 74 41 65 68 -35 109 -66 27
-135 31 -153 10z"/>
<path d="M9530 12022 c0 -11 -7 -25 -15 -32 -30 -25 -5 -60 42 -60 15 0 69
-38 96 -69 57 -63 145 -141 158 -141 38 0 -1 72 -80 145 l-33 31 26 17 c24 16
37 17 124 7 53 -6 135 -17 182 -25 47 -8 116 -20 155 -26 38 -6 77 -15 85 -19
9 -5 40 -12 69 -16 48 -6 53 -5 50 11 -4 17 -43 34 -129 55 -91 23 -163 41
-250 65 -82 22 -113 25 -231 23 -124 -1 -138 0 -165 20 -16 12 -41 24 -56 28
-23 5 -28 3 -28 -14z"/>
<path d="M4443 11903 c-20 -7 -15 -31 8 -44 17 -9 25 -8 37 5 13 12 13 18 2
30 -13 16 -25 18 -47 9z"/>
<path d="M4257 11864 c-9 -9 4 -35 14 -28 5 3 9 12 9 20 0 14 -12 19 -23 8z"/>
<path d="M7064 11852 c-26 -22 -39 -58 -24 -67 7 -4 21 3 32 16 12 13 30 34
41 47 l20 22 -24 0 c-13 -1 -34 -9 -45 -18z"/>
<path d="M4260 11714 c0 -3 9 -17 20 -31 20 -26 28 -14 14 21 -6 15 -34 23
-34 10z"/>
<path d="M6902 11698 c-13 -13 -16 -48 -4 -48 14 0 32 23 32 42 0 21 -11 23
-28 6z"/>
<path d="M4422 11673 c2 -10 10 -18 18 -18 8 0 16 8 18 18 2 12 -3 17 -18 17
-15 0 -20 -5 -18 -17z"/>
<path d="M8110 11650 c0 -5 9 -10 20 -10 11 0 20 5 20 10 0 6 -9 10 -20 10
-11 0 -20 -4 -20 -10z"/>
<path d="M5840 11605 c-14 -7 -40 -19 -58 -25 -52 -20 -57 -80 -6 -80 14 0 52
-18 84 -39 33 -22 67 -37 77 -35 29 7 44 -10 48 -54 4 -41 4 -41 -32 -44 -41
-3 -55 -23 -23 -31 20 -5 37 -33 27 -43 -2 -3 -17 6 -32 20 -30 28 -40 31 -50
16 -7 -11 21 -58 49 -81 24 -20 12 -41 -19 -33 -31 8 -39 -9 -14 -32 20 -18
21 -18 34 0 17 22 45 15 45 -12 0 -10 -13 -31 -30 -47 -35 -34 -37 -44 -10
-73 22 -23 26 -52 9 -69 -6 -6 -12 -38 -13 -71 -2 -34 -9 -68 -16 -77 -10 -12
-11 -21 -1 -42 10 -22 10 -29 -1 -38 -8 -5 -15 -30 -15 -55 -4 -128 -23 -273
-37 -289 -12 -14 -13 -20 -4 -29 10 -10 10 -17 0 -32 -19 -30 -14 -49 13 -56
44 -11 55 0 49 49 -5 31 -2 46 9 55 11 10 14 27 11 70 -5 62 10 105 39 110 13
3 17 -4 17 -32 0 -19 4 -37 9 -41 14 -8 8 -155 -7 -182 -7 -12 -12 -29 -12
-37 0 -9 -16 -22 -35 -30 -37 -16 -44 -36 -20 -56 8 -7 15 -21 15 -31 0 -11 4
-19 8 -19 4 0 8 16 8 35 0 19 3 37 7 41 9 9 46 -37 46 -56 0 -19 -29 -54 -51
-63 -24 -9 -23 -27 1 -27 28 0 35 -17 21 -51 -10 -23 -10 -36 -1 -56 9 -20 9
-29 -1 -41 -18 -21 -36 -105 -27 -128 10 -26 1 -141 -16 -184 -15 -40 -31
-114 -40 -183 -7 -51 -22 -65 -51 -49 -13 7 -22 5 -36 -12 -15 -18 -19 -19
-28 -6 -5 8 -10 31 -11 50 -1 34 -1 34 -14 -13 -7 -27 -16 -51 -19 -54 -3 -3
6 -19 19 -35 27 -32 34 -95 14 -115 -7 -7 -12 -58 -13 -130 -2 -118 -11 -155
-41 -167 -23 -8 -18 -34 8 -38 18 -2 23 -10 25 -45 3 -34 -1 -44 -17 -53 -13
-6 -21 -21 -21 -36 0 -18 -10 -30 -35 -45 -48 -28 -47 -54 0 -46 31 5 37 3 47
-18 9 -21 14 -23 32 -13 12 6 34 24 49 40 22 24 34 29 58 26 40 -6 44 7 25 73
-14 48 -14 63 -1 144 8 50 15 130 15 179 0 65 4 94 15 106 10 12 12 25 7 46
-14 52 10 213 42 271 27 50 43 128 51 246 1 26 10 58 19 72 9 13 16 42 16 64
0 50 12 58 50 31 26 -19 31 -19 36 -6 9 22 -11 42 -46 50 -27 5 -30 10 -30 42
0 21 -8 46 -20 61 -22 28 -27 89 -8 95 10 4 10 16 -1 57 -12 46 -11 54 3 70
10 11 18 44 21 92 8 116 22 232 29 251 12 28 -12 61 -39 54 -13 -3 -27 -1 -30
4 -4 6 -18 -11 -32 -37 -31 -59 -27 -55 -47 -47 -11 4 -15 13 -11 25 4 11 7
34 7 51 0 18 9 49 19 69 10 21 15 46 12 59 -4 15 -1 26 11 32 21 12 22 76 1
84 -22 9 -18 36 9 62 l24 22 15 -37 c13 -34 15 -35 21 -15 10 30 23 28 41 -8
13 -26 14 -35 3 -58 -8 -17 -21 -27 -35 -27 -32 -1 -41 -15 -18 -31 17 -13 18
-18 7 -46 -10 -27 -9 -36 5 -57 l16 -25 28 32 c20 23 29 43 29 68 0 40 15 73
42 92 10 7 18 23 18 35 0 13 6 31 14 42 7 11 17 36 21 55 4 19 13 42 19 52 16
26 -4 53 -40 53 l-29 0 2 -91 c3 -89 2 -92 -21 -96 -22 -4 -23 -3 -18 41 4 41
3 44 -10 27 -20 -26 -51 -16 -63 19 -5 17 -18 36 -27 43 -28 20 -23 56 10 70
15 7 46 24 70 38 l43 26 47 -20 c77 -32 222 -39 222 -10 0 10 -97 58 -120 58
-34 0 -90 22 -90 35 0 31 42 45 132 45 78 0 88 2 102 22 22 31 8 40 -58 39
-38 0 -62 -6 -73 -17 -17 -16 -51 -16 -212 2 l-53 6 7 -32 c11 -50 -31 -64
-56 -19 -7 14 -6 25 6 41 8 13 15 41 15 64 0 68 5 74 65 74 32 0 57 -5 64 -14
22 -26 409 -38 439 -14 17 15 -2 28 -41 28 -16 0 -43 11 -61 25 -28 21 -43 25
-92 23 -68 -2 -132 9 -154 27 -8 7 -34 15 -57 19 -23 3 -64 17 -91 31 -27 14
-59 25 -70 25 -12 0 -23 4 -26 8 -8 14 -130 12 -156 -3z m267 -98 c47 -11 105
-47 76 -47 -7 0 -14 4 -17 8 -3 5 -37 9 -77 10 -72 1 -97 11 -85 31 9 14 37
13 103 -2z m-59 -324 c-2 -10 -13 -19 -26 -21 -17 -3 -22 2 -22 17 0 16 6 21
26 21 19 0 25 -5 22 -17z m-186 -1990 c2 -80 0 -95 -17 -113 -11 -13 -12 -24
-3 -59 12 -47 -2 -168 -25 -218 -7 -16 -7 -33 0 -58 9 -29 8 -39 -6 -57 -12
-14 -24 -19 -35 -15 -24 10 -31 35 -13 55 11 11 16 35 15 68 -1 29 6 64 15 84
12 23 17 63 19 137 1 67 6 110 14 121 16 20 18 62 4 62 -14 0 -13 23 2 38 22
22 28 13 30 -45z"/>
<path d="M9747 11503 c-3 -5 -8 -29 -11 -56 -6 -39 -3 -54 13 -81 12 -18 21
-51 21 -72 0 -22 7 -48 15 -58 8 -11 15 -37 15 -59 0 -26 8 -49 26 -72 22 -30
25 -41 21 -87 -7 -79 -17 -109 -48 -152 -16 -22 -29 -46 -29 -53 0 -16 -42
-81 -141 -218 -54 -74 -159 -279 -159 -309 0 -10 -9 -29 -20 -43 -21 -27 -26
-58 -10 -68 14 -9 46 15 64 49 9 17 38 60 65 96 27 36 50 69 50 73 1 12 90
131 133 180 21 23 40 51 44 61 4 11 19 37 35 59 16 22 29 49 29 61 1 34 43 78
71 74 19 -2 25 -11 29 -38 5 -32 8 -35 38 -34 33 2 45 -19 17 -30 -13 -5 -13
-10 1 -48 9 -24 24 -50 34 -58 9 -9 20 -27 23 -42 8 -31 35 -61 48 -53 14 9
11 57 -6 89 -8 15 -15 38 -15 50 0 11 -9 36 -20 54 -11 18 -20 42 -20 54 0 11
-18 58 -40 104 -41 86 -48 123 -30 170 10 24 8 30 -17 50 -15 13 -35 23 -44
24 -24 0 -35 18 -52 80 -8 30 -19 69 -25 85 -6 17 -23 71 -38 120 -25 82 -37
104 -56 105 -4 0 -9 -3 -11 -7z"/>
<path d="M9865 11470 c-6 -10 29 -100 43 -110 15 -10 72 -107 72 -121 0 -19
32 -81 62 -122 14 -18 30 -50 36 -72 6 -22 18 -65 27 -95 17 -56 33 -127 55
-235 13 -68 25 -118 40 -172 6 -21 15 -94 20 -163 11 -146 29 -233 53 -257 20
-20 33 -12 19 13 -6 10 -8 59 -5 113 4 79 1 107 -16 160 -12 35 -21 74 -21 87
0 15 -6 24 -15 24 -23 0 -18 22 11 45 l27 22 -12 84 c-14 103 -38 219 -57 279
-8 25 -14 53 -14 62 0 19 -14 52 -73 175 -21 46 -40 99 -41 120 -1 24 -8 40
-21 47 -11 6 -47 37 -81 69 -57 54 -95 70 -109 47z"/>
<path d="M5724 11416 c-4 -9 -2 -22 5 -29 8 -8 14 -8 23 1 10 10 8 16 -5 29
-15 15 -17 15 -23 -1z"/>
<path d="M6673 11400 c-3 -13 -14 -20 -28 -20 -12 0 -28 -7 -35 -15 -10 -12
-8 -20 9 -41 19 -24 19 -28 6 -54 -8 -16 -19 -32 -25 -35 -12 -7 -14 -55 -2
-55 33 0 115 88 135 144 3 7 20 2 49 -13 43 -23 78 -24 78 -1 0 6 -11 16 -25
22 -14 6 -25 20 -25 31 0 16 -5 18 -27 13 -16 -4 -35 -15 -44 -26 -20 -24 -72
-21 -77 5 -3 13 1 15 17 10 22 -7 66 29 56 45 -12 19 -57 11 -62 -10z"/>
<path d="M5840 11370 c0 -5 9 -10 21 -10 11 0 17 5 14 10 -3 6 -13 10 -21 10
-8 0 -14 -4 -14 -10z"/>
<path d="M9620 11265 c0 -22 41 -75 57 -75 20 0 16 27 -9 60 -23 32 -48 40
-48 15z"/>
<path d="M6524 11195 c-8 -21 3 -45 20 -45 16 0 31 34 21 50 -9 15 -35 12 -41
-5z"/>
<path d="M4491 11165 c-36 -39 -36 -65 1 -65 25 0 58 47 58 81 0 29 -22 23
-59 -16z"/>
<path d="M6474 11126 c-9 -22 2 -46 21 -46 12 0 15 8 13 27 -3 30 -25 42 -34
19z"/>
<path d="M4305 11040 c-4 -6 -21 -8 -39 -4 -39 7 -45 -3 -39 -61 3 -22 5 -59
5 -82 0 -35 4 -43 19 -43 14 0 19 -7 19 -30 0 -33 -14 -39 -29 -12 -9 15 -10
15 -16 1 -3 -9 -5 -45 -3 -80 3 -55 6 -64 22 -64 26 0 31 -21 15 -53 -11 -20
-11 -26 -1 -29 19 -7 14 -48 -8 -68 -19 -17 -19 -18 0 -55 22 -43 17 -75 -14
-106 -19 -18 -21 -30 -19 -100 5 -124 5 -128 -22 -147 -34 -25 -35 -74 -1 -87
13 -4 32 -19 42 -33 23 -28 55 -47 81 -47 10 0 34 -13 53 -29 19 -15 49 -35
67 -45 37 -19 124 -21 141 -4 21 21 13 52 -18 70 -54 31 -72 73 -67 161 l4 78
-31 -3 c-30 -3 -31 -1 -34 37 -2 22 -7 44 -11 48 -5 5 -4 24 2 43 13 42 -2 66
-31 48 -20 -13 -29 -91 -13 -107 15 -15 14 -44 -1 -51 -9 -4 -6 -10 10 -22 28
-21 28 -41 -1 -68 -12 -11 -32 -34 -44 -51 l-22 -30 -12 33 c-9 26 -14 30 -25
21 -7 -6 -18 -8 -24 -4 -13 8 -13 115 0 115 6 0 10 -6 10 -14 0 -8 5 -27 11
-43 l11 -28 10 25 c5 14 7 46 4 71 -5 35 -3 49 9 59 11 9 13 23 9 49 -8 50 -5
126 7 189 9 43 8 55 -5 67 -12 13 -13 21 -4 43 6 15 12 79 14 142 1 63 6 152
9 198 5 59 3 87 -5 97 -15 18 -26 19 -35 5z m5 -100 c0 -25 -10 -50 -21 -50
-10 0 -12 63 -3 73 11 10 24 -3 24 -23z m-37 -227 c-3 -7 -9 -10 -14 -7 -11 6
-12 38 -2 48 9 9 22 -25 16 -41z"/>
<path d="M6576 11005 l-27 -25 5 -121 c3 -86 9 -127 20 -144 9 -14 16 -33 16
-44 0 -11 4 -22 9 -25 8 -5 20 56 26 129 2 17 6 43 10 59 5 18 3 36 -4 48 -10
16 -9 29 6 70 17 49 17 50 -2 64 -25 19 -28 18 -59 -11z"/>
<path d="M6352 10963 c2 -28 7 -37 18 -34 57 16 77 12 110 -18 18 -16 37 -28
42 -25 14 9 9 41 -11 65 -17 21 -22 22 -40 11 -18 -10 -27 -9 -61 13 -54 34
-62 32 -58 -12z"/>
<path d="M4464 10875 c-8 -20 3 -48 16 -40 13 8 13 55 0 55 -6 0 -13 -7 -16
-15z"/>
<path d="M6310 10820 c-6 -11 -17 -20 -25 -20 -9 0 -15 -10 -15 -25 0 -14 2
-25 5 -25 12 0 65 61 65 75 0 21 -17 19 -30 -5z"/>
<path d="M6186 10668 c-9 -12 -16 -35 -16 -50 0 -15 -7 -48 -16 -74 -16 -46
-13 -81 6 -69 5 3 10 16 10 28 0 12 7 31 15 41 8 11 15 36 15 57 0 20 7 42 15
49 8 7 15 19 15 26 0 22 -27 16 -44 -8z"/>
<path d="M4472 10658 c-14 -14 -16 -47 -4 -66 6 -9 14 -6 31 12 36 38 9 90
-27 54z"/>
<path d="M6290 10652 c0 -10 -9 -27 -20 -37 -15 -13 -20 -31 -20 -66 0 -41 -4
-51 -35 -78 -19 -17 -35 -35 -35 -41 0 -6 -10 -24 -21 -40 -15 -20 -20 -36
-15 -54 4 -15 2 -26 -4 -26 -5 0 -10 -6 -10 -14 0 -7 -11 -21 -25 -30 -26 -17
-33 -40 -15 -51 6 -3 15 6 20 20 7 19 16 25 32 23 18 -2 24 2 26 23 2 17 11
29 23 32 26 7 36 -18 17 -41 -8 -9 -18 -25 -21 -34 -4 -11 -12 -15 -22 -12
-11 5 -15 -1 -15 -24 0 -16 -7 -35 -15 -42 -22 -18 -18 -28 13 -32 21 -2 30
-11 39 -41 14 -42 4 -77 -22 -77 -19 0 -19 -19 1 -59 23 -46 2 -153 -27 -135
-17 10 -9 -34 11 -59 24 -31 25 -54 4 -79 -12 -12 -14 -21 -7 -30 29 -36 24
-103 -8 -113 -24 -8 -27 -73 -4 -81 25 -10 17 -39 -15 -51 -20 -7 -30 -18 -30
-32 0 -25 30 -43 51 -30 7 5 17 9 20 9 12 0 20 -112 9 -125 -6 -8 -10 -19 -9
-27 4 -19 -20 -98 -29 -98 -5 0 -13 5 -19 11 -26 26 -30 -6 -28 -188 1 -108
-2 -193 -8 -200 -5 -7 -18 -13 -29 -13 -17 0 -18 -3 -9 -14 9 -11 9 -20 2 -34
-13 -25 -5 -32 35 -32 20 0 34 6 38 16 6 16 29 16 69 -1 13 -5 17 -2 17 12 0
10 -5 24 -11 30 -7 7 -9 33 -4 74 3 35 8 108 10 161 2 53 9 106 15 118 6 11 9
29 5 39 -6 20 18 46 35 36 6 -4 8 -22 4 -44 -4 -27 -2 -40 11 -51 14 -11 18
-11 32 3 14 14 15 21 4 55 -7 22 -10 49 -6 61 9 29 -2 58 -25 64 -28 7 -35 34
-18 70 10 21 12 42 7 60 -4 16 -3 81 3 145 7 65 11 140 10 167 0 28 -1 72 -2
99 0 27 -5 67 -10 89 -6 29 -5 52 5 81 16 48 22 147 10 166 -14 23 -14 131 1
205 7 39 13 79 13 90 -1 21 13 108 31 190 19 85 18 100 -7 103 -17 3 -23 -2
-23 -16z"/>
<path d="M4376 10583 c-8 -8 -8 -76 0 -97 11 -29 24 -5 24 44 0 46 -9 67 -24
53z"/>
<path d="M6486 10449 c-29 -56 -33 -100 -12 -118 15 -13 18 -10 43 38 15 26
18 131 4 131 -4 0 -20 -23 -35 -51z"/>
<path d="M5964 10455 c-8 -20 3 -48 16 -40 13 8 13 55 0 55 -6 0 -13 -7 -16
-15z"/>
<path d="M4470 10441 c0 -12 5 -21 10 -21 6 0 10 6 10 14 0 8 -4 18 -10 21 -5
3 -10 -3 -10 -14z"/>
<path d="M5620 10365 c0 -8 5 -15 10 -15 6 0 10 7 10 15 0 8 -4 15 -10 15 -5
0 -10 -7 -10 -15z"/>
<path d="M5842 10132 c-23 -2 -36 -11 -46 -31 -16 -31 -10 -47 19 -52 31 -6
26 -44 -5 -44 -27 0 -40 -29 -20 -49 8 -8 14 -7 21 7 8 14 14 16 25 6 8 -6 14
-18 14 -25 0 -18 30 -18 53 0 22 17 22 52 1 60 -13 5 -15 15 -10 54 8 59 -6
79 -52 74z"/>
<path d="M5837 9872 c-9 -10 -17 -28 -17 -39 0 -11 -5 -34 -11 -52 -9 -25 -8
-36 4 -54 16 -24 13 -122 -5 -144 -5 -6 -6 -32 -3 -56 6 -35 4 -45 -9 -50 -20
-8 -21 -47 -1 -47 8 0 15 -8 15 -17 0 -10 4 -24 9 -32 7 -10 13 -4 27 25 16
33 19 67 21 214 1 96 4 189 8 205 4 19 1 37 -7 48 -13 18 -14 18 -31 -1z m3
-423 c0 -10 -7 -19 -15 -19 -15 0 -21 31 -9 43 11 10 24 -3 24 -24z"/>
<path d="M4172 9812 c-18 -15 -32 -35 -32 -44 0 -20 29 -38 61 -38 12 0 46
-14 76 -31 46 -27 54 -35 48 -53 -4 -11 -11 -48 -16 -81 -8 -54 -7 -62 13 -90
26 -35 33 -124 13 -171 -10 -24 -9 -33 3 -52 12 -19 13 -29 2 -68 -14 -48 -7
-63 28 -64 17 0 37 -53 23 -58 -6 -2 -11 -26 -11 -52 0 -56 -13 -70 -41 -44
-17 16 -22 16 -30 4 -8 -13 -3 -158 7 -169 10 -12 24 16 24 51 0 31 4 41 20
45 10 3 22 14 26 25 3 11 13 18 22 16 13 -3 16 -13 15 -38 -4 -58 16 -139 37
-150 28 -15 32 0 32 113 -1 56 3 111 7 122 5 13 3 31 -6 49 -10 18 -13 42 -9
65 4 28 1 40 -17 59 l-22 23 25 19 c20 15 23 21 13 31 -7 7 -13 21 -13 30 0
10 -9 34 -21 54 -20 34 -20 36 -4 61 15 23 15 32 4 72 -7 25 -25 56 -41 70
-23 21 -28 33 -28 74 0 26 4 48 8 48 4 0 23 -11 41 -24 42 -31 127 -44 148
-24 13 13 11 17 -16 28 -31 12 -40 33 -21 45 22 14 8 37 -34 55 -24 10 -63 32
-87 49 -23 17 -51 31 -63 31 -12 0 -48 9 -80 20 -33 11 -62 20 -65 20 -3 0
-21 -13 -39 -28z"/>
<path d="M7690 9629 c-116 -125 -259 -267 -345 -344 -103 -92 -98 -88 -230
-228 -98 -106 -120 -138 -111 -164 10 -24 31 -13 126 65 218 178 630 646 630
716 0 25 -12 18 -70 -45z"/>
<path d="M4217 9673 c-12 -11 -8 -37 13 -76 11 -20 20 -47 20 -59 0 -13 3 -34
7 -46 9 -37 23 -6 23 54 0 33 -5 56 -14 63 -8 7 -18 26 -21 42 -6 29 -15 35
-28 22z"/>
<path d="M4096 9455 c-3 -9 -21 -25 -41 -36 -26 -16 -38 -31 -46 -62 -6 -23
-22 -62 -34 -87 -22 -41 -65 -184 -81 -269 -4 -18 -18 -45 -30 -59 -25 -26
-31 -56 -14 -67 19 -12 11 -44 -12 -47 -26 -3 -57 -57 -58 -99 0 -15 -9 -38
-20 -52 -14 -18 -20 -40 -20 -76 0 -38 5 -56 20 -71 25 -25 25 -42 1 -64 -30
-27 -55 -17 -59 24 -2 19 -11 44 -21 55 -9 11 -29 39 -43 61 -15 23 -47 64
-73 90 -97 103 -121 130 -157 179 -20 27 -42 55 -48 62 -5 7 -10 15 -10 19 0
10 -61 86 -99 124 -20 19 -49 54 -64 77 -30 44 -51 47 -63 11 -4 -14 1 -27 17
-42 13 -12 33 -40 44 -62 11 -21 24 -42 28 -45 9 -7 30 -40 46 -74 5 -11 21
-31 35 -44 22 -21 26 -33 26 -79 0 -49 3 -58 35 -88 19 -18 35 -38 35 -45 0
-21 61 -133 87 -161 14 -15 42 -56 62 -91 28 -51 53 -78 111 -122 41 -31 85
-61 96 -65 25 -10 32 -44 26 -129 -4 -54 -7 -61 -26 -61 -41 0 -61 -11 -79
-41 -26 -46 -21 -69 26 -115 96 -94 229 -263 277 -352 11 -20 28 -49 38 -64
64 -100 144 -241 160 -283 39 -103 52 -155 46 -180 -4 -14 -1 -31 6 -40 7 -8
13 -49 15 -92 1 -43 6 -99 10 -124 12 -82 -33 -73 -71 14 -16 38 -63 116 -135
224 -36 55 -45 83 -25 83 8 0 17 -4 20 -9 4 -5 35 -26 71 -46 36 -20 65 -41
65 -47 0 -7 5 -6 15 2 8 7 15 18 15 24 0 22 -144 146 -169 146 -5 0 -18 11
-29 24 -10 14 -41 37 -68 52 -27 14 -71 43 -99 64 -27 20 -66 46 -85 56 -19
10 -46 28 -60 40 -14 12 -50 35 -80 50 -30 15 -76 43 -103 60 -57 39 -86 49
-99 36 -11 -11 93 -99 206 -174 117 -77 137 -92 158 -115 11 -12 33 -27 48
-33 16 -7 31 -18 34 -26 3 -8 17 -19 31 -24 19 -7 36 -32 65 -96 22 -47 50
-100 62 -117 74 -104 158 -295 158 -359 0 -18 8 -33 25 -44 14 -9 25 -24 25
-34 0 -10 12 -33 28 -51 15 -18 39 -60 53 -93 24 -56 28 -61 60 -64 32 -3 36
-7 53 -54 13 -38 15 -57 8 -77 -6 -14 -13 -39 -16 -54 -4 -16 -17 -32 -31 -39
-32 -14 -31 -24 4 -57 37 -34 49 -76 30 -105 -7 -12 -16 -41 -19 -65 -9 -73
-30 -75 -92 -11 -29 30 -64 62 -77 70 -13 8 -38 26 -55 40 -41 34 -83 60 -96
60 -27 0 -3 -35 68 -99 l77 -71 2 -62 c1 -35 1 -93 2 -130 0 -46 6 -76 17 -93
36 -55 -34 -58 -102 -4 -20 16 -42 29 -49 29 -7 0 -23 8 -36 18 -13 11 -46 27
-74 37 -27 11 -63 27 -80 37 -69 41 -74 42 -93 25 -10 -10 -32 -17 -49 -17
-17 0 -36 -7 -43 -15 -7 -8 -21 -15 -33 -15 -11 0 -34 -8 -51 -19 -17 -10 -49
-24 -71 -31 -22 -7 -56 -23 -75 -35 -33 -21 -103 -54 -142 -68 -26 -9 -22 -26
7 -33 30 -8 71 0 190 33 105 30 138 45 183 84 18 16 43 29 56 29 13 0 38 3 55
6 24 5 31 3 31 -10 0 -8 12 -23 28 -32 15 -10 57 -36 93 -60 36 -24 96 -59
134 -79 37 -19 73 -40 80 -45 7 -5 27 -13 46 -16 19 -4 40 -11 47 -17 8 -6 12
-6 12 1 0 6 -4 14 -10 17 -19 12 -10 25 19 25 24 0 31 -6 44 -39 16 -38 16
-38 84 -44 55 -4 86 -14 163 -52 52 -26 99 -54 103 -61 4 -8 23 -14 41 -14 30
0 36 -5 49 -37 8 -21 14 -39 12 -41 -8 -9 -46 26 -51 46 -4 15 -14 22 -30 22
-14 0 -42 11 -64 25 -32 20 -44 23 -60 15 -11 -6 -20 -15 -20 -20 0 -12 71
-79 84 -80 5 0 30 -13 55 -28 25 -16 58 -32 72 -35 15 -4 39 -23 54 -43 26
-34 33 -53 57 -154 6 -25 14 -49 18 -55 4 -5 10 -26 14 -46 3 -20 15 -44 26
-54 28 -25 25 -56 -10 -88 -34 -33 -30 -55 12 -64 26 -5 28 -9 23 -34 -9 -38
10 -69 40 -69 21 0 25 5 25 30 0 19 7 33 20 40 20 11 28 50 11 50 -15 0 -24
41 -12 53 6 6 11 24 11 39 0 15 5 28 11 28 6 0 23 9 38 19 15 11 43 22 62 26
33 6 41 2 98 -45 34 -29 64 -50 67 -48 9 10 -9 68 -21 68 -20 0 -50 51 -35 60
17 11 99 -11 94 -25 -3 -6 2 -18 11 -25 13 -10 15 -9 15 8 0 30 14 34 40 12
13 -11 31 -20 42 -20 11 0 22 -11 28 -27 25 -69 27 -71 35 -29 6 32 4 42 -10
52 -19 14 -14 44 8 44 8 0 26 -11 41 -25 15 -14 38 -25 52 -25 57 0 88 -44 39
-56 l-26 -6 26 -45 c21 -35 24 -47 15 -59 -7 -8 -18 -14 -26 -14 -7 0 -16 -9
-19 -21 -9 -27 -62 -59 -98 -59 -16 0 -40 -9 -54 -20 -14 -11 -34 -20 -45 -20
-10 0 -23 -10 -28 -22 l-9 -23 0 23 c-1 25 -12 28 -42 10 -17 -11 -22 -10 -34
6 -13 18 -14 17 -21 -8 -8 -34 2 -60 21 -52 22 8 65 -11 65 -30 0 -25 25 -10
28 18 4 33 43 52 76 37 32 -15 45 -93 19 -121 -20 -22 -21 -81 -2 -104 12 -15
12 -18 0 -22 -12 -4 -23 -15 -66 -65 -9 -10 -13 -22 -10 -27 9 -14 59 -12 73
2 10 10 15 10 22 -2 5 -8 10 -17 10 -20 0 -3 -5 -12 -10 -20 -7 -12 -12 -12
-22 -2 -6 6 -15 12 -19 12 -3 0 -6 -61 -6 -135 -1 -74 3 -135 7 -135 4 0 13 7
20 15 18 21 54 19 76 -6 18 -20 18 -21 -2 -37 -18 -14 -21 -27 -20 -79 2 -90
19 -100 50 -28 28 62 32 95 15 112 -8 8 -8 17 0 31 6 11 11 36 11 56 0 22 9
45 25 65 25 28 26 34 23 143 -3 107 -4 113 -25 116 -19 3 -21 -2 -25 -52 -2
-34 2 -62 10 -73 6 -9 12 -38 12 -65 0 -46 -1 -48 -29 -48 -24 0 -30 5 -36 32
-4 18 -7 49 -6 68 0 19 0 87 0 150 -1 63 0 126 0 140 1 14 2 51 3 83 1 57 1
57 32 57 17 0 45 9 61 20 34 22 85 26 103 8 14 -14 16 -104 2 -113 -5 -3 -10
-19 -10 -34 0 -16 -6 -46 -13 -67 -10 -27 -13 -79 -11 -169 2 -73 -2 -148 -8
-170 -6 -22 -13 -65 -15 -95 -15 -228 -11 -208 -50 -235 -45 -30 -91 -113 -67
-122 8 -3 24 3 35 13 19 17 22 17 47 1 27 -16 29 -23 16 -64 -5 -18 -2 -23 13
-23 11 0 28 9 37 19 10 11 31 25 47 31 32 14 35 24 18 67 -20 51 -22 152 -4
180 12 18 14 28 6 36 -22 22 -12 37 24 37 42 0 49 27 8 32 -32 4 -41 23 -14
31 20 5 20 13 20 249 0 150 4 255 11 272 7 20 7 32 0 41 -6 8 -19 42 -28 77
-14 51 -21 63 -38 64 -32 2 -44 13 -44 39 0 30 16 41 36 24 12 -9 31 -7 99 15
46 15 87 31 90 36 7 12 -23 40 -43 40 -55 1 -156 11 -161 16 -3 3 12 20 33 38
33 28 37 34 22 39 -10 4 -34 7 -55 7 -40 0 -81 23 -81 46 0 9 11 14 35 14 40
0 55 21 34 46 -17 21 -117 14 -154 -10 -34 -22 -101 -31 -120 -16 -9 8 -27 10
-47 5 -34 -7 -127 -17 -163 -17 -11 0 -37 4 -57 10 -49 13 -103 -10 -117 -50
-7 -20 -17 -28 -33 -28 -30 0 -45 -11 -49 -35 -3 -15 -12 -20 -34 -20 -24 0
-30 5 -36 30 -9 38 -59 184 -70 207 -5 10 -9 29 -9 43 0 14 -9 44 -20 66 -12
22 -18 49 -15 59 3 11 -5 41 -21 72 -35 67 -31 63 -48 48 -12 -10 -21 -8 -44
9 -16 11 -35 27 -42 36 -18 22 -136 77 -180 84 l-35 6 -3 105 c-2 60 2 115 8
131 9 21 7 37 -8 81 -13 37 -16 60 -10 72 5 9 6 21 3 27 -4 6 1 19 11 30 20
23 34 11 34 -31 0 -15 4 -30 9 -35 5 -6 15 -33 24 -62 14 -50 14 -53 -6 -66
-20 -13 -20 -15 -5 -38 34 -53 124 -148 177 -187 26 -20 32 -21 37 -9 7 19 -8
47 -56 108 -20 26 -47 73 -60 105 -25 63 -67 159 -105 239 -35 73 -45 122 -48
232 l-2 98 47 3 48 3 26 -58 c26 -59 48 -134 83 -278 19 -80 40 -144 65 -200
8 -16 20 -54 26 -84 7 -30 26 -80 41 -112 16 -32 29 -67 29 -77 0 -11 12 -46
26 -78 51 -115 55 -132 82 -288 8 -44 47 -81 76 -70 15 6 16 16 11 88 -3 44
-11 105 -17 134 -17 77 -3 84 66 38 31 -20 56 -40 56 -44 0 -4 15 -16 33 -27
17 -10 47 -31 65 -47 19 -16 44 -28 61 -28 16 0 39 -8 52 -18 38 -29 86 -42
184 -48 49 -3 110 -12 135 -19 54 -14 68 -11 80 21 8 20 16 24 50 24 22 0 69
10 103 21 34 12 83 23 109 24 58 2 74 15 104 82 23 52 23 53 67 53 40 0 45 3
60 35 21 44 21 59 2 75 -11 9 -14 22 -9 43 6 30 6 30 -29 24 -27 -4 -42 -1
-62 15 l-27 21 -46 -23 c-53 -26 -104 -69 -96 -82 8 -13 48 -9 82 8 25 12 36
13 54 3 14 -8 18 -14 10 -17 -6 -2 -12 -10 -12 -18 0 -8 -16 -22 -35 -30 -19
-8 -35 -19 -35 -24 0 -6 -7 -10 -15 -10 -8 0 -23 -9 -32 -20 -23 -27 -40 -25
-47 5 -7 29 -26 25 -26 -5 0 -10 -9 -35 -21 -54 -18 -32 -26 -36 -60 -36 -21
0 -39 3 -40 8 -3 31 -9 65 -19 102 -7 25 -9 66 -5 95 5 40 3 55 -9 64 -10 9
-13 19 -7 30 4 9 11 68 14 131 3 63 11 130 18 148 8 25 9 36 0 45 -8 8 -14 3
-21 -19 -8 -22 -17 -30 -33 -30 -19 1 -23 -5 -27 -44 -5 -44 -6 -45 -38 -44
-49 3 -82 29 -82 65 0 17 -5 39 -10 49 -21 39 -28 284 -10 345 4 17 11 84 14
150 3 66 13 146 21 178 8 32 12 63 9 69 -3 5 -24 8 -47 6 -48 -4 -61 16 -22
34 14 6 25 19 24 27 -1 9 1 24 5 33 10 22 -1 39 -19 32 -30 -12 -29 29 5 271
6 41 16 75 25 81 19 14 19 30 0 38 -16 6 -20 43 -7 62 4 6 17 16 30 23 17 9
21 18 17 32 -4 11 -2 26 4 32 5 7 15 37 20 67 19 105 29 142 40 153 6 6 11 28
11 49 0 41 13 48 51 28 20 -11 26 -54 9 -65 -8 -5 -7 -11 1 -21 17 -21 28 -17
39 12 18 45 30 15 30 -75 0 -68 5 -97 21 -130 35 -73 44 -42 41 127 -2 89 1
165 8 192 19 75 18 85 -10 85 -22 0 -26 -6 -34 -48 -8 -48 -9 -48 -45 -45 -31
3 -36 7 -39 31 -2 18 -9 27 -21 27 -20 0 -41 19 -41 38 0 7 14 18 30 23 35 13
38 32 10 52 -16 11 -29 12 -63 3 -23 -6 -44 -13 -47 -17 -3 -3 -27 -10 -54
-15 -62 -11 -81 -37 -48 -64 20 -17 25 -17 52 -4 16 8 32 24 35 35 4 12 14 19
23 17 19 -4 20 -32 2 -93 -18 -65 -22 -137 -9 -162 9 -17 10 -26 2 -34 -19
-19 -50 7 -57 48 -5 31 -2 41 15 55 12 10 19 24 16 33 -9 21 -65 -4 -85 -38
-15 -25 -15 -28 7 -48 l24 -22 -27 -19 c-28 -21 -35 -64 -14 -97 9 -15 6 -33
-15 -91 -14 -40 -24 -77 -21 -82 3 -5 -2 -18 -11 -28 -10 -11 -15 -26 -12 -34
3 -8 -1 -20 -9 -26 -18 -16 -18 -60 1 -87 9 -13 11 -23 4 -25 -5 -2 -19 -23
-29 -46 -16 -36 -17 -44 -5 -48 8 -3 19 -3 25 1 16 10 12 -33 -6 -60 -15 -23
-15 -25 0 -31 22 -8 20 -21 -4 -29 -11 -3 -20 -14 -20 -23 0 -25 23 -84 43
-112 21 -30 22 -81 2 -120 -12 -23 -13 -39 -4 -83 8 -45 7 -63 -7 -96 -15 -39
-15 -41 6 -71 18 -25 19 -30 5 -30 -21 0 -29 -24 -16 -49 8 -14 8 -28 1 -47
-8 -21 -7 -32 5 -51 9 -13 18 -47 20 -74 2 -28 6 -53 9 -56 3 -3 3 -17 0 -29
-4 -14 2 -43 11 -67 10 -23 19 -63 19 -89 1 -27 3 -47 6 -45 3 1 20 -8 38 -21
41 -29 41 -58 2 -107 -32 -40 -32 -66 -2 -113 13 -20 13 -25 -2 -41 -15 -16
-15 -19 -1 -31 8 -7 15 -22 15 -33 0 -19 2 -19 28 6 30 29 60 35 80 15 20 -20
14 -38 -23 -59 -27 -16 -35 -28 -35 -49 0 -35 -13 -40 -111 -40 -67 0 -82 3
-96 20 -11 12 -30 20 -49 20 -17 0 -37 6 -43 14 -6 8 -33 17 -58 21 -59 9 -89
29 -96 64 -7 33 -27 41 -108 41 -94 0 -99 21 -34 150 25 49 45 99 45 110 0 12
9 38 20 60 11 22 20 47 20 57 0 10 7 31 15 47 8 15 15 38 15 50 0 12 7 32 16
44 8 12 26 52 39 90 22 65 43 116 90 217 49 105 85 241 70 265 -11 18 -24 11
-40 -21 -9 -17 -53 -69 -97 -117 -85 -91 -138 -183 -138 -237 0 -16 -13 -57
-29 -90 -16 -33 -34 -73 -40 -88 -14 -37 -38 -44 -63 -20 -16 16 -21 42 -29
134 -8 85 -15 121 -30 141 -10 15 -19 32 -19 38 0 6 -8 27 -19 48 -10 20 -21
49 -25 64 -5 23 -2 28 28 38 39 12 50 28 90 120 16 36 37 83 47 105 40 88 77
227 89 331 6 60 15 123 19 139 10 38 7 96 -8 123 -16 30 -14 38 15 69 32 34
58 72 53 77 -2 2 -25 -4 -51 -13 -40 -14 -53 -26 -97 -90 -51 -76 -54 -91 -21
-91 28 0 34 -19 15 -40 -23 -25 -66 -144 -72 -197 -4 -30 -12 -46 -29 -58 -34
-22 -39 -5 -24 102 12 94 20 114 57 155 25 26 24 52 -1 42 -8 -3 -17 0 -21 6
-4 6 -9 99 -11 206 -2 107 -6 200 -10 206 -11 18 -24 -14 -24 -63 0 -25 -7
-68 -15 -95 -11 -37 -13 -77 -8 -164 6 -125 1 -147 -53 -220 -35 -48 -49 -45
-47 10 12 340 13 488 5 560 -11 94 -35 218 -56 295 -20 73 -13 78 141 87 71 4
181 8 246 8 100 2 121 -1 138 -16 15 -14 22 -15 32 -5 14 14 -4 48 -23 43 -7
-2 -21 5 -31 14 -11 10 -40 18 -71 20 -29 2 -100 7 -158 13 -111 10 -216 1
-277 -25 -17 -8 -36 -14 -41 -14 -18 0 -24 -38 -12 -72 5 -18 15 -69 20 -113
5 -44 14 -105 20 -135 7 -35 10 -164 8 -355 -1 -165 1 -327 5 -360 9 -69 -1
-97 -30 -79 -10 6 -23 32 -30 57 -6 25 -14 51 -18 57 -4 7 -13 33 -20 58 -7
26 -30 85 -50 132 -27 64 -35 95 -32 125 3 27 -5 66 -24 118 -26 71 -27 83
-18 140 6 34 8 86 5 116 -4 34 -2 58 5 67 8 10 10 40 6 92 -8 97 -13 112 -40
109 -31 -3 -30 37 1 41 20 3 22 9 22 61 0 32 3 73 6 91 7 30 6 32 -22 28 -24
-2 -30 1 -32 22 -2 14 -8 30 -13 36 -6 7 -4 22 6 40 8 16 15 52 15 81 0 28 5
55 10 58 6 3 10 30 10 60 0 44 5 59 25 81 20 21 23 30 13 41 -9 11 -7 17 10
29 24 17 28 47 11 91 l-10 28 -17 -22 c-9 -11 -27 -24 -39 -28 -28 -8 -29 -21
-3 -35 26 -14 26 -30 0 -30 -28 0 -37 -24 -45 -125 -8 -107 -24 -241 -32 -261
-3 -8 -11 -14 -19 -14 -11 0 -14 20 -14 94 0 58 -4 97 -11 102 -6 3 -26 -9
-45 -27 -38 -37 -46 -89 -18 -120 12 -14 17 -45 20 -130 3 -110 -2 -136 -33
-167 -20 -20 -16 -46 9 -57 32 -14 48 -52 48 -117 0 -44 4 -59 18 -67 16 -9
16 -11 0 -39 -20 -34 -23 -68 -7 -78 10 -6 23 6 32 31 3 6 7 7 11 3 4 -3 -1
-31 -11 -61 -17 -51 -20 -55 -44 -50 -18 3 -28 0 -32 -11 -15 -38 -24 -9 -25
77 -1 66 3 98 14 115 13 20 13 25 -1 44 -8 13 -15 41 -16 63 0 22 -4 49 -9 60
-11 26 -12 21 -24 -150 -2 -38 -8 -82 -11 -96 -9 -33 9 -99 36 -133 15 -20 26
-25 44 -20 21 5 24 2 27 -28 4 -44 22 -38 26 9 5 57 24 60 45 7 9 -25 24 -52
32 -61 30 -29 9 -73 -20 -44 -16 15 -78 18 -82 4 -3 -7 15 -26 39 -42 24 -17
64 -45 90 -63 37 -26 47 -39 46 -58 -1 -14 4 -35 10 -47 7 -12 12 -31 12 -42
0 -12 21 -76 46 -142 43 -112 46 -127 45 -205 l-2 -85 28 3 c24 3 30 -3 50
-46 20 -40 23 -61 21 -129 l-3 -82 -39 -6 c-21 -3 -41 -10 -45 -15 -12 -17
-121 -66 -135 -61 -14 6 -32 75 -21 86 4 3 31 5 61 4 53 -2 53 -2 63 34 6 20
6 42 1 51 -18 37 -58 140 -73 192 -58 200 -81 270 -101 310 -13 25 -27 59 -31
77 -6 28 -3 34 23 47 48 25 57 42 30 60 -12 9 -29 16 -38 16 -8 0 -38 15 -65
33 -47 31 -50 35 -49 75 1 32 -3 43 -18 48 -21 6 -45 42 -108 159 -23 44 -52
98 -64 120 -11 22 -39 67 -62 100 -22 34 -43 67 -46 75 -3 8 -28 42 -56 76
-105 129 -120 179 -69 234 12 14 39 50 58 80 168 256 180 276 177 300 -5 43
-33 35 -65 -17 -17 -26 -49 -64 -72 -83 -24 -19 -63 -54 -87 -77 -24 -24 -48
-43 -54 -43 -14 0 -27 36 -35 102 -6 46 -4 58 10 69 51 41 112 121 117 154 5
29 29 91 70 182 24 53 79 273 72 285 -4 5 1 28 9 51 9 23 18 78 21 122 2 44 7
87 10 95 15 38 32 169 25 188 -10 25 -34 29 -43 7z m-236 -857 c0 -7 -4 -19
-9 -27 -11 -17 -25 3 -17 24 7 18 26 20 26 3z m-192 -166 c15 -12 21 -24 16
-35 -11 -30 -18 -24 -52 46 -6 13 12 7 36 -11z m762 -382 c0 -15 -7 -20 -25
-20 -27 0 -32 9 -13 28 18 18 38 14 38 -8z m60 -35 c0 -8 -4 -15 -10 -15 -5 0
-10 7 -10 15 0 8 5 15 10 15 6 0 10 -7 10 -15z m-81 -150 l20 -35 -20 -19
c-17 -16 -18 -22 -8 -44 14 -31 4 -100 -14 -94 -22 7 -32 55 -18 92 10 30 10
38 -3 57 -19 27 -20 50 -4 66 18 18 24 15 47 -23z m60 -379 c9 -11 8 -15 -5
-20 -26 -10 -34 -7 -34 14 0 23 22 27 39 6z m-99 -666 c0 -11 9 -37 20 -59 12
-21 20 -54 19 -72 -2 -19 2 -50 8 -69 6 -19 14 -75 17 -125 4 -76 8 -92 26
-104 11 -7 20 -24 20 -37 0 -33 -29 -31 -72 3 -18 15 -34 28 -36 29 -1 0 -7
59 -12 130 -14 187 -16 199 -34 226 -17 27 -14 50 12 81 20 23 32 22 32 -3z
m506 -27 c-23 -150 -25 -186 -11 -220 19 -45 19 -83 0 -119 -8 -16 -15 -37
-15 -47 0 -21 -27 -34 -41 -20 -5 5 -14 32 -18 59 -9 50 -26 104 -44 138 -37
73 -27 112 50 194 61 64 88 69 79 15z m38 -140 c-9 -37 -14 -44 -25 -38 -10 7
-12 48 -2 58 17 18 33 6 27 -20z m-98 -365 c-3 -13 -6 -27 -7 -33 -1 -12 -17
25 -18 43 -1 6 6 12 15 12 12 0 15 -6 10 -22z m-52 -60 c11 -53 15 -100 9
-114 -8 -21 -40 -17 -57 8 -19 27 -21 99 -4 116 20 20 47 14 52 -10z m81 -149
c4 -5 0 -18 -8 -27 -10 -11 -13 -27 -10 -44 6 -30 -5 -36 -25 -16 -17 17 -15
49 4 76 17 24 29 28 39 11z m-497 -328 c58 -55 60 -62 43 -209 -11 -93 -18
-101 -71 -77 -49 22 -62 42 -48 69 7 13 9 66 5 143 -3 89 -2 123 7 123 6 0 35
-22 64 -49z m593 -2 c18 -13 29 -29 29 -45 0 -29 6 -30 44 -5 17 11 33 18 38
15 4 -3 8 -24 8 -47 0 -37 -4 -45 -31 -61 -28 -17 -30 -21 -24 -58 6 -35 5
-39 -11 -36 -14 2 -19 12 -19 35 -1 18 -6 38 -13 45 -7 7 -12 24 -12 38 0 14
-8 30 -20 38 -12 7 -20 23 -20 38 0 14 -5 34 -10 45 -14 26 3 25 41 -2z m-1
-204 c0 -37 -13 -47 -24 -19 -8 20 2 54 15 54 5 0 9 -16 9 -35z m760 -165 c19
-41 21 -52 10 -65 -28 -34 -74 -6 -86 53 -4 20 -2 38 6 47 23 28 46 17 70 -35z
m160 -1532 c0 -17 -5 -28 -14 -28 -18 0 -26 22 -26 68 l0 37 20 -25 c11 -14
20 -37 20 -52z m-242 10 c-2 -17 -11 -24 -30 -26 -19 -2 -28 1 -28 10 0 20 21
38 43 38 13 0 18 -6 15 -22z"/>
<path d="M8172 9408 c-12 -13 -78 -98 -145 -189 -68 -91 -141 -188 -163 -215
-22 -27 -57 -70 -78 -96 -32 -41 -40 -47 -57 -37 -17 9 -22 4 -43 -43 -13 -29
-33 -61 -44 -71 -12 -11 -23 -38 -27 -67 -4 -27 -13 -54 -21 -61 -8 -6 -14
-17 -14 -24 0 -17 -31 -42 -62 -50 -23 -6 -28 -4 -28 11 1 11 7 30 15 44 8 14
14 40 15 59 0 19 6 42 13 50 16 18 43 128 35 137 -11 10 -48 -30 -48 -51 0
-12 -7 -30 -15 -41 -8 -10 -15 -29 -15 -41 0 -12 -6 -37 -14 -55 -23 -57 -46
-135 -46 -158 0 -30 -90 -116 -147 -141 -42 -18 -43 -20 -43 -64 0 -29 -10
-67 -26 -101 -14 -30 -23 -62 -20 -71 8 -19 17 -12 43 37 41 77 86 130 110
130 29 0 29 -18 1 -66 -18 -30 -20 -41 -11 -65 10 -25 8 -31 -9 -43 -16 -12
-21 -28 -24 -88 -2 -40 -9 -91 -15 -114 -12 -41 -6 -94 11 -94 6 0 10 5 10 10
0 6 9 29 20 53 11 23 26 70 34 105 17 73 37 108 67 117 34 11 44 -8 25 -47
-10 -18 -19 -55 -22 -83 -11 -110 -12 -114 -55 -135 -28 -15 -46 -34 -61 -65
-25 -52 -21 -62 19 -42 15 8 66 27 113 42 103 33 264 91 305 110 46 22 171 64
253 86 40 11 81 23 90 28 9 5 30 13 46 17 16 5 30 14 30 19 1 17 -86 17 -144
0 -101 -30 -154 -43 -230 -60 -41 -9 -92 -23 -113 -31 -20 -8 -47 -14 -59 -14
-19 0 -80 -24 -131 -51 -45 -24 -49 22 -7 84 17 25 30 52 30 62 0 9 7 23 15
31 8 9 15 24 15 34 0 10 5 22 10 25 6 3 10 14 10 24 0 27 28 47 109 75 40 14
93 39 118 55 25 17 66 38 92 47 25 10 83 41 128 71 44 29 84 53 88 53 4 0 27
14 52 30 24 17 49 30 56 30 7 0 21 7 31 15 11 8 28 15 38 15 10 0 18 7 18 15
0 25 -61 18 -128 -15 -34 -16 -66 -30 -71 -30 -5 0 -11 -4 -13 -8 -5 -13 -74
-52 -90 -52 -9 0 -21 -6 -27 -14 -7 -8 -24 -17 -39 -20 -43 -10 -213 -87 -260
-118 -24 -15 -47 -28 -52 -28 -17 0 -21 40 -10 102 21 123 32 142 95 173 30
15 91 56 110 74 6 5 23 23 39 40 19 21 42 32 72 37 87 13 455 -52 502 -89 16
-13 82 -11 95 2 7 7 2 14 -14 21 -13 6 -35 17 -49 25 -14 8 -35 15 -47 15 -12
0 -24 4 -27 8 -10 17 -371 108 -462 117 -45 4 -57 1 -95 -25 -24 -16 -49 -30
-56 -30 -30 0 -21 26 24 73 28 29 84 97 126 153 77 101 267 381 267 392 0 3 7
13 15 22 14 16 12 50 -4 50 -3 0 -17 -10 -29 -22z m-318 -698 c13 -13 -18 -36
-63 -49 -18 -6 -41 -17 -51 -26 -10 -9 -29 -15 -42 -13 -37 5 -28 38 22 76 39
30 49 33 85 27 22 -3 44 -10 49 -15z m-306 -281 c11 -18 11 -24 -3 -39 -8 -9
-25 -55 -37 -101 -23 -93 -40 -119 -75 -119 -28 0 -41 25 -25 51 6 10 15 36
18 59 4 22 11 43 15 46 5 3 9 18 9 34 0 20 10 37 35 59 42 37 46 37 63 10z"/>
<path d="M6357 9268 c-6 -72 2 -98 23 -73 11 13 11 23 2 48 -6 18 -9 42 -6 53
3 12 1 24 -4 28 -5 3 -12 -21 -15 -56z"/>
<path d="M6064 9275 c-9 -22 -2 -26 35 -19 37 8 36 28 -2 32 -18 2 -29 -2 -33
-13z"/>
<path d="M6054 9217 c-7 -20 1 -47 16 -47 12 0 13 30 0 50 -8 12 -10 12 -16
-3z"/>
<path d="M6682 9110 c-22 -59 -35 -224 -27 -349 9 -156 9 -147 -4 -199 -15
-58 -3 -79 44 -78 30 1 48 13 108 69 106 99 183 157 209 157 13 0 65 27 116
60 51 33 98 60 105 60 14 0 284 134 332 165 48 31 89 75 71 75 -9 0 -16 -4
-16 -9 0 -4 -15 -11 -33 -14 -18 -3 -68 -21 -111 -41 -42 -20 -83 -36 -90 -36
-6 0 -21 -7 -33 -15 -11 -8 -64 -30 -116 -49 -53 -19 -104 -41 -113 -50 -9
-10 -29 -20 -45 -23 -16 -3 -32 -10 -35 -14 -3 -5 -16 -9 -29 -9 -51 0 -163
-98 -204 -179 -12 -22 -25 -42 -31 -46 -5 -3 -10 -13 -10 -21 0 -18 -38 -56
-50 -49 -5 3 -4 19 1 38 37 119 38 129 23 237 -7 58 -16 151 -20 208 -8 111
-25 157 -42 112z"/>
<path d="M6319 9016 c-2 -2 -3 -54 -1 -115 2 -83 7 -111 16 -111 10 0 15 27
18 96 3 54 3 105 1 115 -5 17 -23 25 -34 15z"/>
<path d="M3540 8951 c0 -10 30 -24 37 -17 3 3 2 9 -2 15 -8 13 -35 15 -35 2z"/>
<path d="M5970 8889 c0 -17 4 -28 10 -24 6 3 10 17 10 31 0 13 -4 24 -10 24
-5 0 -10 -14 -10 -31z"/>
<path d="M6387 8893 c-10 -9 -8 -55 2 -72 7 -11 11 -9 21 9 18 34 0 86 -23 63z"/>
<path d="M3015 8839 c-9 -13 30 -69 132 -188 45 -53 137 -166 204 -251 125
-158 225 -277 268 -317 47 -45 80 -17 49 40 -11 22 -131 173 -184 232 -14 17
-42 50 -62 75 -20 25 -66 77 -102 115 -72 78 -83 91 -161 191 -30 38 -65 79
-78 91 -25 24 -56 30 -66 12z"/>
<path d="M5970 8801 c0 -11 5 -23 10 -26 6 -3 10 3 10 14 0 11 -4 23 -10 26
-5 3 -10 -3 -10 -14z"/>
<path d="M6350 8755 c-5 -14 -10 -41 -10 -60 0 -20 -6 -35 -15 -39 -12 -4 -13
-10 -4 -30 9 -19 8 -31 -5 -57 -9 -17 -16 -38 -16 -44 0 -7 -10 -24 -21 -39
-16 -20 -20 -36 -16 -60 3 -18 2 -37 -1 -43 -22 -33 -168 -71 -203 -52 -25 13
-24 53 2 71 21 14 21 14 3 106 -9 50 -21 92 -25 92 -4 0 -14 -12 -21 -26 -7
-14 -25 -33 -41 -42 -32 -20 -55 -10 -76 33 -13 27 -14 28 -28 9 -9 -12 -23
-18 -38 -16 -22 3 -25 0 -26 -30 -2 -78 -5 -91 -21 -102 -14 -8 -22 -8 -35 2
-67 47 -79 53 -112 47 -18 -4 -47 -1 -63 6 -38 15 -57 -5 -31 -33 15 -17 13
-18 -38 -18 -44 1 -61 6 -93 30 -45 34 -86 40 -86 13 1 -39 53 -72 151 -97 31
-8 70 -21 85 -29 16 -8 47 -18 69 -21 22 -4 60 -17 85 -28 54 -25 272 -51 390
-47 14 1 34 0 45 -1 53 -5 133 -4 156 3 14 3 39 25 54 47 47 68 64 55 71 -52
3 -40 12 -94 20 -120 13 -39 13 -55 4 -83 -6 -19 -18 -35 -26 -35 -8 0 -21
-15 -29 -32 -7 -18 -29 -54 -49 -80 -36 -47 -44 -72 -26 -83 13 -8 50 13 50
29 0 7 11 23 24 35 14 13 30 36 37 52 21 52 43 33 52 -46 17 -142 6 -211 -41
-267 -12 -14 -12 -25 2 -81 18 -71 21 -218 6 -248 -17 -31 -50 -7 -50 35 0 18
-17 71 -39 117 -21 46 -42 98 -45 116 -19 87 -86 174 -86 111 0 -23 4 -36 48
-173 16 -49 38 -119 48 -155 10 -35 27 -73 36 -82 13 -13 18 -34 18 -77 0 -54
2 -60 22 -63 17 -2 25 -16 41 -73 19 -65 19 -80 8 -215 -16 -203 -16 -205 14
-147 24 46 25 55 29 325 8 452 15 552 45 610 11 23 21 53 21 67 0 30 25 95 37
95 27 -1 36 -23 40 -96 5 -84 23 -159 111 -464 17 -58 56 -135 74 -147 6 -3
23 7 38 24 27 30 27 34 26 137 -2 58 0 110 3 114 3 5 16 14 29 21 12 6 22 17
22 22 0 6 13 28 28 48 16 20 38 57 51 82 22 48 57 87 67 76 15 -15 26 -150 30
-350 3 -188 6 -221 21 -242 22 -30 35 -31 48 -3 15 31 41 46 57 30 10 -10 9
-19 -6 -45 -41 -69 -146 -283 -146 -297 0 -8 -7 -24 -15 -34 -8 -11 -15 -41
-15 -67 0 -47 -1 -49 -43 -67 -24 -11 -54 -34 -68 -51 -13 -18 -34 -43 -46
-55 -13 -13 -23 -28 -23 -35 0 -6 -11 -17 -25 -23 -21 -9 -34 -7 -79 15 -77
38 -107 35 -153 -11 -138 -138 -174 -190 -159 -229 6 -14 15 -8 55 31 49 48
49 48 87 36 41 -13 64 -28 64 -40 0 -4 -16 -22 -36 -41 -55 -53 -132 -157
-139 -190 -4 -17 -13 -29 -22 -29 -9 0 -40 -22 -69 -50 -45 -43 -59 -50 -93
-50 -22 0 -42 4 -45 8 -9 15 48 146 89 205 8 12 15 29 15 38 0 9 6 22 14 28 8
7 16 33 19 59 8 86 29 173 43 179 23 8 16 43 -10 54 -32 15 -36 32 -36 179 -1
69 -5 145 -11 170 -5 25 -13 75 -18 111 -5 37 -12 73 -17 80 -9 16 -25 160
-27 259 -2 57 -4 65 -22 65 -14 0 -22 -10 -28 -35 -12 -48 -57 -189 -70 -220
-16 -40 -21 -231 -7 -337 7 -54 12 -147 11 -208 0 -129 11 -218 40 -296 19
-53 19 -58 4 -100 -9 -24 -20 -60 -24 -79 -4 -19 -14 -46 -23 -60 -9 -14 -19
-45 -22 -69 -4 -25 -21 -79 -38 -120 -25 -60 -32 -91 -32 -148 -2 -123 45
-125 59 -3 7 59 24 88 46 75 19 -12 39 -72 39 -116 0 -24 10 -60 24 -88 61
-116 65 -137 69 -301 2 -95 9 -169 17 -190 7 -19 17 -44 21 -55 4 -11 11 -30
14 -42 3 -12 22 -37 41 -55 19 -18 34 -38 34 -44 0 -15 48 -74 61 -74 13 0 11
97 -2 122 -22 41 -27 131 -13 213 27 153 28 164 12 183 -11 12 -16 43 -16 112
-2 93 -14 146 -54 235 -16 37 -79 125 -88 125 -14 0 -60 49 -60 64 0 8 9 18
20 21 22 7 74 -19 165 -84 28 -19 68 -47 90 -62 22 -15 58 -46 80 -69 22 -23
56 -49 75 -58 19 -9 41 -23 48 -32 10 -11 15 -12 18 -2 6 14 50 16 58 3 5 -8
124 -69 166 -85 8 -4 34 -17 58 -30 23 -14 56 -27 72 -31 16 -4 32 -11 35 -16
8 -12 52 -12 59 0 7 11 -27 34 -119 80 -75 38 -134 85 -122 98 6 6 77 -25 127
-56 8 -5 22 -12 30 -15 8 -4 29 -15 45 -25 32 -21 65 -27 65 -13 0 5 -17 17
-37 28 -21 10 -42 24 -48 29 -5 6 -35 27 -66 48 -88 58 -137 105 -144 135 -6
31 -121 134 -179 162 -30 15 -50 60 -26 60 7 0 24 12 38 28 15 15 55 51 88 80
51 44 66 52 88 46 14 -3 26 -10 26 -14 0 -8 20 -21 162 -114 48 -31 91 -56 96
-56 5 0 15 -7 22 -15 7 -8 27 -17 46 -21 19 -3 37 -10 40 -15 3 -5 12 -9 20
-9 30 0 2 45 -75 118 -42 40 -113 107 -157 150 -67 64 -80 81 -74 98 5 11 59
63 121 116 63 52 126 107 141 121 82 77 90 80 242 93 105 9 159 10 211 1 144
-22 203 -7 122 32 -53 26 -122 40 -234 48 -81 5 -83 6 -83 32 0 18 9 31 30 43
17 9 30 24 30 33 0 28 -41 16 -101 -30 l-59 -45 -212 3 c-246 2 -251 5 -174
81 29 28 46 54 46 68 0 38 68 98 110 98 33 0 91 19 305 98 48 17 190 80 295
129 41 20 89 42 105 49 31 13 155 70 258 117 54 26 78 49 63 65 -4 3 -16 1
-26 -6 -11 -7 -26 -12 -35 -12 -8 0 -29 -6 -47 -14 -18 -8 -71 -29 -118 -46
-47 -18 -112 -45 -145 -61 -33 -16 -65 -29 -71 -29 -6 0 -33 -9 -60 -21 -27
-11 -58 -24 -69 -28 -11 -5 -37 -16 -58 -25 -21 -9 -42 -16 -48 -16 -5 0 -23
-10 -39 -21 -28 -21 -80 -21 -80 0 0 5 22 26 49 46 28 20 87 68 133 106 46 39
114 89 151 111 77 46 97 72 69 87 -19 10 -100 -36 -272 -156 -187 -130 -209
-151 -210 -199 0 -32 -26 -64 -52 -64 -8 0 -33 -18 -56 -40 -22 -22 -45 -40
-51 -40 -21 0 -10 75 19 130 17 30 30 64 30 75 0 28 41 96 65 109 11 6 34 21
52 33 17 13 42 28 55 33 26 12 40 20 123 74 33 21 76 53 95 72 20 19 77 55
128 81 51 27 93 53 95 58 3 13 -71 19 -86 7 -7 -5 -28 -13 -47 -17 -19 -4 -51
-18 -72 -31 -21 -13 -40 -24 -42 -24 -2 0 -38 -16 -79 -35 -41 -19 -81 -35
-89 -35 -8 0 -23 -7 -34 -15 -24 -18 -64 -19 -64 -1 0 7 11 34 25 60 29 55 31
72 9 84 -13 7 8 33 114 140 122 124 152 146 167 122 3 -5 15 -10 26 -10 11 0
44 -10 72 -23 89 -40 190 -73 262 -86 22 -4 49 -12 60 -18 26 -14 97 -33 160
-42 28 -5 58 -11 67 -15 9 -4 25 -3 34 2 14 8 31 3 69 -19 29 -16 57 -29 64
-29 7 0 29 -7 48 -16 24 -12 37 -14 45 -6 7 7 4 12 -11 17 -12 3 -21 11 -21
17 0 16 -28 35 -87 63 -29 13 -53 28 -53 32 0 5 -16 17 -36 28 -20 10 -44 30
-54 43 -10 13 -38 33 -62 46 -24 13 -68 37 -99 55 -123 69 -289 104 -358 75
-18 -8 -45 -14 -58 -14 -34 0 -142 -54 -179 -89 -50 -47 -228 -235 -256 -271
-16 -18 -28 -41 -28 -50 0 -9 -5 -21 -11 -27 -6 -6 -9 -17 -6 -25 3 -9 7 -7
13 6 8 21 40 56 50 56 4 0 13 8 20 18 13 16 13 16 14 0 0 -10 -4 -18 -10 -18
-5 0 -10 -9 -10 -21 0 -11 -6 -33 -14 -47 -8 -15 -22 -47 -32 -70 -28 -68
-124 -120 -140 -77 -3 8 1 43 10 77 23 92 5 388 -25 425 -19 22 -19 194 -1
215 7 9 12 31 11 49 -3 36 15 79 31 79 6 0 10 7 10 15 0 8 -4 15 -9 15 -18 0
-61 -42 -61 -60 0 -23 -39 -38 -51 -19 -5 8 -9 23 -9 34 0 11 -9 49 -20 85
-11 36 -20 77 -20 91 0 15 -7 33 -16 40 -12 9 -15 24 -11 50 7 55 -16 73 -89
70 -38 -1 -52 -26 -29 -51 13 -14 15 -41 13 -151 -1 -83 2 -142 9 -154 6 -11
14 -51 18 -90 4 -38 14 -82 21 -97 20 -39 18 -55 -16 -105 -16 -24 -30 -47
-30 -50 0 -3 -13 -20 -28 -38 -16 -17 -37 -53 -48 -79 -18 -43 -43 -64 -63
-52 -5 3 -14 27 -20 53 -15 60 -31 103 -40 103 -4 0 -15 19 -25 43 -11 23 -32
69 -48 102 -32 65 -31 83 5 136 12 19 31 57 41 84 10 28 29 68 41 90 26 46 75
166 75 183 0 7 -7 12 -15 12 -8 0 -15 -4 -15 -10 0 -5 -9 -17 -19 -27 -16 -15
-73 -114 -101 -173 -34 -73 -48 -100 -67 -129 -13 -19 -23 -42 -23 -52 0 -9
-12 -31 -26 -48 -14 -17 -29 -43 -33 -58 -4 -16 -15 -29 -24 -31 -15 -3 -17 7
-17 80 0 46 -3 99 -6 119 -6 33 -3 37 31 57 41 25 39 37 -8 47 -41 9 -47 19
-47 79 0 27 -6 75 -14 105 -8 31 -18 69 -21 84 -3 16 -20 42 -37 57 -23 22
-29 34 -25 51 4 14 0 30 -9 40 -10 11 -12 23 -6 40 5 13 7 69 6 124 -3 80 -7
101 -19 103 -9 2 -19 -7 -25 -23z m-416 -311 c20 -19 20 -44 2 -69 -14 -19
-15 -19 -52 1 -41 21 -53 46 -34 69 16 20 65 19 84 -1z m-294 -50 c0 -9 -7
-14 -17 -12 -25 5 -28 28 -4 28 12 0 21 -6 21 -16z m640 -114 c0 -5 -7 -10
-15 -10 -8 0 -15 5 -15 10 0 6 7 10 15 10 8 0 15 -4 15 -10z m900 -636 c0 -15
-6 -24 -15 -24 -16 0 -19 17 -9 44 9 22 24 10 24 -20z m60 -495 c0 -12 -7 -19
-20 -19 -22 0 -26 20 -8 38 15 15 28 6 28 -19z m20 -775 c7 -7 -11 -21 -64
-48 -42 -21 -96 -58 -122 -82 -25 -24 -50 -44 -54 -44 -5 0 -19 13 -32 28 -13
16 -40 41 -60 57 -21 15 -38 33 -38 41 0 18 56 48 100 54 65 9 259 5 270 -6z
m-349 -233 c-7 -12 -16 -21 -21 -21 -17 0 -19 17 -3 39 20 29 40 13 24 -18z
m-146 -21 c17 -12 45 -27 63 -35 50 -22 41 -45 -42 -114 -61 -50 -75 -67 -78
-94 -3 -28 -7 -32 -37 -35 -19 -2 -48 3 -65 12 -17 8 -39 17 -48 20 -31 9 -20
39 45 117 34 42 75 93 90 113 15 20 31 36 35 36 4 0 21 -9 37 -20z m221 -2
c-3 -7 -9 -21 -12 -30 -10 -27 -20 -21 -18 10 3 35 1 32 20 32 9 0 13 -5 10
-12z m191 -172 c23 -21 32 -36 24 -40 -6 -4 -30 11 -53 33 -32 30 -38 41 -25
41 10 0 34 -15 54 -34z m-419 -243 c2 -8 -6 -13 -22 -13 -17 0 -26 5 -26 16 0
19 41 16 48 -3z m-38 -53 c0 -5 -7 -10 -15 -10 -8 0 -15 5 -15 10 0 6 7 10 15
10 8 0 15 -4 15 -10z m140 -39 c0 -12 -20 -25 -27 -18 -7 7 6 27 18 27 5 0 9
-4 9 -9z m-22 -43 c3 -13 -3 -18 -21 -18 -29 0 -37 7 -30 27 8 19 47 12 51 -9z
m-428 -209 c0 -10 -4 -19 -9 -19 -12 0 -23 29 -15 41 8 14 24 0 24 -22z"/>
<path d="M5530 8741 l-25 -20 41 -41 c36 -37 44 -41 63 -31 31 17 27 47 -8 54
-20 4 -32 15 -38 32 l-9 27 -24 -21z"/>
<path d="M5446 8724 c-7 -19 12 -47 25 -38 5 3 9 16 9 30 0 27 -24 33 -34 8z"/>
<path d="M4456 8714 c-17 -44 5 -93 28 -63 6 8 23 22 38 32 38 24 27 47 -22
47 -25 0 -40 -5 -44 -16z"/>
<path d="M5957 8716 c-6 -15 1 -26 15 -26 4 0 8 9 8 20 0 23 -15 27 -23 6z"/>
<path d="M4308 8657 c-2 -36 -2 -110 0 -166 4 -90 6 -101 24 -107 13 -4 24 -1
29 7 13 21 11 57 -3 62 -10 3 -8 12 5 36 16 26 16 35 6 47 -12 15 -16 41 -22
139 -1 28 -7 41 -18 43 -14 2 -17 -9 -21 -61z"/>
<path d="M4370 8675 c0 -8 5 -15 10 -15 6 0 10 7 10 15 0 8 -4 15 -10 15 -5 0
-10 -7 -10 -15z"/>
<path d="M5964 8656 c-4 -9 -4 -20 0 -23 3 -4 12 -1 18 5 9 9 9 15 0 24 -9 9
-13 7 -18 -6z"/>
<path d="M6615 8313 c-20 -43 -41 -86 -46 -95 -20 -39 -4 -94 19 -65 22 26
121 225 115 231 -4 3 -16 6 -28 6 -18 0 -30 -16 -60 -77z"/>
<path d="M5315 8237 c-16 -5 -39 -13 -50 -18 -11 -4 -29 -9 -40 -11 -14 -2
-25 -18 -37 -55 -9 -28 -28 -68 -42 -89 -32 -48 -33 -84 -3 -112 32 -30 55
-28 63 6 16 75 57 136 117 177 64 42 103 30 99 -32 -2 -29 1 -40 16 -48 11 -5
37 -19 57 -29 33 -17 38 -17 52 -3 14 14 13 18 -11 50 -14 18 -26 36 -26 39 0
11 76 15 105 5 17 -5 50 -12 74 -16 54 -7 64 -28 22 -44 -32 -12 -38 -21 -21
-32 5 -3 7 -12 3 -21 -7 -18 39 -63 90 -86 32 -15 37 -22 37 -50 0 -26 -9 -41
-45 -73 -25 -22 -45 -47 -45 -55 0 -12 -7 -15 -28 -12 -24 3 -30 -2 -45 -34
-23 -48 -10 -66 32 -41 16 9 40 17 54 17 14 0 39 11 55 25 43 36 79 46 137 37
39 -6 51 -12 53 -27 2 -11 10 -27 18 -35 8 -10 14 -45 15 -95 2 -107 5 -116
34 -109 23 6 24 5 22 -75 -2 -90 10 -118 40 -89 11 11 17 36 18 75 2 58 -6 85
-32 111 -16 16 -8 33 12 26 19 -8 38 41 28 70 -7 21 -6 43 3 84 3 15 0 22 -11
22 -11 0 -15 -11 -15 -39 0 -22 -4 -42 -8 -45 -12 -7 -62 49 -62 70 0 9 28 43
63 75 47 44 59 60 50 69 -13 14 -33 5 -33 -15 0 -32 -71 -23 -84 11 -10 26 11
44 46 37 26 -5 29 -3 26 13 -2 10 -14 24 -26 30 -13 6 -29 17 -35 23 -6 6 -23
11 -38 11 -15 0 -31 5 -34 10 -3 6 -15 10 -26 10 -11 0 -33 10 -50 22 l-30 23
-18 -23 c-25 -34 -75 -28 -79 10 -4 30 12 42 71 52 26 5 52 2 82 -10 33 -12
59 -15 97 -10 29 4 74 7 100 6 36 -1 62 7 113 35 36 19 74 35 85 35 31 0 23
27 -11 39 -43 15 -96 14 -144 -3 -47 -17 -221 -11 -245 9 -32 25 -138 45 -335
65 -45 4 -94 14 -110 22 -37 19 -130 27 -170 15z m675 -357 c27 0 43 -39 24
-61 -8 -8 -14 -20 -14 -26 0 -6 -6 -15 -13 -22 -18 -14 -37 5 -37 39 0 14 -9
40 -20 58 -26 43 -25 45 10 27 16 -8 38 -15 50 -15z"/>
<path d="M4527 8223 c-10 -10 -8 -63 2 -63 11 0 21 25 21 51 0 19 -11 25 -23
12z"/>
<path d="M6852 8110 c-38 -50 -25 -70 15 -23 23 26 30 53 15 53 -5 0 -18 -13
-30 -30z"/>
<path d="M5624 8075 c-4 -10 -1 -21 7 -26 23 -14 31 -10 27 13 -4 27 -26 35
-34 13z"/>
<path d="M6268 7972 c-7 -11 -23 -24 -35 -31 -26 -13 -29 -38 -10 -65 17 -24
53 -14 63 17 3 12 15 32 26 44 12 12 18 29 15 37 -9 22 -43 20 -59 -2z"/>
<path d="M5454 7944 c8 -21 -11 -44 -36 -44 -11 0 -18 -5 -16 -12 3 -8 18 -12
40 -10 28 3 40 -2 56 -22 23 -30 42 -34 42 -8 0 26 20 42 52 42 30 0 52 28 42
55 -7 17 -35 15 -102 -8 -29 -10 -35 -9 -43 6 -13 22 -44 23 -35 1z"/>
<path d="M6909 7867 c-63 -53 -102 -137 -64 -137 8 0 15 3 15 8 0 4 16 24 34
46 19 21 40 49 47 62 18 35 0 47 -32 21z"/>
<path d="M5356 7796 c-16 -25 -16 -26 4 -26 23 0 38 26 23 41 -7 7 -16 1 -27
-15z"/>
<path d="M5439 7767 c-13 -29 -65 -53 -82 -39 -20 17 -82 0 -85 -24 -2 -17 7
-26 47 -43 27 -11 61 -21 74 -21 14 0 27 -7 31 -15 3 -8 17 -15 30 -15 14 0
36 -5 49 -11 31 -14 67 3 67 32 0 17 -4 20 -24 15 -24 -6 -116 28 -116 42 0
14 16 30 37 36 26 8 37 34 22 52 -17 21 -38 17 -50 -9z"/>
<path d="M5572 7698 c-7 -7 -12 -16 -12 -20 0 -12 28 -10 36 3 10 17 -10 31
-24 17z"/>
<path d="M5888 7645 c-6 -14 -8 -28 -4 -32 11 -12 41 12 44 36 5 30 -26 27
-40 -4z"/>
<path d="M5585 7450 c-3 -5 -4 -14 0 -20 8 -13 35 -1 35 16 0 16 -26 19 -35 4z"/>
<path d="M6565 7391 c-3 -11 -12 -22 -20 -25 -17 -6 -21 -46 -5 -46 6 0 15 11
20 25 5 14 14 25 20 25 5 0 10 9 10 20 0 25 -17 26 -25 1z"/>
<path d="M5378 7383 c-20 -24 -12 -43 18 -43 22 0 25 4 22 27 -4 33 -20 39
-40 16z"/>
<path d="M5103 7245 c-3 -9 -3 -18 0 -21 9 -9 27 6 27 22 0 19 -19 18 -27 -1z"/>
<path d="M6084 7245 c-8 -21 10 -39 30 -32 22 9 20 24 -4 37 -16 9 -22 8 -26
-5z"/>
<path d="M5480 7210 c0 -16 4 -30 9 -30 12 0 19 21 13 43 -7 28 -22 20 -22
-13z"/>
<path d="M5360 7196 c0 -41 16 -55 38 -33 13 13 13 21 4 42 -17 38 -42 32 -42
-9z"/>
<path d="M7013 7184 c-30 -25 -43 -43 -43 -61 0 -40 -31 -83 -60 -83 -51 0
-359 -327 -376 -400 -3 -14 -19 -52 -36 -85 -21 -44 -29 -71 -26 -100 3 -39 4
-40 41 -43 124 -10 268 103 377 296 19 34 43 65 53 68 9 3 17 11 17 18 0 7 15
43 34 80 19 38 32 75 29 83 -3 8 -2 18 3 22 15 10 48 81 41 87 -4 4 -21 -7
-39 -25 -20 -20 -35 -28 -41 -22 -11 11 11 51 49 90 35 35 53 112 26 111 -4 0
-26 -16 -49 -36z"/>
<path d="M3203 7184 c-9 -25 24 -48 127 -87 79 -29 241 -104 300 -137 8 -5 22
-11 30 -15 16 -6 29 -14 150 -83 108 -62 109 -62 178 -115 61 -46 92 -54 92
-24 0 17 -48 84 -81 113 -42 37 -152 109 -204 134 -27 13 -66 33 -85 45 -55
33 -272 123 -339 141 -34 8 -73 22 -88 30 -37 18 -72 18 -80 -2z"/>
<path d="M5745 7170 c-10 -17 -24 -120 -18 -135 11 -31 21 -13 25 48 2 34 8
70 12 80 9 18 -8 25 -19 7z"/>
<path d="M5997 7133 c-4 -3 -7 -19 -7 -35 0 -40 24 -31 28 10 3 30 -6 41 -21
25z"/>
<path d="M5370 7100 c0 -13 5 -20 13 -17 6 2 12 10 12 17 0 7 -6 15 -12 18 -8
2 -13 -5 -13 -18z"/>
<path d="M6687 7027 c-20 -30 -43 -59 -51 -66 -19 -16 -21 -41 -3 -41 6 0 33
17 59 38 87 69 111 122 54 122 -18 0 -33 -13 -59 -53z"/>
<path d="M5350 7000 c0 -13 7 -20 18 -20 26 0 34 11 21 27 -17 20 -39 16 -39
-7z"/>
<path d="M6014 6976 c-8 -35 -1 -60 17 -64 21 -4 31 32 19 64 -12 31 -28 31
-36 0z"/>
<path d="M5970 6927 c0 -23 4 -36 10 -32 13 8 13 35 0 55 -7 11 -10 5 -10 -23z"/>
<path d="M7118 6927 c-28 -23 -108 -169 -108 -198 0 -9 -9 -26 -20 -39 -30
-35 -8 -50 23 -16 27 29 140 251 135 265 -2 5 -15 0 -30 -12z"/>
<path d="M5334 6894 c-4 -14 -2 -35 3 -47 10 -20 11 -19 21 17 6 22 9 43 6 48
-10 16 -24 8 -30 -18z"/>
<path d="M6016 6855 c-3 -9 -6 -30 -6 -46 0 -26 -2 -29 -19 -19 -26 14 -31 3
-21 -50 5 -25 5 -49 2 -55 -4 -5 -10 -39 -14 -75 -14 -128 -24 -177 -41 -203
-9 -15 -17 -44 -17 -65 0 -21 -7 -61 -15 -88 -11 -37 -15 -103 -15 -274 0
-124 2 -254 6 -290 3 -36 6 -78 6 -95 0 -28 0 -28 8 -7 11 27 27 28 35 2 7
-21 -10 -60 -25 -60 -6 0 -10 -7 -10 -15 0 -8 6 -15 14 -15 8 0 17 -12 20 -26
10 -40 30 -22 36 32 3 27 9 55 14 63 5 7 10 88 12 179 2 92 7 175 10 184 8 28
24 21 24 -9 0 -37 14 -57 34 -50 21 8 21 41 0 58 -12 9 -14 23 -10 53 4 25 0
57 -9 81 -8 22 -14 54 -15 71 0 17 -7 37 -16 44 -12 11 -14 28 -9 94 6 86 30
241 46 292 16 54 11 102 -11 109 -25 8 -30 75 -5 75 18 0 28 35 23 80 -3 36
-22 51 -32 25z m-86 -924 c0 -22 -16 -36 -24 -22 -8 12 3 41 15 41 5 0 9 -9 9
-19z"/>
<path d="M5302 6748 c-21 -13 -30 -24 -24 -30 15 -15 50 0 57 23 10 29 4 31
-33 7z"/>
<path d="M6072 6750 c-26 -21 -27 -29 -8 -55 12 -16 16 -17 30 -6 17 14 21 48
8 68 -5 8 -13 6 -30 -7z"/>
<path d="M5844 6725 c-7 -29 0 -55 16 -55 15 0 34 46 27 64 -10 25 -36 19 -43
-9z"/>
<path d="M7283 6687 c-24 -11 -43 -24 -43 -27 0 -10 87 -28 98 -21 16 11 22
43 11 57 -14 17 -15 17 -66 -9z"/>
<path d="M8363 6674 c-4 -12 5 -27 28 -49 29 -26 46 -33 98 -38 34 -4 70 -11
79 -16 9 -5 60 -12 112 -16 52 -4 103 -12 113 -17 10 -5 39 -13 65 -18 26 -5
76 -16 112 -25 36 -8 85 -20 110 -25 25 -6 59 -16 75 -24 17 -7 57 -16 90 -19
33 -3 51 -3 40 0 -11 3 -26 14 -33 24 -9 13 -25 19 -52 19 -21 0 -41 4 -45 10
-3 5 -38 19 -78 30 -40 12 -85 26 -102 31 -63 21 -262 72 -310 80 -130 21
-202 36 -220 46 -42 22 -75 24 -82 7z"/>
<path d="M5636 6653 c-4 -9 -2 -21 4 -27 7 -7 10 -2 10 17 0 31 -5 34 -14 10z"/>
<path d="M8020 6634 c-89 -23 -89 -23 -55 -50 17 -13 38 -24 47 -24 20 0 134
-36 160 -51 10 -5 25 -9 33 -9 8 0 57 -20 108 -43 50 -24 120 -54 154 -66 34
-13 76 -34 94 -47 18 -13 40 -24 50 -24 9 0 22 -7 29 -15 7 -9 29 -15 51 -15
28 0 47 -8 71 -28 55 -47 81 -62 109 -62 15 0 32 -7 39 -15 7 -8 17 -15 22
-15 5 0 24 -11 42 -25 38 -29 56 -32 56 -10 0 14 -41 43 -194 138 -25 15 -48
37 -51 47 -5 16 -15 20 -46 20 -50 0 -79 15 -79 40 0 22 -16 35 -25 20 -10
-17 -50 -11 -86 13 -19 12 -46 28 -61 34 -18 8 -26 18 -22 27 4 11 -6 20 -33
32 -21 9 -51 23 -68 31 -52 27 -87 36 -223 60 -25 4 -32 9 -27 21 6 15 -11 32
-30 31 -5 0 -35 -7 -65 -15z"/>
<path d="M5302 6617 c-12 -14 -5 -57 9 -57 4 0 15 10 23 22 11 16 13 25 4 35
-13 16 -23 16 -36 0z"/>
<path d="M5386 6462 c-3 -4 10 -23 27 -42 30 -32 32 -33 35 -13 5 36 -46 81
-62 55z"/>
<path d="M5300 6434 c0 -14 5 -24 11 -22 6 2 10 7 10 11 -1 4 -1 14 -1 22 0 8
-4 15 -10 15 -5 0 -10 -12 -10 -26z"/>
<path d="M5092 6397 c-6 -7 -16 -24 -21 -37 -6 -14 -15 -32 -20 -40 -80 -128
-100 -190 -79 -247 l11 -31 18 21 c25 33 47 90 55 144 6 46 11 59 47 131 9 19
17 40 17 47 0 20 -16 27 -28 12z"/>
<path d="M4225 6391 c-5 -8 -9 -38 -10 -65 -1 -28 -4 -58 -8 -66 -4 -8 -7 -31
-7 -50 0 -19 -2 -61 -6 -93 -3 -32 -3 -68 0 -81 5 -21 10 -23 38 -17 40 8 45
26 47 161 1 67 -3 101 -13 115 -8 11 -18 41 -23 65 -6 33 -11 41 -18 31z"/>
<path d="M6054 6345 c-3 -19 -3 -50 0 -69 4 -19 2 -55 -4 -80 -17 -78 10 -130
33 -62 6 19 5 40 -3 66 -11 32 -10 45 5 84 16 43 16 47 1 71 -9 14 -18 25 -21
25 -2 0 -7 -16 -11 -35z"/>
<path d="M4166 6353 c-12 -13 -6 -53 9 -53 9 0 15 9 15 24 0 26 -12 40 -24 29z"/>
<path d="M5708 6214 c-12 -11 4 -34 24 -34 13 0 18 6 16 17 -3 18 -29 29 -40
17z"/>
<path d="M6442 6047 c-18 -18 -32 -38 -32 -45 0 -7 -4 -12 -10 -12 -5 0 -13
-12 -16 -27 -4 -16 -11 -31 -17 -34 -5 -4 -7 -14 -5 -22 2 -11 23 8 63 56 33
40 63 74 68 75 12 6 8 42 -6 42 -7 0 -27 -15 -45 -33z"/>
<path d="M8505 6035 c-16 -8 -45 -14 -63 -15 -18 0 -52 -10 -75 -22 -40 -20
-97 -39 -182 -59 -22 -5 -49 -14 -60 -19 -11 -5 -58 -23 -105 -40 -131 -48
-214 -81 -224 -91 -6 -5 -18 -9 -28 -9 -10 0 -43 -16 -73 -36 -50 -33 -59 -36
-110 -32 -39 3 -59 1 -66 -9 -8 -9 -26 -11 -63 -7 -41 5 -55 3 -65 -10 -23
-28 3 -43 87 -51 42 -4 102 -15 132 -26 30 -10 61 -19 70 -19 9 0 32 -17 52
-37 33 -36 46 -59 98 -178 12 -27 32 -71 45 -96 13 -26 26 -62 30 -80 4 -19
10 -38 13 -44 6 -9 63 -171 82 -232 10 -30 33 -48 50 -38 5 3 2 18 -6 33 -7
15 -14 41 -14 57 0 17 -7 39 -15 49 -8 11 -15 32 -15 47 0 14 -7 43 -15 63 -8
20 -22 60 -30 88 -30 110 -59 180 -102 246 -27 41 -30 98 -6 124 15 17 15 20
3 28 -8 6 -31 10 -51 10 -46 0 -66 21 -51 54 8 19 24 27 67 36 65 13 121 35
130 50 3 5 13 10 20 10 8 0 66 25 130 55 63 30 120 55 127 55 8 0 24 7 37 16
23 16 56 27 136 44 51 11 133 42 163 60 51 33 9 53 -53 25z"/>
<path d="M4241 5991 c-20 -15 -22 -21 -12 -40 8 -15 20 -21 34 -19 26 4 34 35
15 60 -12 16 -14 16 -37 -1z"/>
<path d="M5430 5925 c0 -8 5 -15 10 -15 6 0 10 7 10 15 0 8 -4 15 -10 15 -5 0
-10 -7 -10 -15z"/>
<path d="M6906 5801 c-7 -11 193 -72 284 -86 25 -4 60 -13 79 -21 31 -13 81
-10 81 5 0 10 -100 51 -123 51 -10 0 -27 5 -38 10 -64 35 -269 64 -283 41z"/>
<path d="M5390 5752 c-25 -20 -20 -42 9 -42 22 0 41 19 41 42 0 23 -22 23 -50
0z"/>
<path d="M5455 5669 c-10 -15 3 -25 16 -12 7 7 7 13 1 17 -6 3 -14 1 -17 -5z"/>
<path d="M5395 5629 c-4 -6 -5 -13 -2 -16 7 -7 27 6 27 18 0 12 -17 12 -25 -2z"/>
<path d="M5325 5590 c-6 -10 0 -73 11 -112 3 -11 15 -18 30 -18 l25 0 -22 29
c-19 25 -20 34 -10 62 6 17 11 36 11 40 0 13 -38 11 -45 -1z"/>
<path d="M7873 5559 c-7 -7 -13 -16 -13 -21 0 -15 75 -58 101 -58 15 0 32 -7
39 -14 6 -8 33 -23 58 -33 26 -9 63 -28 82 -41 19 -13 47 -26 62 -29 15 -3 33
-12 39 -19 6 -8 17 -14 24 -14 8 0 27 -8 44 -17 16 -10 33 -14 38 -9 4 5 2 11
-6 14 -7 2 -22 13 -32 23 -11 11 -23 19 -28 19 -4 0 -26 12 -47 27 -84 57
-157 93 -190 93 -29 0 -35 4 -40 28 -3 15 -7 31 -8 36 -1 5 -15 10 -32 12 -16
1 -40 5 -54 9 -15 4 -30 1 -37 -6z"/>
<path d="M6049 5533 c-1 -10 -1 -24 0 -31 1 -7 -8 -26 -20 -43 -24 -34 -24
-35 12 -44 25 -6 26 -6 27 59 0 36 -4 68 -9 71 -5 4 -10 -2 -10 -12z"/>
<path d="M6004 5526 c-4 -9 -4 -20 0 -23 3 -4 12 -1 18 5 9 9 9 15 0 24 -9 9
-13 7 -18 -6z"/>
<path d="M5478 5506 c-8 -20 -9 -29 0 -38 16 -16 44 9 40 35 -5 31 -26 32 -40
3z"/>
<path d="M6682 5468 c-18 -18 -14 -46 9 -58 11 -7 27 -27 35 -45 17 -41 28
-49 43 -31 8 10 9 16 2 21 -6 3 -19 25 -30 48 -29 64 -44 80 -59 65z"/>
<path d="M6830 5409 c0 -6 13 -28 28 -48 49 -63 70 -105 66 -131 -2 -14 -8
-92 -14 -175 -13 -180 3 -484 35 -665 3 -19 8 -50 11 -67 3 -18 13 -37 24 -43
17 -9 20 -6 28 22 4 18 12 32 17 31 7 -3 10 -37 16 -173 0 -14 3 -41 6 -60 4
-30 6 -32 15 -16 6 10 10 75 10 145 0 80 5 135 13 151 25 51 35 327 21 585 -8
150 -10 162 -35 195 -14 19 -35 52 -46 74 -11 21 -29 45 -41 52 -11 8 -48 41
-82 74 -62 61 -72 68 -72 49z m199 -458 c17 -11 7 -41 -13 -41 -19 0 -28 14
-20 34 7 18 13 19 33 7z"/>
<path d="M5330 5360 c0 -24 25 -27 34 -4 9 23 8 24 -14 24 -13 0 -20 -7 -20
-20z"/>
<path d="M5366 5312 c-4 -12 3 -34 21 -61 33 -51 61 -52 82 -3 12 27 20 32 48
32 26 0 33 4 33 20 0 31 -51 27 -84 -7 l-27 -26 -33 32 c-32 31 -34 32 -40 13z"/>
<path d="M5933 5293 c-24 -9 -13 -24 15 -21 15 2 26 8 25 13 -2 12 -23 16 -40
8z"/>
<path d="M6795 5277 c-22 -7 -50 -18 -62 -24 -12 -7 -35 -13 -51 -13 -44 0
-82 -34 -82 -75 0 -46 21 -50 84 -15 29 17 65 30 80 30 14 0 42 6 61 14 38 16
56 56 35 81 -14 17 -11 17 -65 2z"/>
<path d="M8364 5274 c3 -9 6 -18 6 -20 0 -2 9 -4 20 -4 23 0 26 10 8 28 -18
18 -41 15 -34 -4z"/>
<path d="M4157 5268 c-14 -10 -18 -24 -15 -53 3 -37 6 -40 54 -60 67 -27 80
-36 88 -61 5 -15 -1 -31 -18 -51 l-25 -29 14 -100 c7 -54 16 -173 20 -263 5
-123 11 -170 22 -188 12 -18 15 -49 14 -132 -1 -59 2 -119 7 -132 6 -15 5 -35
-1 -53 -7 -20 -7 -34 2 -47 6 -10 11 -30 11 -44 0 -14 7 -42 16 -63 9 -20 20
-75 24 -122 6 -69 5 -88 -7 -102 -18 -20 -9 -38 18 -38 25 0 24 -22 -1 -45
-24 -21 -26 -45 -5 -45 10 0 15 -10 15 -33 0 -24 -6 -35 -22 -42 -19 -9 -23
-17 -21 -55 1 -24 6 -55 12 -69 5 -14 12 -38 15 -53 5 -20 13 -28 27 -28 11 0
30 -5 42 -12 12 -6 55 -12 95 -13 84 -3 96 7 69 59 -9 17 -19 43 -23 58 -3 15
-12 32 -20 39 -8 6 -14 21 -14 33 0 33 -18 46 -49 35 -24 -8 -26 -14 -23 -44
5 -43 -11 -46 -28 -5 -11 28 -11 33 8 50 12 11 35 20 52 20 l30 0 -6 58 c-3
31 -10 70 -15 86 -5 16 -9 47 -9 69 0 28 -7 48 -22 64 -17 18 -19 26 -10 35 7
7 12 42 12 85 0 69 -2 74 -25 83 -23 9 -24 13 -18 62 4 37 12 58 27 70 20 17
21 18 4 48 -10 18 -18 39 -18 49 0 9 -7 26 -15 37 -8 11 -14 41 -15 72 0 37
-6 61 -19 78 -20 26 -25 82 -10 122 7 19 6 29 -6 42 -12 14 -14 29 -9 67 5 38
2 56 -10 75 -15 22 -14 28 4 78 11 30 20 56 20 57 0 2 11 3 25 3 16 0 25 6 25
15 0 12 -4 13 -17 4 -13 -7 -26 -7 -46 0 -26 10 -27 12 -21 68 7 66 29 93 75
93 15 0 36 8 46 19 10 10 28 24 40 30 13 6 27 20 33 31 16 30 -29 54 -96 53
-44 -1 -54 2 -59 18 -5 14 -16 19 -44 19 -21 0 -71 3 -112 6 -55 4 -79 2 -92
-8z"/>
<path d="M5482 5203 c2 -9 15 -20 31 -24 24 -6 27 -5 27 17 0 20 -5 24 -31 24
-23 0 -30 -4 -27 -17z"/>
<path d="M6260 5098 c-20 -41 -31 -77 -50 -163 -11 -49 -48 -145 -62 -162 -19
-23 -38 -15 -38 16 0 17 5 33 10 36 17 10 12 160 -5 175 -19 16 -18 17 -38
-45 -13 -38 -17 -103 -20 -280 -2 -126 -1 -256 4 -287 4 -32 4 -72 -1 -90 -13
-49 -21 -410 -10 -428 15 -24 23 -4 30 79 4 44 12 86 18 94 16 19 35 163 28
212 -4 22 -1 83 5 135 6 52 12 118 14 146 1 28 8 60 14 72 6 11 11 37 11 57 0
19 7 52 16 73 8 20 14 53 12 72 -2 27 1 35 16 38 11 2 25 -4 32 -13 16 -21 34
-11 34 19 0 13 9 31 20 41 26 23 26 71 1 87 -17 10 -19 20 -14 85 3 40 3 73 0
73 -4 0 -16 -19 -27 -42z"/>
<path d="M5905 4810 c-3 -6 2 -13 12 -17 10 -3 26 -12 35 -20 18 -16 57 -14
61 2 1 6 -14 11 -33 13 -19 2 -39 10 -43 18 -9 16 -23 18 -32 4z"/>
<path d="M5183 4676 c-4 -8 -19 -16 -31 -18 -24 -3 -24 -3 6 -25 16 -12 42
-25 56 -29 22 -5 26 -3 26 15 0 12 -7 24 -15 27 -8 4 -15 15 -15 25 0 22 -16
25 -27 5z"/>
<path d="M5387 4663 c-3 -5 -2 -34 0 -65 5 -54 6 -56 27 -46 19 8 46 56 46 80
0 25 -62 50 -73 31z"/>
<path d="M5573 4616 c5 -16 52 -19 65 -4 8 11 3 14 -29 14 -25 1 -38 -3 -36
-10z"/>
<path d="M5200 4505 c-25 -13 -45 -29 -44 -34 2 -26 5 -31 14 -31 6 0 21 11
33 24 12 13 34 26 47 28 27 3 35 31 10 35 -8 1 -35 -9 -60 -22z"/>
<path d="M4482 4500 c-18 -30 -15 -84 7 -104 23 -20 26 -16 35 45 10 71 -13
105 -42 59z"/>
<path d="M5242 4430 c-40 -9 -65 -39 -50 -57 14 -17 30 -16 72 4 35 16 51 37
40 54 -6 10 -16 10 -62 -1z"/>
<path d="M5483 4271 c-3 -11 -15 -22 -26 -25 -29 -7 -53 -44 -38 -59 6 -6 11
-31 12 -56 0 -41 2 -43 11 -23 6 12 17 22 25 22 20 0 15 21 -7 27 -11 3 -20 7
-20 10 0 14 37 56 55 63 17 7 21 14 18 34 -6 31 -23 34 -30 7z"/>
<path d="M5456 3944 c-8 -20 0 -32 14 -18 5 5 5 15 1 22 -6 11 -10 10 -15 -4z"/>
<path d="M5421 3878 c-10 -28 -3 -58 15 -58 19 0 25 14 18 49 -8 36 -21 40
-33 9z"/>
<path d="M5936 3861 c-9 -14 2 -51 15 -51 5 0 12 7 16 16 7 19 -21 51 -31 35z"/>
<path d="M6030 3785 c0 -8 5 -15 10 -15 6 0 10 7 10 15 0 8 -4 15 -10 15 -5 0
-10 -7 -10 -15z"/>
<path d="M5235 3740 c-3 -6 -3 -19 0 -30 8 -25 63 -28 72 -4 11 30 -56 61 -72
34z"/>
<path d="M5462 3713 c-21 -4 -67 -63 -73 -94 -2 -8 0 -30 4 -50 l8 -37 50 16
c49 16 50 17 44 47 -7 38 -7 52 1 93 3 17 2 31 -2 31 -5 -1 -19 -4 -32 -6z"/>
<path d="M5891 3706 c-9 -10 -8 -16 4 -26 10 -8 15 -25 13 -44 -2 -17 2 -31 7
-31 6 0 10 14 10 30 0 17 4 36 8 43 5 7 4 19 -3 27 -15 19 -24 19 -39 1z"/>
<path d="M5545 3700 c-4 -6 -4 -36 0 -66 4 -31 1 -78 -5 -111 -12 -56 -54
-143 -69 -143 -5 0 -16 9 -26 20 -34 37 -98 9 -82 -35 6 -14 15 -16 60 -10 28
4 57 11 63 16 7 5 31 3 60 -6 55 -17 124 -20 124 -5 0 5 -21 20 -47 33 l-48
23 -3 140 c-2 130 -10 171 -27 144z"/>
<path d="M5985 3504 c-13 -31 -19 -36 -41 -31 -29 5 -56 -16 -47 -39 4 -11 13
-14 32 -8 14 4 42 10 61 13 38 7 48 29 36 77 -9 34 -23 30 -41 -12z"/>
<path d="M5025 3426 c-30 -22 -11 -40 63 -59 76 -20 92 -17 92 14 0 13 -7 19
-22 19 -13 0 -36 9 -53 20 -35 23 -54 25 -80 6z"/>
<path d="M9880 2170 c0 -5 7 -10 15 -10 8 0 15 5 15 10 0 6 -7 10 -15 10 -8 0
-15 -4 -15 -10z"/>
</g>
</svg>
