<?xml version="1.0" standalone="no"?>
<!DOCTYPE svg PUBLIC "-//W3C//DTD SVG 20010904//EN"
 "http://www.w3.org/TR/2001/REC-SVG-20010904/DTD/svg10.dtd">
<svg version="1.0" xmlns="http://www.w3.org/2000/svg"
 width="900.000000pt" height="900.000000pt" viewBox="0 0 900.000000 900.000000"
 preserveAspectRatio="xMidYMid meet">
<metadata>
Created by potrace 1.10, written by Peter Selinger 2001-2011
</metadata>
<g transform="translate(0.000000,900.000000) scale(0.100000,-0.100000)"
fill="#9C2727" stroke="none">
<path d="M4270 8976 c0 -14 -4 -27 -9 -31 -6 -3 -13 -27 -16 -53 -4 -26 -13
-61 -21 -79 -8 -17 -14 -44 -14 -60 -1 -15 -7 -39 -15 -53 -8 -14 -14 -39 -15
-57 0 -17 -4 -34 -9 -38 -6 -3 -13 -27 -16 -53 -3 -26 -10 -55 -16 -65 -5 -9
-12 -39 -16 -65 -3 -26 -10 -50 -16 -53 -5 -4 -12 -30 -15 -58 -2 -28 -9 -54
-13 -57 -5 -3 -9 -26 -9 -50 0 -53 21 -57 31 -6 4 18 12 38 18 45 6 8 14 35
17 61 4 26 11 49 15 52 5 3 11 27 15 55 4 27 10 52 15 54 4 3 11 27 15 53 3
26 10 52 15 58 5 6 12 33 16 60 3 26 12 59 20 74 7 14 13 39 13 57 0 17 4 34
9 38 6 3 13 27 16 53 3 26 10 54 14 62 5 9 12 30 16 48 6 30 5 32 -19 32 -21
0 -26 -5 -26 -24z"/>
<path d="M4450 8987 c0 -7 7 -22 15 -33 8 -10 15 -28 15 -39 0 -11 7 -33 15
-49 8 -15 15 -38 15 -50 0 -12 7 -31 15 -42 8 -10 15 -31 15 -45 0 -14 7 -34
15 -45 8 -10 15 -28 15 -39 0 -11 7 -33 15 -49 8 -15 15 -38 15 -50 0 -11 7
-34 15 -50 8 -15 15 -36 15 -45 0 -9 7 -29 15 -45 8 -15 15 -36 15 -45 0 -9 7
-29 15 -45 8 -15 15 -36 15 -45 0 -9 9 -33 20 -54 11 -20 21 -51 22 -68 l3
-31 -460 -3 c-532 -5 -835 -21 -850 -45 -9 -15 7 -40 26 -40 11 0 45 -9 77
-19 107 -35 120 -36 134 -6 11 25 14 26 67 20 111 -12 238 -10 255 4 19 16 46
8 46 -13 0 -9 9 -20 20 -26 11 -6 19 -16 17 -22 -1 -6 3 -12 10 -15 6 -2 13 6
15 19 3 20 9 23 48 24 63 2 87 11 93 36 6 21 9 21 139 14 73 -4 158 -9 188
-12 71 -7 65 -7 204 0 81 4 123 2 133 -5 10 -9 17 -8 28 1 19 16 160 16 325 1
69 -6 143 -12 165 -13 52 -1 75 -18 92 -66 11 -32 11 -47 0 -78 -7 -22 -11
-64 -9 -94 2 -30 4 -77 5 -104 1 -29 7 -51 15 -53 6 -3 12 3 12 14 0 10 6 36
14 58 7 22 17 85 20 140 4 55 14 124 23 154 15 52 14 55 -3 69 -14 10 -35 12
-76 7 -34 -3 -59 -2 -63 4 -6 11 -111 8 -188 -5 -29 -4 -43 -2 -57 11 -16 15
-56 20 -227 30 -115 7 -209 13 -210 14 -2 0 -3 23 -3 50 0 28 -4 53 -10 56 -5
3 -10 19 -10 34 0 15 -7 36 -15 47 -8 10 -15 30 -15 44 0 14 -7 38 -15 54 -8
15 -15 36 -15 45 0 9 -7 29 -15 45 -8 15 -15 38 -15 50 0 11 -7 34 -15 50 -8
15 -15 36 -15 45 0 9 -7 29 -15 45 -8 15 -15 36 -15 45 0 9 -6 28 -14 43 -8
15 -17 42 -21 60 -4 18 -11 38 -15 43 -4 6 -10 27 -14 48 -4 20 -11 37 -16 37
-6 0 -10 9 -10 20 0 15 -7 20 -25 20 -14 0 -25 -6 -25 -13z"/>
<path d="M3255 8070 c-8 -12 17 -120 27 -120 5 0 8 8 8 18 0 9 7 30 15 46 24
46 20 66 -14 66 -17 0 -33 -4 -36 -10z"/>
<path d="M4300 8016 c0 -8 5 -18 10 -21 13 -8 42 14 34 26 -9 15 -44 10 -44
-5z"/>
<path d="M4400 8020 c0 -5 7 -10 15 -10 8 0 15 5 15 10 0 6 -7 10 -15 10 -8 0
-15 -4 -15 -10z"/>
<path d="M5010 7982 c0 -14 39 -46 47 -38 4 3 -3 15 -15 26 -23 22 -32 25 -32
12z"/>
<path d="M3597 7963 c-12 -12 -7 -41 8 -47 8 -3 15 -16 15 -30 0 -13 -7 -26
-15 -30 -21 -8 -20 -65 2 -73 21 -8 67 18 71 41 3 16 0 18 -22 12 -25 -6 -36
7 -16 19 18 11 11 63 -13 89 -13 14 -27 23 -30 19z"/>
<path d="M4864 7959 c-8 -14 21 -43 35 -35 19 12 13 46 -8 46 -11 0 -23 -5
-27 -11z"/>
<path d="M3530 7925 c0 -10 7 -15 18 -13 21 4 19 22 -2 26 -10 2 -16 -3 -16
-13z"/>
<path d="M4215 7930 c-4 -7 -1 -19 8 -27 12 -12 19 -13 36 -3 12 6 20 17 18
23 -5 16 -53 21 -62 7z"/>
<path d="M5084 7925 c-3 -8 -3 -19 1 -25 4 -6 -13 -19 -39 -31 -42 -18 -58
-40 -38 -53 10 -6 82 43 82 56 0 4 6 8 14 8 16 0 31 34 21 50 -9 15 -35 12
-41 -5z"/>
<path d="M4088 7858 c-3 -7 2 -30 10 -50 18 -46 5 -68 -42 -68 -36 -1 -96 -44
-81 -59 6 -6 29 -11 52 -12 37 -3 47 2 74 29 25 26 39 32 74 32 23 0 45 3 48
6 15 15 -15 43 -53 49 -33 6 -40 11 -40 30 0 13 -3 30 -6 39 -7 19 -31 21 -36
4z"/>
<path d="M3987 7830 c-30 -27 -31 -28 -14 -54 23 -34 34 -33 42 5 4 18 16 35
31 41 31 14 30 24 -2 31 -19 3 -35 -3 -57 -23z"/>
<path d="M3284 7819 c4 -19 9 -50 12 -69 9 -66 14 -80 29 -80 22 0 19 68 -4
123 -25 58 -46 73 -37 26z"/>
<path d="M4929 7791 c-19 -16 -22 -22 -11 -32 6 -7 12 -23 12 -35 0 -22 17
-34 47 -34 9 0 26 -12 38 -26 29 -34 58 -27 53 13 -2 20 -9 29 -25 31 -22 3
-33 22 -13 22 6 0 10 7 10 15 0 8 -8 15 -17 15 -9 0 -29 11 -43 25 l-27 26
-24 -20z"/>
<path d="M4492 7732 c0 -27 -2 -53 -4 -58 -2 -5 2 -10 7 -12 6 -2 14 16 18 40
5 24 13 47 18 53 15 16 10 25 -14 25 -21 0 -24 -5 -25 -48z"/>
<path d="M3590 7715 c0 -8 7 -15 15 -15 8 0 15 7 15 15 0 8 -7 15 -15 15 -8 0
-15 -7 -15 -15z"/>
<path d="M4272 7718 c6 -18 28 -21 28 -4 0 9 -7 16 -16 16 -9 0 -14 -5 -12
-12z"/>
<path d="M4410 7689 c0 -11 5 -17 10 -14 6 3 10 13 10 21 0 8 -4 14 -10 14 -5
0 -10 -9 -10 -21z"/>
<path d="M4146 7675 c-7 -19 5 -19 30 0 19 14 19 14 -2 15 -12 0 -24 -7 -28
-15z"/>
<path d="M4102 7588 c-102 -7 -128 -12 -153 -30 -16 -12 -29 -28 -29 -35 0 -7
-5 -13 -12 -13 -6 0 -9 -2 -7 -4 3 -3 25 0 49 6 25 6 68 11 95 13 28 1 71 6
96 10 43 7 47 6 53 -16 7 -24 7 -24 16 -3 12 30 60 41 77 17 12 -16 34 -18
213 -20 194 -3 200 -2 200 17 0 21 -19 23 -211 25 -30 0 -54 6 -66 18 -25 22
-40 22 -53 -3 -15 -29 -54 -26 -68 5 -13 28 -3 27 -200 13z"/>
<path d="M4914 7581 c-11 -2 -28 -10 -39 -17 -11 -8 -41 -14 -67 -14 -50 0
-70 -13 -41 -28 20 -10 295 -8 312 2 7 5 7 14 -1 31 -9 21 -18 24 -78 27 -37
2 -76 1 -86 -1z"/>
<path d="M3560 7550 c-36 -32 -56 -37 -62 -18 -6 18 -197 18 -208 -1 -9 -16
-83 -40 -148 -48 -24 -3 -46 -11 -49 -19 -3 -9 -21 -14 -48 -14 -29 0 -45 -5
-49 -15 -3 -10 -19 -15 -46 -15 -44 0 -49 -6 -22 -26 16 -13 16 -13 -1 -14
-10 0 -27 5 -38 11 -21 11 -59 4 -59 -11 0 -5 9 -12 21 -15 15 -5 18 -10 11
-17 -8 -8 -19 -6 -37 6 -27 18 -75 15 -75 -4 0 -6 -11 -10 -24 -10 -13 0 -29
-7 -36 -15 -7 -8 -23 -15 -35 -15 -12 0 -28 -7 -35 -15 -7 -8 -18 -15 -25 -15
-6 0 -32 -11 -56 -25 -24 -13 -64 -34 -89 -47 -156 -80 -402 -269 -514 -397
-12 -13 -28 -31 -37 -40 -26 -27 -133 -173 -165 -226 -36 -59 -124 -239 -124
-254 0 -5 -6 -22 -14 -38 -8 -15 -22 -57 -31 -93 -9 -36 -24 -90 -33 -120 -13
-44 -16 -96 -15 -260 1 -113 6 -218 11 -235 19 -67 27 -13 23 165 -4 219 8
281 99 515 20 51 115 240 122 243 4 2 8 7 8 12 0 12 119 188 133 197 7 5 25
27 41 51 37 54 213 229 286 283 30 23 57 44 60 48 7 11 168 114 220 142 25 13
47 27 50 30 3 4 16 10 29 14 17 5 22 4 19 -6 -3 -8 -13 -16 -22 -17 -10 -2
-26 -11 -36 -20 -36 -33 -49 -42 -60 -42 -5 0 -19 -8 -29 -17 -36 -33 -50 -43
-60 -43 -6 0 -14 -6 -18 -13 -4 -8 -24 -24 -43 -38 -50 -35 -103 -83 -205
-185 -116 -117 -154 -161 -165 -190 -5 -13 -13 -24 -17 -24 -5 0 -17 -16 -27
-35 -11 -19 -25 -35 -33 -35 -7 0 -13 -6 -13 -13 0 -12 -9 -26 -50 -74 -5 -7
-10 -15 -10 -19 0 -4 -13 -28 -29 -53 -15 -26 -32 -58 -36 -72 -4 -13 -10 -26
-14 -29 -11 -9 -51 -97 -51 -114 0 -9 -4 -16 -9 -16 -5 0 -12 -14 -16 -31 -4
-17 -13 -42 -21 -57 -8 -15 -14 -36 -14 -47 0 -11 -7 -29 -15 -39 -8 -11 -15
-34 -15 -52 0 -18 -4 -35 -9 -38 -9 -6 -17 -92 -27 -291 -3 -66 -8 -123 -11
-128 -6 -10 15 -141 31 -192 7 -22 21 -67 31 -100 30 -102 91 -243 135 -310
11 -16 23 -37 27 -45 40 -87 221 -292 363 -413 45 -38 171 -127 200 -140 8 -4
29 -16 45 -26 51 -33 166 -91 180 -91 7 0 18 -7 26 -16 8 -10 21 -13 36 -9 16
4 25 1 29 -10 4 -8 18 -15 32 -15 14 0 57 -15 96 -34 72 -34 117 -51 171 -66
17 -5 46 -14 65 -21 19 -6 51 -17 70 -24 140 -49 180 -56 180 -30 0 8 -7 15
-16 15 -23 0 -123 80 -182 145 -61 69 -120 154 -150 217 -12 25 -26 49 -32 53
-5 3 -10 15 -10 25 0 10 -6 31 -14 47 -30 58 -46 102 -46 125 0 13 -4 28 -10
34 -15 15 -51 202 -71 369 -5 44 -14 107 -20 140 -6 33 -13 95 -16 138 -3 42
-10 77 -15 77 -11 0 -9 -184 3 -280 5 -36 16 -128 25 -205 9 -77 22 -153 29
-170 22 -53 35 -111 35 -153 0 -32 5 -44 21 -52 12 -7 18 -18 15 -26 -8 -20
31 -94 48 -94 7 0 16 -15 19 -33 3 -18 19 -54 36 -79 38 -57 39 -68 2 -68 -16
0 -32 -6 -35 -12 -3 -10 -9 -8 -19 5 -8 9 -24 17 -37 17 -12 0 -34 6 -48 13
-53 27 -98 50 -142 75 -25 13 -57 31 -71 38 -14 8 -34 23 -45 35 -10 12 -31
27 -46 35 -16 8 -28 20 -28 28 0 7 -11 23 -24 35 -14 13 -22 29 -19 37 3 8 2
21 -1 30 -5 14 -9 14 -22 3 -13 -10 -17 -10 -25 2 -5 8 -9 21 -9 29 0 8 -8 20
-18 26 -19 12 -48 63 -122 214 -27 55 -86 215 -107 290 -8 30 -21 78 -29 105
-16 60 -38 308 -36 420 2 177 99 567 168 676 12 20 26 54 30 75 4 22 17 53 29
69 13 17 28 46 34 66 7 20 20 44 31 54 11 10 22 33 26 51 4 23 12 34 27 36 12
2 23 12 25 23 2 11 11 29 21 40 9 11 24 34 34 51 34 63 187 223 237 249 17 9
30 22 30 31 0 8 7 17 16 21 9 3 27 17 40 29 12 13 30 24 38 24 9 0 21 9 28 20
7 11 17 20 22 20 8 0 88 46 176 101 8 5 25 13 37 19 12 5 39 20 60 33 21 13
49 27 63 32 14 4 63 25 109 47 94 44 135 55 145 39 4 -6 14 -11 22 -11 8 0 12
5 9 10 -13 22 6 50 34 50 15 0 36 9 46 20 14 15 31 20 72 20 57 0 63 -5 36
-26 -14 -10 -15 -13 -4 -14 8 0 22 7 31 15 8 8 42 21 74 29 33 9 61 17 63 20
6 6 -81 46 -99 46 -9 0 -21 -7 -28 -15 -7 -8 -21 -15 -32 -15 -10 0 -21 7 -24
15 -11 27 -75 18 -114 -15z m-62 -47 c-2 -10 -14 -17 -32 -18 -16 0 -31 -6
-34 -13 -2 -7 -21 -15 -42 -18 -21 -4 -41 -13 -44 -20 -3 -8 -17 -14 -31 -14
-15 0 -33 -7 -41 -15 -9 -8 -25 -15 -37 -16 -12 0 -49 -18 -82 -39 -33 -22
-80 -49 -105 -62 -25 -13 -73 -42 -108 -65 -34 -24 -65 -43 -68 -43 -6 0 -79
-55 -102 -77 -7 -7 -17 -13 -22 -13 -12 0 -101 -82 -194 -178 -103 -106 -120
-126 -145 -166 -13 -20 -27 -36 -32 -36 -5 0 -9 -6 -9 -13 0 -8 -8 -23 -18
-35 -10 -11 -27 -38 -38 -59 -10 -21 -25 -44 -31 -51 -7 -7 -13 -22 -13 -33 0
-10 -5 -19 -10 -19 -6 0 -14 -8 -17 -17 -4 -10 -16 -34 -28 -53 -12 -19 -25
-48 -29 -65 -4 -16 -13 -43 -21 -60 -53 -116 -64 -145 -69 -183 -4 -24 -11
-51 -16 -60 -14 -25 -40 -139 -40 -176 0 -17 -8 -43 -17 -56 -15 -22 -17 -53
-17 -267 0 -175 4 -246 13 -257 7 -8 16 -45 21 -83 13 -99 29 -173 46 -210 7
-17 14 -38 14 -46 0 -9 4 -18 9 -21 5 -3 12 -18 15 -33 4 -16 14 -44 23 -63 9
-19 23 -51 31 -70 16 -38 30 -67 59 -119 20 -39 25 -45 53 -80 11 -13 20 -30
20 -37 0 -7 4 -14 8 -16 5 -1 33 -34 62 -73 62 -80 189 -205 207 -205 7 0 13
-7 13 -15 0 -8 -5 -15 -10 -15 -9 0 -65 35 -80 50 -3 3 -23 18 -45 34 -58 43
-212 204 -230 243 -9 18 -20 33 -24 33 -5 0 -12 10 -16 23 -7 21 -7 21 -12 2
-3 -10 0 -21 6 -23 14 -5 14 -32 0 -32 -12 0 -81 70 -169 170 -30 35 -67 76
-83 92 -15 16 -27 34 -27 40 0 6 -6 19 -14 27 -19 22 -126 234 -126 252 0 8
-12 32 -25 54 -14 22 -25 50 -25 62 0 12 -6 37 -14 55 -44 106 -73 343 -59
483 4 39 7 77 5 85 -3 28 61 272 78 295 4 6 17 37 29 69 12 33 30 71 40 85 9
14 24 42 31 61 7 19 24 46 37 61 12 14 23 35 23 47 0 27 8 28 26 5 11 -15 13
-16 14 -2 0 8 16 33 35 54 19 22 35 52 37 69 2 25 8 32 31 34 22 3 27 8 27 31
0 20 12 38 45 67 24 21 45 43 45 48 0 13 123 136 135 136 6 0 21 14 33 30 13
17 29 30 37 30 9 0 38 23 65 50 27 28 58 50 67 50 10 1 34 14 53 30 19 17 42
30 52 30 9 0 19 4 22 9 8 12 126 67 161 74 17 3 24 4 18 1 -17 -8 -16 -34 1
-34 7 0 19 7 26 15 7 8 19 15 26 15 8 0 14 4 14 9 0 5 21 20 48 33 26 13 49
26 52 29 3 3 28 16 55 30 28 13 71 37 98 52 48 29 133 65 177 74 14 3 34 12
45 19 11 8 34 14 51 14 19 0 34 6 38 15 3 9 19 15 41 15 29 0 36 -4 33 -17z
m-710 -184 c-19 -13 -28 -11 -28 5 0 9 7 12 21 9 16 -4 17 -8 7 -14z m-64 -15
c20 -8 11 -24 -15 -24 -19 0 -25 11 -12 23 8 8 8 8 27 1z m-49 -44 c-3 -5 -15
-10 -26 -10 -10 0 -19 5 -19 10 0 6 12 10 26 10 14 0 23 -4 19 -10z"/>
<path d="M2745 7189 c-10 -15 1 -23 20 -15 9 3 13 10 10 16 -8 13 -22 13 -30
-1z"/>
<path d="M2710 7160 c-8 -5 -11 -12 -7 -16 4 -4 13 -2 19 4 15 15 7 24 -12 12z"/>
<path d="M2467 6936 c-41 -38 -59 -66 -42 -66 9 0 45 40 45 50 0 6 7 10 15 10
8 0 15 7 15 15 0 8 7 15 15 15 8 0 15 5 15 10 0 19 -16 10 -63 -34z"/>
<path d="M2330 6790 c-11 -21 -5 -44 9 -35 13 7 20 44 11 50 -5 3 -14 -4 -20
-15z"/>
<path d="M2283 6733 c-24 -16 -31 -57 -13 -68 6 -3 15 6 21 22 5 15 16 31 22
35 8 5 8 10 2 17 -6 6 -18 4 -32 -6z"/>
<path d="M2223 6641 c-13 -11 -23 -28 -23 -39 0 -11 -7 -25 -15 -32 -8 -7 -15
-17 -15 -22 0 -5 -11 -24 -25 -42 -14 -18 -25 -37 -25 -42 0 -5 -10 -27 -21
-49 -12 -22 -28 -58 -35 -80 -13 -37 -32 -80 -56 -129 -5 -10 -12 -44 -15 -75
-4 -30 -12 -61 -19 -68 -12 -12 -18 -45 -30 -175 -4 -47 -3 -68 5 -68 7 0 11
21 11 53 1 30 7 60 15 71 8 11 15 41 15 67 0 29 6 51 15 59 8 7 15 24 15 39 0
14 7 39 15 55 8 15 15 37 15 48 0 10 9 36 20 56 34 64 70 148 70 165 0 9 4 18
9 22 6 3 21 30 36 60 14 30 30 55 35 55 6 0 10 8 10 19 0 10 7 24 15 31 16 13
21 40 8 40 -5 -1 -18 -9 -30 -19z"/>
<path d="M1890 6408 c0 -19 2 -20 10 -8 13 19 13 30 0 30 -5 0 -10 -10 -10
-22z"/>
<path d="M1910 5526 c0 -22 3 -27 11 -19 8 8 8 16 0 30 -9 16 -10 14 -11 -11z"/>
<path d="M1940 5295 c0 -27 5 -57 10 -65 7 -11 10 -1 10 35 0 28 -5 57 -10 65
-7 11 -10 1 -10 -35z"/>
<path d="M1971 5141 c-1 -27 2 -32 11 -23 8 8 8 17 0 34 -10 22 -11 21 -11
-11z"/>
<path d="M2000 5011 c0 -11 5 -23 10 -26 6 -3 10 3 10 14 0 11 -4 23 -10 26
-5 3 -10 -3 -10 -14z"/>
<path d="M2020 4952 c0 -27 10 -52 21 -52 15 0 10 47 -6 60 -12 10 -15 9 -15
-8z"/>
<path d="M2060 4858 c0 -29 30 -108 41 -108 15 0 10 50 -6 56 -8 4 -15 19 -15
34 0 16 -4 32 -10 35 -6 3 -10 -4 -10 -17z"/>
<path d="M2118 4710 c2 -16 8 -30 12 -30 4 0 11 -11 14 -25 4 -14 11 -25 16
-25 15 0 12 38 -4 47 -8 4 -16 19 -18 32 -1 14 -8 26 -14 28 -7 2 -9 -8 -6
-27z"/>
<path d="M5157 7523 c-12 -11 14 -33 39 -33 12 0 26 -4 29 -10 3 -5 22 -10 41
-10 24 0 34 -5 34 -15 0 -8 9 -15 19 -15 10 0 21 -7 25 -15 3 -8 10 -15 17
-15 6 0 28 -13 49 -30 21 -16 42 -30 47 -30 5 0 23 -13 41 -30 18 -16 36 -30
39 -30 10 0 87 -66 146 -125 51 -50 77 -66 77 -49 0 11 -133 137 -196 185 -33
26 -75 61 -94 78 -19 17 -42 31 -52 31 -10 0 -18 7 -18 15 0 19 39 20 65 1 41
-28 156 -68 181 -62 33 9 30 23 -5 31 -16 3 -32 13 -35 21 -3 8 -16 14 -29 14
-14 0 -30 7 -37 15 -7 8 -25 15 -41 15 -16 0 -29 5 -29 10 0 15 66 12 79 -3 6
-8 37 -22 68 -32 32 -11 62 -23 67 -27 6 -4 18 -8 27 -8 9 0 22 -7 29 -15 7
-8 21 -15 30 -15 10 0 31 -6 47 -14 15 -8 42 -20 58 -27 36 -16 148 -80 155
-90 3 -3 15 -9 28 -13 12 -4 22 -12 22 -17 0 -5 7 -9 15 -9 9 0 18 -7 21 -15
4 -8 11 -15 18 -15 6 0 26 -13 44 -29 17 -17 45 -38 62 -48 16 -9 30 -23 30
-30 0 -7 5 -13 10 -13 10 0 170 -155 170 -165 0 -2 27 -32 60 -65 33 -33 60
-67 60 -76 0 -8 7 -17 15 -20 8 -4 15 -12 15 -20 0 -8 4 -14 9 -14 10 0 34
-38 47 -72 3 -10 13 -18 20 -18 8 0 14 -10 14 -25 0 -16 6 -25 15 -25 8 0 15
9 15 20 0 11 -7 23 -15 26 -8 4 -15 15 -15 25 0 10 -12 31 -27 47 -16 15 -37
41 -47 57 -22 34 -28 42 -91 108 -25 27 -45 50 -45 52 0 6 -64 77 -92 103 -29
27 -37 52 -15 52 17 0 111 -78 115 -96 2 -8 9 -14 17 -14 7 0 26 -15 43 -34
18 -21 41 -36 59 -38 20 -2 28 -8 28 -23 0 -32 14 -46 40 -39 19 5 27 0 39
-24 9 -17 25 -33 35 -37 11 -3 23 -14 26 -24 3 -10 19 -33 35 -50 17 -17 30
-37 30 -45 0 -8 10 -23 23 -33 22 -18 107 -140 107 -154 0 -4 13 -27 29 -51
95 -141 208 -540 203 -718 -6 -200 -23 -331 -58 -436 -19 -57 -43 -119 -54
-137 -11 -17 -25 -43 -31 -57 -68 -154 -183 -340 -209 -340 -6 0 -10 9 -10 20
0 11 5 20 10 20 6 0 10 6 10 13 0 7 9 29 20 50 11 20 20 49 20 63 0 37 -24 25
-28 -14 -2 -17 -10 -36 -18 -42 -8 -7 -14 -25 -14 -40 0 -16 -7 -30 -15 -34
-8 -3 -15 -14 -15 -24 0 -11 -7 -25 -15 -32 -8 -7 -15 -21 -15 -31 0 -10 -6
-22 -12 -26 -7 -4 -22 -24 -32 -43 -11 -19 -26 -42 -35 -52 -9 -9 -26 -30 -39
-46 -13 -17 -55 -62 -94 -101 -39 -39 -69 -73 -66 -76 10 -10 123 62 204 130
7 6 26 21 44 34 119 92 292 303 367 451 13 25 27 52 32 60 9 14 26 58 55 138
31 86 46 141 46 168 0 16 7 47 15 69 11 30 14 96 15 270 0 233 -6 286 -46 416
-8 26 -14 55 -14 66 0 11 -7 28 -15 39 -8 10 -15 27 -15 36 0 10 -19 57 -41
105 -23 49 -45 97 -50 108 -9 21 -15 30 -61 103 -16 24 -28 46 -28 49 0 3 -17
29 -38 57 -21 28 -45 62 -54 76 -9 14 -35 45 -57 70 -23 25 -41 51 -41 58 0 7
-7 15 -15 18 -8 4 -15 12 -15 20 0 8 -7 14 -15 14 -8 0 -15 6 -15 14 0 8 -4
16 -8 18 -5 2 -38 29 -73 60 -119 106 -134 118 -146 118 -7 0 -27 12 -45 28
-92 77 -293 190 -473 267 -16 7 -41 18 -55 24 -14 6 -38 15 -55 20 -16 5 -55
19 -85 31 -30 12 -71 25 -90 30 -19 4 -46 12 -60 17 -92 38 -149 47 -326 50
-99 1 -184 0 -187 -4z m228 -73 c3 -5 -3 -10 -15 -10 -12 0 -18 5 -15 10 3 6
10 10 15 10 5 0 12 -4 15 -10z"/>
<path d="M5070 7475 c0 -8 11 -17 25 -21 13 -3 29 -12 36 -20 6 -8 20 -14 31
-14 11 0 37 -13 58 -30 21 -16 42 -30 48 -30 14 0 71 -31 92 -50 45 -41 79
-67 115 -92 63 -43 97 -71 123 -100 13 -16 30 -28 38 -28 8 0 14 -7 14 -15 0
-8 7 -15 15 -15 8 0 15 -8 15 -18 0 -10 5 -23 12 -30 7 -7 20 -12 30 -12 11 0
18 -7 18 -20 0 -11 8 -28 18 -39 48 -52 72 -80 72 -85 0 -4 12 -25 27 -49 84
-130 168 -298 180 -359 3 -18 12 -44 19 -58 26 -52 44 -112 44 -148 0 -21 9
-65 21 -97 14 -41 24 -102 30 -190 15 -229 21 -290 28 -305 9 -18 6 -352 -3
-395 -3 -16 -10 -78 -15 -136 -7 -69 -21 -136 -41 -196 -16 -50 -30 -98 -30
-108 0 -24 -31 -114 -41 -121 -5 -3 -9 -12 -9 -21 0 -8 -18 -51 -40 -95 -22
-44 -40 -86 -40 -94 0 -7 -13 -28 -29 -47 -16 -18 -33 -45 -36 -60 -4 -15 -16
-32 -26 -38 -11 -5 -19 -18 -19 -27 0 -20 -35 -62 -51 -62 -6 0 -13 9 -16 20
-3 11 -9 20 -13 20 -14 0 -18 -27 -10 -66 10 -42 6 -54 -11 -37 -7 7 -19 8
-38 0 -21 -8 -27 -15 -23 -32 3 -18 -9 -33 -53 -69 -31 -25 -67 -46 -78 -46
-12 0 -40 -12 -62 -25 -22 -14 -47 -25 -54 -25 -8 0 -27 -12 -42 -26 -16 -15
-49 -31 -85 -39 -33 -7 -88 -23 -124 -36 -188 -65 -205 -74 -157 -81 16 -2 23
-11 25 -31 4 -32 25 -32 30 0 4 26 66 53 123 53 22 0 55 6 74 14 19 8 55 18
80 21 31 5 61 20 94 46 27 22 54 39 59 39 6 0 17 6 24 13 8 6 21 17 29 22 71
45 114 80 180 145 89 88 147 163 215 280 48 80 61 107 97 190 40 92 47 109 47
118 0 5 7 23 15 38 8 16 15 41 15 56 0 15 4 29 9 32 5 4 12 25 16 49 3 23 10
51 15 62 8 18 19 74 36 195 3 19 12 78 20 130 17 115 14 321 -9 500 -9 69 -21
163 -27 210 -6 47 -15 96 -21 110 -6 14 -15 45 -19 70 -17 87 -32 145 -46 177
-8 17 -14 38 -14 46 0 9 -4 18 -9 21 -5 4 -12 24 -16 46 -4 22 -11 40 -15 40
-5 0 -12 14 -15 32 -4 17 -14 38 -21 46 -8 7 -14 20 -14 28 0 7 -13 36 -30 62
-16 27 -30 54 -30 61 0 6 -4 11 -9 11 -5 0 -14 12 -20 28 -14 36 -33 65 -48
75 -7 4 -13 12 -13 18 0 5 -5 15 -10 22 -6 7 -26 30 -45 52 -19 22 -35 46 -35
53 0 6 -7 12 -15 12 -8 0 -15 4 -15 10 0 5 -31 40 -69 77 -104 102 -128 123
-140 123 -7 0 -14 7 -17 15 -4 8 -10 15 -14 15 -5 0 -24 14 -42 30 -18 17 -38
30 -46 30 -7 0 -15 7 -18 15 -4 8 -13 15 -20 15 -8 0 -17 7 -20 15 -4 8 -14
15 -25 15 -10 0 -22 6 -26 13 -9 15 -69 47 -88 47 -7 0 -15 7 -19 15 -3 8 -13
15 -22 15 -10 0 -25 6 -33 14 -26 22 -71 29 -71 11z"/>
<path d="M4728 7458 c-3 -7 0 -27 5 -45 10 -30 11 -31 23 -14 11 15 11 24 1
45 -13 28 -23 33 -29 14z"/>
<path d="M3620 7442 c-14 -9 -26 -20 -28 -24 -2 -5 -10 -8 -17 -8 -8 0 -18 -6
-22 -13 -4 -8 -30 -31 -58 -52 -64 -48 -125 -112 -125 -130 0 -8 -7 -15 -15
-15 -8 0 -15 -6 -15 -13 0 -8 -11 -20 -25 -27 -13 -7 -34 -32 -46 -54 -12 -23
-27 -45 -35 -49 -8 -4 -14 -15 -14 -22 0 -8 -4 -15 -9 -15 -5 0 -13 -9 -16
-20 -4 -11 -17 -32 -30 -46 -14 -15 -27 -36 -31 -47 -4 -11 -19 -38 -35 -60
-16 -22 -29 -44 -29 -49 0 -5 -11 -24 -24 -41 -13 -18 -27 -43 -31 -57 -4 -14
-15 -34 -25 -45 -10 -11 -26 -42 -35 -70 -9 -27 -27 -64 -41 -82 -18 -24 -24
-44 -24 -82 0 -44 -3 -51 -19 -51 -22 0 -27 -11 -36 -90 -4 -30 -12 -61 -17
-68 -6 -7 -14 -40 -18 -75 -4 -34 -15 -87 -25 -117 -37 -123 -52 -269 -28
-277 14 -5 19 14 33 107 19 132 32 196 46 227 8 17 14 44 14 59 0 30 14 81 36
129 7 17 16 44 20 60 4 17 10 35 15 40 4 6 15 33 24 60 20 58 50 129 70 167 8
14 15 33 15 42 0 9 4 16 8 16 8 0 52 80 52 94 0 3 14 25 30 48 17 22 30 45 30
51 0 5 14 29 30 54 17 24 30 48 30 54 0 5 3 9 8 9 4 0 18 20 32 45 14 25 28
45 32 45 5 0 8 5 8 11 0 11 48 75 95 125 17 17 44 48 62 68 17 20 36 36 42 36
6 0 11 5 11 10 0 11 36 50 48 50 12 1 52 38 52 49 0 6 9 11 20 11 11 0 23 7
26 15 4 8 12 15 20 15 8 0 14 5 14 10 0 15 -22 11 -50 -8z"/>
<path d="M3775 7440 c-3 -5 3 -10 14 -10 12 0 21 5 21 10 0 6 -6 10 -14 10 -8
0 -18 -4 -21 -10z"/>
<path d="M4248 7419 c-20 -34 -24 -64 -8 -54 6 3 10 14 10 24 0 10 7 24 15 31
16 13 20 30 8 30 -5 0 -16 -14 -25 -31z"/>
<path d="M4130 7411 c0 -11 -7 -26 -15 -35 -8 -8 -15 -19 -15 -24 0 -5 -9 -17
-20 -27 -11 -10 -20 -26 -20 -35 0 -9 -4 -20 -9 -25 -20 -22 -66 -172 -81
-265 -4 -30 -18 -87 -29 -127 -11 -39 -25 -107 -31 -150 -13 -103 -28 -173
-40 -188 -5 -7 -10 -41 -10 -76 1 -114 -11 -493 -16 -517 -3 -17 -10 -22 -21
-18 -14 6 -15 -13 -8 -201 18 -465 14 -614 -22 -773 -5 -25 -5 -118 2 -275 11
-272 14 -317 19 -322 3 -3 8 6 12 21 13 54 21 22 26 -101 5 -104 10 -137 28
-178 12 -27 29 -79 36 -114 14 -63 28 -91 45 -91 12 0 11 77 0 85 -6 3 -13 27
-17 53 -3 26 -11 56 -17 67 -6 11 -14 52 -19 90 -31 252 -38 327 -47 470 -18
310 -13 956 9 1125 6 41 15 156 20 255 14 268 29 454 41 507 6 26 14 80 19
120 4 40 13 91 19 113 6 22 11 59 11 82 0 23 4 44 9 48 5 3 12 31 16 63 3 31
10 66 15 77 5 11 12 39 15 62 4 24 11 45 16 49 5 3 9 14 9 25 0 10 9 36 20 56
11 21 20 43 20 50 0 7 14 38 30 68 34 63 36 75 15 75 -8 0 -15 -9 -15 -19z"/>
<path d="M4886 7395 c28 -37 67 -102 86 -145 10 -23 18 -42 46 -110 6 -14 20
-46 31 -72 12 -26 21 -58 21 -72 0 -14 4 -27 9 -30 5 -3 12 -23 16 -43 4 -21
10 -42 15 -48 4 -5 10 -32 14 -59 3 -27 10 -54 15 -60 4 -6 11 -33 15 -59 3
-27 9 -54 13 -60 9 -14 29 -119 43 -225 6 -40 15 -82 21 -93 6 -11 14 -77 19
-147 5 -70 14 -161 20 -202 8 -50 10 -173 7 -365 -5 -329 0 -376 25 -264 16
71 23 225 14 329 -2 25 1 51 6 57 7 9 7 22 -2 42 -9 23 -9 38 0 66 13 40 7
184 -12 275 -6 30 -12 96 -13 145 -3 125 -2 120 -20 105 -19 -16 -22 -8 -29
94 -3 43 -10 95 -15 115 -35 132 -41 160 -41 182 0 14 -7 34 -15 45 -8 10 -15
33 -15 50 0 16 -5 35 -11 41 -6 6 -15 29 -19 50 -10 45 -27 97 -46 136 -8 16
-14 37 -14 47 0 9 -7 23 -15 30 -8 7 -15 23 -15 36 0 12 -4 25 -9 28 -5 4 -19
27 -32 54 -22 47 -80 126 -109 149 -29 23 -31 13 -4 -22z"/>
<path d="M3710 7402 c-14 -9 -36 -29 -50 -44 -13 -16 -29 -28 -35 -28 -12 0
-175 -158 -175 -169 0 -4 -16 -24 -35 -44 -19 -20 -35 -40 -35 -45 0 -5 -11
-19 -25 -32 -14 -13 -25 -28 -25 -34 0 -5 -9 -19 -19 -30 -20 -21 -51 -71 -73
-116 -7 -14 -16 -27 -20 -30 -4 -3 -12 -17 -17 -30 -6 -14 -22 -43 -36 -65
-13 -22 -24 -46 -25 -53 0 -7 -11 -28 -25 -46 -14 -18 -28 -47 -31 -64 -4 -17
-13 -37 -20 -43 -8 -6 -14 -19 -14 -29 0 -10 -7 -23 -15 -30 -8 -7 -15 -21
-15 -32 0 -10 -10 -38 -21 -61 -22 -42 -43 -114 -58 -194 -4 -23 -13 -49 -20
-57 -7 -8 -15 -43 -18 -76 -3 -33 -10 -63 -14 -66 -5 -3 -9 -22 -9 -42 0 -20
-7 -49 -14 -64 -15 -28 -21 -90 -18 -162 2 -33 4 -37 17 -26 10 8 15 31 15 66
0 36 7 64 20 86 12 20 17 41 14 55 -4 13 -2 29 4 36 6 7 13 37 17 67 7 68 32
166 51 202 8 14 14 34 14 44 0 27 32 107 47 119 7 6 21 37 30 70 9 33 27 75
40 94 13 19 23 44 23 57 0 12 10 35 23 51 12 15 29 46 36 67 8 22 27 58 42 79
16 22 29 48 29 57 0 9 11 27 25 40 14 13 28 38 31 57 4 21 12 33 23 34 19 0
81 74 81 98 0 9 15 32 34 51 18 20 36 46 40 58 4 12 11 22 15 22 4 0 41 33 83
73 41 39 94 89 118 110 44 37 37 51 -10 19z"/>
<path d="M4790 7385 c0 -8 5 -15 10 -15 6 0 10 7 10 15 0 8 -4 15 -10 15 -5 0
-10 -7 -10 -15z"/>
<path d="M5718 7363 c-24 -6 -23 -23 2 -23 11 0 20 7 20 15 0 8 -1 14 -2 14
-2 -1 -11 -3 -20 -6z"/>
<path d="M4820 7336 c0 -24 22 -74 37 -85 15 -11 44 -111 38 -131 -4 -13 0
-20 15 -25 16 -5 20 -15 20 -46 0 -21 4 -39 10 -39 5 0 13 -12 16 -27 4 -16
13 -35 20 -43 16 -19 20 -79 10 -142 -6 -32 -5 -48 2 -48 6 0 13 6 16 13 4 6
4 1 1 -13 -2 -14 2 -32 12 -42 13 -14 13 -20 3 -33 -10 -13 -9 -15 9 -15 19 0
21 -6 21 -58 0 -32 -5 -63 -12 -70 -9 -9 -9 -15 0 -24 7 -7 12 -22 12 -34 0
-13 4 -25 9 -28 4 -3 11 -30 15 -61 6 -50 4 -58 -19 -83 -23 -24 -25 -35 -25
-110 0 -100 11 -128 42 -111 32 17 45 -8 54 -99 5 -57 3 -94 -9 -142 -21 -89
-12 -225 18 -260 11 -12 13 -61 9 -220 -2 -113 -8 -216 -14 -230 -5 -14 -14
-44 -20 -67 -8 -33 -14 -40 -29 -36 -23 6 -33 -11 -50 -80 -11 -46 -10 -49 20
-92 l32 -45 -11 -72 c-24 -151 -25 -152 -57 -158 -23 -4 -31 -12 -39 -39 -8
-26 -7 -36 3 -39 37 -12 29 -91 -18 -195 -12 -26 -26 -68 -30 -93 -5 -25 -14
-51 -20 -57 -6 -6 -11 -19 -11 -29 0 -20 -39 -100 -54 -110 -17 -12 -26 -9
-26 7 0 8 -4 15 -10 15 -5 0 -10 -9 -10 -20 0 -11 4 -20 9 -20 6 0 11 -19 13
-42 l3 -42 30 45 c17 24 36 50 43 57 6 7 12 20 12 28 0 8 5 14 10 14 6 0 10 5
10 11 0 6 6 25 14 42 40 89 56 127 56 135 0 5 7 23 15 38 8 16 15 38 15 50 0
11 4 24 9 30 5 5 14 32 20 59 5 28 14 70 21 95 6 25 15 65 21 90 6 25 15 72
19 105 5 33 15 103 23 155 43 268 52 378 52 615 0 239 -14 632 -26 700 -5 33
-14 94 -19 135 -5 41 -14 91 -19 110 -5 19 -12 60 -16 90 -4 30 -11 60 -15 65
-4 6 -12 35 -18 65 -24 121 -59 263 -72 295 -5 11 -12 31 -15 45 -6 25 -26 71
-52 122 -7 14 -13 34 -13 44 0 21 -37 101 -51 110 -5 3 -9 14 -9 25 0 10 -4
19 -9 19 -5 0 -12 11 -15 25 -8 32 -26 33 -26 1z m289 -1068 c-1 -13 1 -30 4
-38 16 -44 28 -110 22 -119 -3 -6 -17 -11 -31 -11 -17 0 -24 5 -24 20 0 11 7
23 15 26 12 5 12 10 -6 32 -16 21 -19 34 -14 62 8 41 13 50 26 50 6 0 9 -10 8
-22z"/>
<path d="M4195 7323 c-4 -16 -10 -36 -16 -45 -5 -10 -9 -26 -9 -36 0 -9 -6
-26 -14 -37 -7 -11 -17 -36 -21 -55 -4 -19 -11 -39 -15 -45 -5 -5 -11 -32 -15
-60 -4 -27 -11 -54 -15 -60 -9 -11 -25 -95 -41 -210 -6 -38 -17 -104 -25 -145
-7 -42 -14 -96 -14 -120 0 -25 -4 -59 -9 -77 -5 -17 -12 -100 -16 -185 -4 -84
-11 -173 -15 -198 -10 -54 -20 -229 -24 -434 -3 -149 -3 -149 15 -115 13 27
20 78 28 229 6 107 15 242 21 300 5 58 17 182 25 275 25 273 73 619 92 657 7
15 13 40 13 56 0 16 7 46 15 65 8 20 15 49 15 65 0 16 7 35 15 42 8 7 15 20
15 29 0 9 7 35 15 58 14 41 12 73 -6 73 -5 0 -11 -12 -14 -27z"/>
<path d="M5815 7290 c3 -5 13 -10 21 -10 8 0 14 5 14 10 0 6 -9 10 -21 10 -11
0 -17 -4 -14 -10z"/>
<path d="M4797 7274 c-8 -8 3 -34 14 -34 5 0 9 9 9 20 0 19 -11 26 -23 14z"/>
<path d="M5860 7260 c0 -6 8 -14 18 -17 9 -4 23 -13 30 -20 7 -7 20 -13 28
-13 8 0 14 -4 14 -9 0 -5 9 -11 20 -14 13 -3 20 0 20 9 0 8 -9 14 -20 14 -11
0 -20 7 -20 15 0 8 -9 15 -19 15 -10 0 -21 7 -25 15 -6 17 -46 21 -46 5z"/>
<path d="M6024 7154 c15 -15 49 -43 75 -62 75 -58 271 -244 271 -259 0 -5 13
-17 30 -28 16 -11 37 -34 47 -52 10 -18 21 -33 26 -33 4 0 12 -11 17 -25 5
-14 14 -25 20 -25 5 0 10 -7 10 -15 0 -8 5 -15 10 -15 6 0 15 -10 20 -22 16
-37 50 -91 71 -114 10 -11 19 -30 19 -41 0 -12 11 -35 25 -51 14 -17 25 -36
25 -43 0 -7 8 -22 18 -33 10 -12 26 -48 37 -81 10 -33 23 -66 29 -74 6 -8 16
-37 22 -65 7 -28 24 -96 38 -151 35 -132 50 -310 43 -525 -6 -179 -20 -298
-42 -360 -7 -19 -21 -66 -30 -105 -9 -38 -28 -90 -41 -114 -13 -24 -24 -54
-24 -66 0 -13 -17 -42 -40 -66 -22 -24 -40 -52 -40 -64 0 -11 -9 -26 -19 -32
-12 -7 -21 -26 -23 -45 -2 -22 -10 -36 -25 -43 -12 -5 -24 -21 -27 -37 -7 -33
-53 -68 -66 -48 -9 15 -30 5 -30 -15 0 -7 6 -15 13 -18 6 -2 9 -8 4 -12 -4 -5
-18 -2 -32 5 -30 16 -55 0 -55 -36 0 -19 -5 -24 -25 -24 -16 0 -29 -9 -37 -24
-16 -30 -110 -95 -154 -108 -19 -5 -38 -18 -44 -28 -6 -12 -21 -20 -35 -20
-15 0 -25 -6 -25 -15 0 -23 -73 -56 -110 -49 -21 5 -36 2 -48 -9 -9 -8 -30
-19 -47 -23 l-30 -7 33 39 c18 21 39 46 47 55 8 9 15 20 15 26 0 6 7 13 15 17
8 3 15 10 15 16 0 6 11 23 25 38 14 15 28 36 32 47 3 11 16 34 29 51 13 17 24
35 24 41 0 6 9 21 19 35 11 13 28 50 38 80 11 31 24 63 30 70 13 17 30 65 38
105 7 34 -11 57 -21 26 -3 -10 -12 -31 -20 -46 -7 -16 -14 -42 -14 -58 0 -17
-6 -32 -15 -35 -8 -4 -15 -16 -15 -29 0 -12 -7 -28 -15 -35 -8 -7 -15 -20 -15
-30 0 -10 -6 -23 -14 -29 -8 -7 -17 -23 -20 -36 -4 -14 -11 -25 -16 -25 -6 0
-10 -7 -10 -16 0 -9 -13 -33 -29 -53 -15 -20 -30 -41 -32 -48 -13 -37 -166
-197 -249 -260 -51 -38 -150 -93 -194 -107 -33 -11 -2 -29 41 -24 51 6 208 46
278 70 17 5 46 13 65 17 19 4 44 12 55 18 11 6 36 18 55 26 139 60 324 168
365 213 6 6 19 17 31 25 33 23 186 199 214 248 9 14 28 45 43 68 15 24 27 47
27 53 0 6 7 13 15 16 8 4 15 12 15 20 0 8 14 40 30 71 17 31 30 63 30 72 0 10
7 26 15 37 8 10 15 26 15 34 0 8 7 28 15 44 8 15 15 38 15 50 0 11 6 32 13 47
8 14 17 49 20 78 3 29 11 58 16 65 5 6 12 69 16 141 4 71 11 140 16 153 11 28
-15 332 -36 419 -8 34 -15 70 -15 81 0 11 -7 33 -15 48 -8 16 -15 41 -15 55 0
15 -7 40 -15 55 -8 16 -15 37 -15 47 0 10 -7 25 -15 33 -8 9 -15 28 -15 43 0
16 -7 34 -15 41 -8 7 -15 20 -15 29 0 9 -7 25 -15 35 -8 11 -15 28 -15 38 0
10 -4 18 -9 18 -5 0 -21 24 -35 53 -14 28 -35 66 -46 82 -11 17 -23 37 -27 45
-3 8 -26 41 -50 73 -24 31 -43 59 -43 62 0 20 -357 375 -377 375 -5 0 -22 14
-38 30 -16 17 -35 30 -42 30 -8 0 -16 7 -19 15 -4 8 -16 15 -27 15 -20 0 -20
-2 7 -26z"/>
<path d="M5770 7090 c0 -6 10 -21 23 -34 27 -29 46 -56 53 -78 4 -10 13 -18
20 -18 8 0 14 -6 14 -14 0 -8 7 -16 15 -20 8 -3 15 -15 15 -26 0 -11 5 -20 10
-20 6 0 15 -11 20 -25 5 -14 14 -25 20 -25 5 0 10 -9 10 -20 0 -11 7 -23 15
-26 8 -4 15 -12 15 -19 0 -7 7 -18 15 -25 8 -7 15 -23 15 -36 0 -15 6 -24 15
-24 9 0 15 -9 15 -24 0 -13 7 -29 15 -36 8 -7 15 -23 15 -35 0 -12 7 -28 15
-35 8 -7 15 -22 15 -34 0 -11 7 -30 15 -40 8 -11 15 -32 15 -47 0 -14 7 -32
15 -39 8 -7 15 -26 15 -42 0 -16 6 -31 15 -34 11 -5 15 -22 15 -62 0 -32 6
-62 13 -71 16 -19 35 -100 43 -191 4 -36 13 -78 21 -94 12 -23 15 -95 15 -392
0 -319 -1 -367 -16 -389 -10 -15 -16 -45 -16 -79 0 -30 -7 -81 -15 -112 -8
-32 -13 -59 -11 -62 9 -8 26 10 26 28 0 10 5 20 10 22 6 2 14 46 17 98 3 52
10 100 14 106 12 15 33 285 33 424 0 162 -15 358 -30 404 -8 21 -14 64 -14 96
0 55 -28 141 -50 155 -6 3 -10 26 -10 50 0 25 -6 50 -15 59 -8 8 -15 26 -15
40 0 33 -28 117 -46 137 -8 8 -14 21 -14 28 0 20 -72 171 -82 171 -4 0 -8 9
-8 19 0 11 -6 26 -13 33 -7 7 -16 21 -20 31 -3 9 -11 17 -17 17 -5 0 -10 9
-10 20 0 11 -6 23 -14 26 -8 3 -17 16 -20 30 -4 13 -11 24 -16 24 -6 0 -10 6
-10 13 0 6 -16 30 -35 51 -19 22 -35 42 -35 45 0 3 -14 21 -30 40 -17 18 -30
37 -30 40 0 3 -9 12 -20 19 -13 8 -20 8 -20 2z"/>
<path d="M4886 7073 c-11 -11 -6 -23 9 -23 8 0 15 4 15 9 0 13 -16 22 -24 14z"/>
<path d="M4917 6973 c-12 -11 -8 -23 8 -23 8 0 15 7 15 15 0 16 -12 20 -23 8z"/>
<path d="M4915 6861 c-8 -14 3 -51 16 -51 5 0 6 12 3 28 -8 34 -10 36 -19 23z"/>
<path d="M3842 6660 c0 -19 2 -27 5 -17 2 9 2 25 0 35 -3 9 -5 1 -5 -18z"/>
<path d="M4971 6598 c1 -24 5 -54 9 -68 7 -23 8 -23 9 -3 1 12 6 25 11 28 22
13 8 85 -16 85 -10 0 -14 -12 -13 -42z"/>
<path d="M3836 6581 c-4 -6 -3 -18 2 -27 6 -11 11 -13 16 -5 4 6 3 18 -2 27
-6 11 -11 13 -16 5z"/>
<path d="M6730 6533 c1 -21 29 -88 39 -91 6 -2 11 -13 11 -24 0 -10 7 -26 15
-34 8 -9 15 -24 15 -35 0 -11 7 -22 15 -25 8 -4 15 -18 15 -34 0 -15 7 -33 15
-40 8 -7 15 -27 15 -45 0 -20 6 -35 15 -39 10 -3 15 -19 15 -43 0 -21 7 -47
15 -57 8 -11 15 -39 15 -63 0 -30 5 -45 15 -49 11 -5 15 -23 15 -73 1 -38 7
-76 15 -91 21 -37 21 -492 0 -543 -8 -20 -15 -63 -15 -96 0 -43 -4 -60 -15
-65 -11 -4 -15 -21 -15 -63 0 -67 18 -62 27 8 3 24 10 49 15 55 5 7 11 43 15
80 3 38 11 75 17 83 16 20 15 519 -1 552 -6 13 -15 50 -18 81 -4 32 -11 60
-16 63 -5 4 -9 25 -9 48 0 23 -6 54 -14 68 -7 14 -16 42 -20 62 -4 21 -11 37
-16 37 -6 0 -10 12 -10 28 0 15 -14 54 -30 87 -16 33 -30 66 -30 74 0 8 -13
35 -29 60 -15 26 -32 57 -36 70 -7 23 -45 68 -45 54z"/>
<path d="M2300 6426 c0 -8 3 -22 6 -31 5 -13 8 -14 15 -3 14 21 10 48 -6 48
-8 0 -15 -6 -15 -14z"/>
<path d="M3074 6286 c-8 -22 3 -33 18 -18 9 9 9 15 0 24 -9 9 -13 7 -18 -6z"/>
<path d="M2728 5724 c-5 -4 -8 -48 -8 -98 0 -62 3 -87 10 -80 7 7 10 47 8 98
-2 48 -6 84 -10 80z"/>
<path d="M2819 5573 c-2 -137 -11 -261 -20 -285 -6 -15 -8 -42 -5 -60 4 -18
11 -82 17 -143 5 -60 15 -135 23 -165 7 -30 14 -80 15 -110 1 -30 6 -59 11
-65 5 -6 12 -30 16 -53 4 -23 11 -45 15 -48 5 -3 9 -17 9 -32 1 -15 9 -45 20
-67 11 -22 19 -48 20 -57 0 -20 80 -175 126 -243 80 -120 204 -245 311 -313
23 -15 41 -33 40 -41 -1 -8 11 -18 27 -22 15 -4 36 -15 45 -23 10 -9 36 -15
66 -15 140 0 179 -2 189 -10 7 -6 36 -12 66 -16 56 -6 138 -25 220 -50 85 -26
169 -38 217 -31 73 11 203 14 209 4 7 -11 48 -10 60 2 6 6 44 11 85 11 41 0
109 5 152 10 65 8 81 7 99 -6 27 -18 108 -20 131 -2 11 8 15 20 11 34 -5 19
-14 22 -82 25 -80 3 -182 -10 -182 -24 0 -14 -95 -9 -116 7 -12 8 -24 11 -28
8 -3 -4 -111 -10 -239 -14 -195 -5 -237 -4 -262 8 -41 21 -75 53 -87 83 l-10
25 -14 -27 c-14 -26 -16 -27 -88 -23 -41 1 -79 6 -85 10 -6 3 -46 11 -89 16
-191 22 -190 22 -284 104 -10 8 -22 15 -27 15 -4 0 -20 18 -35 40 -15 23 -34
40 -45 40 -17 0 -50 28 -43 37 8 11 0 14 -12 4 -18 -15 -44 -4 -52 21 -4 13 0
24 13 33 17 13 17 14 -1 21 -11 4 -21 2 -26 -6 -13 -21 -43 -7 -53 25 -5 17
-22 44 -38 60 -15 17 -31 42 -34 58 -4 15 -15 32 -24 36 -9 5 -25 33 -35 63
-11 29 -30 74 -43 100 -14 30 -23 65 -23 94 0 45 -17 119 -46 194 -7 19 -16
57 -19 83 -4 26 -12 62 -20 81 -26 61 -40 522 -19 619 4 20 2 27 -10 27 -12 0
-16 -11 -17 -47z"/>
<path d="M3936 5425 c-11 -45 -8 -733 4 -794 5 -29 10 -86 11 -125 0 -39 5
-98 10 -131 5 -33 14 -100 20 -150 6 -49 15 -94 19 -100 5 -5 11 -32 15 -60 4
-27 14 -62 21 -77 8 -15 14 -36 14 -48 0 -11 7 -20 15 -20 18 0 21 80 4 97
-11 11 -36 150 -44 243 -2 25 -10 84 -19 130 -9 48 -20 203 -26 355 -6 149
-13 301 -16 340 -2 38 -5 128 -6 200 -1 140 -9 191 -22 140z"/>
<path d="M5257 5209 c-3 -13 -7 -82 -8 -154 -1 -85 -6 -135 -14 -145 -7 -8
-18 -53 -24 -100 -13 -98 -33 -209 -55 -295 -8 -33 -20 -82 -26 -110 -6 -27
-15 -57 -20 -66 -5 -9 -12 -33 -15 -53 -4 -20 -11 -39 -16 -42 -5 -3 -9 -13
-9 -22 -1 -9 -9 -35 -20 -57 -11 -22 -19 -46 -20 -52 0 -7 -4 -13 -10 -13 -5
0 -10 -8 -10 -18 0 -10 -7 -27 -15 -38 -8 -10 -15 -27 -15 -37 0 -10 -7 -20
-15 -23 -8 -4 -15 -12 -15 -19 0 -7 -7 -18 -15 -25 -8 -7 -15 -19 -15 -28 0
-13 2 -13 18 1 10 10 23 17 28 17 5 0 15 15 23 33 8 17 24 43 36 57 12 14 28
44 35 68 7 23 17 42 22 42 13 0 34 58 43 115 4 28 12 57 19 65 16 19 33 80 42
150 4 30 18 80 31 110 20 45 25 78 30 185 4 95 10 135 21 147 12 15 15 44 13
154 -2 141 -12 202 -24 153z"/>
<path d="M6907 4964 c-10 -11 -9 -74 2 -74 12 0 23 62 13 72 -5 5 -11 5 -15 2z"/>
<path d="M4047 4883 c-10 -10 -8 -111 2 -117 5 -4 11 19 13 50 3 56 -2 80 -15
67z"/>
<path d="M6217 4843 c-10 -10 -8 -103 2 -103 13 0 21 27 21 71 0 37 -8 48 -23
32z"/>
<path d="M4920 4339 l0 -32 20 26 c11 14 20 28 20 31 0 3 -9 6 -20 6 -16 0
-20 -7 -20 -31z"/>
<path d="M5812 4358 c-18 -18 -14 -38 8 -38 13 0 20 7 20 19 0 25 -13 34 -28
19z"/>
<path d="M2880 4235 c0 -19 4 -35 8 -35 4 0 6 16 4 35 -2 19 -6 35 -8 35 -2 0
-4 -16 -4 -35z"/>
<path d="M5597 4123 c-12 -11 -8 -23 8 -23 8 0 15 7 15 15 0 16 -12 20 -23 8z"/>
<path d="M4773 3890 c-9 -16 -23 -30 -30 -30 -7 0 -13 -4 -13 -10 0 -5 2 -10
6 -10 12 0 74 56 74 68 0 22 -18 13 -37 -18z"/>
<path d="M4080 3886 c0 -8 5 -18 10 -21 6 -3 10 3 10 14 0 12 -4 21 -10 21 -5
0 -10 -6 -10 -14z"/>
<path d="M5457 3762 c-18 -18 -27 -39 -27 -59 0 -43 12 -48 44 -18 18 17 26
34 26 59 0 46 -11 51 -43 18z"/>
<path d="M3381 3766 c-7 -8 -12 -36 -11 -63 0 -26 0 -57 0 -68 -1 -11 -1 -41
-2 -67 0 -27 -4 -48 -9 -48 -5 0 -9 6 -9 14 0 8 -6 16 -13 19 -21 8 -47 70
-47 111 0 20 -4 36 -8 36 -18 0 -35 -50 -29 -89 3 -23 1 -43 -4 -46 -13 -9
-27 -70 -38 -165 -7 -68 -6 -91 6 -122 11 -28 14 -56 9 -101 -3 -34 -6 -98 -5
-142 1 -44 1 -165 -1 -270 -4 -296 -2 -385 7 -458 9 -74 22 -89 35 -39 7 25
14 32 33 32 23 0 25 4 25 45 0 35 5 47 21 55 35 19 49 5 49 -48 0 -26 4 -52 9
-57 5 -6 13 -32 16 -58 7 -44 6 -49 -11 -45 -14 2 -20 13 -22 38 -4 46 -14 54
-56 46 -34 -7 -36 -9 -36 -46 0 -45 14 -59 30 -30 14 26 33 15 26 -14 -3 -13
3 -35 14 -54 11 -18 20 -40 20 -49 0 -15 27 -42 43 -43 5 0 6 32 4 70 -4 63
-3 70 13 70 14 0 23 -14 34 -52 8 -29 24 -61 36 -70 11 -10 20 -25 20 -34 0
-8 6 -14 13 -12 7 3 15 36 20 89 11 116 10 118 -6 174 l-14 50 -7 -55 c-9 -76
-20 -90 -36 -49 -14 32 -14 32 -31 11 -9 -12 -19 -18 -23 -15 -12 12 -6 71 9
83 20 16 19 50 -1 79 -12 16 -18 54 -22 132 l-5 109 -23 -23 c-13 -12 -34 -33
-47 -46 -17 -16 -27 -19 -32 -12 -12 21 -6 412 7 428 9 11 9 16 -2 23 -14 8
-14 23 -4 140 3 41 5 116 5 167 -1 77 -6 100 -26 142 -14 27 -25 58 -25 70 0
18 4 20 28 15 15 -4 35 -11 44 -15 13 -7 26 -1 53 26 38 39 45 69 18 84 -16 8
-16 16 -6 77 7 37 10 71 7 76 -8 13 -30 9 -43 -6z m27 -1255 c5 -31 -6 -73
-17 -67 -12 8 -24 74 -16 87 11 16 30 5 33 -20z m-53 -29 c4 -16 2 -24 -10
-28 -27 -11 -40 11 -26 42 13 29 24 24 36 -14z"/>
<path d="M3445 3710 c-7 -12 2 -30 16 -30 12 0 12 27 0 35 -5 3 -12 1 -16 -5z"/>
<path d="M5015 3676 c-17 -12 -20 -25 -18 -72 3 -67 -3 -74 -69 -74 -52 0 -67
-12 -46 -37 10 -13 10 -17 1 -20 -18 -6 -16 -50 2 -57 17 -6 45 2 45 14 0 4 9
10 20 13 11 3 20 14 20 24 0 11 11 23 29 29 25 10 28 16 28 51 0 22 8 51 17
66 18 27 18 68 1 74 -6 2 -20 -3 -30 -11z"/>
<path d="M5507 3673 c-4 -3 -7 -21 -7 -39 0 -40 -27 -90 -57 -103 -13 -6 -23
-15 -23 -21 0 -5 -7 -10 -15 -10 -9 0 -18 -7 -21 -15 -4 -8 -14 -15 -23 -15
-9 0 -25 -7 -35 -15 -11 -8 -32 -15 -47 -15 -14 0 -32 -7 -39 -15 -7 -8 -28
-15 -46 -15 -22 0 -38 -6 -45 -18 -8 -13 -21 -16 -49 -14 -39 4 -60 -12 -41
-31 7 -7 24 -7 58 2 27 7 73 16 103 21 30 5 79 21 107 35 29 14 57 25 62 25 5
0 14 7 21 15 14 17 46 20 55 5 3 -5 -8 -36 -25 -69 -18 -33 -38 -84 -46 -113
-13 -50 -13 -54 6 -70 32 -26 37 -75 11 -99 -25 -24 -25 -20 -6 -55 19 -37 19
-67 -1 -106 -10 -20 -12 -34 -6 -40 7 -7 14 -2 22 13 11 20 13 20 22 6 6 -11
4 -34 -5 -64 -20 -68 -9 -173 18 -173 13 0 15 51 17 357 3 327 4 358 20 361
31 6 41 -59 28 -183 -7 -60 -12 -121 -12 -135 0 -14 0 -107 1 -208 2 -139 -1
-187 -11 -199 -7 -9 -18 -37 -24 -62 l-11 -46 -7 40 c-11 58 -15 67 -26 60 -6
-4 -8 -27 -4 -60 6 -47 4 -54 -15 -64 -17 -10 -19 -16 -11 -31 5 -10 18 -21
28 -24 24 -8 40 -125 33 -240 -5 -74 -3 -94 12 -118 9 -16 21 -27 26 -24 19
12 42 108 36 151 -8 50 6 66 36 39 10 -9 22 -14 25 -11 4 3 -1 55 -10 114 -13
86 -16 176 -15 442 1 184 5 374 9 422 7 95 -8 237 -29 262 -8 10 -10 31 -5 65
8 62 -14 111 -39 85z"/>
<path d="M4070 3661 c0 -5 5 -11 11 -13 6 -2 12 -30 12 -61 2 -68 14 -80 75
-71 29 4 42 3 42 -6 0 -6 10 -10 23 -8 16 2 22 10 22 28 0 23 -4 25 -47 26
-69 2 -75 7 -83 63 -6 45 -10 51 -31 51 -13 0 -24 -4 -24 -9z"/>
<path d="M4870 3661 c0 -6 4 -12 9 -16 5 -3 6 -17 2 -33 -15 -53 14 -72 43
-27 22 34 20 50 -9 69 -27 18 -45 21 -45 7z"/>
<path d="M4020 3606 c0 -8 5 -18 10 -21 6 -3 10 3 10 14 0 12 -4 21 -10 21 -5
0 -10 -6 -10 -14z"/>
<path d="M3401 3486 c22 -22 128 -86 142 -86 15 0 18 -7 15 -32 -2 -26 1 -33
17 -36 11 -2 30 -8 42 -14 11 -6 27 -8 35 -5 7 2 21 -3 32 -12 10 -9 38 -17
65 -18 88 -3 167 -18 203 -40 33 -19 37 -20 52 -5 12 12 20 13 38 4 41 -20 65
-23 90 -12 17 8 32 8 52 0 26 -10 27 -12 14 -28 -9 -10 -18 -47 -22 -87 -6
-64 -4 -72 18 -100 13 -16 27 -27 30 -24 4 4 1 36 -7 72 -15 73 -4 157 20 157
7 0 13 -3 13 -7 0 -5 4 -14 9 -22 8 -12 15 -9 41 13 60 50 65 41 68 -138 1
-95 -1 -163 -7 -169 -19 -19 -41 13 -41 58 0 48 -8 75 -21 75 -16 0 -9 -96 10
-135 l19 -40 -24 -28 c-25 -29 -24 -47 2 -47 27 0 14 -30 -18 -39 -18 -5 -25
-10 -16 -10 10 -1 26 -10 37 -22 l19 -21 7 21 c3 12 12 21 20 21 21 0 47 -49
41 -76 -8 -29 -16 -30 -49 -4 -22 17 -26 18 -37 5 -11 -13 -10 -21 0 -41 11
-19 11 -32 3 -55 -7 -17 -7 -31 -2 -35 5 -3 9 -16 9 -30 0 -19 -5 -24 -25 -24
-34 0 -47 34 -50 133 -1 43 -7 83 -13 89 -17 17 -15 45 3 52 17 6 19 15 6 35
-8 12 -12 12 -24 3 -8 -7 -21 -11 -28 -10 -20 5 -23 -34 -4 -48 13 -10 15 -20
8 -61 -5 -26 -6 -59 -2 -73 13 -47 10 -164 -6 -194 -14 -26 -14 -31 -1 -44 12
-13 16 -10 30 17 22 42 33 39 40 -14 7 -42 9 -44 28 -34 17 9 24 8 32 -3 16
-21 86 -22 86 -2 0 13 -7 15 -34 10 -29 -6 -37 -3 -46 14 -6 12 -8 34 -5 50 6
27 4 29 -30 32 -46 4 -50 22 -6 26 35 4 59 -18 71 -63 3 -11 15 -21 27 -23 15
-2 22 4 27 24 10 39 26 12 26 -43 0 -45 14 -57 25 -23 4 12 15 20 28 20 21 0
22 5 25 85 2 47 -1 85 -5 85 -19 -1 -29 -17 -29 -50 1 -31 -2 -35 -26 -38 -24
-3 -28 0 -28 20 0 13 4 37 9 54 5 18 5 86 0 163 -6 88 -6 138 1 151 7 12 7 21
0 25 -6 4 -10 61 -10 140 0 74 -4 136 -9 139 -10 7 -21 84 -14 102 12 31 43 8
43 -32 0 -7 9 -28 21 -46 19 -30 20 -31 15 -7 -8 39 12 101 32 97 15 -3 17
-18 17 -104 0 -66 4 -106 12 -116 10 -12 10 -37 -2 -124 -19 -137 -22 -145
-41 -120 -8 11 -14 30 -14 43 0 13 -3 23 -7 23 -10 0 -10 -156 -1 -165 12 -13
29 7 23 26 -11 35 6 40 36 10 19 -20 29 -40 29 -60 0 -17 5 -31 10 -31 15 0
12 55 -6 100 -14 34 -14 45 -4 64 9 19 9 27 -1 44 -10 17 -10 28 1 61 10 31
11 55 4 95 -6 29 -7 62 -3 72 11 29 10 83 -2 106 -19 35 11 87 46 78 6 -1 32
-2 59 -1 l48 2 -6 -58 c-4 -32 -2 -71 3 -88 12 -41 20 -18 23 70 l3 70 45 14
c25 8 47 15 49 17 9 8 -23 34 -40 34 -11 0 -19 5 -19 11 0 6 9 9 20 6 10 -3
25 1 31 9 9 11 15 11 25 3 18 -14 44 -4 44 16 0 14 -11 16 -78 11 -43 -4 -93
-10 -110 -15 -33 -10 -282 -28 -317 -23 -11 1 -58 4 -105 7 -47 2 -104 9 -127
16 -33 9 -46 9 -58 -1 -12 -10 -18 -9 -30 4 -9 9 -33 17 -53 18 -65 3 -77 4
-94 12 -10 5 -25 6 -33 3 -8 -4 -17 -1 -21 4 -3 6 -17 8 -31 4 -16 -4 -35 0
-52 12 -14 9 -46 19 -69 20 -24 2 -52 8 -62 13 -10 6 -41 10 -68 10 -32 0 -54
5 -62 15 -7 8 -20 15 -30 15 -10 0 -23 7 -30 15 -7 8 -24 15 -38 15 -14 0 -23
-2 -21 -4z m992 -993 c18 -65 18 -73 -2 -73 -10 0 -26 11 -34 24 -14 21 -14
25 1 45 21 25 29 26 35 4z"/>
<path d="M4125 3460 c-4 -6 5 -10 19 -10 14 0 26 5 26 10 0 6 -9 10 -19 10
-11 0 -23 -4 -26 -10z"/>
<path d="M5023 3456 c-23 -11 -33 -56 -12 -56 22 0 49 22 49 40 0 24 -10 29
-37 16z"/>
<path d="M4460 3397 c0 -21 12 -28 27 -16 19 16 16 29 -7 29 -11 0 -20 -6 -20
-13z"/>
<path d="M4966 3377 c-59 -18 -54 -32 10 -30 63 1 72 6 54 28 -14 17 -13 17
-64 2z"/>
<path d="M5250 3291 c0 -12 5 -21 10 -21 6 0 10 6 10 14 0 8 -4 18 -10 21 -5
3 -10 -3 -10 -14z"/>
<path d="M3496 3240 c-3 -22 -2 -111 3 -197 15 -247 14 -343 -5 -371 -19 -29
-15 -119 12 -249 2 -13 8 -23 13 -23 14 0 17 30 9 90 -8 63 -3 90 18 90 14 0
19 -22 15 -71 -1 -14 5 -32 14 -39 20 -16 19 -35 -2 -71 -13 -21 -15 -32 -6
-37 6 -4 16 -27 23 -52 21 -77 31 -25 19 92 -6 56 -11 128 -11 158 0 69 23
170 38 170 18 0 23 -104 20 -443 -2 -329 1 -358 38 -344 10 4 16 18 16 39 -1
34 -16 159 -26 216 -4 20 -2 32 5 32 6 0 11 -9 11 -20 0 -11 6 -20 14 -20 20
0 29 30 14 47 -6 8 -13 51 -15 96 -7 150 -5 178 13 198 12 13 15 29 11 53 -4
23 -1 39 8 46 34 28 26 120 -10 120 -20 0 -28 -41 -21 -103 7 -53 -6 -113 -22
-103 -5 3 -12 53 -15 112 -4 59 -9 109 -11 111 -2 3 -24 -2 -47 -10 -39 -13
-45 -19 -54 -58 -18 -73 -30 -50 -31 59 -1 103 5 123 30 103 11 -9 15 -5 19
18 7 32 -1 293 -9 301 -14 14 -24 -31 -18 -80 9 -61 8 -136 -1 -159 -15 -39
-24 24 -23 165 0 83 -2 157 -6 163 -13 21 -23 11 -30 -29z"/>
<path d="M5022 3242 c-22 -11 -31 -21 -27 -31 4 -9 6 -117 6 -241 0 -124 3
-231 8 -238 6 -10 12 -7 25 12 9 14 23 26 31 26 15 0 55 38 55 52 0 4 -4 8
-10 8 -5 0 -10 -7 -10 -16 0 -23 -44 -14 -48 10 -2 10 3 23 12 28 20 12 21 71
1 88 -12 10 -15 37 -15 121 0 102 1 109 20 109 17 0 20 -7 20 -39 0 -59 12
-131 21 -131 5 0 9 40 9 88 0 83 -2 91 -31 130 -17 23 -31 42 -32 41 -1 0 -17
-8 -35 -17z"/>
<path d="M3677 3233 c-13 -13 -7 -32 8 -27 8 4 15 12 15 20 0 15 -12 19 -23 7z"/>
<path d="M5216 3221 c-4 -5 -2 -20 3 -32 l8 -24 7 23 c4 12 12 22 17 22 5 0 9
5 9 10 0 12 -37 13 -44 1z"/>
<path d="M3809 3208 c-2 -7 -3 -98 -1 -201 3 -166 5 -189 20 -194 23 -9 32
-23 32 -55 0 -33 -16 -45 -25 -18 -3 11 -15 25 -26 30 -19 10 -26 1 -11 -14 6
-7 11 -215 11 -481 0 -33 5 -85 12 -116 9 -47 9 -66 -5 -113 -20 -67 -14 -99
17 -94 17 2 23 14 33 68 9 46 9 77 2 107 -11 44 -6 170 7 212 7 20 5 22 -12
17 -19 -6 -20 -1 -25 125 -3 72 -3 143 1 157 l8 27 15 -29 c14 -28 15 -26 21
64 6 80 5 96 -10 112 -14 16 -15 23 -4 53 9 27 9 39 0 56 -7 15 -9 45 -5 88 3
36 1 79 -4 96 -6 16 -15 49 -20 73 -11 41 -24 54 -31 30z"/>
<path d="M4105 3200 c-5 -9 -9 -83 -8 -174 2 -87 0 -163 -4 -168 -8 -14 -23
12 -23 40 0 12 -5 22 -11 22 -7 0 -9 -30 -5 -92 3 -51 9 -178 14 -283 4 -104
12 -199 18 -210 6 -11 14 -53 18 -94 3 -41 11 -80 17 -87 6 -7 9 -29 8 -48 -4
-43 2 -50 40 -41 27 6 29 9 24 42 -3 19 -2 38 3 42 15 11 44 72 44 93 0 17 -4
19 -26 14 -30 -8 -54 8 -54 35 0 10 -13 33 -29 52 l-30 33 -1 155 c-1 85 0
161 3 169 25 69 33 265 18 440 -4 54 -9 71 -16 60z"/>
<path d="M3957 3193 c-4 -3 -7 -17 -7 -30 0 -14 -6 -34 -12 -46 -12 -22 -22
-430 -11 -470 8 -29 23 -8 23 33 0 41 16 62 26 36 3 -9 10 -16 15 -16 10 0 5
327 -6 438 -6 58 -13 71 -28 55z m18 -278 c0 -22 -5 -40 -12 -42 -9 -3 -13 9
-13 42 0 33 4 45 13 43 7 -3 12 -21 12 -43z"/>
<path d="M4626 3189 c-12 -38 -16 -218 -5 -245 12 -31 18 -123 23 -404 2 -96
4 -187 5 -202 1 -19 10 -31 33 -42 40 -20 40 -20 36 7 -2 16 -9 21 -25 19 -31
-4 -30 22 3 69 20 30 25 46 22 85 l-3 49 -13 -44 c-25 -83 -33 -30 -39 255 -2
154 -5 316 -6 361 -1 49 -7 87 -14 94 -10 10 -13 9 -17 -2z"/>
<path d="M4827 3172 c-22 -24 -22 -41 2 -66 14 -17 20 -44 25 -127 6 -100 5
-107 -13 -112 -15 -4 -20 -16 -25 -63 -3 -33 -7 -77 -10 -99 -16 -121 -19
-383 -7 -500 9 -83 8 -92 -10 -111 -20 -22 -17 -43 13 -87 11 -15 10 -20 -6
-32 -26 -19 -36 -10 -36 31 0 19 -4 34 -10 34 -5 0 -10 -18 -10 -39 0 -22 5
-43 10 -46 6 -3 10 -13 10 -21 0 -16 35 -54 50 -54 6 0 10 7 10 15 0 8 -4 15
-10 15 -20 0 -9 29 13 32 20 3 22 8 20 66 -1 54 1 62 17 62 19 0 32 -35 27
-75 -3 -29 31 -31 44 -2 9 21 7 28 -20 58 -17 18 -31 43 -31 56 0 12 -7 29
-16 38 -12 12 -14 26 -10 58 8 48 8 47 0 220 -5 110 -3 132 11 154 15 22 16
43 12 145 -4 65 -9 123 -12 128 -3 5 6 27 20 47 28 42 31 69 10 97 -19 25 -19
73 0 106 20 35 19 40 -9 40 -17 0 -27 8 -33 26 -8 25 -9 25 -26 6z"/>
<path d="M3701 3151 c-16 -16 -21 -34 -21 -71 0 -37 -5 -53 -18 -61 -16 -10
-17 -20 -10 -78 4 -36 11 -79 16 -95 9 -32 32 -48 32 -23 0 9 -5 17 -11 19 -8
3 -7 13 3 33 21 40 30 112 20 155 -10 41 3 104 20 94 7 -5 9 -32 5 -80 -4 -61
-3 -74 9 -74 12 0 14 17 12 97 -3 82 -6 98 -20 101 -9 2 -26 -6 -37 -17z"/>
<path d="M5275 3159 c-6 -9 -19 -18 -30 -20 -19 -4 -21 -16 -30 -218 -7 -153
-14 -216 -22 -218 -8 -3 -15 10 -19 36 -7 43 -29 60 -51 39 -7 -8 -18 -51 -24
-96 -9 -65 -16 -88 -35 -107 -18 -18 -24 -36 -25 -72 -3 -75 -6 -116 -13 -169
-16 -125 -16 -174 -1 -204 13 -25 13 -41 4 -100 -11 -70 -10 -72 16 -111 l28
-39 24 24 c23 23 24 28 17 115 -6 82 -5 94 12 109 18 17 19 33 17 233 -2 118
0 233 3 257 8 60 30 55 37 -10 4 -28 11 -56 17 -62 12 -12 13 -163 1 -171 -5
-3 -12 -19 -16 -36 -6 -24 -2 -36 16 -55 24 -26 25 -29 13 -174 l-5 -75 39
-43 c21 -23 42 -39 45 -35 10 10 8 59 -3 85 -16 37 -28 209 -17 246 11 34 27
43 27 15 0 -9 8 -25 17 -35 16 -18 16 -21 1 -51 -9 -18 -20 -56 -23 -84 -8
-63 11 -81 45 -42 19 21 20 34 17 122 -2 55 -9 103 -16 110 -16 16 -14 89 5
125 9 19 16 60 16 97 1 53 -2 68 -18 80 -30 23 -36 18 -29 -28 4 -25 1 -62 -6
-88 -6 -24 -13 -56 -14 -72 -3 -27 -21 -57 -34 -57 -11 0 -34 155 -27 177 3
11 2 39 -2 64 -8 43 2 341 13 387 3 13 13 22 24 22 26 0 30 16 22 85 -5 46 -9
56 -16 44z m-157 -645 c-14 -41 -14 -50 -1 -102 13 -47 13 -74 5 -152 -18
-159 -36 -270 -43 -270 -16 0 -27 120 -18 182 31 213 32 217 15 258 -13 34
-14 48 -4 88 16 65 27 77 47 57 14 -14 14 -20 -1 -61z m130 -181 c-2 -27 -8
-39 -20 -41 -15 -3 -18 4 -18 37 0 35 3 41 21 41 17 0 20 -5 17 -37z"/>
<path d="M4053 3069 c-1 -32 3 -59 8 -59 11 0 12 107 2 113 -5 3 -9 -22 -10
-54z"/>
<path d="M4285 3090 c-8 -13 3 -50 16 -50 12 0 12 47 0 55 -5 3 -12 1 -16 -5z"/>
<path d="M4947 3046 c-8 -21 4 -126 14 -120 12 7 12 121 0 128 -5 3 -11 0 -14
-8z"/>
<path d="M4471 2960 c0 -65 2 -90 9 -80 11 18 11 114 0 150 -5 17 -8 -7 -9
-70z"/>
<path d="M4784 3036 c-7 -19 9 -72 22 -68 14 3 11 75 -3 79 -7 3 -16 -2 -19
-11z"/>
<path d="M3375 3022 c-3 -11 -3 -27 1 -36 4 -10 0 -22 -11 -30 -20 -14 -18
-46 11 -186 17 -81 29 -104 46 -94 4 3 8 65 8 138 0 107 -3 136 -15 146 -8 7
-15 25 -15 41 0 33 -16 47 -25 21z"/>
<path d="M5156 3004 c-10 -25 -7 -92 4 -99 6 -4 10 17 10 54 0 62 -3 73 -14
45z"/>
<path d="M5335 3008 c-4 -10 -4 -26 0 -35 8 -17 8 -17 12 0 3 9 3 25 0 35 -4
16 -4 16 -12 0z"/>
<path d="M5280 2833 c0 -138 2 -163 15 -163 13 0 14 22 12 143 -1 88 -7 150
-14 162 -10 16 -12 -12 -13 -142z"/>
<path d="M4170 2946 c0 -19 5 -38 10 -41 6 -3 10 -24 10 -45 0 -41 14 -61 24
-34 9 25 7 72 -4 79 -5 3 -10 22 -10 41 0 24 -5 34 -15 34 -10 0 -15 -10 -15
-34z"/>
<path d="M4708 2963 c-10 -19 -8 -322 1 -328 20 -12 26 61 21 272 -1 47 -12
76 -22 56z"/>
<path d="M4947 2863 c-9 -8 -8 -53 2 -78 7 -17 10 -15 19 18 14 50 2 83 -21
60z"/>
<path d="M5342 2840 c0 -19 2 -27 5 -17 2 9 2 25 0 35 -3 9 -5 1 -5 -18z"/>
<path d="M4946 2750 c-11 -28 -26 -105 -26 -133 0 -24 3 -27 20 -22 17 5 20 2
20 -22 0 -16 -5 -34 -11 -40 -8 -8 -13 -67 -14 -165 -2 -84 -6 -170 -10 -190
-4 -23 -3 -38 2 -38 15 0 33 72 33 131 0 114 33 334 52 345 11 7 10 44 -2 44
-5 0 -10 -5 -10 -11 0 -6 -8 -9 -17 -7 -14 2 -17 11 -15 38 4 42 -13 94 -22
70z"/>
<path d="M3988 2614 c-2 -5 -11 -29 -18 -54 -8 -25 -20 -49 -27 -53 -14 -9
-19 -107 -5 -107 5 0 13 10 19 22 8 18 11 -2 15 -87 4 -72 11 -120 22 -140 9
-16 16 -40 16 -52 0 -13 5 -23 11 -23 8 0 10 15 5 48 -3 26 -9 133 -12 237 -6
173 -13 233 -26 209z"/>
<path d="M4556 2571 c-4 -5 -1 -33 6 -63 l11 -53 9 40 c13 58 -5 110 -26 76z"/>
<path d="M4547 2393 c-25 -24 13 -152 45 -153 14 0 7 96 -10 128 -17 33 -23
37 -35 25z"/>
<path d="M3927 2333 c-10 -35 -7 -302 2 -308 6 -3 13 -26 17 -50 3 -25 10 -45
15 -45 14 0 22 47 14 78 -8 29 -14 105 -19 237 -1 44 -3 86 -4 93 -3 18 -20
15 -25 -5z"/>
<path d="M4475 2190 c3 -53 1 -91 -5 -95 -12 -7 -14 -75 -2 -75 5 0 16 6 25
13 14 10 18 32 20 121 2 104 1 109 -20 117 -22 8 -22 7 -18 -81z"/>
<path d="M5397 2264 c-10 -10 -9 -66 2 -82 6 -10 10 -6 13 13 7 32 -4 80 -15
69z"/>
<path d="M4305 2190 c-7 -23 2 -43 16 -35 12 8 12 55 0 55 -5 0 -12 -9 -16
-20z"/>
<path d="M4580 2161 c0 -22 -4 -43 -10 -46 -5 -3 -10 -17 -10 -31 0 -19 5 -25
18 -22 14 3 18 16 20 71 2 42 -1 67 -8 67 -5 0 -10 -18 -10 -39z"/>
<path d="M3595 2139 c-9 -25 -2 -114 10 -114 14 0 19 90 6 112 -9 16 -10 16
-16 2z"/>
<path d="M3744 2116 c-4 -10 -2 -22 4 -28 8 -8 13 -7 18 6 4 10 2 22 -4 28 -8
8 -13 7 -18 -6z"/>
<path d="M4333 2114 c-3 -8 4 -28 16 -44 11 -16 21 -36 21 -45 0 -8 6 -15 14
-15 15 0 33 91 21 110 -10 16 -65 12 -72 -6z"/>
<path d="M4640 2088 c-16 -39 -48 -78 -66 -78 -6 0 -17 -7 -24 -15 -7 -8 -17
-12 -22 -9 -11 7 -52 -11 -80 -35 -12 -9 -18 -28 -18 -53 0 -41 12 -47 44 -23
26 20 46 19 46 -1 0 -13 5 -12 23 7 13 13 26 32 30 41 4 10 12 15 21 12 23 -9
28 -35 10 -55 -14 -15 -14 -29 -5 -108 10 -79 9 -94 -5 -116 -10 -16 -13 -32
-8 -47 4 -13 6 -107 5 -210 l-3 -188 26 -10 c24 -9 26 -14 24 -57 -1 -27 1
-58 5 -69 6 -17 3 -23 -12 -27 -17 -4 -20 -16 -25 -93 -9 -140 -8 -154 8 -179
9 -13 18 -56 21 -96 3 -40 10 -78 15 -84 6 -7 13 -33 16 -59 9 -61 21 -66 41
-19 17 37 23 186 15 328 -2 28 -3 119 -3 204 0 85 -4 173 -9 195 -5 23 -10
160 -10 306 1 252 -23 570 -41 570 -4 0 -12 -15 -19 -32z m20 -399 c0 -31 -4
-48 -10 -44 -17 11 -12 95 7 95 2 0 3 -23 3 -51z m0 -365 c0 -41 -4 -63 -10
-59 -18 11 -12 125 7 125 2 0 3 -30 3 -66z"/>
<path d="M4741 2110 c0 -8 4 -24 9 -35 5 -13 9 -14 9 -5 0 8 -4 24 -9 35 -5
13 -9 14 -9 5z"/>
<path d="M4956 2104 c-23 -22 -21 -70 3 -77 11 -2 21 -15 24 -28 2 -13 5 6 6
43 1 71 -8 88 -33 62z"/>
<path d="M4080 2082 c0 -15 -8 -43 -18 -62 -36 -69 -50 -271 -45 -650 1 -80 1
-249 0 -377 -2 -174 1 -235 11 -245 8 -8 12 -46 12 -114 0 -105 11 -135 31
-90 14 29 29 25 29 -8 0 -12 7 -31 15 -42 8 -10 15 -30 15 -42 0 -30 24 -24
28 7 2 13 -4 29 -15 37 -17 13 -17 15 0 28 21 16 22 34 3 55 -8 9 -18 28 -21
44 -7 26 -5 27 27 27 23 0 45 9 63 25 l29 24 -16 53 c-18 61 -14 139 9 184 12
23 13 36 5 49 -9 17 -12 15 -26 -18 -8 -20 -20 -37 -25 -37 -6 0 -20 -9 -31
-20 l-20 -20 -11 23 c-11 24 2 77 20 77 13 0 23 34 15 54 -8 20 -30 21 -38 0
-3 -8 -10 -13 -15 -9 -13 8 -14 285 -1 285 6 0 10 -36 10 -88 0 -89 14 -132
44 -132 23 0 24 48 5 112 -17 53 -19 92 -19 301 1 227 0 241 -19 260 -20 20
-20 20 -27 -7 -8 -33 3 -137 16 -150 6 -6 10 -17 10 -25 0 -18 -33 -90 -41
-91 -12 0 -18 95 -12 205 3 61 5 129 4 153 -1 38 1 42 23 42 14 0 28 -4 31
-10 10 -15 78 -12 103 6 25 17 29 51 9 79 -18 24 -37 11 -37 -26 0 -20 -5 -29
-16 -29 -13 0 -15 7 -9 40 6 33 4 40 -9 40 -9 0 -16 -7 -16 -15 0 -18 -19 -20
-24 -2 -16 60 -41 127 -48 127 -4 0 -8 -12 -8 -28z m20 -688 c0 -21 -4 -33
-10 -29 -5 3 -10 22 -10 41 0 21 4 33 10 29 6 -3 10 -22 10 -41z m94 -576 c10
-41 -2 -128 -19 -131 -5 -1 -13 25 -16 58 -4 33 -10 73 -14 88 -7 26 -5 28 16
25 18 -2 26 -12 33 -40z m-69 -105 l-8 -38 -10 32 c-5 17 -6 44 -2 60 7 27 7
28 17 6 6 -13 7 -38 3 -60z"/>
<path d="M5160 2089 c0 -11 5 -17 10 -14 6 3 10 13 10 21 0 8 -4 14 -10 14 -5
0 -10 -9 -10 -21z"/>
<path d="M3744 2036 c-7 -28 2 -49 17 -41 12 8 12 52 -1 60 -5 3 -12 -5 -16
-19z"/>
<path d="M5337 2033 c-13 -12 -7 -33 13 -53 25 -25 40 -18 40 20 0 32 -34 53
-53 33z"/>
<path d="M4280 1971 c-5 -11 -10 -38 -10 -60 0 -32 4 -41 17 -41 9 0 24 -7 34
-15 22 -21 68 -10 79 19 8 23 -4 46 -26 46 -8 0 -20 16 -28 35 -17 40 -49 47
-66 16z"/>
<path d="M5180 1965 c0 -8 5 -15 10 -15 6 0 10 7 10 15 0 8 -4 15 -10 15 -5 0
-10 -7 -10 -15z"/>
<path d="M4363 1948 c2 -7 10 -13 17 -13 7 0 15 6 18 13 2 7 -5 12 -18 12 -13
0 -20 -5 -17 -12z"/>
<path d="M3806 1913 c-12 -12 -6 -33 9 -33 8 0 15 6 15 14 0 17 -14 28 -24 19z"/>
<path d="M3930 1881 c0 -19 17 -38 25 -29 7 7 -7 48 -16 48 -5 0 -9 -9 -9 -19z"/>
<path d="M4502 1828 c-13 -32 -15 -520 -2 -553 7 -19 10 -78 9 -235 0 -19 4
-108 8 -198 9 -193 27 -218 31 -45 1 65 7 122 12 127 15 15 12 47 -8 107 -13
38 -16 63 -11 84 10 34 5 472 -5 496 -4 8 -3 49 2 90 8 63 7 80 -8 114 l-17
40 -11 -27z"/>
<path d="M4164 1819 c-3 -6 -1 -16 5 -22 8 -8 11 -5 11 11 0 24 -5 28 -16 11z"/>
<path d="M4261 1757 c-1 -36 3 -56 9 -52 12 7 12 49 0 85 -6 19 -8 11 -9 -33z"/>
<path d="M4323 1775 c0 -22 2 -30 4 -17 2 12 2 30 0 40 -3 9 -5 -1 -4 -23z"/>
<path d="M4378 1804 c-5 -4 -8 -46 -8 -93 -1 -76 -5 -138 -26 -336 -3 -27 -2
-128 2 -223 5 -132 10 -176 21 -187 17 -17 12 -57 -14 -118 -12 -28 -13 -41
-5 -49 8 -8 8 -17 1 -30 -15 -29 -7 -123 11 -123 11 0 17 24 27 95 6 52 12
115 12 138 1 30 5 42 14 40 9 -4 13 -61 15 -234 2 -237 5 -265 23 -247 12 12
13 107 3 481 -4 137 -11 242 -16 242 -6 0 -7 -32 -3 -78 5 -53 4 -86 -4 -100
-29 -55 -38 -20 -52 219 -10 156 -9 180 5 207 13 25 16 60 15 160 -1 147 -11
247 -21 236z"/>
<path d="M4191 1660 c0 -74 4 -157 8 -185 7 -50 7 -50 15 36 11 113 5 254 -11
271 -10 10 -13 -15 -12 -122z"/>
<path d="M4257 1550 c-3 -12 1 -88 9 -168 7 -81 14 -203 14 -272 0 -126 12
-182 26 -126 11 47 -3 486 -18 533 -17 52 -24 60 -31 33z"/>
<path d="M4256 814 c-9 -24 -7 -74 3 -74 12 0 21 26 21 61 0 31 -14 39 -24 13z"/>
<path d="M4532 620 c0 -19 2 -27 5 -17 2 9 2 25 0 35 -3 9 -5 1 -5 -18z"/>
<path d="M4592 620 c0 -19 2 -27 5 -17 2 9 2 25 0 35 -3 9 -5 1 -5 -18z"/>
<path d="M4256 576 c-4 -19 -12 -37 -19 -39 -9 -3 -9 -9 1 -23 7 -11 21 -38
32 -62 11 -24 24 -41 29 -38 5 3 12 27 16 53 3 27 9 58 12 71 5 21 3 22 -21
16 -23 -5 -26 -3 -26 19 0 39 -17 41 -24 3z"/>
<path d="M4377 561 c-4 -19 -7 -60 -7 -92 0 -46 3 -59 15 -59 12 0 15 14 14
73 0 39 -4 81 -8 92 -7 16 -9 14 -14 -14z"/>
</g>
</svg>
