<?xml version="1.0" standalone="no"?>
<!DOCTYPE svg PUBLIC "-//W3C//DTD SVG 20010904//EN"
 "http://www.w3.org/TR/2001/REC-SVG-20010904/DTD/svg10.dtd">
<svg version="1.0" xmlns="http://www.w3.org/2000/svg"
 width="300.000000pt" height="191.000000pt" viewBox="0 0 300.000000 191.000000"
 preserveAspectRatio="xMidYMid meet">
<metadata>
Created by potrace 1.10, written by Peter Selinger 2001-2011
</metadata>
<g transform="translate(0.000000,191.000000) scale(0.100000,-0.100000)"
fill="#f24c00" stroke="none">
<path d="M718 1641 c-119 -48 -234 -171 -311 -334 -20 -43 -37 -81 -37 -86 0
-4 -7 -31 -16 -60 -11 -39 -22 -55 -42 -64 -61 -26 -104 -63 -137 -116 l-35
-55 0 -138 c0 -75 4 -147 9 -160 27 -71 155 -179 238 -200 38 -9 50 -18 74
-58 30 -50 116 -133 167 -162 26 -16 58 -18 230 -18 l201 0 59 55 c33 30 69
76 81 101 12 24 27 47 34 50 7 2 42 -2 78 -11 201 -47 362 11 594 214 79 69
110 95 196 163 92 73 91 69 14 43 -74 -26 -135 -32 -135 -14 0 11 -14 9 -55
-6 -40 -16 37 54 104 94 142 83 271 102 544 79 106 -9 193 -15 195 -13 2 2
-30 8 -70 14 -122 19 -200 32 -258 42 -90 15 -348 22 -450 11 -122 -14 -208
-33 -317 -72 -330 -119 -311 -113 -418 -113 -79 1 -109 5 -145 21 -136 62
-192 159 -171 291 17 105 70 167 150 178 60 8 108 -5 147 -39 64 -57 81 -116
50 -176 -32 -62 -133 -80 -177 -33 -26 28 -24 31 16 29 85 -3 111 98 34 137
-29 16 -34 16 -68 1 -96 -44 -92 -187 7 -250 107 -69 215 -63 520 28 182 55
240 67 357 80 77 8 154 13 170 11 17 -2 75 -9 130 -15 55 -6 109 -14 120 -17
20 -5 20 -5 0 10 -11 7 -40 21 -65 30 -25 9 -65 23 -89 32 -74 27 -198 44
-361 50 -179 7 -295 27 -371 64 -46 22 -62 38 -106 105 -87 133 -186 218 -313
268 -79 31 -303 37 -372 9z"/>
</g>
</svg>
