<?xml version="1.0" standalone="no"?>
<!DOCTYPE svg PUBLIC "-//W3C//DTD SVG 20010904//EN"
 "http://www.w3.org/TR/2001/REC-SVG-20010904/DTD/svg10.dtd">
<svg version="1.0" xmlns="http://www.w3.org/2000/svg"
 width="300.000000pt" height="181.000000pt" viewBox="0 0 300.000000 181.000000"
 preserveAspectRatio="xMidYMid meet">
<metadata>
Created by potrace 1.10, written by Peter Selinger 2001-2011
</metadata>
<g transform="translate(0.000000,181.000000) scale(0.100000,-0.100000)"
fill="#ce3837" stroke="none">
<path d="M482 1696 c-102 -55 -202 -157 -261 -266 l-29 -53 -96 2 -96 2 0
-475 0 -476 29 0 c16 0 53 -11 82 -24 30 -12 66 -26 81 -30 18 -4 33 -18 45
-44 27 -58 140 -163 214 -198 88 -43 160 -57 262 -52 70 4 97 10 149 36 77 38
154 111 193 184 15 29 29 54 29 55 1 1 35 -5 76 -13 150 -28 292 -13 404 43
71 35 127 78 307 229 86 72 177 146 203 164 25 18 44 35 42 37 -2 2 -31 -5
-64 -16 -80 -27 -142 -37 -142 -22 0 14 -35 14 -62 0 -42 -23 -27 1 28 45 104
82 203 126 324 145 111 18 375 11 535 -15 22 -3 38 -4 35 -1 -3 3 -48 13 -100
22 -544 95 -803 85 -1150 -45 -178 -66 -227 -82 -298 -96 -98 -19 -154 -18
-235 5 -106 29 -176 88 -214 179 -21 51 -13 183 15 237 66 130 215 152 319 49
73 -74 76 -151 8 -214 -38 -35 -122 -36 -159 -1 -35 33 -33 40 12 34 50 -7 86
29 84 84 -4 97 -137 99 -187 3 -34 -65 -4 -156 68 -208 112 -80 251 -71 612
39 244 75 289 83 495 82 135 0 205 -5 258 -17 101 -22 107 -20 35 14 -149 70
-286 98 -543 110 -210 10 -284 21 -367 52 -73 27 -106 57 -155 142 -62 107
-153 191 -272 251 l-98 50 -177 3 -176 2 -63 -34z"/>
</g>
</svg>
