<?xml version="1.0" standalone="no"?>
<!DOCTYPE svg PUBLIC "-//W3C//DTD SVG 20010904//EN"
 "http://www.w3.org/TR/2001/REC-SVG-20010904/DTD/svg10.dtd">
<svg version="1.0" xmlns="http://www.w3.org/2000/svg"
 width="300.000000pt" height="117.000000pt" viewBox="0 0 300.000000 117.000000"
 preserveAspectRatio="xMidYMid meet">
<metadata>
Created by potrace 1.10, written by Peter Selinger 2001-2011
</metadata>
<g transform="translate(0.000000,117.000000) scale(0.100000,-0.100000)"
fill="#cd3736" stroke="none">
<path d="M1533 1044 c-43 -26 -75 -25 -52 2 14 17 0 19 -36 2 -14 -6 -25 -17
-25 -23 0 -27 25 -33 110 -25 47 4 116 7 155 6 60 -1 70 -4 73 -20 8 -42 -56
-60 -92 -27 -19 17 -31 18 -120 12 -89 -6 -100 -9 -114 -30 -9 -12 -36 -38
-60 -57 -38 -28 -41 -34 -23 -35 11 -1 24 -2 29 -4 4 -1 19 -5 33 -9 14 -4 41
-6 60 -4 l34 3 -37 17 c-26 12 -36 22 -32 32 6 15 39 10 83 -13 12 -7 45 -11
74 -9 l52 3 -36 16 c-20 10 -40 22 -44 29 -16 27 11 22 73 -12 54 -29 81 -37
138 -41 39 -3 77 -1 85 4 10 6 5 9 -17 9 -39 0 -94 19 -94 32 0 7 12 8 33 3
78 -18 105 -20 145 -14 24 3 48 11 54 17 7 7 -1 9 -29 5 -51 -7 -68 13 -19 22
19 4 53 8 75 8 59 3 50 15 -16 22 -120 12 -141 16 -159 30 -18 14 -18 14 -1
15 10 0 38 -5 61 -11 24 -6 54 -9 67 -7 22 3 -26 23 -126 54 -50 16 -107 15
-157 -2 -29 -10 -62 -18 -72 -19 -31 0 -30 22 1 33 l28 10 -30 1 c-16 0 -49
-11 -72 -25z m294 -74 c14 -11 32 -20 40 -20 8 0 13 -6 10 -12 -5 -15 -73 -16
-87 -2 -9 9 -3 54 7 54 3 0 16 -9 30 -20z m-289 -47 c2 -8 -6 -13 -22 -13 -26
0 -40 12 -29 24 11 11 46 2 51 -11z"/>
<path d="M1304 1045 c56 -22 67 -34 64 -69 -2 -24 -11 -35 -38 -47 -24 -11
-35 -24 -36 -39 -2 -32 -23 -42 -76 -35 -27 3 -49 1 -53 -5 -9 -15 -58 -12
-84 6 -17 12 -21 22 -17 40 6 22 4 23 -18 14 -18 -6 -28 -5 -36 4 -17 22 8 66
42 73 27 5 50 23 30 23 -27 0 -71 -24 -81 -44 -18 -32 -10 -70 14 -75 10 -2
32 -17 47 -34 28 -29 31 -30 90 -23 33 3 74 6 90 6 20 0 42 12 70 38 22 20 49
45 59 55 44 40 5 112 -66 122 l-40 5 39 -15z"/>
<path d="M1200 1041 c-33 -6 -34 -7 -10 -14 14 -4 34 -7 44 -7 10 0 24 -8 31
-17 10 -14 9 -23 -6 -50 -10 -18 -14 -33 -9 -33 11 0 40 53 40 74 0 8 -9 21
-20 29 -11 8 -17 17 -13 20 7 8 -6 7 -57 -2z"/>
<path d="M1149 986 c-15 -7 -25 -22 -27 -38 -3 -23 1 -28 25 -34 15 -3 35 -8
43 -10 8 -2 22 1 30 6 11 7 6 10 -21 10 -19 0 -44 6 -54 14 -17 12 -17 16 -5
31 9 10 22 14 37 10 13 -3 23 -1 23 4 0 16 -26 20 -51 7z"/>
<path d="M919 965 c-14 -8 -39 -41 -58 -79 -32 -62 -53 -82 -72 -70 -17 10 -9
51 16 74 14 13 25 28 25 34 0 5 -14 -3 -31 -20 -29 -28 -69 -103 -69 -130 0
-16 -26 -19 -35 -4 -4 6 -1 17 5 25 10 12 9 15 -3 15 -13 0 -25 -19 -33 -52
-1 -5 -2 -9 -4 -10 -1 -2 -3 -10 -5 -18 -2 -8 -6 -22 -9 -31 -6 -13 -1 -15 25
-11 27 4 31 2 26 -11 -5 -14 -3 -15 13 -5 10 7 21 19 23 28 5 21 100 92 173
131 64 34 85 49 67 49 -7 0 -15 9 -18 21 -6 19 -8 19 -25 4 -10 -9 -23 -14
-29 -11 -15 9 -2 37 28 63 30 26 27 28 -10 8z"/>
<path d="M2127 960 c18 -4 45 -16 60 -26 16 -10 45 -19 66 -20 29 -2 47 -11
79 -44 l43 -42 -24 -19 c-25 -20 -56 -25 -66 -9 -3 6 -15 5 -31 -2 -21 -10
-28 -8 -45 8 -12 13 -17 27 -13 37 8 21 44 22 44 1 0 -8 5 -12 10 -9 15 9 12
32 -6 39 -30 12 -60 -4 -73 -40 -14 -38 -42 -58 -71 -49 -27 9 -25 17 10 37
50 28 38 98 -17 98 -23 0 -43 -26 -36 -47 7 -20 23 -15 23 6 0 27 15 34 34 15
21 -21 20 -29 -6 -54 -15 -14 -30 -19 -43 -15 -20 7 -27 7 -80 3 -22 -2 -32 3
-40 19 -14 28 -25 19 -25 -20 0 -29 -1 -30 -42 -23 -24 3 -56 8 -73 12 -16 3
-43 0 -60 -7 l-30 -12 25 -7 c14 -3 42 -14 62 -23 46 -21 112 -25 132 -8 12
10 23 10 51 1 20 -7 46 -10 58 -7 12 3 49 12 82 20 41 11 64 12 72 5 7 -5 22
-6 35 -2 13 4 43 6 67 5 33 -1 50 4 68 21 13 12 23 26 23 33 0 24 -91 87 -133
93 -23 3 -53 13 -66 23 -14 11 -39 19 -60 18 l-36 -1 32 -8z m-67 -183 c0 -6
-20 -7 -50 -4 -27 3 -75 2 -106 -3 -46 -8 -64 -6 -91 7 -46 21 -36 26 26 11
45 -10 56 -9 80 5 15 9 37 14 48 11 12 -3 30 -1 40 4 13 8 22 7 35 -5 10 -9
18 -21 18 -26z"/>
<path d="M692 880 c-12 -5 -61 -35 -110 -66 -75 -50 -174 -140 -274 -252 -31
-34 -38 -54 -10 -30 28 25 61 32 68 14 4 -11 17 1 45 43 49 73 184 204 269
259 60 39 66 53 12 32z"/>
<path d="M932 810 c-64 -35 -172 -127 -172 -146 0 -16 26 -19 35 -5 3 5 19 12
36 16 25 6 28 9 18 21 -17 21 -6 27 48 25 74 -1 141 33 78 41 -52 6 -28 23 38
26 37 2 67 6 67 10 0 10 -59 42 -78 42 -9 0 -41 -13 -70 -30z"/>
<path d="M1242 799 c-61 -30 -82 -35 -82 -19 0 6 5 10 10 10 6 0 10 4 10 9 0
14 -92 -19 -115 -41 -20 -19 -20 -19 5 -13 63 15 270 5 295 -15 5 -4 26 -11
45 -15 44 -9 101 -38 160 -79 25 -18 57 -37 73 -44 19 -8 27 -19 27 -36 0 -33
-23 -50 -49 -36 -20 10 -47 49 -43 62 2 8 -86 63 -119 73 -13 4 -28 11 -34 15
-13 10 -76 24 -93 21 -8 -1 -20 3 -28 10 -20 16 -193 14 -280 -4 -86 -18 -199
-70 -214 -97 -11 -21 -7 -23 25 -11 13 6 33 2 57 -10 39 -20 68 -25 68 -11 0
4 -13 13 -30 19 -16 6 -30 16 -30 21 0 20 45 22 128 7 46 -8 62 10 17 21 -14
3 -25 10 -25 14 0 22 25 19 85 -9 36 -17 75 -31 88 -31 21 1 21 1 2 12 -33 18
-55 40 -49 49 7 12 57 -15 133 -73 35 -26 66 -46 69 -44 2 3 -10 25 -28 51
-35 51 -33 64 7 49 20 -7 29 -21 40 -59 15 -52 85 -155 105 -155 7 0 5 7 -4
18 -40 47 -63 142 -34 142 21 0 37 -26 43 -70 4 -30 18 -54 50 -90 55 -61 76
-66 34 -8 -17 23 -31 52 -31 65 0 43 28 24 58 -40 35 -72 94 -132 141 -142 17
-3 33 -11 36 -16 4 -5 12 -9 18 -9 7 0 -15 25 -48 54 -43 39 -57 57 -49 65 8
9 18 6 36 -9 32 -25 42 -26 30 -2 -5 9 -12 29 -16 45 -10 43 20 34 35 -10 15
-48 57 -103 77 -103 12 0 10 6 -9 28 -34 38 -49 68 -49 96 0 13 -15 47 -34 75
-19 28 -31 53 -26 56 18 11 48 -19 84 -82 34 -59 79 -103 93 -90 3 4 -8 18
-25 31 -16 14 -38 43 -47 63 -55 117 -112 163 -197 159 -84 -5 -128 30 -45 36
41 3 41 3 18 17 -15 8 -61 14 -118 16 -51 1 -96 5 -100 8 -9 10 48 28 68 22
11 -4 19 -2 19 4 0 24 -91 34 -137 15 -19 -9 -43 -12 -52 -8 -12 5 -6 10 24
23 l40 18 -28 5 c-19 4 -46 -4 -85 -23z m465 -184 c10 -27 -6 -30 -29 -7 l-22
22 22 0 c12 0 25 -7 29 -15z m-186 -25 c21 -12 25 -35 8 -46 -13 -8 -24 3 -34
34 -7 25 -3 27 26 12z m205 -75 c7 -30 -13 -64 -50 -84 -24 -13 -28 -13 -41 5
-21 27 -18 43 8 53 12 5 31 18 41 30 25 27 34 27 42 -4z"/>
<path d="M2245 731 c-22 -10 -54 -30 -71 -44 -50 -42 -74 -34 -32 10 37 40 2
25 -53 -22 -29 -25 -59 -45 -66 -45 -22 0 -14 27 14 49 14 12 24 24 20 27 -8
8 -57 -19 -90 -50 -29 -27 -47 -33 -47 -16 0 11 27 39 56 57 19 12 19 12 -1
12 -11 1 -33 -8 -50 -19 -31 -21 -71 -27 -60 -10 3 6 -1 10 -9 10 -8 0 -18 -4
-21 -10 -8 -13 -45 -13 -45 0 0 5 8 13 18 19 12 7 2 9 -40 8 -32 -1 -58 -5
-58 -8 0 -3 42 -27 93 -52 97 -49 156 -62 287 -62 101 0 137 11 155 45 17 33
48 39 79 17 25 -18 9 -49 -36 -70 -74 -35 -289 -39 -383 -8 -33 11 -61 18 -63
16 -7 -7 111 -135 125 -135 19 0 17 5 -17 42 -16 18 -30 36 -30 40 0 18 28 6
55 -22 29 -30 58 -43 35 -15 -23 28 0 29 54 3 60 -30 119 -44 137 -33 7 5 0
12 -20 21 -32 13 -42 34 -16 34 8 0 37 -9 65 -20 28 -11 64 -18 80 -17 35 4
53 17 23 17 -21 0 -50 26 -41 36 3 2 18 0 33 -6 41 -16 125 3 199 45 35 19 70
35 79 35 10 0 17 5 17 10 0 17 -48 11 -112 -15 -116 -47 -137 -24 -25 28 70
34 71 35 45 45 -31 13 -98 15 -147 6 -26 -5 -33 -4 -29 7 4 13 94 33 108 24 4
-2 26 -8 49 -14 56 -12 40 9 -25 34 -39 15 -54 16 -102 6 -30 -6 -63 -17 -71
-24 -25 -21 -108 -67 -122 -67 -25 0 27 43 86 71 44 21 53 29 35 29 -14 0 -43
-9 -65 -19z m148 -94 c2 -7 3 -25 2 -42 -1 -25 -6 -31 -28 -33 -31 -4 -31 -5
-13 39 7 19 11 40 9 47 -3 7 1 10 10 6 9 -3 17 -11 20 -17z m78 7 c-37 -16
-78 -11 -51 6 8 6 31 9 50 9 l35 -1 -34 -14z m-336 -14 c3 -5 3 -10 -2 -11 -4
0 -18 -2 -30 -5 -17 -3 -21 0 -17 11 7 17 40 20 49 5z"/>
<path d="M493 633 c-89 -122 -133 -193 -147 -240 -6 -17 -3 -23 8 -23 9 0 16
6 16 14 0 8 15 41 34 73 18 32 46 80 61 107 15 27 43 65 61 86 35 39 41 50 25
50 -5 0 -31 -30 -58 -67z"/>
<path d="M570 632 c-25 -27 -53 -128 -41 -147 3 -5 7 7 9 28 4 42 32 54 32 13
0 -38 21 -43 46 -11 25 32 46 26 25 -6 -7 -12 -10 -24 -6 -27 6 -6 21 11 28
32 2 5 9 6 15 2 9 -6 9 -13 -3 -29 -22 -31 -19 -37 20 -37 41 0 46 -16 9 -30
-30 -12 -23 -30 12 -30 18 0 24 -5 24 -21 0 -17 -4 -20 -23 -15 -21 5 -23 2
-24 -29 -1 -19 1 -35 4 -35 3 0 29 7 59 16 54 16 83 35 40 27 -31 -6 -43 14
-14 23 27 8 110 65 104 71 -2 3 -15 -2 -28 -10 -29 -19 -84 -31 -98 -22 -15 9
17 45 40 45 17 0 104 60 96 67 -2 2 -26 -7 -53 -20 -48 -24 -73 -26 -73 -4 0
7 14 21 30 32 39 26 38 36 -2 23 -18 -5 -40 -12 -49 -15 -29 -8 -30 14 -3 46
22 26 23 31 8 31 -9 0 -32 -11 -50 -25 -47 -36 -54 -12 -8 30 47 44 28 47 -21
4 -40 -35 -54 -32 -36 7 6 15 10 29 7 31 -6 6 -43 -49 -47 -71 -2 -11 -8 -20
-14 -20 -17 -2 -17 44 0 70 23 36 13 39 -15 6z"/>
<path d="M2656 566 c69 -30 45 -74 -29 -52 -42 13 -47 12 -62 -4 -24 -26 -15
-52 24 -72 19 -9 41 -24 49 -32 30 -30 -12 -95 -52 -80 -17 7 -22 44 -6 44 6
0 10 -6 10 -12 0 -9 3 -8 10 2 10 16 -5 40 -25 40 -18 0 -45 -34 -45 -58 0
-24 35 -52 66 -52 38 0 74 37 74 76 0 49 -12 68 -59 89 -70 31 -46 60 28 34
39 -14 81 3 81 33 0 27 -36 58 -67 58 l-28 -1 31 -13z"/>
<path d="M1017 543 c-20 -14 -36 -27 -34 -29 9 -9 48 11 62 32 19 29 19 29
-28 -3z"/>
<path d="M1104 546 c-12 -9 -15 -19 -10 -32 8 -18 9 -18 19 4 11 25 25 25 41
-1 8 -12 5 -22 -14 -42 -13 -14 -19 -25 -13 -25 6 0 16 7 23 15 16 19 30 10
23 -15 -8 -32 -39 -42 -108 -37 -97 8 -133 34 -115 82 9 24 9 26 -4 15 -9 -6
-18 -28 -22 -48 -6 -31 -3 -39 21 -59 21 -19 35 -23 67 -19 27 3 41 0 45 -9 4
-13 32 -27 58 -30 23 -3 81 35 98 63 12 22 26 32 49 34 40 4 60 34 46 68 l-11
25 -8 -31 c-7 -26 -16 -33 -45 -39 -26 -4 -41 -2 -54 10 -30 27 -5 80 25 55
12 -10 15 -9 15 4 0 18 -35 22 -45 6 -4 -7 -11 -7 -18 -2 -23 18 -45 20 -63 8z"/>
<path d="M2521 536 c-18 -13 -47 -27 -66 -30 -46 -9 -52 -23 -21 -47 19 -15
26 -30 26 -55 0 -45 -14 -43 -28 5 -11 36 -15 39 -59 45 -35 5 -52 2 -72 -11
-14 -10 -38 -23 -53 -30 -38 -16 -39 -65 -3 -89 14 -9 25 -22 25 -29 0 -20 28
-45 50 -45 10 0 32 11 49 26 26 22 29 28 19 49 -13 28 -37 40 -52 25 -7 -7 -7
-17 3 -31 9 -16 10 -24 1 -33 -9 -8 -16 -5 -31 13 -19 23 -19 24 -1 55 35 60
112 39 112 -30 0 -40 22 -64 59 -64 39 0 43 8 22 49 -20 40 -18 55 12 88 18
20 19 26 8 46 -19 36 -10 69 28 94 19 13 27 23 19 23 -8 0 -29 -11 -47 -24z"/>
<path d="M472 518 c-21 -26 -81 -152 -76 -160 11 -17 22 -7 39 35 58 144 61
153 37 125z"/>
<path d="M285 486 c-48 -33 -85 -76 -66 -76 6 0 13 5 16 10 13 21 25 -3 25
-48 0 -29 4 -42 9 -36 14 13 73 164 69 175 -2 5 -26 -6 -53 -25z"/>
<path d="M980 493 c0 -14 34 -43 51 -43 8 0 21 5 29 11 12 8 9 9 -12 7 -15 -2
-35 5 -47 16 -12 11 -21 15 -21 9z"/>
<path d="M542 441 c-14 -9 -28 -71 -15 -71 9 0 38 69 31 75 -2 2 -9 1 -16 -4z"/>
<path d="M2697 395 c10 -78 -17 -115 -96 -131 -33 -6 -34 -7 -15 -21 10 -8 30
-12 44 -9 14 2 34 -2 44 -10 22 -16 74 -18 96 -4 8 5 12 10 10 12 -3 2 -14 8
-25 14 -35 19 -17 104 21 104 19 0 18 -19 -3 -42 -15 -17 -15 -19 1 -37 9 -10
30 -21 46 -25 39 -7 73 -42 65 -66 -4 -13 1 -22 15 -30 12 -6 20 -21 20 -35 0
-30 -11 -32 -28 -5 -7 11 -20 20 -30 20 -10 0 -26 6 -37 14 -33 22 -78 28
-100 12 -18 -13 -15 -14 26 -9 53 6 78 -12 60 -46 -20 -37 -14 -51 25 -51 19
0 33 4 30 9 -3 5 -15 7 -26 4 -23 -6 -26 5 -7 31 11 15 17 17 35 7 12 -6 22
-18 22 -25 0 -13 29 -26 59 -26 19 0 8 48 -29 126 -21 46 -35 63 -54 68 -24 6
-26 11 -26 57 0 33 -5 51 -14 55 -8 3 -19 18 -26 33 -12 31 -47 51 -85 51 -23
0 -24 -2 -18 -45z"/>
<path d="M475 408 c-4 -13 -18 -44 -31 -70 -24 -45 -25 -68 -3 -68 14 0 45 79
47 123 3 42 -3 49 -13 15z"/>
<path d="M2090 417 c-68 -34 -62 -107 10 -128 36 -11 43 -10 58 4 14 15 15 20
3 39 -12 19 -11 23 10 39 13 10 20 19 15 19 -5 0 -3 6 3 14 9 11 5 15 -20 20
-43 8 -50 8 -79 -7z m42 -78 c-5 -11 -12 -21 -17 -22 -16 -1 -18 35 -4 44 19
12 29 1 21 -22z"/>
<path d="M592 404 c-22 -15 -30 -44 -13 -44 15 0 41 30 41 46 0 17 -1 17 -28
-2z"/>
<path d="M640 391 c0 -11 5 -23 10 -26 6 -3 10 3 10 14 0 11 -4 23 -10 26 -5
3 -10 -3 -10 -14z"/>
<path d="M168 340 c-21 -23 -38 -47 -38 -54 0 -8 -7 -26 -14 -42 -18 -33 -12
-48 14 -34 19 10 61 61 74 90 4 8 13 26 21 39 14 26 12 41 -7 41 -6 0 -28 -18
-50 -40z"/>
<path d="M1322 356 c2 -23 -6 -36 -44 -68 -30 -26 -54 -38 -68 -36 l-22 3 22
28 c12 15 17 27 11 27 -5 0 -22 -16 -37 -36 -31 -40 -63 -57 -81 -42 -9 7 -23
4 -45 -10 -18 -11 -51 -23 -73 -27 -109 -18 -119 -21 -108 -28 7 -4 43 0 80 9
37 8 100 22 138 29 120 23 128 25 159 47 46 31 96 80 96 94 0 6 -7 17 -16 25
-13 11 -15 9 -12 -15z"/>
<path d="M306 333 c-3 -10 -9 -25 -12 -33 -3 -8 4 -4 15 10 22 27 26 40 12 40
-5 0 -11 -8 -15 -17z"/>
<path d="M348 325 c-3 -11 -9 -29 -13 -40 -7 -19 -7 -19 9 -4 10 9 16 27 14
40 -3 22 -4 22 -10 4z"/>
<path d="M534 324 c3 -9 6 -21 6 -27 0 -16 20 14 20 31 0 6 -7 12 -16 12 -11
0 -14 -5 -10 -16z"/>
<path d="M586 324 c-3 -9 -6 -23 -6 -32 0 -12 5 -11 25 8 14 13 25 27 25 32 0
15 -38 8 -44 -8z"/>
<path d="M496 285 c-4 -11 -12 -30 -18 -42 -6 -11 -7 -26 -3 -33 12 -20 37 27
33 63 -3 27 -5 29 -12 12z"/>
<path d="M626 281 c-13 -14 -14 -21 -6 -26 13 -8 30 11 30 33 0 16 -4 15 -24
-7z"/>
<path d="M2204 284 c9 -8 16 -24 16 -34 0 -21 42 -58 77 -66 13 -4 41 1 61 9
20 9 55 15 78 14 39 -2 103 27 90 41 -4 3 -12 0 -18 -6 -15 -15 -80 -16 -95
-1 -9 9 -19 6 -39 -10 -15 -11 -38 -21 -51 -21 -42 0 -94 34 -80 53 5 8 -26
37 -40 37 -12 0 -12 -3 1 -16z"/>
<path d="M374 274 c-4 -10 -9 -22 -11 -26 -2 -5 0 -8 6 -8 11 0 26 39 17 47
-3 3 -9 -3 -12 -13z"/>
<path d="M1430 280 c0 -14 -90 -70 -112 -70 -27 0 -22 19 8 31 15 5 24 12 21
15 -3 4 -21 -3 -40 -15 -19 -11 -42 -21 -51 -21 -10 0 -14 -5 -10 -11 3 -6 15
-9 25 -6 10 3 22 1 25 -4 11 -19 47 -8 99 31 52 38 68 60 45 60 -5 0 -10 -5
-10 -10z"/>
<path d="M758 265 c-3 -3 -22 -7 -43 -8 -35 -3 -40 -8 -70 -63 -22 -40 -39
-60 -54 -62 -24 -4 -78 -75 -61 -80 6 -2 19 3 30 13 15 14 27 15 70 7 61 -11
117 2 179 44 42 27 49 38 31 49 -8 5 -7 11 1 21 9 11 6 15 -19 20 -22 5 -29
10 -25 22 5 12 2 14 -13 8 -38 -16 -54 -18 -54 -7 0 6 11 16 25 21 14 5 25 12
25 15 0 6 -15 7 -22 0z m40 -102 c2 -16 -8 -25 -47 -42 -49 -21 -101 -27 -114
-14 -7 6 24 63 51 95 13 16 17 16 61 -1 30 -12 47 -25 49 -38z"/>
<path d="M1542 254 c-34 -23 -30 -69 8 -89 16 -8 39 -15 50 -15 12 0 33 -9 47
-20 31 -24 66 -26 87 -4 25 25 18 54 -16 67 -23 8 -33 -10 -17 -29 20 -24 -4
-38 -25 -15 -25 28 -14 69 20 77 33 8 72 -12 91 -49 13 -26 13 -31 -3 -48 -9
-11 -15 -20 -13 -22 2 -2 21 -15 41 -30 29 -22 47 -27 90 -27 58 1 50 13 -17
25 -80 14 -92 59 -33 121 34 36 29 42 -36 48 -26 2 -53 9 -59 15 -13 13 -93
15 -102 2 -3 -6 -18 -6 -38 0 -43 12 -49 12 -75 -7z m90 -38 c9 -14 -10 -36
-32 -36 -28 0 -45 27 -30 45 14 16 49 11 62 -9z"/>
<path d="M400 238 c0 -19 2 -20 10 -8 13 19 13 30 0 30 -5 0 -10 -10 -10 -22z"/>
<path d="M549 258 c-5 -9 -4 -58 1 -58 10 0 31 41 25 50 -6 9 -23 14 -26 8z"/>
<path d="M1959 253 c-9 -2 -37 -29 -64 -59 -43 -51 -46 -56 -31 -72 8 -10 30
-19 48 -20 18 -2 40 -10 49 -18 10 -9 30 -14 50 -12 27 2 36 9 44 31 8 24 6
31 -9 42 -26 20 -47 8 -40 -21 5 -20 2 -24 -15 -24 -27 0 -37 24 -23 54 15 33
68 40 105 14 33 -23 32 -54 -1 -93 -26 -30 -25 -30 38 -9 67 22 76 34 61 84
-12 39 -60 78 -81 65 -5 -3 -25 6 -46 20 -36 24 -51 28 -85 18z m4 -55 c-11
-13 -23 -31 -26 -40 -8 -21 -27 -24 -27 -4 0 8 14 26 31 40 38 32 49 34 22 4z"/>
<path d="M216 241 c-3 -5 7 -11 23 -14 45 -9 113 -68 151 -131 42 -71 53 -58
13 16 -21 40 -44 64 -91 96 -64 42 -86 50 -96 33z"/>
<path d="M870 230 c18 -12 120 -10 120 2 0 4 -30 8 -67 8 -49 0 -64 -3 -53
-10z"/>
<path d="M579 192 c-35 -38 -42 -52 -29 -52 15 0 70 55 70 69 0 19 -16 12 -41
-17z"/>
<path d="M427 189 c-3 -13 -1 -19 6 -16 15 5 22 37 9 37 -5 0 -12 -9 -15 -21z"/>
<path d="M173 183 c-3 -10 -8 -22 -10 -28 -3 -5 3 -1 11 9 16 20 21 36 11 36
-3 0 -8 -8 -12 -17z"/>
<path d="M2511 180 c-12 -11 -27 -17 -32 -14 -16 9 -59 -25 -59 -46 0 -11 -9
-24 -20 -30 -39 -21 -24 -40 30 -40 54 0 56 1 38 30 -17 26 -2 37 21 16 12
-11 21 -14 26 -7 3 6 15 11 27 11 14 0 18 5 14 16 -3 9 1 25 9 37 8 12 15 27
15 34 0 20 -42 15 -69 -7z"/>
<path d="M99 143 c-29 -33 -69 -90 -69 -98 0 -4 15 6 33 21 17 15 32 33 32 40
0 7 11 24 24 38 14 14 20 26 15 26 -6 0 -21 -12 -35 -27z"/>
<path d="M276 135 c-10 -39 3 -50 30 -24 18 17 21 25 13 36 -18 21 -36 15 -43
-12z"/>
<path d="M2597 153 c-4 -3 -7 -21 -7 -39 0 -18 -4 -36 -10 -39 -23 -14 -7 -23
40 -22 45 2 50 4 50 25 0 53 -47 101 -73 75z"/>
<path d="M445 139 c-4 -6 -5 -13 -2 -16 7 -7 27 6 27 18 0 12 -17 12 -25 -2z"/>
<path d="M146 109 l-19 -32 31 23 c17 13 29 27 26 32 -9 15 -19 9 -38 -23z"/>
<path d="M1512 118 c-40 -40 14 -60 173 -66 106 -3 128 -2 118 9 -8 8 -41 14
-83 15 -51 1 -76 6 -90 19 -11 10 -28 15 -39 12 -11 -3 -25 1 -32 9 -14 17
-31 18 -47 2z"/>
<path d="M210 100 c0 -5 6 -10 14 -10 8 0 18 5 21 10 3 6 -3 10 -14 10 -12 0
-21 -4 -21 -10z"/>
<path d="M2707 104 c-4 -4 -7 -18 -7 -31 0 -20 5 -23 36 -23 33 0 35 2 32 28
-2 20 -9 28 -28 30 -14 2 -29 0 -33 -4z"/>
<path d="M322 79 c-7 -11 -11 -24 -7 -27 9 -9 40 13 40 28 0 22 -19 21 -33 -1z"/>
<path d="M1185 89 c-16 -5 -43 -7 -60 -4 -27 5 -28 4 -14 -11 13 -13 48 -16
188 -20 94 -2 171 -2 171 1 0 12 -65 36 -98 35 -20 0 -64 2 -97 5 -33 2 -73 0
-90 -6z"/>
<path d="M175 50 c-4 -6 7 -10 24 -10 17 0 31 5 31 10 0 6 -11 10 -24 10 -14
0 -28 -4 -31 -10z"/>
</g>
</svg>
