<?xml version="1.0" standalone="no"?>
<!DOCTYPE svg PUBLIC "-//W3C//DTD SVG 20010904//EN"
 "http://www.w3.org/TR/2001/REC-SVG-20010904/DTD/svg10.dtd">
<svg version="1.0" xmlns="http://www.w3.org/2000/svg"
 width="300.000000pt" height="111.000000pt" viewBox="0 0 300.000000 111.000000"
 preserveAspectRatio="xMidYMid meet">
<metadata>
Created by potrace 1.10, written by Peter Selinger 2001-2011
</metadata>
<g transform="translate(0.000000,111.000000) scale(0.100000,-0.100000)"
fill="#cd3736" stroke="none">
<path d="M63 1046 c3 -8 11 -32 18 -55 7 -23 16 -41 22 -41 5 0 6 7 3 16 -3 9
-6 33 -6 55 0 33 -3 39 -21 39 -14 0 -19 -5 -16 -14z"/>
<path d="M287 1053 c-15 -14 -6 -42 21 -61 22 -17 25 -23 14 -34 -11 -11 -16
-9 -30 10 -16 20 -20 21 -37 8 -17 -12 -17 -16 -5 -31 9 -11 22 -14 38 -10 15
4 36 -1 58 -14 19 -11 34 -16 34 -10 0 5 -11 15 -25 21 -27 12 -31 23 -15 33
17 11 46 -4 58 -30 6 -14 17 -25 23 -25 21 0 -26 65 -50 68 -19 3 -22 8 -18
30 3 14 3 32 0 39 -5 13 -54 18 -66 6z m46 -28 c-4 -15 -36 -12 -41 3 -3 9 3
13 19 10 13 -1 23 -7 22 -13z"/>
<path d="M417 1053 c-4 -3 -7 -17 -7 -30 0 -16 6 -23 18 -23 31 0 55 -35 49
-70 -7 -32 6 -42 17 -13 12 29 -13 80 -45 93 -35 15 -26 32 20 35 38 3 64 -24
65 -70 2 -41 11 -52 30 -36 10 9 13 22 9 43 -6 28 -5 30 16 19 26 -14 29 -75
5 -102 -10 -11 -12 -19 -5 -23 12 -8 41 44 41 73 0 11 -5 32 -12 46 -10 23
-17 26 -41 21 -23 -5 -33 -1 -49 19 -15 20 -29 25 -62 25 -23 0 -46 -3 -49 -7z"/>
<path d="M892 1051 c-8 -4 -23 -6 -35 -5 -12 2 -38 -4 -57 -14 -27 -13 -36
-24 -38 -49 -3 -31 -2 -32 30 -27 25 5 38 1 52 -15 20 -22 15 -56 -8 -48 -10
4 -16 -2 -18 -16 -4 -31 -34 -34 -42 -4 -13 54 -71 31 -81 -33 l-6 -35 15 33
c15 32 41 51 54 38 3 -4 1 -16 -6 -27 -20 -32 -32 -69 -23 -69 5 0 14 14 20
30 8 26 14 30 34 25 20 -5 29 0 46 24 23 31 54 40 67 19 4 -6 -1 -17 -11 -24
-15 -12 -16 -16 -4 -31 26 -35 41 -43 61 -32 15 8 24 6 40 -8 19 -17 21 -17
44 12 28 35 49 24 38 -19 -4 -19 -15 -29 -35 -33 -31 -6 -37 -21 -17 -41 15
-15 42 -15 71 0 12 6 29 14 37 18 8 4 23 21 33 38 18 31 18 32 -1 59 -11 16
-23 42 -26 59 -9 39 -45 53 -105 41 -40 -8 -45 -7 -65 17 -18 23 -30 27 -96
32 -90 7 -107 18 -58 39 20 8 38 20 41 27 3 10 9 10 25 1 16 -10 23 -9 33 3
14 17 9 26 -9 15z m44 -128 c14 -15 34 -27 45 -28 26 -2 39 -21 39 -57 0 -32
-15 -36 -42 -11 -18 16 -19 15 -34 -5 -8 -12 -19 -22 -25 -22 -14 0 -11 22 8
42 15 17 15 19 -2 38 -10 11 -24 20 -30 20 -13 0 -27 35 -17 44 12 13 34 5 58
-21z m163 -32 c7 -5 10 -14 6 -21 -4 -6 3 -22 15 -35 39 -42 24 -105 -26 -105
-12 0 -26 -4 -29 -10 -3 -5 -12 -10 -20 -10 -8 0 -1 12 16 29 37 37 36 55 -1
98 -38 43 -39 63 -2 63 15 0 33 -4 41 -9z"/>
<path d="M1050 1035 c0 -27 40 -75 63 -75 19 0 70 -58 101 -115 15 -27 33 -58
40 -68 19 -25 46 -11 46 24 0 31 16 44 70 54 24 4 39 14 47 31 14 30 5 36 -38
24 -46 -13 -48 -12 -20 11 38 31 8 43 -42 18 -48 -25 -62 -16 -24 17 23 19 25
25 13 30 -8 3 -29 -4 -46 -16 -24 -17 -30 -18 -30 -6 0 8 5 18 10 21 16 10 11
22 -11 28 -12 3 -30 1 -40 -6 -23 -14 -36 -3 -20 17 20 24 7 31 -58 34 -60 3
-61 3 -61 -23z m100 -46 c0 -6 -7 -6 -20 1 -11 6 -20 15 -20 21 0 6 7 6 20 -1
11 -6 20 -15 20 -21z m45 -20 c14 -22 89 -69 112 -69 31 0 28 -20 -7 -48 -35
-27 -44 -24 -70 27 -10 21 -31 52 -45 70 -20 23 -23 31 -11 31 8 0 18 -5 21
-11z"/>
<path d="M1248 1053 c12 -2 32 -2 45 0 12 2 2 4 -23 4 -25 0 -35 -2 -22 -4z"/>
<path d="M1380 1030 c0 -29 22 -50 52 -50 23 0 45 23 52 53 6 27 6 27 -49 27
-54 0 -55 0 -55 -30z"/>
<path d="M1526 1038 c-13 -18 -13 -23 1 -44 18 -28 39 -30 73 -7 14 9 26 17
27 17 1 1 4 13 8 29 6 23 4 27 -13 27 -14 0 -22 -8 -24 -22 -2 -15 -11 -24
-26 -26 -21 -3 -22 -1 -13 16 15 29 -14 38 -33 10z"/>
<path d="M1784 1045 c21 -16 32 -13 21 4 -3 6 -14 11 -23 11 -15 -1 -15 -2 2
-15z"/>
<path d="M1908 1055 c-8 -8 3 -55 13 -55 4 0 5 12 3 27 -6 31 -8 35 -16 28z"/>
<path d="M2005 1044 c30 -22 61 -27 95 -16 16 6 44 9 62 6 21 -4 40 0 53 10
18 14 10 15 -105 15 -114 0 -123 -1 -105 -15z"/>
<path d="M2310 1050 c0 -5 5 -10 10 -10 6 0 10 -4 10 -10 0 -5 -7 -7 -15 -4
-8 3 13 -22 46 -55 53 -53 99 -78 99 -53 0 22 -52 88 -90 113 -46 31 -60 35
-60 19z"/>
<path d="M2425 1030 c31 -32 81 -54 90 -40 3 5 -4 23 -16 40 -19 25 -30 30
-63 30 l-40 0 29 -30z"/>
<path d="M2605 1010 c28 -38 39 -64 46 -114 13 -92 5 -151 -37 -285 -5 -17 -4
-22 4 -17 7 4 12 13 12 20 0 8 12 11 36 10 31 -3 45 4 95 47 91 80 104 134 63
257 -20 60 -18 82 6 82 16 0 21 -9 26 -50 8 -61 26 -80 46 -48 36 59 43 103
11 77 -19 -16 -46 7 -34 30 16 32 2 41 -66 41 l-65 0 5 -27 c8 -45 34 -107 46
-111 19 -6 12 -20 -11 -24 -24 -3 -38 -28 -15 -28 8 0 20 -6 26 -14 19 -22 -7
-31 -29 -11 -17 16 -20 16 -26 2 -3 -9 4 -29 16 -45 22 -29 24 -68 5 -66 -6 0
-12 9 -13 20 -5 26 -18 38 -32 29 -7 -5 -8 -11 -1 -19 12 -14 -1 -71 -23 -101
-14 -19 -15 -19 -21 8 -5 19 -2 33 9 46 20 22 20 35 1 51 -21 18 -19 29 10 40
30 12 31 14 4 51 -21 30 -19 49 7 49 23 0 16 22 -13 47 -22 18 -24 22 -10 23
9 0 17 6 17 14 0 17 -39 48 -52 40 -4 -3 -8 2 -8 10 0 12 -10 16 -36 16 l-36
0 37 -50z"/>
<path d="M1948 1009 c-2 -58 1 -82 10 -91 5 -5 7 21 6 57 -2 76 -13 100 -16
34z"/>
<path d="M2543 1011 c8 -32 -8 -51 -45 -51 -25 0 -27 -2 -18 -19 5 -11 10 -29
10 -40 0 -17 -6 -21 -29 -21 -26 0 -30 -3 -28 -27 2 -22 -3 -29 -20 -31 -20
-3 -30 -22 -39 -77 -8 -46 -9 -70 -1 -72 4 -2 21 -10 38 -18 16 -9 39 -13 49
-10 22 7 26 35 8 53 -17 17 0 29 20 14 33 -24 44 -25 63 -5 23 23 16 58 -10
47 -37 -16 -71 -16 -77 -1 -9 24 5 41 21 27 8 -7 23 -9 34 -5 20 6 20 7 3 30
-9 14 -23 25 -29 25 -7 0 -13 7 -13 15 0 14 12 20 33 16 4 -1 17 3 27 9 26 14
26 40 -1 40 -31 0 -17 24 17 30 39 7 43 38 8 70 l-27 25 6 -24z m-98 -303 c-7
-19 -30 -24 -40 -8 -4 6 -1 26 5 46 l12 36 14 -28 c8 -15 12 -35 9 -46z"/>
<path d="M690 993 c0 -17 -8 -38 -20 -48 -14 -13 -20 -31 -20 -63 0 -53 14
-48 16 5 0 24 8 42 23 54 14 12 21 26 18 43 -5 37 -17 44 -17 9z"/>
<path d="M2286 986 c21 -19 36 -37 32 -42 -5 -4 -17 1 -28 11 -43 39 -12 -22
38 -77 17 -19 36 -28 56 -28 l30 0 -26 28 c-14 15 -33 41 -41 58 -17 33 -71
84 -89 84 -6 0 6 -15 28 -34z"/>
<path d="M1987 958 c6 -44 30 -114 37 -107 3 2 1 38 -3 79 -5 41 -9 69 -10 61
-1 -10 -4 -11 -15 -2 -12 10 -13 5 -9 -31z"/>
<path d="M2153 987 c14 -37 19 -87 8 -87 -6 0 -11 8 -11 18 -1 9 -7 28 -15 42
-14 24 -14 22 -8 -25 9 -79 32 -115 83 -130 24 -8 24 -8 7 19 -20 30 -36 123
-20 113 6 -4 13 -19 17 -34 8 -39 39 -72 76 -83 23 -7 30 -5 30 5 0 8 -5 17
-10 20 -6 4 -26 38 -46 77 -19 38 -38 68 -40 65 -3 -3 2 -19 10 -36 9 -16 12
-32 7 -35 -9 -6 -41 36 -41 54 0 5 -4 10 -10 10 -5 0 -7 -7 -4 -15 4 -8 1 -15
-5 -15 -6 0 -11 9 -11 19 0 11 -5 23 -12 27 -7 5 -9 2 -5 -9z"/>
<path d="M2090 936 c0 -34 -18 -42 -30 -14 -9 19 -10 15 -6 -22 3 -31 12 -51
28 -64 21 -17 23 -17 26 -1 2 9 0 21 -6 27 -5 5 -7 29 -4 54 2 24 2 44 -2 44
-3 0 -6 -11 -6 -24z"/>
<path d="M2595 909 c-5 -14 -1 -27 9 -37 21 -21 29 -10 21 27 -8 36 -21 40
-30 10z"/>
<path d="M1530 901 c0 -6 7 -11 15 -11 8 0 15 -7 15 -16 0 -12 -8 -14 -46 -8
-41 6 -45 5 -42 -12 2 -16 -4 -19 -37 -22 -22 -1 -51 -5 -65 -8 -22 -5 -23 -7
-7 -15 28 -16 20 -27 -45 -61 -42 -21 -57 -33 -45 -36 27 -6 21 -39 -9 -49
-22 -7 -24 -11 -11 -21 12 -10 23 -1 68 55 95 119 197 156 309 114 54 -21 138
-83 147 -110 11 -30 58 -91 71 -91 13 0 17 95 5 127 -6 15 -8 13 -13 -12 -9
-50 -34 -38 -40 20 -6 54 -19 84 -46 106 -16 13 -17 12 -10 -6 13 -31 12 -47
-1 -52 -7 -2 -15 7 -19 21 -6 27 -57 76 -77 76 -7 0 -4 -7 6 -14 18 -14 24
-46 8 -46 -5 0 -11 7 -15 15 -3 9 -27 25 -53 37 -27 12 -51 24 -55 26 -5 2 -8
-1 -8 -7z"/>
<path d="M150 878 c0 -8 24 -37 53 -65 53 -50 162 -103 212 -103 34 0 32 18
-2 26 -44 9 -73 23 -73 34 0 13 31 13 65 0 14 -5 45 -12 68 -15 39 -4 40 -3
23 10 -28 21 -11 31 19 11 28 -18 33 -36 10 -36 -8 0 -24 -13 -37 -30 -19 -26
-28 -30 -67 -30 -48 1 -169 46 -202 76 -11 10 -22 14 -26 11 -13 -14 86 -96
129 -108 69 -18 75 -23 37 -27 -24 -2 -49 4 -73 17 -20 11 -36 17 -36 13 0
-17 73 -49 153 -66 15 -4 27 -11 27 -16 0 -6 -12 -10 -27 -11 -25 0 -26 -1 -8
-9 33 -14 55 -12 49 5 -7 17 11 21 21 5 3 -5 18 -10 33 -10 25 0 25 -1 9 -17
-12 -12 -33 -18 -62 -18 -25 0 -45 -3 -45 -6 0 -16 59 -15 126 1 41 10 83 16
94 13 11 -3 20 -3 20 0 0 8 -69 47 -83 47 -23 0 -77 58 -77 83 0 33 17 45 81
55 45 7 60 5 84 -10 17 -10 49 -18 73 -18 75 0 200 -48 280 -107 18 -14 35
-23 37 -21 3 2 0 20 -7 39 -6 19 -13 41 -16 49 -3 11 -6 9 -13 -8 -9 -23 -29
-22 -29 1 0 7 -7 21 -15 31 -12 16 -17 17 -31 5 -14 -12 -20 -9 -48 24 -35 42
-47 46 -43 16 3 -32 -15 -33 -57 -4 -43 29 -58 32 -49 9 12 -31 -20 -9 -52 35
-17 25 -52 55 -83 72 -60 33 -95 40 -43 8 34 -20 70 -57 71 -71 0 -17 -28 -7
-51 18 -34 37 -85 60 -149 69 -79 11 -160 13 -160 5 0 -5 24 -11 53 -14 101
-13 161 -35 143 -53 -3 -3 -47 2 -98 12 -91 17 -155 42 -190 73 -16 13 -18 13
-18 0z m304 -254 c4 -11 1 -14 -11 -12 -9 2 -18 9 -21 16 -6 18 25 15 32 -4z"/>
<path d="M1858 849 c-25 -14 -23 -33 1 -19 11 5 32 10 48 11 15 0 37 4 48 9
15 6 7 9 -30 9 -27 0 -58 -4 -67 -10z"/>
<path d="M2549 847 c-21 -16 -13 -37 16 -37 30 0 49 22 33 38 -15 15 -29 15
-49 -1z"/>
<path d="M826 818 c-14 -13 -28 -36 -31 -53 l-6 -30 17 30 c9 17 26 40 37 53
11 12 18 22 14 22 -3 0 -17 -10 -31 -22z"/>
<path d="M2621 832 c-1 -7 -13 -24 -28 -38 l-28 -26 25 -20 25 -20 6 29 c3 17
8 34 11 39 3 5 2 18 -3 29 -4 11 -8 14 -8 7z"/>
<path d="M1914 810 c-21 -8 -42 -30 -29 -30 4 0 16 5 27 11 11 6 41 15 67 19
l46 8 -45 0 c-25 0 -55 -3 -66 -8z"/>
<path d="M1513 789 c-24 -9 -32 -52 -13 -64 18 -11 46 13 45 39 -2 33 -5 36
-32 25z"/>
<path d="M2159 779 c13 -11 31 -24 40 -29 14 -8 13 -12 -9 -34 -25 -25 -26
-25 -70 -10 -70 25 -120 26 -165 3 -22 -11 -31 -16 -20 -13 63 22 191 7 182
-20 -4 -12 -20 -13 -87 -3 -33 5 -39 5 -22 -3 12 -5 22 -11 22 -14 0 -3 -24
-12 -53 -20 -29 -9 -72 -29 -95 -46 -46 -33 -125 -134 -148 -189 -8 -20 -22
-43 -31 -53 -9 -10 -11 -18 -5 -18 13 0 57 56 70 90 5 14 30 53 55 87 105 141
289 171 549 89 190 -60 251 -65 327 -26 59 29 46 35 -20 9 -63 -24 -114 -21
-224 15 -38 13 -92 30 -120 38 -56 17 -65 30 -33 46 16 7 18 11 7 11 -9 1 -22
-6 -29 -14 -15 -18 -53 -20 -48 -2 2 6 23 21 46 32 51 25 55 37 6 22 -19 -6
-44 -23 -55 -39 -22 -30 -49 -37 -49 -13 0 20 83 79 121 85 16 3 28 10 27 15
-4 13 -34 9 -72 -10 -28 -14 -32 -14 -68 10 -45 30 -63 33 -29 4z"/>
<path d="M1576 774 c-9 -24 12 -35 41 -21 26 11 31 27 9 27 -8 0 -21 3 -29 6
-8 3 -17 -2 -21 -12z"/>
<path d="M1428 762 c-33 -20 -36 -42 -8 -67 29 -26 9 -43 -24 -21 -15 9 -26
21 -26 26 0 6 -4 10 -10 10 -17 0 -11 -36 11 -64 19 -24 19 -46 -1 -46 -4 0
-17 14 -27 30 l-19 30 -23 -31 c-13 -17 -19 -34 -15 -38 5 -3 23 -19 41 -35
l31 -28 23 21 c13 11 26 21 31 21 4 0 8 9 8 21 0 25 16 56 42 86 17 18 18 24
7 45 -7 12 -12 31 -10 41 3 20 4 20 -31 -1z"/>
<path d="M1948 758 c-16 -5 -28 -13 -28 -18 0 -4 17 -2 38 6 50 18 103 17 151
-2 53 -21 78 -12 27 10 -43 18 -145 20 -188 4z"/>
<path d="M1636 729 c-21 -16 -26 -28 -24 -52 4 -38 28 -49 28 -13 0 15 9 34
20 43 20 18 27 43 11 43 -4 0 -20 -10 -35 -21z"/>
<path d="M1561 720 c-14 -8 -7 -30 9 -30 11 0 21 28 12 34 -5 3 -14 1 -21 -4z"/>
<path d="M1687 692 c-24 -26 -21 -32 12 -32 35 0 48 15 31 35 -16 19 -23 19
-43 -3z"/>
<path d="M2577 686 c-14 -20 -14 -26 -2 -42 13 -18 14 -18 20 1 4 11 11 30 16
43 12 31 -14 30 -34 -2z"/>
<path d="M526 685 c-17 -13 -17 -17 -5 -32 24 -31 68 -71 73 -66 2 2 37 -9 78
-26 54 -23 96 -51 154 -102 43 -39 99 -80 123 -92 l43 -20 17 20 c9 11 28 28
43 37 l26 17 -21 34 c-27 42 -34 43 -42 5 -7 -33 -35 -42 -35 -11 0 10 9 30
20 43 21 27 18 38 -12 38 -11 0 -23 -14 -34 -37 -15 -36 -16 -37 -30 -19 -18
26 -18 27 12 59 22 24 23 28 9 34 -11 4 -25 -4 -40 -23 -13 -16 -27 -25 -31
-21 -16 15 -12 37 9 52 17 12 19 17 8 27 -10 11 -17 8 -36 -14 -13 -16 -29
-28 -35 -28 -13 0 -13 37 0 45 15 9 12 25 -5 25 -8 0 -19 -9 -25 -20 -6 -11
-17 -20 -25 -20 -8 0 -15 9 -15 20 0 11 5 20 10 20 6 0 10 5 10 10 0 21 -48
10 -64 -15 -9 -14 -21 -25 -26 -25 -14 0 -12 34 2 48 9 9 8 12 -3 16 -8 2 -38
11 -68 20 -64 19 -61 19 -85 1z m92 -39 c25 -8 29 -21 8 -29 -15 -6 -56 18
-56 33 0 9 12 8 48 -4z m262 -162 c25 -23 55 -45 67 -48 23 -7 40 -36 20 -36
-21 0 -70 35 -129 93 -32 30 -58 58 -58 61 0 11 54 -27 100 -70z"/>
<path d="M1493 665 c-21 -15 -46 -69 -36 -79 3 -2 16 0 30 5 18 6 30 6 39 -2
21 -17 17 -26 -13 -27 -67 -1 -108 -17 -122 -46 -13 -27 -12 -31 9 -48 29 -23
42 -23 58 2 24 40 76 13 74 -40 -1 -42 -8 -47 -32 -25 -16 14 -29 16 -67 11
-61 -8 -77 -23 -64 -59 7 -17 18 -27 30 -27 35 0 44 -34 21 -80 -11 -22 -24
-39 -28 -37 -5 1 -19 -10 -33 -25 -36 -40 -155 -98 -201 -98 -21 0 -38 -4 -38
-10 0 -17 74 -11 110 10 19 11 58 32 85 46 90 47 135 103 135 167 0 41 -17 58
-49 50 -20 -5 -22 -2 -19 18 2 20 9 24 35 24 17 0 34 3 38 7 4 4 16 3 26 -3
22 -11 26 -58 8 -91 -8 -16 -8 -19 2 -16 7 2 18 25 26 51 7 25 18 49 23 52 6
3 10 22 10 41 0 35 -28 74 -54 74 -7 0 -25 -9 -39 -20 -30 -23 -41 -25 -55 -7
-17 20 13 57 47 57 15 0 32 5 38 11 9 9 18 8 37 -5 34 -22 37 -21 30 12 -8 33
-30 52 -61 52 -31 0 -29 18 3 32 21 10 31 9 52 -3 15 -9 26 -21 25 -26 -1 -6
7 -19 17 -28 26 -23 25 -57 0 -80 -20 -18 -20 -18 1 -51 23 -37 18 -56 -29
-106 -14 -15 -23 -30 -20 -33 9 -9 67 63 74 92 4 15 2 39 -4 55 -6 16 -6 30
-1 34 32 20 -19 151 -68 173 -29 13 -25 14 -50 -4z"/>
<path d="M1920 660 c-13 -9 -13 -10 0 -10 8 0 22 5 30 10 13 9 13 10 0 10 -8
0 -22 -5 -30 -10z"/>
<path d="M2507 649 c-19 -27 -21 -24 26 -37 43 -12 45 -7 13 32 l-23 28 -16
-23z"/>
<path d="M1735 619 c-9 -17 -14 -33 -11 -37 8 -8 56 39 56 55 0 25 -29 13 -45
-18z"/>
<path d="M1085 624 c-9 -9 -15 -23 -13 -31 4 -20 23 -12 20 9 -4 20 35 35 51
19 6 -6 21 -11 33 -11 24 0 40 -15 46 -45 2 -11 10 -20 18 -20 49 -2 87 -60
77 -121 -5 -30 -4 -34 8 -24 9 8 12 25 9 53 -6 51 -25 82 -62 101 -16 8 -33
25 -39 39 -8 17 -25 28 -57 36 -59 15 -72 14 -91 -5z"/>
<path d="M1657 623 c-14 -4 -17 -10 -12 -26 9 -30 9 -39 2 -69 -7 -26 -6 -27
27 -21 18 3 43 0 55 -6 20 -11 21 -10 15 16 -9 38 -11 39 -32 20 -10 -10 -24
-17 -30 -17 -14 0 -16 22 -3 36 4 5 11 24 14 42 7 33 3 35 -36 25z"/>
<path d="M1785 593 c-5 -10 -10 -27 -12 -37 -3 -19 -3 -19 17 -1 20 18 28 55
11 55 -5 0 -12 -8 -16 -17z"/>
<path d="M2025 596 c-104 -27 -160 -76 -227 -200 l-43 -78 -53 -4 c-99 -6
-199 -52 -286 -132 -33 -32 -79 -71 -101 -89 -22 -17 -37 -34 -34 -37 6 -6 29
12 148 118 74 66 137 99 228 117 94 19 143 -1 277 -115 26 -21 49 -36 53 -32
4 3 -12 22 -35 41 -66 57 -65 83 6 157 26 27 47 39 76 43 40 6 152 -13 211
-35 48 -18 175 -28 213 -16 45 15 20 22 -60 18 -72 -3 -93 0 -153 23 -86 33
-187 48 -237 34 -43 -11 -95 -59 -115 -106 -15 -38 -49 -47 -38 -10 8 25 37
73 63 102 62 71 150 79 302 26 111 -38 200 -49 267 -31 27 7 56 14 66 17 39
10 14 20 -30 11 -66 -12 -166 -12 -189 0 -39 21 -214 72 -246 72 -19 0 -57 -7
-86 -15 -56 -17 -108 -68 -145 -142 -12 -24 -24 -43 -28 -43 -19 0 -15 21 17
88 40 84 89 123 179 143 54 12 119 1 323 -55 59 -17 235 -17 251 -1 7 7 -22
10 -87 11 -53 0 -117 6 -142 13 -25 7 -55 15 -67 17 -12 2 -48 12 -80 22 -159
48 -290 14 -363 -95 -17 -24 -30 -47 -30 -51 0 -17 -41 -72 -50 -67 -10 6 45
117 81 164 11 14 48 43 81 64 59 35 65 37 151 37 70 0 123 -8 251 -40 127 -32
175 -39 229 -36 105 5 105 23 0 20 -70 -2 -100 3 -153 21 -144 51 -312 72
-395 51z"/>
<path d="M1120 576 c0 -7 -11 -21 -25 -30 -31 -20 -32 -48 -3 -86 32 -44 88
-36 88 11 0 31 22 33 46 6 13 -15 26 -27 29 -27 11 0 4 17 -15 38 -31 33 -57
28 -77 -13 -17 -35 -43 -48 -43 -21 0 7 -10 20 -21 28 -19 12 -20 17 -10 36 7
13 25 25 42 29 32 6 35 13 17 31 -16 16 -28 15 -28 -2z"/>
<path d="M600 494 c-46 -9 -88 -25 -99 -38 -7 -9 8 -6 47 7 43 14 74 18 125
14 38 -2 65 -1 60 4 -10 10 -100 19 -133 13z"/>
<path d="M1666 474 c-23 -22 -20 -71 4 -84 17 -9 21 -6 35 26 19 47 19 51 -4
64 -15 7 -23 6 -35 -6z"/>
<path d="M595 438 c-32 -11 -58 -29 -52 -35 2 -2 17 3 33 12 16 8 39 15 52 15
12 0 22 5 22 10 0 12 -16 12 -55 -2z"/>
<path d="M715 440 c3 -5 14 -10 24 -10 9 0 39 -14 67 -32 46 -29 47 -32 25
-37 -15 -4 -44 4 -81 22 -50 25 -66 28 -107 22 -53 -7 -82 -20 -70 -31 4 -4
13 -2 19 4 25 25 158 10 165 -18 4 -14 18 -16 86 -16 45 0 70 2 54 4 -16 2
-35 14 -44 29 -24 36 -159 98 -138 63z"/>
<path d="M1215 420 c-19 -11 -42 -16 -61 -13 -34 6 -123 -38 -125 -60 -1 -7
-3 -25 -5 -42 -4 -35 11 -55 42 -55 24 0 38 15 39 39 0 24 32 38 55 23 12 -7
20 -8 20 -2 0 6 -12 15 -26 20 -34 13 -62 -2 -66 -37 -2 -20 -9 -29 -25 -31
-19 -3 -21 2 -21 46 -1 47 1 49 37 65 42 19 69 21 91 8 10 -7 18 -4 28 10 16
23 45 25 67 3 21 -21 16 -34 -21 -54 -16 -9 -31 -25 -32 -36 -3 -17 -2 -17 10
-3 7 9 27 25 43 36 36 24 75 16 75 -17 0 -11 4 -20 9 -20 20 0 42 -32 35 -52
-4 -14 -2 -18 5 -14 19 12 12 52 -13 77 -13 13 -47 47 -77 75 l-54 51 -30 -17z"/>
<path d="M2050 360 c0 -10 49 -50 62 -50 13 0 22 30 12 39 -14 13 -74 22 -74
11z"/>
<path d="M613 353 c-7 -2 -13 -9 -13 -14 0 -13 20 -11 55 6 l30 13 -30 0 c-16
0 -36 -2 -42 -5z"/>
<path d="M694 345 c3 -9 -1 -18 -9 -21 -8 -4 -15 -10 -15 -15 0 -5 15 -2 33 7
43 22 44 24 27 34 -23 15 -43 12 -36 -5z"/>
<path d="M2006 335 c-3 -8 -1 -27 5 -42 9 -25 11 -25 26 -10 15 14 15 20 3 42
-15 29 -25 32 -34 10z"/>
<path d="M2155 321 c-13 -42 17 -54 56 -22 28 22 26 26 -18 35 -26 6 -32 4
-38 -13z"/>
<path d="M794 319 c-3 -5 13 -9 35 -9 22 0 61 -7 87 -16 54 -18 73 -11 23 10
-41 17 -138 26 -145 15z"/>
<path d="M1958 300 c-24 -33 -23 -46 5 -54 42 -11 52 -8 34 12 -8 9 -17 28
-19 42 l-3 25 -17 -25z"/>
<path d="M2219 274 c-48 -30 -70 -37 -154 -46 -96 -12 -97 -12 -75 -30 27 -22
46 -23 54 -3 7 18 46 20 46 2 0 -7 -12 -20 -27 -30 l-28 -18 35 7 c19 3 49 19
66 36 21 20 34 26 39 18 4 -6 1 -17 -5 -25 -8 -9 -8 -15 -2 -15 6 0 25 18 42
40 37 47 55 52 45 13 l-7 -28 26 24 c14 13 28 33 32 43 5 18 7 18 23 3 17 -14
20 -14 42 4 13 11 22 21 19 24 -3 2 -30 7 -60 10 -51 6 -59 3 -111 -29z"/>
<path d="M765 271 c-22 -11 -32 -20 -23 -20 9 -1 20 4 23 9 10 15 128 12 168
-5 45 -18 71 -20 37 -2 -32 17 -111 37 -142 37 -13 0 -41 -9 -63 -19z"/>
<path d="M1160 282 c-8 -2 -24 -13 -35 -23 -55 -49 -172 -65 -231 -30 -38 23
-48 26 -40 12 10 -15 90 -47 124 -49 18 -1 42 2 53 8 11 6 34 13 52 15 19 3
39 14 50 30 21 29 39 32 57 10 7 -9 20 -13 28 -10 9 3 19 0 24 -7 16 -27 7
-61 -26 -94 -46 -46 -27 -43 40 8 71 53 76 65 65 131 -2 14 -25 7 -48 -15 -21
-19 -24 -20 -40 -6 -21 18 -52 27 -73 20z m150 -34 c0 -13 -9 -34 -20 -48
l-20 -25 0 36 c0 33 14 59 32 59 4 0 8 -10 8 -22z"/>
<path d="M2060 269 c-9 -16 -8 -18 12 -15 13 3 31 5 41 5 30 2 19 28 -13 29
-20 0 -33 -6 -40 -19z"/>
<path d="M1578 235 c-29 -11 -60 -25 -70 -30 -24 -15 -140 -127 -135 -131 2
-2 37 25 78 60 104 89 142 106 239 107 61 1 115 -19 180 -68 59 -43 90 -58 90
-43 0 6 -5 10 -11 10 -6 0 -36 20 -67 44 -32 25 -74 52 -96 61 -49 21 -139 17
-208 -10z"/>
<path d="M790 222 c0 -4 35 -24 78 -45 63 -30 88 -37 138 -37 45 0 65 4 75 16
12 15 11 16 -6 11 -26 -8 -104 -10 -131 -4 -12 3 -40 15 -63 27 -57 29 -91 41
-91 32z"/>
<path d="M1635 200 c-11 -5 -32 -11 -46 -14 -30 -7 -189 -126 -167 -126 8 0
43 22 77 50 113 91 224 103 324 37 31 -21 61 -37 68 -37 17 0 -75 69 -116 86
-38 15 -108 18 -140 4z"/>
<path d="M1150 190 c-8 -5 -23 -7 -32 -4 -10 3 -18 0 -18 -6 0 -9 11 -10 36
-5 49 9 42 -13 -15 -42 -32 -16 -55 -20 -92 -17 -31 2 -48 0 -44 -6 3 -6 30
-10 58 -10 72 0 154 51 140 87 -6 15 -13 16 -33 3z"/>
<path d="M1655 149 c-56 -10 -84 -22 -135 -60 -61 -45 -34 -48 44 -6 60 33 68
35 148 33 46 -2 94 -8 107 -15 38 -21 34 -5 -5 18 -47 28 -107 39 -159 30z"/>
<path d="M1600 73 c-53 -25 -45 -27 75 -12 83 10 136 28 90 30 -98 5 -123 2
-165 -18z"/>
</g>
</svg>
