<?xml version="1.0" standalone="no"?>
<!DOCTYPE svg PUBLIC "-//W3C//DTD SVG 20010904//EN"
 "http://www.w3.org/TR/2001/REC-SVG-20010904/DTD/svg10.dtd">
<svg version="1.0" xmlns="http://www.w3.org/2000/svg"
 width="900.000000pt" height="702.000000pt" viewBox="0 0 900.000000 702.000000"
 preserveAspectRatio="xMidYMid meet">
<metadata>
Created by potrace 1.10, written by Peter Selinger 2001-2011
</metadata>
<g transform="translate(0.000000,702.000000) scale(0.100000,-0.100000)"
fill="#681A1A" stroke="none">
<path d="M4735 6500 c-4 -11 -17 -32 -31 -47 -31 -33 -30 -48 2 -69 37 -25 28
-55 -21 -68 -29 -8 -41 -18 -43 -33 -2 -12 -10 -27 -18 -33 -8 -7 -14 -18 -14
-24 0 -15 -59 -86 -71 -86 -6 0 -21 -13 -35 -29 -16 -19 -36 -31 -57 -33 -29
-3 -32 -6 -35 -40 -4 -42 12 -78 33 -78 9 0 15 -10 15 -24 0 -14 10 -30 25
-40 34 -22 45 -20 45 9 0 18 5 25 19 25 10 0 22 7 25 16 4 11 14 15 31 12 28
-6 31 5 15 46 -12 33 2 41 39 21 17 -8 50 -15 74 -15 23 0 48 -5 55 -12 8 -8
15 -8 24 -1 7 6 22 13 33 15 11 3 28 9 37 13 11 4 27 -3 47 -23 39 -37 31 -45
-22 -23 -42 18 -67 18 -67 0 0 -10 61 -40 99 -48 20 -5 24 -12 24 -44 0 -49
-5 -53 -43 -30 -30 17 -32 17 -44 1 -11 -15 -29 -18 -94 -18 -73 0 -105 -10
-88 -27 13 -13 152 -10 174 4 21 13 26 13 41 -1 10 -9 25 -16 34 -16 23 0 21
-13 -3 -35 -17 -15 -22 -16 -36 -4 -14 11 -15 9 -12 -16 2 -22 10 -30 32 -36
38 -10 46 -5 46 32 0 20 4 29 13 26 6 -2 11 -15 9 -28 -1 -13 -2 -41 -2 -61 1
-27 -5 -41 -19 -50 -15 -9 -17 -15 -9 -26 8 -9 8 -16 -1 -25 -10 -9 -18 -5
-40 22 l-28 34 -13 -33 -14 -33 -94 6 c-60 4 -101 12 -111 21 -9 7 -35 16 -58
18 -36 3 -43 1 -43 -14 0 -21 -37 -48 -65 -47 -11 0 -14 3 -7 6 6 2 12 10 12
18 0 7 7 19 16 26 12 10 14 23 10 51 -6 36 -4 38 34 58 21 11 48 20 60 20 11
0 20 5 20 10 0 9 -41 15 -80 12 -36 -3 -42 8 -17 28 14 11 32 17 41 14 11 -4
19 2 26 21 7 20 16 26 29 22 24 -6 46 7 37 22 -10 16 -81 14 -95 -3 -17 -21
-64 -29 -103 -18 -77 21 -107 -37 -48 -94 16 -16 30 -37 30 -47 0 -11 10 -27
22 -37 l22 -17 -29 -30 c-18 -18 -45 -32 -69 -36 -21 -3 -41 -8 -43 -11 -10
-10 23 -80 45 -94 12 -8 22 -19 22 -24 0 -6 11 -23 25 -40 14 -16 25 -34 25
-39 0 -5 -11 -11 -25 -15 -19 -5 -25 -13 -25 -35 0 -33 11 -35 73 -18 42 11
45 21 17 56 -11 14 -20 38 -20 53 0 30 32 66 50 55 6 -4 17 -2 24 4 8 7 24 7
49 0 30 -8 42 -7 59 6 12 8 31 15 41 15 10 0 30 9 44 20 14 11 34 20 45 20 10
0 33 7 50 16 24 12 36 13 54 5 33 -15 32 -51 -1 -51 -27 0 -44 -25 -28 -41 6
-6 31 -7 62 -3 44 6 51 9 46 25 -5 14 -1 19 14 21 12 0 26 1 33 2 21 2 18 -19
-4 -29 -20 -9 -23 -17 -23 -67 0 -32 -5 -62 -12 -69 -7 -7 -13 -16 -13 -20 0
-9 58 -39 77 -39 18 0 17 -29 -2 -36 -8 -4 -21 -1 -29 5 -8 7 -24 14 -37 16
-33 6 -45 21 -30 38 17 21 4 44 -31 51 -47 9 -211 7 -227 -3 -12 -8 -10 -11
11 -16 14 -4 32 -6 39 -5 8 2 49 2 92 1 68 -1 77 -3 77 -20 0 -13 -7 -19 -22
-19 -13 0 -42 -3 -65 -7 -23 -4 -72 -4 -108 0 -57 6 -73 12 -106 42 -22 20
-43 33 -47 29 -4 -4 1 -13 11 -20 9 -7 17 -21 17 -30 0 -10 12 -22 29 -29 19
-7 37 -26 51 -54 l22 -44 56 3 c50 3 57 6 72 33 22 40 67 56 86 31 9 -13 20
-17 36 -13 13 4 29 0 38 -7 8 -8 24 -16 34 -17 11 -2 21 -9 23 -16 6 -18 -107
-14 -114 4 -6 15 -31 17 -53 3 -22 -14 17 -53 46 -46 32 8 80 -3 104 -26 23
-22 19 -38 -11 -38 -20 0 -26 -15 -9 -25 17 -11 11 -33 -11 -40 -13 -4 -27 -1
-39 10 -11 10 -29 15 -47 12 -26 -4 -27 -5 -6 -12 16 -5 24 -18 28 -44 11 -65
24 -81 66 -81 33 0 59 -14 47 -25 -6 -6 -71 -7 -98 0 -33 7 -54 -7 -46 -32 5
-16 16 -19 58 -20 33 0 56 -6 62 -15 6 -8 17 -13 24 -11 17 6 15 -22 -3 -37
-11 -9 -13 -23 -9 -51 6 -37 -6 -54 -21 -29 -3 5 -18 9 -33 8 -15 0 -67 1
-115 2 -90 2 -104 -1 -93 -19 5 -7 39 -8 97 -5 71 5 94 3 107 -9 27 -22 106
-57 131 -57 41 0 16 -25 -31 -30 -35 -4 -51 -1 -68 12 -12 10 -31 18 -41 18
-10 0 -19 5 -19 10 0 6 -15 10 -32 10 l-33 -1 35 -19 c19 -10 45 -24 58 -31
30 -16 23 -34 -14 -35 -50 -1 -54 -3 -54 -27 0 -13 3 -26 6 -29 11 -12 64 11
87 38 18 20 29 25 43 20 18 -8 18 -8 -3 -17 -30 -11 -29 -37 2 -51 28 -13 33
-36 10 -44 -9 -4 -15 -19 -15 -39 0 -45 -13 -50 -66 -30 -24 9 -49 13 -55 9
-6 -3 -97 -6 -201 -5 -119 1 -195 -2 -203 -9 -16 -13 -75 -1 -82 17 -3 8 2 20
12 27 15 11 15 13 1 25 -40 34 9 77 80 72 18 -1 35 2 38 8 4 5 49 10 103 10
104 0 143 14 69 24 -25 4 -52 4 -60 1 -8 -3 -31 -1 -52 5 -24 7 -43 7 -55 0
-10 -5 -30 -7 -44 -3 l-25 6 23 29 c25 31 70 38 96 15 11 -9 45 -15 101 -16
130 -4 150 -2 150 14 0 12 -24 16 -117 19 -65 2 -139 10 -165 17 -42 12 -50
11 -66 -3 -23 -21 -93 -27 -99 -10 -3 7 7 17 21 23 31 11 44 36 27 53 -14 14
-14 60 1 75 9 9 7 13 -5 18 -24 9 -21 32 6 36 17 2 22 9 20 28 -1 14 1 19 4
12 3 -7 17 -18 31 -23 21 -8 30 -5 54 18 l29 28 17 -22 c22 -28 75 -21 97 13
12 19 24 24 60 24 34 0 47 5 55 20 6 11 19 20 30 20 10 0 22 5 25 10 11 17
-19 21 -58 7 -59 -20 -189 -1 -239 35 -15 11 -22 8 -46 -20 -27 -30 -34 -32
-91 -32 -70 0 -80 18 -20 33 42 10 63 35 48 54 -9 9 -8 17 0 27 10 11 9 21 -4
46 -22 43 -14 61 25 54 23 -5 30 -3 30 9 0 12 12 17 48 19 34 2 47 7 47 18 0
12 -12 14 -57 12 -32 -2 -58 -2 -58 1 0 3 14 20 30 37 17 18 29 38 27 44 -6
18 -37 19 -37 2 0 -37 -82 -48 -123 -16 -29 23 -45 25 -69 6 -18 -13 -24 -47
-11 -60 4 -4 8 -15 8 -24 0 -9 9 -18 20 -20 51 -7 87 -129 45 -152 -11 -6 -20
-21 -20 -35 0 -20 -6 -24 -32 -27 -31 -3 -33 -5 -32 -42 1 -30 9 -46 31 -65
35 -31 56 -74 59 -119 1 -27 -4 -35 -22 -43 -28 -10 -30 -26 -9 -56 19 -28 2
-40 -31 -23 -19 11 -27 10 -48 -4 l-25 -16 20 -35 c12 -20 30 -40 40 -46 11
-5 19 -18 19 -28 0 -11 6 -21 14 -24 17 -7 27 -75 14 -99 -5 -10 -15 -18 -22
-18 -27 0 -35 -24 -16 -47 21 -27 39 -29 66 -8 10 8 37 15 58 15 22 0 47 7 58
17 16 14 23 14 56 4 39 -13 257 -10 321 4 24 5 44 3 65 -7 17 -8 47 -21 66
-28 123 -44 124 -48 10 -53 -36 -1 -65 -6 -65 -10 0 -13 59 -39 63 -28 5 15
35 14 50 -1 20 -20 13 -30 -17 -23 -24 5 -29 2 -34 -16 -8 -30 -1 -39 29 -39
29 0 30 -4 3 -41 -18 -25 -19 -34 -10 -61 14 -41 14 -48 -4 -48 -8 0 -15 7
-15 15 0 11 -12 15 -49 15 -28 0 -52 4 -56 10 -4 6 -15 6 -31 -1 -30 -11 -309
-9 -341 2 -13 5 -25 4 -28 -1 -4 -6 -37 -10 -76 -10 l-69 0 0 59 c0 55 2 61
28 73 20 11 26 20 24 40 -2 20 4 28 28 38 16 7 30 16 30 21 0 5 29 9 64 9 45
0 67 -4 77 -16 8 -9 21 -13 35 -10 12 3 36 3 53 0 25 -5 31 -11 29 -28 -2 -15
2 -21 17 -21 14 0 21 8 23 28 3 28 20 35 39 16 8 -8 16 -6 29 10 13 14 30 21
56 21 40 0 48 10 24 29 -9 8 -22 8 -44 0 -20 -7 -86 -8 -184 -5 -238 9 -230 9
-240 -8 -12 -22 -119 -22 -153 0 -36 23 -69 15 -73 -19 -3 -21 5 -35 32 -59
20 -17 36 -37 36 -44 0 -6 7 -17 15 -24 10 -8 15 -31 15 -67 l0 -55 -30 7
c-28 6 -30 5 -30 -23 0 -54 75 -76 122 -35 9 8 22 12 28 8 6 -3 31 1 55 11 35
13 61 15 117 10 205 -19 263 -19 277 -2 17 20 45 21 61 1 7 -8 22 -15 34 -15
12 0 31 -7 42 -15 10 -8 34 -15 52 -15 18 0 41 -6 52 -12 23 -14 36 -5 45 32
5 21 0 28 -25 43 -24 15 -30 25 -30 53 0 21 8 42 20 54 11 11 20 26 20 34 0 8
14 24 30 36 34 24 37 38 15 80 -11 22 -23 30 -41 30 -23 0 -25 3 -20 25 6 22
2 27 -24 36 -41 15 -50 52 -21 87 12 15 25 37 31 49 5 12 21 29 35 39 37 24
35 78 -4 98 -16 9 -32 27 -35 41 -4 14 -18 31 -31 37 -31 14 -32 40 -1 81 13
18 27 42 30 53 4 12 16 24 27 27 17 5 19 11 14 44 -10 58 -13 63 -35 63 -12 0
-24 9 -29 23 -5 13 -16 29 -25 36 -21 18 -20 43 2 72 11 13 22 36 26 51 4 18
15 30 31 34 23 6 24 10 19 48 -7 43 -26 66 -56 66 -10 0 -18 7 -18 14 0 8 -11
27 -24 41 -26 28 -25 43 4 80 8 11 24 25 34 31 20 11 27 29 30 79 1 27 -2 30
-31 33 -32 3 -93 47 -93 67 0 21 51 80 73 85 19 5 22 12 22 60 l0 55 -60 0
c-70 0 -81 16 -41 60 15 16 26 34 26 42 0 7 11 18 25 23 32 12 40 33 29 77 -8
31 -16 38 -63 56 -56 20 -121 78 -121 108 0 8 -5 20 -11 26 -5 5 -18 25 -27
44 -13 25 -27 36 -57 45 -50 13 -59 44 -20 62 37 17 32 71 -7 90 -16 7 -28 19
-28 27 0 23 -18 27 -25 5z m63 -232 c7 -7 12 -20 12 -30 0 -28 -34 -21 -58 12
l-23 30 29 0 c15 0 33 -5 40 -12z m-98 -34 c0 -8 8 -14 18 -15 14 0 14 -2 -3
-9 -25 -10 -50 12 -41 35 7 19 26 11 26 -11z m100 -49 c0 -8 -9 -15 -20 -15
-28 0 -25 -23 6 -37 22 -10 25 -9 23 5 -2 9 1 27 5 40 6 18 11 21 22 11 7 -6
11 -15 8 -20 -3 -5 7 -21 21 -35 20 -20 29 -23 39 -14 11 8 20 5 41 -15 16
-14 39 -25 52 -25 36 0 23 -24 -15 -28 -23 -2 -33 2 -42 17 -12 24 -40 27 -58
9 -27 -27 -173 -25 -220 3 l-34 20 -33 -26 c-36 -27 -75 -33 -75 -12 0 6 23
24 50 39 28 16 50 33 50 38 0 6 15 8 39 4 30 -5 39 -3 44 10 4 9 16 16 27 16
11 0 20 7 20 15 0 9 9 15 25 15 16 0 25 -6 25 -15z m-120 -640 c7 -8 20 -15
29 -15 13 -1 13 -2 -3 -12 -10 -6 -43 -10 -72 -9 -41 1 -55 -3 -63 -17 -15
-24 -14 4 0 31 7 12 17 25 23 29 19 13 73 9 86 -7z m124 -311 c32 -12 15 -24
-34 -24 -46 0 -60 7 -43 23 8 9 56 9 77 1z m276 -279 c11 -13 6 -15 -39 -15
-39 0 -51 4 -51 15 0 11 11 15 39 15 22 0 44 -6 51 -15z m-397 -39 c34 -25 21
-45 -18 -28 -32 15 -72 15 -80 2 -7 -12 -65 -13 -65 -2 0 5 16 21 37 35 41 30
79 28 126 -7z m-185 -353 c2 -8 -6 -13 -22 -13 -17 0 -26 5 -26 16 0 19 41 16
48 -3z"/>
<path d="M4675 5981 c-3 -5 -1 -12 5 -16 13 -8 50 3 50 16 0 12 -47 12 -55 0z"/>
<path d="M4730 5905 c0 -33 28 -45 46 -20 22 30 17 45 -16 45 -25 0 -30 -4
-30 -25z"/>
<path d="M4667 5774 c-13 -13 -7 -24 12 -24 11 0 23 -5 27 -11 5 -8 10 -6 16
5 6 10 8 19 6 21 -8 9 -54 15 -61 9z"/>
<path d="M4802 5764 c-19 -13 -20 -18 -11 -37 12 -21 12 -21 35 8 33 42 19 59
-24 29z"/>
<path d="M4800 5500 c0 -18 37 -31 49 -16 6 7 8 16 4 19 -10 11 -53 8 -53 -3z"/>
<path d="M4753 5437 c-4 -8 -17 -17 -28 -22 -19 -8 -19 -9 3 -12 22 -4 52 16
52 36 0 15 -17 14 -27 -2z"/>
<path d="M4733 5115 c-8 -22 0 -27 32 -19 26 7 27 8 10 20 -24 18 -34 18 -42
-1z"/>
<path d="M4590 5046 c0 -10 9 -16 25 -16 14 0 25 5 25 10 0 6 -4 10 -9 10 -5
0 -16 3 -25 6 -11 4 -16 1 -16 -10z"/>
<path d="M4762 5033 c-36 -3 -52 -8 -49 -16 2 -8 29 -12 78 -12 59 0 74 3 74
15 0 16 -20 19 -103 13z"/>
<path d="M4820 4880 c-8 -5 -22 -7 -32 -4 -9 2 -19 1 -22 -5 -8 -12 66 -21 79
-10 14 14 -7 30 -25 19z"/>
<path d="M4734 4786 c-3 -8 -4 -25 -2 -38 2 -17 9 -23 28 -23 22 0 25 4 25 35
0 29 -4 36 -23 38 -13 2 -24 -3 -28 -12z"/>
<path d="M4622 4713 c-19 -13 -28 -14 -42 -5 -14 9 -21 8 -30 -3 -21 -25 -3
-32 72 -29 40 2 87 3 103 4 29 1 29 1 11 15 -11 8 -27 13 -37 10 -9 -3 -22 1
-29 10 -15 18 -19 18 -48 -2z"/>
<path d="M4816 4541 c-8 -13 20 -33 41 -29 10 2 19 11 21 21 3 13 -3 17 -27
17 -16 0 -32 -4 -35 -9z"/>
<path d="M4740 4449 c0 -11 5 -17 10 -14 6 3 10 13 10 21 0 8 -4 14 -10 14 -5
0 -10 -9 -10 -21z"/>
<path d="M4530 4190 c-30 -16 -32 -19 -16 -26 11 -4 29 -1 46 9 15 9 31 13 36
7 16 -15 164 -17 164 -2 0 5 -15 9 -32 9 -41 1 -87 8 -95 16 -3 4 -14 2 -24
-3 -12 -7 -20 -7 -24 0 -8 13 -12 12 -55 -10z"/>
<path d="M4941 4191 c-19 -12 -6 -45 15 -37 9 3 27 6 40 6 31 0 31 14 -1 28
-31 14 -36 14 -54 3z"/>
<path d="M4735 4120 c-7 -12 2 -30 16 -30 12 0 12 27 0 35 -5 3 -12 1 -16 -5z"/>
<path d="M4644 4074 c3 -9 6 -18 6 -20 0 -2 7 -4 15 -4 13 0 14 4 5 20 -13 24
-35 27 -26 4z"/>
<path d="M4244 3894 c-5 -20 0 -33 23 -57 48 -52 73 -104 73 -153 0 -42 -3
-47 -30 -57 -37 -14 -37 -23 -1 -66 l29 -35 55 13 c30 7 61 19 67 26 8 9 21
13 35 9 13 -3 26 -1 30 5 4 8 10 7 20 -3 19 -19 344 -17 368 2 14 12 21 11 48
-2 50 -25 87 -21 95 9 8 32 1 40 -22 27 -13 -7 -28 -5 -52 6 -33 16 -35 16
-52 -6 -16 -19 -25 -22 -62 -16 -24 4 -51 15 -61 26 -10 10 -23 15 -30 11 -8
-5 -8 -8 1 -11 22 -7 12 -22 -14 -22 -17 0 -28 6 -31 20 -3 11 -11 20 -18 20
-7 0 -15 -9 -18 -20 -7 -26 -21 -25 -47 2 -18 19 -23 21 -41 10 -16 -10 -24
-10 -35 -1 -11 9 -14 8 -14 -2 0 -11 -17 -14 -70 -13 -121 2 -110 -4 -110 68
0 53 4 67 19 78 11 8 21 28 23 48 3 30 7 35 36 41 18 4 41 14 51 23 36 32 119
10 128 -34 7 -37 63 -63 63 -29 0 3 -9 9 -21 12 -12 3 -19 12 -17 19 3 9 32
14 103 15 57 2 102 7 105 14 12 19 88 23 108 6 10 -9 37 -19 60 -23 23 -4 42
-10 42 -14 0 -13 -40 -19 -71 -10 -18 5 -41 5 -56 -1 -21 -8 -23 -12 -13 -24
9 -11 23 -13 51 -9 28 5 42 2 54 -10 9 -9 27 -16 41 -16 27 0 44 -27 25 -39
-8 -5 -10 -22 -5 -50 4 -23 2 -52 -3 -64 -35 -74 -34 -74 5 -80 20 -3 50 -10
66 -16 27 -11 28 -13 12 -30 -12 -13 -27 -17 -54 -15 -69 7 -131 21 -146 33
-11 9 -28 11 -53 6 -21 -4 -104 -9 -185 -12 -120 -3 -153 -1 -177 12 -39 19
-56 19 -77 -2 -13 -13 -38 -19 -94 -21 -70 -4 -79 -2 -107 22 -34 29 -54 27
-76 -8 -14 -21 -13 -24 20 -50 19 -15 38 -39 43 -52 5 -13 14 -24 19 -24 10 0
14 -17 25 -102 4 -33 1 -39 -21 -50 -34 -17 -39 -32 -15 -56 10 -10 21 -26 25
-35 7 -19 23 -22 32 -7 3 6 18 10 33 10 15 0 55 9 88 20 59 18 67 18 170 4 83
-12 118 -13 145 -5 21 6 43 9 51 6 8 -3 48 -2 89 3 64 8 79 7 109 -9 19 -11
52 -19 73 -19 21 0 46 -4 55 -9 9 -4 29 -11 43 -14 25 -6 27 -4 32 36 6 44
-11 77 -40 77 -9 0 -13 14 -13 46 0 47 27 96 78 139 22 19 23 25 15 65 -8 41
-11 45 -36 42 -26 -3 -27 -2 -27 46 0 42 -3 51 -21 55 -19 5 -20 10 -14 74 7
62 11 71 44 100 20 18 39 33 44 33 15 0 6 45 -14 66 l-22 23 -38 -19 c-55 -28
-150 -27 -189 2 -28 21 -33 21 -122 10 -56 -7 -129 -9 -183 -5 -124 10 -184 8
-198 -6 -17 -17 -165 -14 -183 4 -25 25 -63 19 -70 -11z m901 -74 c3 -5 -3
-10 -15 -10 -12 0 -18 5 -15 10 3 6 10 10 15 10 5 0 12 -4 15 -10z m-592 -337
c17 -16 39 -18 181 -15 88 1 177 2 196 3 62 1 120 -6 120 -13 0 -5 0 -12 0
-16 0 -4 -132 -7 -292 -6 -308 2 -323 4 -263 44 36 24 34 24 58 3z m-123 -33
c0 -5 -6 -10 -14 -10 -8 0 -16 -6 -19 -12 -2 -7 -8 -10 -12 -6 -9 8 16 37 33
38 6 0 12 -4 12 -10z m45 -41 c4 -6 19 -9 33 -8 15 1 39 -1 54 -5 17 -5 34 -3
50 8 14 9 27 13 31 10 3 -4 50 -7 104 -7 54 0 101 -4 104 -9 3 -5 20 -1 36 9
26 14 34 15 47 4 12 -10 13 -18 5 -32 -7 -15 -6 -19 4 -19 8 0 17 9 20 20 5
18 11 19 69 14 34 -4 71 -11 81 -16 22 -11 25 -70 2 -62 -8 4 -15 1 -15 -5 0
-6 6 -11 14 -11 14 0 26 -29 26 -62 0 -12 -8 -18 -24 -18 -13 0 -27 -6 -30
-12 -3 -9 -8 -8 -16 5 -6 9 -17 17 -25 17 -8 0 -18 -8 -24 -17 -9 -17 -11 -17
-23 -2 -19 23 -48 32 -48 14 0 -18 -20 -19 -54 -3 -22 9 -29 8 -47 -8 -19 -17
-21 -18 -30 -1 -13 22 -32 22 -54 -3 -13 -14 -25 -18 -49 -13 -17 4 -35 12
-41 19 -12 16 -66 18 -202 8 -100 -7 -103 -6 -103 14 0 12 5 32 11 46 10 20 9
30 -5 51 -21 32 -14 45 24 45 19 0 33 7 40 20 12 22 25 26 35 9z"/>
<path d="M4722 3351 c-9 -5 -12 -25 -10 -57 3 -41 6 -49 25 -52 18 -3 22 3 28
37 11 66 -7 95 -43 72z"/>
<path d="M4405 3300 c-8 -13 -1 -24 14 -19 6 3 7 10 2 18 -6 10 -10 10 -16 1z"/>
<path d="M4553 3839 c-5 -5 -30 -11 -54 -12 -34 -2 -45 -6 -47 -21 -7 -32 12
-37 68 -16 50 18 56 19 67 4 10 -14 13 -13 23 5 8 16 8 21 -1 21 -7 0 -20 7
-29 15 -11 10 -19 12 -27 4z"/>
<path d="M4730 3825 c-16 -20 -2 -23 79 -21 52 2 76 7 79 16 4 10 -4 12 -30 7
-18 -3 -53 -2 -76 3 -30 5 -45 4 -52 -5z"/>
<path d="M4730 3744 c-12 -30 -8 -39 15 -31 17 7 21 42 5 52 -6 3 -15 -6 -20
-21z"/>
<path d="M4207 3120 c-23 -27 -22 -34 11 -67 15 -15 43 -48 61 -72 32 -41 34
-45 22 -78 -11 -28 -10 -38 3 -57 18 -28 12 -36 -26 -36 -39 0 -37 -27 8 -73
27 -28 40 -35 53 -28 9 5 39 14 66 19 28 6 67 15 88 20 20 6 39 7 42 3 5 -9
403 -7 411 2 3 3 20 -1 37 -8 18 -7 73 -16 124 -20 59 -4 96 -12 104 -21 15
-18 29 -9 29 20 0 12 7 31 15 42 20 27 19 31 -15 49 -27 14 -30 20 -30 64 0
34 5 53 19 65 11 10 24 30 31 45 6 16 22 33 36 39 28 14 32 47 8 80 l-16 23
-36 -27 c-33 -26 -42 -28 -120 -26 -47 1 -90 6 -96 10 -31 22 -84 32 -112 21
-16 -6 -90 -13 -164 -16 -105 -4 -149 -2 -197 11 -61 16 -64 16 -103 -4 -66
-34 -190 -23 -190 18 0 9 -22 22 -39 22 -3 0 -14 -9 -24 -20z m370 -54 c2 -2
1 -10 -3 -19 -4 -11 -23 -16 -67 -19 -34 -2 -65 -2 -69 0 -5 1 4 14 20 28 23
21 34 24 71 19 25 -3 46 -7 48 -9z m448 -10 c7 -9 24 -16 39 -16 21 0 26 -5
26 -26 0 -23 3 -25 24 -20 19 5 29 0 40 -16 20 -28 20 -48 1 -48 -13 0 -35
-28 -35 -46 0 -3 9 -4 20 -1 12 3 18 1 14 -5 -4 -5 -1 -21 7 -34 7 -13 10 -26
8 -28 -6 -6 -90 -9 -221 -7 -65 1 -116 -2 -129 -9 -15 -8 -24 -9 -28 -2 -4 7
-76 10 -206 8 -110 -1 -208 0 -217 2 -15 3 -17 16 -15 79 2 68 4 76 27 89 14
7 48 13 77 14 31 0 57 6 66 14 10 11 17 12 25 4 13 -13 134 -19 153 -8 11 8
10 12 -6 24 -19 14 -16 15 33 16 33 0 51 -4 47 -10 -3 -5 -12 -10 -20 -10 -8
0 -17 -5 -20 -11 -5 -7 10 -10 47 -8 30 1 60 -1 67 -5 6 -4 35 -2 62 4 40 10
56 10 73 0 29 -15 71 -9 71 10 0 11 -9 14 -31 12 -21 -2 -33 2 -37 13 -8 19
-36 20 -43 0 -6 -15 -59 -21 -68 -7 -6 9 15 37 34 45 26 11 103 0 115 -17z
m123 -27 c-2 -6 -8 -10 -13 -10 -5 0 -11 4 -13 10 -2 6 4 11 13 11 9 0 15 -5
13 -11z"/>
<path d="M4716 2938 c-20 -29 -20 -58 0 -58 10 0 14 7 12 23 -2 16 3 23 20 25
26 4 29 17 6 26 -22 8 -21 9 -38 -16z"/>
<path d="M4946 2904 c-8 -29 -3 -39 13 -29 13 8 15 55 2 55 -5 0 -12 -12 -15
-26z"/>
<path d="M4446 2891 c-7 -11 22 -23 35 -15 5 3 9 9 9 15 0 12 -37 12 -44 0z"/>
<path d="M1903 2839 c-13 -5 -23 -12 -23 -17 0 -4 -15 -16 -32 -26 -18 -11
-49 -32 -68 -46 -19 -15 -53 -37 -75 -49 -22 -12 -47 -26 -55 -31 -8 -5 -46
-24 -85 -41 -38 -17 -98 -44 -132 -60 -35 -16 -74 -29 -87 -29 -14 0 -27 -4
-30 -9 -3 -4 -38 -18 -78 -30 -40 -13 -88 -29 -106 -37 -18 -8 -44 -14 -58
-14 -13 0 -41 -7 -61 -15 -19 -8 -50 -15 -68 -15 -17 0 -54 -7 -81 -15 -27 -8
-60 -15 -73 -15 -14 0 -32 -7 -42 -16 -12 -11 -53 -19 -133 -26 -104 -10 -116
-13 -121 -32 -16 -55 -40 -86 -66 -86 -15 0 -32 -6 -38 -13 -7 -9 -28 -13 -63
-11 -72 5 -133 -24 -148 -72 -6 -19 -18 -34 -26 -34 -8 0 -14 -6 -14 -14 0 -8
-7 -16 -15 -20 -8 -3 -15 -12 -15 -20 0 -7 -7 -16 -15 -20 -8 -3 -15 -10 -15
-16 0 -5 7 -10 15 -10 8 0 15 7 15 15 0 8 7 15 15 15 8 0 15 6 15 14 0 8 7 16
15 20 8 3 15 11 15 18 0 7 11 18 25 25 14 6 25 7 25 2 0 -5 -4 -9 -10 -9 -5 0
-10 -11 -10 -25 0 -14 -4 -25 -8 -25 -14 0 -53 -60 -47 -71 8 -12 55 30 55 49
0 7 13 26 30 42 16 16 30 34 30 40 0 5 9 10 20 10 25 0 25 -11 0 -40 -11 -13
-20 -29 -20 -37 0 -7 -4 -13 -10 -13 -5 0 -10 -5 -10 -11 0 -13 38 -49 52 -49
17 0 7 -27 -15 -38 -20 -10 -18 -11 19 -11 38 -1 76 -23 57 -34 -4 -2 -34 -5
-65 -6 -45 -1 -58 2 -58 14 0 19 -14 19 -30 0 -17 -21 -27 -19 -36 7 -6 21 -7
21 -21 3 -11 -17 -16 -18 -34 -7 -21 13 -59 8 -59 -9 0 -18 -27 -9 -38 14 -9
19 -11 17 -11 -21 -1 -40 2 -45 29 -55 36 -14 37 -25 8 -62 -21 -27 -21 -28
-3 -41 10 -8 22 -14 26 -14 8 0 19 36 19 63 0 10 12 29 28 42 22 20 35 24 75
21 82 -6 75 -32 -11 -43 -50 -6 -52 -7 -52 -36 0 -26 2 -28 16 -16 14 11 18
10 31 -6 13 -18 12 -21 -16 -29 -24 -7 -30 -15 -34 -45 -5 -41 7 -61 25 -43 7
7 20 12 31 12 13 0 18 -6 15 -22 -2 -18 -11 -24 -34 -26 -38 -4 -44 -18 -44
-114 0 -73 4 -77 51 -53 24 13 36 14 68 4 52 -16 71 -7 71 32 0 27 2 30 16 18
10 -8 13 -21 9 -36 -5 -20 -2 -23 23 -23 15 0 37 -6 48 -14 18 -14 18 -15 -9
-25 -16 -6 -33 -11 -38 -11 -12 0 -11 -17 2 -25 6 -5 3 -12 -10 -21 -11 -8
-21 -27 -23 -42 -4 -37 -21 -31 -32 12 -8 29 -6 39 8 55 18 19 17 20 -5 26
-13 3 -49 1 -79 -4 -36 -6 -59 -5 -67 1 -24 19 -43 1 -36 -32 3 -19 0 -41 -8
-56 -11 -22 -11 -30 2 -52 15 -27 15 -27 134 -27 101 0 119 -2 117 -15 -6 -27
-26 -30 -177 -27 -131 2 -150 4 -153 19 -2 10 5 19 18 23 19 6 21 12 16 53 -3
26 -8 78 -11 115 -7 67 -7 68 -26 51 -22 -20 -25 -59 -5 -67 11 -5 13 -19 9
-64 -3 -32 -9 -62 -14 -67 -5 -6 -9 -37 -9 -71 l0 -61 68 3 c99 4 196 12 292
24 105 13 210 12 227 -2 8 -8 23 -7 49 1 19 7 50 9 67 6 58 -12 935 -7 961 5
19 9 31 8 53 -3 24 -12 116 -15 516 -17 451 -2 489 -1 517 15 29 18 30 18 50
-4 20 -21 29 -22 218 -24 108 -1 229 -3 267 -4 373 -5 479 -4 487 4 6 6 8 18
6 27 -3 16 -36 18 -463 22 -253 2 -466 6 -473 8 -8 3 -368 7 -800 10 -609 4
-1332 11 -1499 15 -8 0 -13 14 -13 34 0 21 -6 36 -15 40 -11 4 -15 21 -15 60
0 30 3 57 8 59 4 3 45 6 92 8 l85 3 -3 -54 c-4 -68 -19 -81 -80 -73 -36 5 -44
3 -40 -8 5 -16 122 -23 149 -8 10 5 20 28 24 54 5 36 10 45 23 43 13 -3 17
-15 17 -53 l0 -50 148 -3 149 -3 -7 58 c-4 32 -9 59 -10 61 -1 2 -16 -11 -33
-27 l-30 -30 -14 21 c-10 15 -26 22 -54 23 -80 3 -144 17 -144 31 0 15 12 16
167 17 73 0 97 -3 111 -16 10 -10 26 -17 35 -17 21 0 38 -58 25 -84 -6 -10 -6
-22 -1 -26 4 -5 69 -10 143 -11 151 -3 137 -10 132 69 l-2 28 -126 -1 c-113 0
-127 2 -140 20 -13 17 -12 20 3 28 20 10 43 37 43 48 0 4 -6 14 -14 21 -20 20
-134 8 -147 -15 -14 -23 -27 -21 -31 5 -2 18 -10 22 -45 24 -24 1 -45 -1 -47
-5 -6 -9 -104 -7 -126 2 -8 3 -30 10 -48 14 -41 10 -41 26 0 36 57 14 62 17
50 29 -5 5 -8 25 -5 42 3 22 0 36 -11 45 -21 18 -20 31 2 31 11 0 27 -14 38
-35 15 -29 16 -40 7 -64 -13 -36 -9 -41 34 -41 31 0 33 2 33 36 0 19 -5 44
-11 56 -6 11 -10 39 -10 62 2 106 6 129 24 140 27 16 50 -18 42 -62 -3 -18 0
-48 7 -68 10 -27 10 -39 0 -54 -16 -26 -32 -99 -23 -105 4 -2 302 -7 661 -10
403 -3 658 -9 665 -15 7 -6 34 -8 60 -5 51 5 75 -6 75 -34 0 -16 -18 -17 -200
-15 -194 2 -201 1 -215 -19 -32 -45 -21 -57 53 -58 37 -1 88 -3 115 -4 45 -2
61 6 62 30 0 6 11 11 23 13 20 3 23 0 17 -17 -5 -17 -2 -21 19 -21 38 0 56 10
56 32 0 10 4 17 10 13 5 -3 6 -13 3 -21 -8 -21 14 -34 59 -34 l37 0 6 55 c5
35 3 60 -4 68 -7 10 -7 17 0 24 22 22 -2 35 -60 31 l-56 -3 -5 115 c-8 170
-22 162 266 164 126 1 236 5 246 10 14 7 15 3 7 -35 -6 -23 -9 -67 -8 -97 3
-56 -7 -72 -43 -72 -22 0 -22 -3 0 -63 l17 -49 65 -1 c67 0 110 8 110 23 0 4
-6 10 -13 13 -9 3 -14 35 -16 108 -7 198 -8 184 17 187 12 2 22 -2 22 -8 0 -7
7 -10 15 -6 9 3 15 0 15 -10 0 -8 -4 -13 -9 -9 -5 3 -13 -5 -17 -17 -4 -15 -1
-25 12 -35 16 -11 16 -17 6 -46 -8 -24 -9 -49 -1 -96 5 -35 8 -70 5 -77 -2 -6
1 -20 8 -30 12 -16 45 -17 424 -18 295 -1 414 2 422 10 7 7 14 62 16 135 5
137 11 189 22 189 4 0 8 -18 9 -40 2 -22 8 -51 15 -63 12 -22 12 -21 21 11 7
22 6 40 -1 56 -9 21 -8 25 9 29 30 8 93 -4 102 -20 13 -21 28 -5 21 23 -5 20
-2 24 15 24 12 0 21 -6 22 -12 0 -7 1 -136 1 -286 0 -185 -3 -277 -11 -285
-17 -17 -25 0 -25 54 0 50 0 50 -30 47 -26 -2 -30 -7 -28 -25 4 -28 6 -28 -47
-2 -31 15 -46 18 -54 10 -6 -6 -24 -11 -39 -11 -28 0 -28 -1 -28 -60 l0 -59
100 3 c93 3 100 2 100 -16 0 -26 -51 -45 -124 -47 -33 0 -61 -3 -64 -6 -2 -2
-2 -16 2 -30 5 -19 13 -25 35 -25 16 0 31 6 35 15 4 11 21 15 60 15 29 0 76 6
102 14 103 30 133 36 184 36 43 0 53 -3 57 -19 3 -11 15 -22 28 -25 31 -8 352
-9 365 -1 15 9 60 -6 60 -20 0 -7 14 -18 31 -25 27 -12 33 -11 40 2 5 10 23
16 46 16 21 1 90 3 153 6 63 3 201 6 305 6 l190 2 0 -24 0 -23 -229 -5 c-171
-4 -230 -8 -234 -17 -2 -7 1 -13 6 -13 6 0 18 -7 27 -16 12 -13 34 -17 88 -16
40 0 83 5 96 10 14 5 43 5 65 1 57 -11 116 -11 116 0 0 6 21 13 48 16 100 13
153 29 163 47 13 23 31 23 54 -2 16 -17 31 -20 116 -20 94 0 99 1 115 25 20
30 40 32 47 5 7 -28 81 -31 180 -9 37 9 51 17 58 36 l9 25 28 -30 c24 -26 35
-29 86 -31 63 -1 86 10 86 40 0 30 28 22 32 -8 4 -33 35 -42 151 -44 61 -1 79
-5 86 -18 8 -14 26 -15 148 -11 76 3 199 5 273 4 74 -1 188 -3 254 -4 68 -1
126 -6 136 -12 13 -9 22 -9 32 -1 7 6 44 11 83 11 38 1 81 4 96 7 22 5 29 2
34 -15 7 -22 7 -22 26 -2 17 19 53 20 63 3 2 -3 49 -5 104 -4 95 1 100 0 106
-20 6 -20 8 -20 19 -6 19 25 51 39 68 28 26 -16 60 -9 85 18 l25 27 22 -22 21
-22 -24 -18 c-17 -11 -51 -19 -105 -22 l-80 -5 0 -44 0 -44 88 -1 c87 -2 110
5 88 27 -8 8 -6 16 6 29 31 34 59 17 55 -34 l-2 -28 170 0 c145 0 170 2 170
15 0 8 -9 23 -20 32 -17 15 -20 30 -20 94 0 63 -3 79 -20 94 -18 17 -19 20 -4
36 12 14 15 40 13 136 -2 133 4 168 37 201 18 19 34 24 86 25 l63 2 3 48 c2
35 -1 49 -12 53 -12 5 -16 21 -16 63 0 31 -5 62 -10 67 -6 6 -13 24 -16 40 -9
53 -11 55 -49 48 -19 -3 -655 -7 -1413 -8 -1444 -1 -1406 -2 -1444 41 -34 39
-28 120 11 151 14 12 12 17 -21 47 -36 34 -37 34 -69 18 -24 -12 -64 -16 -170
-16 -77 0 -142 3 -146 6 -3 4 -86 7 -184 7 l-177 0 -7 56 c-4 31 -4 58 -1 61
3 4 60 5 127 4 151 -3 176 11 126 70 -18 22 -28 25 -59 22 -21 -3 -38 -11 -38
-18 0 -12 -63 -25 -125 -25 -18 0 -44 -9 -58 -20 l-26 -20 -6 20 c-8 26 -25
26 -32 0 -3 -11 -13 -20 -23 -20 -10 0 -26 -3 -35 -6 -11 -5 -18 0 -22 15 -6
25 -11 26 -35 4 -18 -16 -19 -16 -25 5 -7 27 -57 31 -67 6 -5 -13 -9 -13 -25
-2 -11 8 -35 12 -55 10 -26 -3 -36 -10 -40 -28 -8 -30 -26 -22 -26 10 0 21 -6
24 -52 30 -72 9 -104 8 -163 -6 -54 -13 -85 -33 -85 -55 0 -7 -7 -13 -15 -13
-16 0 -21 -35 -6 -45 6 -3 15 4 21 15 15 29 26 25 35 -12 6 -32 7 -32 17 -10
11 23 32 29 43 13 3 -6 19 -4 40 5 31 13 35 12 44 -3 9 -17 10 -17 28 0 11 9
23 14 26 10 13 -13 7 -66 -9 -78 -13 -9 -15 -20 -9 -51 l8 -39 19 65 c25 81
32 95 49 95 11 0 13 -12 11 -50 -2 -27 -8 -54 -13 -60 -5 -5 -9 -18 -9 -30 1
-20 1 -20 12 0 6 11 18 25 26 31 11 8 13 22 9 53 -5 38 -3 43 24 56 26 14 29
14 40 -7 10 -19 12 -19 21 -5 15 27 38 20 38 -11 0 -15 -4 -32 -9 -37 -14 -15
-23 -83 -12 -89 5 -4 20 27 32 69 l23 75 40 -2 c23 -1 48 0 56 3 11 3 16 -5
18 -28 2 -18 -1 -33 -7 -33 -13 0 -25 -65 -16 -81 5 -7 18 20 33 65 23 72 26
77 51 74 24 -3 26 -6 23 -48 -1 -25 -8 -64 -15 -87 -9 -35 -16 -43 -34 -43
-13 0 -26 -7 -29 -15 -8 -19 -33 -19 -40 -1 -5 12 -11 12 -37 -4 -36 -22 -47
-18 -47 16 0 30 -17 32 -22 2 -4 -31 -38 -36 -45 -8 l-6 21 -19 -21 c-20 -21
-53 -27 -63 -11 -3 5 2 17 12 26 16 16 15 17 -3 13 -11 -2 -20 -13 -22 -26 -5
-31 -46 -27 -50 6 -2 12 -7 20 -12 17 -5 -3 -7 -12 -4 -20 8 -19 -24 -31 -46
-17 -10 6 -22 7 -31 1 -22 -14 -49 -11 -49 6 0 8 -4 15 -10 15 -5 0 -10 -7
-10 -15 0 -21 -40 -19 -56 3 -11 14 -16 15 -34 4 -19 -11 -26 -9 -61 19 -22
17 -46 28 -54 25 -22 -8 -18 -25 9 -35 23 -9 43 -62 30 -82 -13 -22 -84 -1
-84 26 0 22 -39 29 -59 11 -10 -9 -20 -13 -24 -10 -11 11 -97 15 -97 4 0 -14
-27 -12 -33 3 -3 9 -9 9 -26 -1 -19 -11 -28 -10 -67 12 -33 19 -44 21 -44 10
0 -16 -31 -19 -46 -4 -6 6 -21 6 -41 1 -16 -5 -36 -5 -44 -1 -7 5 -27 3 -46
-5 -30 -13 -35 -12 -40 1 -4 11 -14 13 -36 8 -28 -6 -29 -5 -23 20 5 19 3 26
-9 26 -10 0 -15 -10 -15 -31 l0 -32 -46 7 c-26 3 -55 6 -65 6 -14 0 -19 7 -19
25 0 31 -17 33 -22 3 -4 -31 -36 -36 -46 -7 l-9 23 -6 -24 c-5 -20 -10 -22
-42 -17 -21 3 -45 1 -55 -5 -14 -9 -22 -9 -33 0 -10 9 -22 10 -40 3 -15 -6
-45 -7 -69 -3 -37 7 -43 11 -40 30 2 12 -2 22 -7 22 -6 0 -11 -9 -11 -19 0
-25 -12 -32 -53 -33 -17 0 -38 -5 -45 -11 -9 -7 -18 -5 -30 7 -10 9 -21 13
-25 10 -4 -4 -35 -6 -69 -5 -35 1 -74 2 -88 2 -14 1 -30 5 -37 10 -7 7 -13 6
-17 0 -4 -5 -34 -9 -69 -7 -48 1 -63 6 -65 18 -3 15 -6 14 -23 -3 -17 -17 -27
-19 -67 -13 -59 9 -122 9 -145 -1 -21 -9 -33 1 -40 30 -5 19 -5 19 -12 -1 -4
-12 -17 -26 -31 -32 -20 -10 -25 -8 -35 9 -9 17 -13 18 -26 7 -9 -7 -37 -13
-62 -14 -25 0 -68 -2 -96 -2 -27 -1 -140 0 -250 3 -110 2 -219 4 -241 5 -34 0
-43 4 -49 23 l-8 22 -4 -22 c-6 -32 -53 -33 -53 -1 0 12 -3 18 -7 14 -4 -4 -8
-15 -8 -24 0 -27 -51 -28 -65 -2 l-12 22 -14 -21 c-16 -22 -44 -18 -44 7 0 13
-3 12 -14 -4 -13 -16 -18 -17 -35 -7 -15 9 -28 10 -48 2 -23 -9 -30 -7 -44 13
l-18 23 -11 -30 c-11 -30 -12 -30 -28 -10 -14 17 -22 19 -45 11 -24 -9 -31 -7
-43 9 -15 20 -15 20 -33 -4 l-18 -24 -16 23 -15 22 -11 -21 c-9 -15 -16 -18
-33 -12 -12 4 -40 4 -62 0 -23 -4 -43 -5 -45 -3 -2 2 1 4 7 4 7 0 12 7 12 15
0 8 -4 15 -9 15 -5 0 -11 -7 -15 -15 -3 -8 -12 -15 -21 -15 -9 0 -18 7 -21 15
-4 8 -10 15 -15 15 -5 0 -9 -7 -9 -15 0 -12 -13 -15 -59 -15 -33 0 -63 4 -66
10 -4 6 -13 5 -25 -2 -14 -9 -22 -9 -33 1 -10 8 -17 9 -22 1 -3 -5 -15 -10
-25 -10 -10 0 -21 -6 -24 -12 -3 -7 -3 1 0 17 5 28 4 29 -10 12 -13 -17 -18
-17 -43 -5 -15 7 -29 22 -31 33 -3 11 -10 24 -18 28 -24 14 -15 45 26 87 22
22 40 51 41 63 1 14 5 9 11 -15 6 -21 16 -38 24 -38 8 0 14 5 14 10 0 14 27
12 34 -2 3 -9 9 -8 20 6 10 12 22 17 38 13 13 -4 29 -2 37 3 23 14 -13 44 -44
36 -56 -14 -4 55 54 73 23 6 41 18 41 26 0 19 37 38 63 31 11 -3 33 2 48 11
22 13 31 14 42 5 11 -10 17 -9 26 2 18 22 50 26 60 8 8 -13 12 -13 36 6 29 23
55 29 55 12 0 -17 23 -11 48 13 23 21 24 21 37 4 13 -18 15 -18 39 -2 14 10
26 21 26 26 0 5 7 9 15 9 8 0 15 -7 15 -15 0 -8 7 -15 15 -15 8 0 15 4 15 10
0 20 39 31 60 18 18 -11 23 -10 30 3 5 9 18 27 29 40 l19 24 12 -30 c13 -33 9
-35 56 30 15 20 15 20 34 -5 l18 -25 7 27 c4 15 16 35 27 45 19 17 20 17 34
-2 14 -19 15 -19 39 10 l24 30 1 -36 c0 -24 -5 -39 -15 -43 -8 -3 -15 -12 -15
-20 0 -7 -7 -16 -15 -20 -8 -3 -15 -10 -15 -16 0 -12 -13 -30 -47 -64 -13 -13
-20 -26 -16 -29 11 -12 21 -7 26 13 3 11 12 20 21 20 9 0 16 6 16 13 0 7 14
27 30 45 17 18 30 38 30 44 0 6 8 17 17 24 15 10 16 17 7 41 -10 27 -9 29 10
29 15 -1 22 6 24 22 5 31 31 40 48 17 15 -20 44 -14 44 10 0 8 5 15 10 15 6 0
13 0 18 1 4 0 10 -10 14 -23 5 -15 6 -10 3 15 -3 33 -2 37 11 26 16 -13 16
-14 32 24 9 22 16 26 35 21 28 -6 57 17 57 47 0 22 11 24 28 7 14 -14 42 6 42
31 0 14 2 14 10 1 15 -23 12 -70 -5 -86 -8 -9 -15 -27 -15 -40 0 -14 -7 -32
-15 -40 -8 -9 -15 -24 -15 -33 0 -10 -7 -24 -15 -31 -8 -7 -15 -23 -15 -36 0
-13 -5 -24 -10 -24 -6 0 -15 -10 -21 -22 -15 -35 -36 -70 -46 -77 -13 -9 -35
-52 -30 -58 8 -7 47 30 47 44 0 7 7 13 15 13 8 0 15 6 15 14 0 7 7 19 15 26 8
7 15 20 15 30 0 10 7 20 15 24 8 3 15 16 15 29 0 14 7 30 15 37 8 7 15 25 15
40 0 16 7 30 15 34 9 3 15 18 15 36 0 16 4 30 8 30 5 0 14 24 21 53 11 48 11
53 -9 66 -11 7 -20 24 -20 37 0 29 -9 34 -37 23z m2667 -645 c0 -18 -28 -25
-69 -18 -48 9 -59 16 -35 25 30 11 104 6 104 -7z m280 -24 c0 -5 -14 -10 -31
-10 -17 0 -28 4 -24 10 3 6 17 10 31 10 13 0 24 -4 24 -10z m424 -246 c-1 -51
2 -94 7 -94 13 0 22 47 16 90 -4 34 -1 41 20 55 13 9 47 20 75 24 48 8 49 7
42 -13 -11 -33 -17 -125 -9 -144 6 -15 8 -15 15 3 5 11 9 43 9 70 1 40 5 53
23 64 19 12 23 11 35 -5 12 -16 14 -16 31 -1 35 32 44 22 36 -43 -7 -64 1
-105 16 -81 4 8 7 37 5 65 -3 62 2 76 25 76 28 0 31 -13 19 -68 -8 -35 -9 -54
-1 -68 10 -18 11 -17 21 9 6 16 11 41 11 57 0 46 20 81 44 78 18 -3 21 -11 23
-63 5 -143 15 -227 29 -232 8 -3 14 -18 14 -33 0 -37 10 -61 21 -54 16 9 10
72 -7 82 -12 7 -15 17 -9 41 5 26 10 30 20 21 8 -7 24 -9 36 -5 13 5 25 2 29
-6 7 -10 12 -10 25 1 13 11 20 11 37 1 14 -8 23 -9 32 -2 14 12 26 5 26 -16 0
-7 -7 -13 -15 -13 -11 0 -15 -11 -15 -39 0 -22 3 -46 6 -55 12 -32 24 -14 24
37 0 43 5 58 23 76 22 19 25 20 37 6 12 -14 15 -14 30 0 9 8 19 12 22 9 4 -3
60 -7 125 -8 65 -2 124 -4 131 -5 7 0 18 -14 23 -31 6 -16 15 -30 20 -30 5 0
9 -20 9 -44 0 -46 13 -68 24 -40 11 28 6 73 -8 81 -16 9 -24 52 -12 71 13 21
36 -5 37 -42 1 -32 3 -29 13 17 7 30 30 36 40 11 6 -16 8 -16 24 0 25 22 42
20 42 -4 0 -11 4 -20 9 -20 5 0 7 9 4 20 -4 15 0 20 16 20 11 0 21 -4 21 -10
0 -5 7 -10 15 -10 8 0 15 5 15 10 0 6 7 10 15 10 8 0 15 -4 15 -10 0 -17 27
-11 35 8 6 16 7 16 21 -3 11 -15 18 -17 32 -9 12 8 22 8 35 0 13 -8 20 -8 25
0 6 9 43 11 115 5 12 -1 17 -10 17 -29 0 -15 4 -32 9 -37 5 -6 11 -21 13 -35
4 -33 22 -32 26 2 2 17 -4 34 -17 47 -12 12 -21 27 -21 35 0 17 55 26 92 15
16 -4 30 -3 33 2 4 5 15 9 25 9 14 0 19 -6 17 -21 -1 -12 4 -24 12 -27 10 -3
12 2 7 22 -5 22 -3 26 14 26 13 0 20 -7 20 -20 0 -10 6 -23 14 -27 8 -4 16
-19 18 -32 1 -14 9 -26 17 -29 11 -4 12 2 7 24 -4 16 -12 31 -17 32 -12 5 -12
52 1 52 5 0 14 -8 19 -17 10 -17 12 -17 25 0 7 9 17 17 21 17 4 0 14 -8 21
-17 12 -15 15 -16 23 -4 10 16 91 25 91 10 0 -14 28 -11 33 4 3 9 9 9 28 -2
16 -10 24 -10 27 -2 5 16 23 14 38 -6 11 -15 15 -16 23 -4 10 15 88 24 97 10
3 -5 13 -5 22 -1 9 4 69 8 132 7 l115 0 2 -29 c1 -16 7 -34 13 -40 5 -5 10
-27 10 -49 0 -53 24 -44 28 10 2 23 10 47 18 53 7 7 14 23 14 36 0 33 18 30
34 -6 13 -33 26 -30 26 6 0 34 19 39 30 9 10 -26 30 -26 30 1 0 22 26 17 38
-8 l11 -23 7 23 c8 28 32 29 43 0 8 -21 8 -21 15 5 8 35 32 35 41 0 l7 -28 14
28 c8 15 17 27 19 27 11 0 40 -80 45 -125 3 -27 10 -50 15 -50 14 0 19 122 5
130 -5 3 -10 12 -10 19 0 14 67 16 89 2 10 -6 16 -6 19 2 5 16 29 15 35 0 3
-10 10 -8 25 6 20 17 22 17 28 2 8 -21 23 -20 40 2 13 16 14 16 20 -5 7 -26
34 -31 34 -8 0 8 4 15 9 15 18 0 20 -17 6 -36 -8 -10 -15 -40 -15 -66 0 -27
-4 -48 -10 -48 -5 0 -10 -11 -10 -24 0 -31 -55 -75 -73 -57 -15 15 -27 14 -27
-4 0 -20 -20 -19 -35 2 -10 14 -16 15 -28 5 -11 -10 -17 -9 -28 4 -9 11 -22
14 -42 10 -17 -4 -36 -1 -44 6 -11 8 -19 9 -31 1 -11 -7 -38 -7 -76 -2 -38 5
-67 4 -79 -2 -10 -6 -29 -8 -40 -5 -12 2 -38 1 -57 -3 -26 -5 -38 -3 -47 8
-10 14 -13 14 -31 -2 -19 -18 -21 -18 -31 0 -8 14 -14 16 -28 7 -13 -8 -23 -8
-36 0 -12 7 -20 8 -25 1 -10 -15 -73 -35 -85 -28 -12 7 -43 10 -180 13 -54 2
-100 7 -103 12 -3 5 -12 4 -20 -3 -11 -9 -18 -8 -32 5 -23 20 -32 20 -32 1 0
-8 -6 -15 -14 -15 -8 0 -16 7 -20 15 -7 20 -36 19 -36 -1 0 -13 -3 -14 -14 -5
-11 9 -19 9 -35 -1 -18 -11 -22 -10 -34 6 -10 13 -18 16 -28 10 -8 -5 -22 -7
-32 -5 -10 1 -25 -6 -32 -16 -13 -17 -14 -17 -20 0 -9 22 -31 22 -39 0 -6 -15
-8 -15 -23 0 -15 14 -17 14 -33 -5 -15 -19 -17 -19 -33 -3 -14 13 -21 14 -31
6 -11 -9 -16 -9 -21 -1 -4 7 -18 9 -32 6 -13 -4 -29 -3 -36 1 -7 4 -27 9 -45
10 -19 1 -41 8 -49 15 -14 11 -15 10 -9 -7 6 -20 2 -21 -72 -19 -123 2 -117 0
-130 42 l-11 37 2 -40 c2 -40 2 -40 -33 -39 -65 2 -71 4 -80 27 -9 21 -9 21
-9 -4 -1 -21 -7 -28 -31 -33 -17 -3 -42 -1 -56 4 -14 6 -33 6 -42 2 -9 -5 -37
-8 -62 -7 -25 1 -53 -2 -62 -7 -10 -5 -19 -4 -23 3 -4 6 -18 8 -32 4 -14 -3
-31 -1 -39 6 -11 9 -17 9 -28 0 -11 -9 -16 -9 -21 -1 -4 7 -18 9 -30 6 -39
-10 -75 10 -76 41 l-1 28 -10 -27 c-12 -35 -34 -36 -42 -3 -8 32 -22 32 -30 1
-7 -28 -24 -34 -90 -30 -28 2 -55 -1 -62 -7 -8 -7 -10 -2 -6 18 5 26 4 27 -12
14 -10 -8 -27 -16 -39 -17 -12 -1 -43 -4 -69 -7 -34 -4 -48 -2 -52 9 -3 8 -16
14 -28 14 -20 0 -23 -5 -23 -37 0 -28 -5 -38 -18 -41 -26 -5 -32 26 -13 63 17
31 17 35 0 83 -13 37 -25 53 -41 57 -24 6 -30 20 -12 30 14 9 79 -36 79 -56 0
-23 11 -30 27 -18 17 15 43 -5 43 -35 1 -16 4 -13 16 13 14 32 15 33 33 17 13
-11 21 -14 26 -7 11 19 33 12 41 -11 7 -23 7 -23 16 4 7 19 5 35 -6 57 -9 16
-16 46 -16 65 0 44 -18 56 -41 28 -22 -28 -43 -28 -57 1 l-11 22 -7 -23 c-8
-29 -38 -25 -42 6 -4 30 -20 28 -32 -4 -13 -34 -57 -31 -52 4 2 15 -2 22 -12
22 -10 0 -16 -9 -16 -25 0 -16 -6 -25 -15 -25 -9 0 -15 9 -15 25 0 15 -6 25
-15 25 -8 0 -22 -11 -31 -25 -20 -30 -44 -33 -44 -5 0 11 -5 20 -11 20 -6 0
-13 -9 -16 -20 -8 -31 -43 -26 -43 7 l0 27 -28 -27 c-33 -32 -52 -35 -52 -8 0
30 -19 35 -25 8 -6 -22 -12 -24 -65 -24 -46 -1 -60 3 -65 16 -6 14 -8 14 -18
1 -15 -19 -115 -25 -134 -8 -11 9 -15 7 -20 -11 -8 -32 -37 -22 -41 14 -2 22
4 37 22 55 23 21 28 22 51 10 21 -11 29 -11 51 0 23 13 27 12 35 -3 13 -22 29
-22 29 1 0 9 7 25 15 36 8 11 12 30 8 47 -6 30 12 63 28 53 5 -3 9 -32 9 -65
0 -33 4 -59 10 -59 12 0 13 8 14 75 1 44 4 50 24 53 13 2 30 -2 38 -9 13 -11
19 -9 33 9 9 13 20 20 24 16 11 -11 8 -87 -4 -122 -18 -53 -3 -60 19 -10 14
30 22 67 22 101 0 57 5 68 25 61 9 -4 11 -31 9 -100z m-4044 -64 c-20 -13 -43
-13 -35 0 3 6 16 10 28 10 18 0 19 -2 7 -10z m708 -29 c6 -8 12 -29 13 -45 l0
-31 12 35 c14 42 27 45 40 7 7 -22 5 -32 -7 -46 -18 -20 -12 -51 10 -51 9 0
14 10 12 28 -1 21 32 119 48 140 8 12 43 -13 48 -33 3 -13 16 -29 27 -36 24
-12 38 -4 21 13 -16 16 -15 38 1 38 23 0 36 -43 34 -112 -2 -65 -8 -81 -22
-58 -4 6 -11 8 -16 5 -16 -10 -10 -33 16 -59 19 -19 25 -36 25 -66 0 -29 -4
-40 -12 -37 -7 2 -13 19 -13 37 0 19 -6 35 -14 38 -10 3 -12 -4 -9 -32 4 -33
2 -36 -22 -36 -14 0 -34 -3 -45 -6 -38 -10 -57 17 -59 81 0 35 -6 60 -13 62
-8 3 -11 -9 -10 -37 1 -46 -16 -65 -45 -49 -12 7 -18 21 -18 44 0 41 -11 44
-37 12 -10 -13 -26 -26 -35 -29 -11 -5 -18 -20 -20 -45 l-3 -37 -55 -1 -55 0
0 132 c0 97 -3 134 -12 138 -14 5 -14 0 -17 -97 0 -31 -4 -59 -8 -63 -4 -4
-19 -3 -35 2 -20 7 -30 18 -33 39 -5 26 -7 25 -12 -16 -4 -24 -5 -47 -2 -49 2
-2 21 -7 41 -10 35 -6 38 -9 41 -44 4 -43 -11 -48 -51 -17 -21 17 -26 18 -31
5 -3 -8 -12 -15 -20 -15 -11 0 -16 15 -18 58 -2 45 -6 56 -18 52 -26 -8 -123
0 -136 11 -9 7 -20 6 -37 -6 -32 -21 -75 -10 -87 21 -5 13 -16 24 -24 24 -29
0 -38 26 -21 59 15 29 15 31 -4 31 -10 0 -22 -7 -25 -16 -9 -25 -7 -73 5 -96
9 -16 7 -24 -12 -44 -18 -19 -20 -26 -9 -39 10 -12 9 -20 -4 -40 -32 -49 -69
-16 -59 52 4 25 1 34 -18 43 -20 11 -21 14 -7 24 12 9 15 25 13 61 -2 28 -6
57 -9 66 -4 9 0 21 9 29 14 12 18 11 26 -1 5 -8 7 -20 4 -26 -2 -7 0 -13 5
-13 5 0 12 11 16 24 6 24 8 24 80 20 62 -4 74 -2 74 11 0 8 5 15 10 15 6 0 10
-7 10 -15 0 -8 -3 -15 -8 -15 -4 0 -12 -10 -17 -22 -6 -13 -20 -28 -32 -34
-13 -6 -20 -14 -16 -17 10 -10 51 -8 58 2 6 11 65 -19 65 -34 0 -11 20 16 20
28 0 4 -5 7 -12 7 -19 0 -48 31 -48 52 0 15 8 18 44 18 65 0 98 -37 55 -61
-17 -9 -19 -13 -8 -19 23 -15 48 8 51 48 3 37 3 37 42 34 22 -2 47 -7 57 -12
12 -7 21 -5 29 5 15 18 56 20 66 4 5 -8 12 -5 23 9 15 20 18 21 56 7 61 -22
84 -19 95 11 9 23 13 25 28 13 9 -7 23 -20 30 -28z m-1142 18 c3 -6 17 -9 30
-6 29 5 33 -18 5 -26 -21 -5 -41 -60 -41 -114 0 -39 -9 -41 -33 -7 -18 25 -18
26 0 40 17 13 17 14 -4 20 -27 7 -29 17 -8 34 14 12 14 15 0 31 -15 16 -15 18
2 28 23 14 40 14 49 0z m122 -13 c3 -12 -1 -17 -10 -14 -7 3 -15 13 -16 22 -3
12 1 17 10 14 7 -3 15 -13 16 -22z m180 3 c-2 -6 -8 -10 -13 -10 -5 0 -11 4
-13 10 -2 6 4 11 13 11 9 0 15 -5 13 -11z m3682 -9 c0 -5 -9 -10 -20 -10 -11
0 -20 5 -20 10 0 6 9 10 20 10 11 0 20 -4 20 -10z m-3744 -8 c5 -4 11 -29 12
-56 1 -38 -3 -55 -18 -71 -20 -21 -19 -55 1 -55 5 0 9 -25 9 -55 0 -50 -2 -55
-25 -61 -14 -4 -29 -4 -32 -1 -7 8 -14 267 -7 290 5 17 40 23 60 9z m2736
-144 c2 -79 2 -146 0 -150 -2 -5 -172 -8 -378 -8 l-374 0 0 150 0 150 374 0
375 0 3 -142z m-2670 97 c0 -5 -5 -11 -11 -13 -6 -2 -11 4 -11 13 0 9 5 15 11
13 6 -2 11 -8 11 -13z m-418 -34 c0 -11 -1 -59 -2 -106 l-2 -85 -30 0 -29 0 1
-66 c0 -36 -3 -69 -8 -73 -5 -5 -46 -11 -91 -13 l-83 -5 0 80 0 80 -79 -6
c-43 -2 -83 -2 -89 2 -11 7 -20 190 -10 206 4 6 91 10 215 9 206 -1 208 -1
207 -23z m4020 17 c1 -2 0 -76 -2 -165 l-4 -162 -261 -3 c-144 -2 -266 0 -270
3 -6 5 -13 297 -8 329 1 5 543 3 545 -2z m3296 -43 c0 -39 -14 -46 -30 -16
-16 31 -12 51 10 51 16 0 20 -7 20 -35z m-3065 -15 c-5 -8 -11 -8 -17 -2 -6 6
-7 16 -3 22 5 8 11 8 17 2 6 -6 7 -16 3 -22z m95 20 c13 -9 13 -11 0 -20 -19
-13 -52 -9 -57 7 -3 9 7 16 37 22 3 0 12 -4 20 -9z m-146 -35 c52 -22 46 -41
-14 -49 -28 -4 -55 -4 -61 0 -8 4 -8 1 0 -13 14 -27 9 -266 -6 -285 -7 -8 -8
-19 -3 -28 7 -11 12 -11 33 3 22 14 29 14 83 -2 72 -21 59 -34 -33 -32 l-65 1
6 -27 c3 -16 1 -35 -4 -43 -9 -13 -14 -10 -36 15 -22 26 -24 36 -19 81 6 51 6
52 -27 63 -32 12 -32 13 -14 27 11 7 25 14 32 14 20 0 38 28 26 43 -5 7 -9 59
-8 121 2 98 4 110 22 117 29 12 48 10 88 -6z m-3784 -10 c0 -8 -4 -15 -10 -15
-5 0 -10 7 -10 15 0 8 5 15 10 15 6 0 10 -7 10 -15z m7637 -47 c-2 -13 -4 -5
-4 17 -1 22 1 32 4 23 2 -10 2 -28 0 -40z m-7433 -13 c42 -18 42 -18 19 -56
-12 -19 -25 -29 -41 -29 -23 0 -24 3 -19 39 3 22 0 44 -6 50 -16 16 3 14 47
-4z m178 -13 c15 -15 -35 -62 -59 -56 -11 3 -24 1 -27 -5 -14 -22 -25 -10 -19
22 9 49 22 60 62 53 19 -3 38 -9 43 -14z m3970 3 c2 -5 1 -68 -2 -138 l-5
-128 -249 0 c-136 0 -250 2 -253 4 -7 8 -8 267 -1 269 25 9 508 2 510 -7z
m3266 -27 c-5 -32 -28 -35 -28 -4 0 17 5 26 16 26 10 0 14 -7 12 -22z m-6808
-18 c0 -20 -5 -30 -15 -30 -16 0 -19 17 -9 44 10 26 24 18 24 -14z m-1703 -18
c6 -4 13 -23 15 -42 3 -35 3 -35 -37 -35 -34 0 -40 3 -43 23 -4 24 22 62 42
62 6 0 16 -4 23 -8z m5947 -85 l79 -2 -1 -128 c-1 -70 -3 -131 -6 -135 -2 -4
-144 -6 -315 -4 l-311 3 0 133 c0 73 2 135 4 137 4 4 385 1 550 -4z m830 -12
c0 -8 -1 -76 -2 -150 l-2 -135 -300 2 -301 3 0 145 c0 80 0 147 0 150 1 3 137
4 303 3 267 -2 303 -4 302 -18z m748 -136 l0 -144 -264 -5 c-144 -3 -266 -3
-270 0 -3 3 -8 71 -10 152 l-3 148 265 2 c146 2 269 0 273 -3 5 -4 9 -71 9
-150z m691 148 l59 -2 0 -143 c0 -79 -3 -146 -8 -150 -5 -4 -133 -6 -286 -4
l-276 3 -4 147 c-2 81 -3 149 -2 152 2 5 385 3 517 -3z m-6298 -79 c-17 -4
-37 -5 -45 -1 -10 4 -3 9 20 13 45 8 64 -1 25 -12z m4941 -110 c1 -125 7 -144
46 -132 9 3 36 0 60 -7 52 -14 521 -13 584 1 28 6 68 7 111 1 38 -6 129 -11
203 -11 156 -2 230 -9 230 -20 0 -13 -140 -23 -154 -10 -16 12 -233 2 -242
-12 -7 -11 -71 -10 -78 1 -13 20 -668 23 -688 4 -9 -10 -9 -13 0 -13 7 0 12
-5 12 -10 0 -13 -52 -1 -65 16 -12 14 -131 23 -327 24 -85 0 -138 4 -138 10 0
6 65 10 175 10 131 0 185 4 210 14 l35 15 2 78 c1 43 1 94 0 113 -1 19 0 41 3
49 13 33 20 -9 21 -121z m745 -11 c-18 -18 -22 -2 -14 74 l7 74 9 -69 c6 -46
5 -72 -2 -79z m-2272 38 c1 -100 6 -134 22 -151 15 -15 98 -22 283 -23 149 -2
85 -16 -82 -19 -232 -4 -225 -4 -243 20 -14 19 -16 45 -8 108 6 41 -1 50 -37
50 -45 0 -42 24 4 28 29 3 33 7 38 44 10 59 23 27 23 -57z m-843 40 c11 -3 13
-69 2 -80 -8 -8 -525 -8 -538 0 -11 7 -14 54 -5 77 4 10 56 12 268 10 144 -2
267 -4 273 -7z m-4258 -13 c-31 -71 -44 -91 -61 -96 -16 -4 -18 -1 -12 21 8
33 46 82 63 82 8 1 12 -2 10 -7z m-219 -11 c8 -5 11 -16 6 -30 -5 -16 -14 -21
-41 -21 -29 0 -34 3 -34 24 0 18 7 26 23 29 12 2 24 5 27 5 3 1 11 -2 19 -7z
m650 -34 c12 -15 5 -27 -16 -27 -7 0 -13 9 -13 20 0 23 13 26 29 7z m3049 0
c14 -16 4 -57 -13 -57 -7 0 -16 11 -19 25 -10 40 10 59 32 32z m1045 -33 c4
-4 -4 -17 -16 -30 -23 -24 -67 -33 -67 -13 0 27 65 60 83 43z m89 -13 c-17
-10 -42 -58 -34 -65 3 -3 21 -6 41 -7 l36 -1 -35 -9 c-38 -9 -90 -3 -90 11 0
5 7 15 15 24 8 8 15 19 15 25 0 12 29 30 50 31 12 0 12 -2 2 -9z m67 -10 c14
-25 -15 -54 -30 -30 -14 22 -11 49 6 49 8 0 19 -9 24 -19z m211 9 c0 -5 -7
-10 -15 -10 -8 0 -15 5 -15 10 0 6 7 10 15 10 8 0 15 -4 15 -10z m-150 -40
c13 -23 40 -27 40 -5 0 8 5 15 11 15 6 0 9 -6 6 -14 -8 -19 13 -26 36 -12 13
8 20 8 27 -4 14 -22 6 -25 -64 -28 -55 -1 -67 1 -76 18 -13 24 -13 50 0 50 5
0 14 -9 20 -20z m-4737 -15 c-3 -15 -46 -23 -60 -12 -24 18 -13 28 25 25 20
-2 36 -7 35 -13z m3677 0 c0 -8 -9 -15 -20 -15 -20 0 -26 11 -13 23 12 13 33
7 33 -8z m703 -19 c3 -8 0 -21 -6 -30 -10 -13 -26 -14 -113 -6 -55 5 -154 9
-219 9 -65 0 -123 5 -128 10 -18 18 11 21 218 24 110 1 210 3 221 5 12 1 24
-4 27 -12z m561 8 c22 -8 10 -24 -19 -24 -29 0 -42 17 -18 23 10 3 19 5 20 6
1 0 8 -2 17 -5z m990 -41 c38 -11 -11 -24 -64 -17 -42 6 -48 9 -38 21 11 14
47 13 102 -4z m-158 -5 c8 -9 11 -9 -116 -14 -96 -4 -125 -1 -117 13 7 10 223
10 233 1z m2336 -21 c-14 -14 -37 -22 -67 -23 -49 -3 -53 0 -29 27 11 13 31
18 66 17 l51 0 -21 -21z m-182 -2 c-7 -8 -19 -15 -26 -15 -8 0 -14 7 -14 15 0
10 10 15 26 15 22 0 25 -2 14 -15z m-620 -40 c0 -8 -4 -15 -10 -15 -5 0 -10 7
-10 15 0 8 5 15 10 15 6 0 10 -7 10 -15z m774 -65 c21 -21 -11 -31 -100 -28
-73 2 -89 6 -92 20 -2 9 5 18 15 21 30 8 166 -2 177 -13z m-298 -88 c-5 -8
-76 -4 -76 4 0 2 18 4 41 4 22 0 38 -4 35 -8z m251 1 c-20 -2 -52 -2 -70 0
-17 2 0 4 38 4 39 0 53 -2 32 -4z"/>
<path d="M5365 1965 c-4 -11 -11 -30 -16 -43 -11 -29 -12 -109 -1 -96 20 21
44 123 33 141 -9 17 -10 17 -16 -2z"/>
<path d="M5127 1923 c-10 -9 -8 -91 2 -97 8 -5 21 47 21 87 0 17 -11 22 -23
10z"/>
<path d="M5491 1878 l1 -53 13 30 c19 40 19 75 0 75 -12 0 -15 -12 -14 -52z"/>
<path d="M6204 1716 c-15 -40 27 -149 49 -127 8 8 4 18 -11 34 -17 18 -20 30
-16 59 6 37 -11 63 -22 34z"/>
<path d="M6267 1710 c-3 -13 -2 -31 3 -39 8 -14 9 -14 16 2 3 10 2 28 -3 40
-10 21 -10 21 -16 -3z"/>
<path d="M6327 1724 c-10 -11 -9 -52 3 -59 6 -3 13 1 16 10 8 19 -8 60 -19 49z"/>
<path d="M6895 1720 c-9 -15 3 -60 15 -60 6 0 10 -11 10 -25 0 -16 6 -25 15
-25 22 0 18 38 -5 50 -15 8 -19 17 -14 34 6 25 -10 44 -21 26z"/>
<path d="M7016 1723 c-11 -12 -6 -43 8 -43 7 0 18 -15 24 -32 l10 -33 1 33 c1
17 -3 32 -9 32 -5 0 -10 9 -10 19 0 21 -13 34 -24 24z"/>
<path d="M7886 1715 c-10 -28 -7 -45 9 -45 16 0 20 27 6 48 -7 11 -10 10 -15
-3z"/>
<path d="M6083 1673 c3 -27 15 -65 25 -85 l20 -38 6 26 c5 17 2 32 -9 43 -8
10 -15 36 -15 59 0 32 -4 42 -16 42 -14 0 -16 -8 -11 -47z"/>
<path d="M6145 1708 c-9 -22 -2 -68 10 -71 14 -3 19 63 6 76 -7 7 -12 5 -16
-5z"/>
<path d="M6716 1705 c-3 -9 -2 -24 3 -33 9 -16 10 -16 16 0 4 9 2 24 -3 33 -8
16 -9 16 -16 0z"/>
<path d="M6835 1701 c-7 -22 0 -41 16 -41 11 0 12 30 0 49 -7 11 -10 9 -16 -8z"/>
<path d="M7766 1705 c-10 -28 -7 -45 9 -45 16 0 20 27 6 48 -7 11 -10 10 -15
-3z"/>
<path d="M7820 1696 c0 -17 5 -26 16 -26 10 0 14 7 12 22 -5 32 -28 35 -28 4z"/>
<path d="M8572 1668 c2 -28 8 -53 14 -55 8 -3 11 12 9 44 -3 63 -3 63 -16 63
-6 0 -9 -20 -7 -52z"/>
<path d="M6021 1688 c1 -13 4 -34 8 -48 7 -23 8 -23 15 13 4 20 4 42 1 47 -11
18 -25 10 -24 -12z"/>
<path d="M6657 1703 c-13 -12 -7 -61 8 -67 8 -3 15 -16 15 -30 0 -35 18 -42
26 -10 5 19 2 31 -10 39 -9 7 -16 21 -16 31 0 24 -14 46 -23 37z"/>
<path d="M6770 1686 c0 -17 5 -26 16 -26 10 0 14 7 12 22 -5 32 -28 35 -28 4z"/>
<path d="M7465 1700 c-9 -14 4 -52 16 -45 12 8 12 42 0 50 -5 3 -12 1 -16 -5z"/>
<path d="M7527 1704 c-4 -4 -7 -18 -7 -31 0 -28 23 -27 28 1 4 20 -11 40 -21
30z"/>
<path d="M7587 1704 c-12 -12 -8 -44 7 -50 8 -3 17 -20 20 -37 5 -25 9 -29 16
-17 13 20 13 50 0 50 -5 0 -16 14 -23 31 -6 17 -15 27 -20 23z"/>
<path d="M7645 1690 c-7 -23 2 -43 16 -35 12 8 12 42 0 50 -5 3 -12 -4 -16
-15z"/>
<path d="M8515 1698 c-8 -24 0 -81 13 -86 8 -2 12 10 12 42 0 43 -15 71 -25
44z"/>
<path d="M8636 1703 c-9 -10 -7 -81 3 -87 11 -7 21 18 21 54 0 29 -12 45 -24
33z"/>
<path d="M5905 1689 c-4 -6 -3 -15 3 -21 6 -6 11 -4 15 6 7 18 -9 31 -18 15z"/>
<path d="M6590 1671 c0 -21 5 -31 16 -31 11 0 14 8 12 27 -4 39 -28 42 -28 4z"/>
<path d="M7340 1675 c0 -17 5 -25 13 -22 6 2 12 12 12 22 0 10 -6 20 -12 23
-8 2 -13 -6 -13 -23z"/>
<path d="M7404 1685 c-8 -21 6 -41 17 -24 12 19 11 39 -1 39 -6 0 -13 -7 -16
-15z"/>
<path d="M8457 1693 c-9 -8 -9 -76 -1 -97 3 -9 15 -16 25 -16 20 0 26 15 9 25
-5 3 -10 21 -10 38 0 35 -12 61 -23 50z"/>
<path d="M7100 1660 c0 -16 6 -33 14 -37 8 -5 19 -19 25 -33 l10 -25 0 28 c1
15 -3 35 -8 45 -5 9 -12 25 -15 35 -9 28 -26 20 -26 -13z"/>
<path d="M7166 1683 c-12 -12 -6 -43 9 -43 8 0 15 9 15 19 0 21 -13 34 -24 24z"/>
<path d="M7287 1683 c-13 -12 -7 -43 7 -43 8 0 18 -14 22 -32 7 -33 7 -33 16
-8 7 18 5 27 -6 36 -9 6 -16 21 -16 33 0 21 -10 27 -23 14z"/>
<path d="M6530 1657 c0 -14 7 -32 15 -41 8 -8 15 -27 15 -41 0 -17 5 -25 13
-22 13 5 12 48 -2 57 -5 3 -11 18 -13 34 -4 37 -28 48 -28 13z"/>
<path d="M8215 1658 c-8 -32 -4 -58 10 -61 14 -3 18 49 6 70 -8 16 -10 15 -16
-9z"/>
<path d="M8276 1664 c-3 -9 -6 -31 -6 -51 0 -53 24 -36 28 20 3 46 -10 63 -22
31z"/>
<path d="M8329 1668 c-1 -7 0 -17 1 -23 2 -5 3 -20 4 -33 2 -43 21 -27 24 21
2 37 0 47 -12 47 -9 0 -17 -6 -17 -12z"/>
<path d="M5845 1658 c-10 -26 2 -55 17 -40 8 8 8 18 1 34 -10 21 -12 21 -18 6z"/>
<path d="M6475 1660 c-9 -14 4 -70 16 -70 12 0 12 67 0 75 -5 3 -13 1 -16 -5z"/>
<path d="M8101 1631 c-1 -34 2 -42 11 -33 8 8 8 20 1 44 l-11 33 -1 -44z"/>
<path d="M8154 1657 c-7 -20 -2 -47 11 -50 14 -3 19 43 6 56 -7 7 -12 6 -17
-6z"/>
<path d="M8037 1639 c-3 -12 -2 -30 3 -38 7 -13 10 -10 15 12 4 16 3 33 -2 38
-7 7 -12 3 -16 -12z"/>
<path d="M6356 1639 c-4 -8 -3 -26 3 -40 8 -21 10 -22 16 -6 4 10 3 28 -3 40
-8 18 -11 19 -16 6z"/>
<path d="M6865 1640 c-9 -14 4 -52 16 -45 12 8 12 42 0 50 -5 3 -12 1 -16 -5z"/>
<path d="M7732 1619 c2 -19 8 -33 13 -31 15 3 12 55 -3 60 -10 3 -13 -5 -10
-29z"/>
<path d="M7790 1633 c0 -10 4 -25 10 -33 8 -12 10 -12 16 3 7 20 -1 47 -16 47
-5 0 -10 -8 -10 -17z"/>
<path d="M7912 1634 c1 -9 9 -19 16 -22 9 -3 13 2 10 14 -1 9 -9 19 -16 22 -9
3 -13 -2 -10 -14z"/>
<path d="M6290 1623 c0 -10 4 -24 9 -31 6 -10 10 -8 14 9 3 12 4 26 1 31 -9
14 -24 9 -24 -9z"/>
<path d="M6800 1631 c0 -5 3 -17 6 -26 5 -13 8 -14 15 -3 13 20 11 38 -6 38
-8 0 -15 -4 -15 -9z"/>
<path d="M7257 1633 c-2 -5 -1 -17 3 -27 6 -19 7 -19 12 2 6 21 -6 40 -15 25z"/>
<path d="M7497 1634 c-11 -11 -8 -54 3 -54 6 0 13 6 16 14 7 17 -9 50 -19 40z"/>
<path d="M7554 1629 c-3 -6 -1 -16 5 -22 8 -8 11 -5 11 11 0 24 -5 28 -16 11z"/>
<path d="M7678 1633 c-3 -4 -2 -19 2 -33 l6 -25 7 25 c6 24 -6 51 -15 33z"/>
<path d="M6746 1603 c10 -40 14 -41 14 -5 0 18 -5 32 -10 32 -6 0 -8 -11 -4
-27z"/>
<path d="M7200 1606 c0 -22 3 -27 11 -19 8 8 8 16 0 30 -9 16 -10 14 -11 -11z"/>
<path d="M7378 1600 c2 -16 6 -30 8 -30 2 0 4 14 4 30 0 17 -4 30 -8 30 -5 0
-7 -13 -4 -30z"/>
<path d="M7440 1604 c0 -14 4 -23 10 -19 6 3 10 15 10 26 0 10 -4 19 -10 19
-5 0 -10 -12 -10 -26z"/>
<path d="M6176 1591 c-4 -6 -3 -18 2 -27 8 -14 10 -14 15 -2 7 19 -8 44 -17
29z"/>
<path d="M1547 1755 c-13 -9 -14 -14 -6 -17 7 -2 14 -18 15 -34 2 -43 3 -46
14 -39 12 7 14 92 2 99 -4 2 -15 -2 -25 -9z"/>
<path d="M1616 1763 c-3 -3 -6 -12 -6 -20 0 -15 36 -18 45 -4 7 12 -29 33 -39
24z"/>
<path d="M1800 1744 c0 -11 5 -14 16 -10 9 3 23 6 32 6 15 0 15 2 2 10 -23 15
-50 12 -50 -6z"/>
<path d="M1860 1709 c0 -18 2 -19 15 -9 8 7 15 16 15 21 0 5 -7 9 -15 9 -9 0
-15 -9 -15 -21z"/>
<path d="M3087 2843 c-4 -3 -7 -19 -7 -34 0 -38 -14 -44 -51 -22 -29 17 -31
17 -41 0 -9 -17 -11 -17 -27 -2 -16 14 -19 14 -31 0 -12 -14 -15 -14 -32 2
-19 17 -20 17 -33 0 -13 -18 -42 -14 -58 7 -5 7 -12 4 -22 -8 -14 -19 -16 -19
-34 -2 -19 17 -20 17 -30 -2 -6 -10 -8 -35 -4 -55 4 -28 2 -38 -11 -43 -12 -5
-16 -19 -16 -59 0 -38 -4 -55 -15 -59 -8 -3 -15 -18 -15 -34 0 -30 -33 -106
-50 -117 -5 -3 -10 -14 -10 -25 0 -10 -7 -20 -15 -24 -8 -3 -15 -13 -15 -21 0
-9 -7 -23 -15 -31 -17 -17 -20 -44 -5 -44 6 0 10 6 10 13 0 8 9 22 20 32 11
10 20 24 20 31 0 7 4 14 8 16 10 4 52 85 52 99 0 6 7 17 15 25 8 9 15 25 15
37 0 12 7 31 15 41 8 11 15 39 15 62 0 24 6 47 14 54 8 6 16 21 18 32 2 12 9
23 16 26 17 5 16 -67 -3 -111 -8 -20 -15 -47 -15 -60 0 -14 -7 -30 -15 -37 -8
-7 -15 -25 -15 -40 0 -16 -7 -30 -15 -34 -8 -3 -15 -17 -15 -31 0 -14 -7 -28
-15 -31 -8 -4 -15 -14 -15 -24 0 -10 -7 -23 -15 -30 -8 -7 -15 -18 -15 -25 0
-8 -5 -15 -11 -17 -6 -2 -9 -13 -7 -23 5 -20 5 -20 13 0 5 11 22 31 37 45 15
13 28 34 28 46 0 12 7 24 15 28 8 3 15 16 15 30 0 13 7 26 15 30 9 3 15 19 15
41 0 22 6 38 15 41 9 4 15 19 15 39 0 18 6 38 14 45 8 6 16 28 18 48 2 25 8
37 18 37 12 0 14 -11 12 -55 -2 -30 -10 -62 -18 -71 -8 -8 -14 -29 -14 -46 0
-17 -7 -36 -15 -43 -8 -7 -15 -22 -15 -34 0 -12 -5 -27 -11 -33 -13 -13 -23
-30 -59 -100 -14 -26 -28 -49 -32 -51 -5 -2 -8 -8 -8 -13 0 -5 9 -4 20 3 11 7
20 18 20 25 0 7 9 22 20 33 11 11 20 23 20 26 0 3 14 26 30 51 17 24 30 52 30
62 0 10 7 24 15 31 8 7 15 28 15 47 0 19 7 41 15 49 8 9 15 33 15 54 0 46 38
119 51 98 14 -21 10 -54 -6 -68 -10 -8 -15 -30 -15 -65 0 -35 -5 -57 -15 -65
-8 -7 -15 -21 -15 -30 0 -16 -15 -52 -42 -100 -4 -8 -12 -25 -17 -37 -6 -11
-15 -24 -20 -28 -6 -3 -11 -13 -11 -22 0 -9 -7 -21 -17 -28 -9 -7 -13 -17 -9
-23 11 -18 26 -14 26 7 0 10 7 21 15 25 8 3 15 12 15 20 0 7 7 16 15 20 8 3
15 12 15 19 0 8 7 20 15 27 8 7 15 23 15 35 0 12 7 28 15 35 8 7 15 25 15 40
0 15 7 33 15 40 8 7 15 29 15 49 0 20 5 42 10 47 6 6 14 30 18 55 5 28 13 45
23 47 14 2 15 -5 11 -47 -2 -28 -1 -58 3 -68 7 -16 9 -15 15 7 5 14 8 44 9 68
1 45 15 54 37 25 10 -15 17 -16 43 -7 16 7 32 9 35 6 12 -11 6 -50 -9 -62 -8
-7 -15 -27 -15 -45 0 -18 -7 -49 -15 -68 -8 -20 -15 -50 -15 -67 0 -17 -7 -38
-15 -46 -8 -9 -15 -24 -15 -33 0 -10 -7 -24 -15 -31 -8 -7 -15 -21 -15 -31 0
-11 -4 -19 -9 -19 -5 0 -14 -13 -20 -30 -7 -22 -7 -30 2 -30 7 0 23 -3 37 -5
24 -5 24 -5 3 4 -28 13 -29 36 -3 58 11 10 20 23 20 29 0 6 7 17 15 24 8 7 15
23 15 37 0 13 7 31 15 39 8 9 15 30 15 47 0 18 7 41 15 51 8 11 15 38 15 60 1
45 39 104 59 92 13 -9 4 -57 -14 -71 -6 -5 -12 -32 -13 -59 -1 -28 -9 -60 -17
-73 -8 -12 -15 -31 -15 -42 0 -23 -30 -83 -47 -94 -14 -8 -17 -39 -7 -50 7 -7
54 58 54 76 0 7 7 21 15 31 8 11 15 30 15 43 0 13 7 26 15 29 10 4 15 20 15
48 0 41 30 106 50 106 16 0 12 -56 -5 -70 -8 -7 -15 -27 -15 -44 0 -39 -28
-126 -47 -144 -17 -17 -17 -55 0 -50 6 3 13 14 15 26 2 11 10 26 18 32 8 7 14
19 14 26 0 8 4 22 9 32 6 9 12 33 15 52 7 39 40 100 56 100 16 0 12 -56 -5
-70 -8 -7 -15 -29 -15 -50 0 -21 -7 -43 -15 -50 -8 -7 -15 -23 -15 -37 0 -13
-7 -26 -15 -29 -8 -4 -15 -13 -15 -21 0 -8 -7 -21 -15 -29 -8 -9 -15 -24 -15
-35 0 -10 7 -19 15 -19 9 0 15 9 15 24 0 13 3 26 8 28 14 6 52 67 52 85 0 10
7 27 15 37 8 11 15 28 15 38 0 20 39 78 52 78 15 0 9 -68 -7 -74 -9 -3 -15
-18 -15 -34 0 -16 -7 -35 -15 -42 -8 -7 -15 -20 -15 -30 0 -10 -7 -23 -15 -30
-8 -7 -15 -17 -15 -23 0 -5 -8 -15 -17 -22 -16 -12 -16 -15 7 -33 14 -11 29
-17 35 -14 5 4 2 8 -7 10 -26 5 -22 26 12 64 17 18 30 38 30 44 0 6 7 17 15
24 8 7 15 21 15 31 0 25 40 90 51 83 15 -9 10 -54 -6 -60 -8 -4 -15 -18 -15
-34 0 -15 -7 -33 -15 -40 -8 -7 -15 -19 -15 -26 0 -20 27 -17 34 4 13 38 65
117 78 117 20 0 22 -34 2 -56 -16 -18 -33 -44 -50 -77 -3 -7 -4 -15 -1 -19 6
-6 56 47 57 60 0 11 39 47 50 47 22 0 9 -47 -20 -70 -16 -14 -29 -30 -30 -36
0 -7 -7 -14 -15 -18 -21 -8 -19 -26 4 -26 12 0 25 12 33 30 7 17 19 30 25 30
7 0 13 6 13 13 0 12 42 57 54 57 10 0 7 -38 -4 -45 -5 -3 -10 -15 -10 -25 0
-16 4 -14 29 11 35 35 47 36 55 7 l6 -23 19 24 19 24 11 -21 c10 -18 16 -20
31 -12 29 16 42 12 35 -10 -5 -14 -2 -20 9 -20 9 0 16 5 16 10 0 6 7 10 15 10
8 0 15 -4 15 -9 0 -5 27 -7 59 -4 58 5 60 5 66 -20 4 -16 12 -24 20 -21 7 3
31 -6 54 -20 22 -14 45 -26 51 -26 17 0 11 -15 -15 -44 -25 -27 -33 -30 -59
-20 -18 7 -22 39 -6 49 6 4 7 11 4 17 -5 7 -11 6 -18 -4 -13 -17 -123 -32
-131 -17 -4 5 -15 4 -27 -2 -17 -9 -24 -8 -34 5 -8 11 -13 13 -16 6 -4 -12
-91 -22 -188 -20 -30 0 -65 0 -77 1 -42 0 -86 -1 -120 -2 -10 -1 -151 -1 -313
0 -162 0 -303 1 -312 1 -10 0 -24 0 -30 1 -7 0 -80 0 -163 1 -229 0 -235 1
-250 21 -13 18 -13 18 -19 0 -5 -16 -17 -19 -71 -20 -36 0 -65 4 -65 9 0 5 -7
5 -18 -1 -9 -5 -40 -9 -67 -9 -28 0 -99 -1 -160 -4 -60 -2 -125 0 -142 4 -21
6 -40 5 -52 -2 -12 -6 -22 -6 -25 -1 -4 5 -41 9 -84 8 -42 0 -108 0 -147 1
-38 1 -227 1 -420 0 -402 -2 -455 1 -472 22 -9 10 -15 12 -20 4 -5 -6 -20 -14
-35 -18 -16 -3 -28 -13 -28 -21 0 -18 29 -25 95 -24 68 2 75 1 75 -12 0 -17
-31 -38 -55 -39 -28 0 -57 -36 -50 -61 6 -19 9 -18 38 11 27 27 32 28 40 14 7
-12 5 -19 -7 -26 -9 -5 -14 -14 -10 -19 3 -6 23 8 45 30 45 48 62 52 53 14
l-6 -28 30 33 c35 37 52 41 52 12 0 -26 16 -26 30 0 13 24 30 18 30 -11 0 -10
7 -19 15 -19 8 0 15 4 15 10 0 5 10 14 21 21 20 10 21 9 17 -20 -5 -34 7 -42
17 -11 3 11 13 20 21 20 8 0 14 7 14 15 0 22 21 18 27 -5 7 -25 18 -25 36 0
15 22 27 17 27 -11 0 -27 21 -34 27 -10 7 29 37 23 41 -8 3 -22 5 -21 37 15
l34 38 6 -27 c9 -34 22 -34 37 -2 12 27 28 24 28 -6 0 -19 -23 -62 -47 -87 -7
-8 -11 -18 -7 -23 7 -13 24 -1 24 17 0 8 4 14 10 14 5 0 12 11 16 24 3 14 12
27 20 30 8 3 14 12 14 20 0 12 20 26 37 26 3 0 3 -16 0 -35 -3 -19 -2 -35 4
-35 5 0 9 7 9 16 0 18 44 64 61 64 14 0 11 -24 -6 -46 -8 -10 -15 -25 -15 -31
0 -19 20 -16 27 3 7 19 47 64 57 64 3 0 6 -11 6 -25 0 -30 15 -33 30 -5 16 30
44 26 38 -5 -6 -30 9 -44 19 -19 17 45 63 65 63 28 0 -21 18 -17 30 6 15 27
30 25 30 -4 0 -34 15 -40 28 -12 10 23 52 43 52 25 0 -6 -9 -29 -20 -51 -11
-23 -20 -49 -19 -57 0 -10 5 -6 12 9 14 29 18 35 51 73 25 29 46 29 46 1 0
-21 21 -17 27 6 8 29 30 25 38 -7 7 -26 8 -27 17 -8 5 11 20 25 34 32 l25 12
-6 -47 c-5 -43 -4 -45 7 -22 27 53 68 77 68 41 0 -31 19 -35 30 -7 5 14 17 26
26 26 13 0 16 -7 11 -35 -8 -50 6 -50 33 1 29 51 50 57 50 14 0 -36 17 -39 30
-5 13 34 30 32 30 -4 0 -38 17 -49 29 -19 17 46 61 61 61 22 0 -21 21 -17 27
6 8 29 33 25 33 -5 0 -31 13 -32 33 -2 14 19 18 20 26 7 6 -8 11 -26 12 -40
l0 -25 12 25 c16 33 52 71 60 63 4 -3 7 -15 7 -25 0 -24 26 -23 33 2 8 31 27
24 27 -10 0 -37 17 -39 30 -4 15 40 46 28 42 -16 -2 -31 -1 -33 9 -15 7 11 23
31 35 44 l24 23 11 -28 11 -29 14 28 c8 15 19 27 23 27 14 0 22 -29 15 -56 -4
-14 -2 -24 5 -24 6 0 11 6 11 14 0 23 45 70 58 62 7 -4 12 -14 12 -22 0 -21
18 -17 30 6 16 29 30 25 30 -9 0 -41 16 -47 29 -11 7 20 17 30 31 30 17 0 20
-5 16 -37 -2 -21 -1 -30 1 -20 3 10 11 21 20 24 8 3 19 17 24 30 11 29 29 21
29 -13 0 -31 18 -31 30 1 13 35 28 31 35 -9 l7 -34 30 31 c28 30 30 31 44 13
13 -18 14 -18 33 5 l19 24 11 -28 c6 -16 11 -34 11 -40 0 -7 9 3 20 21 23 37
27 38 52 15 19 -17 29 -12 41 21 6 18 27 -5 27 -30 0 -33 15 -30 30 6 18 44
40 21 41 -44 l2 -51 6 40 c6 38 36 85 53 85 5 0 13 -12 19 -27 l11 -28 14 28
c21 39 32 34 40 -20 l8 -48 11 37 c10 37 46 74 59 61 3 -3 6 -15 6 -25 0 -24
21 -23 27 2 3 10 15 26 28 34 20 13 24 13 29 1 2 -7 1 -15 -3 -17 -13 -5 -24
-98 -12 -98 6 0 14 18 17 40 4 22 12 45 20 51 17 14 70 3 78 -17 3 -8 18 -14
34 -14 16 0 35 -6 41 -14 6 -8 24 -16 39 -18 15 -3 35 -9 45 -13 15 -6 17 -1
17 33 0 54 31 87 57 61 17 -17 33 -1 33 32 0 25 -4 29 -29 29 -16 0 -31 -5
-33 -12 -3 -7 -14 -9 -30 -5 -31 8 -47 45 -27 58 20 13 29 11 29 -6 0 -20 16
-19 24 0 4 12 14 14 41 9 19 -3 43 -3 52 1 14 5 8 11 -28 30 -35 17 -62 23
-105 22 -77 -2 -88 5 -80 54 l6 39 -77 0 c-49 1 -87 6 -103 15 -14 8 -48 14
-76 15 -32 0 -56 5 -63 14 -7 8 -28 17 -48 21 -19 3 -43 10 -52 15 -9 5 -23
11 -31 14 -8 4 -28 15 -45 26 -38 25 -39 26 -107 45 -32 8 -58 19 -58 24 0 15
-72 80 -109 97 -35 17 -130 101 -131 117 0 4 -18 26 -39 47 -38 38 -60 48 -74
33z m1076 -768 c1 -5 -6 -11 -15 -13 -11 -2 -18 3 -18 13 0 17 30 18 33 0z"/>
<path d="M2368 2789 c0 -8 -2 -27 -3 -44 -1 -16 -5 -43 -10 -58 -7 -25 -5 -28
11 -25 11 2 22 17 28 36 5 17 14 32 20 32 16 0 7 -90 -10 -108 -8 -7 -14 -27
-14 -43 0 -17 -7 -37 -15 -45 -8 -9 -15 -26 -15 -38 0 -13 -7 -29 -15 -36 -8
-7 -15 -20 -15 -30 0 -10 -7 -20 -15 -24 -8 -3 -15 -15 -15 -26 0 -11 -6 -23
-14 -26 -8 -3 -17 -13 -20 -22 -3 -9 -11 -25 -18 -34 -7 -9 -8 -21 -4 -25 5
-4 11 -2 14 6 2 7 13 21 23 29 11 9 19 22 19 30 0 7 7 15 15 18 8 4 15 14 15
24 0 11 5 22 11 25 5 4 14 17 20 28 5 12 13 29 18 37 14 25 33 83 38 117 3 18
11 38 19 44 8 6 14 26 14 44 0 25 6 34 26 44 26 12 26 11 20 -21 -4 -18 -9
-47 -13 -65 -3 -18 -11 -38 -19 -44 -8 -6 -14 -23 -14 -38 0 -14 -7 -35 -15
-45 -8 -11 -15 -27 -15 -37 0 -9 -7 -19 -15 -23 -8 -3 -15 -17 -15 -31 0 -14
-5 -25 -10 -25 -6 0 -15 -10 -20 -22 -6 -13 -15 -31 -22 -40 -20 -28 0 -34 25
-8 23 26 40 51 56 87 5 11 15 24 20 28 6 3 11 15 11 25 0 10 6 31 14 47 19 39
37 92 44 128 3 16 11 34 17 40 14 12 27 79 18 101 -8 21 -31 17 -38 -7 l-7
-21 -15 22 c-13 18 -21 21 -50 15 -21 -4 -40 -2 -49 6 -11 9 -14 8 -16 -2z"/>
<path d="M2573 2787 c-4 -6 -6 -38 -5 -69 2 -36 -1 -58 -7 -58 -6 0 -11 -6
-11 -13 0 -42 -61 -207 -87 -235 -7 -7 -13 -20 -13 -28 0 -14 -7 -24 -37 -59
-7 -7 -13 -21 -13 -31 0 -10 15 3 40 34 22 27 40 53 40 57 0 3 7 13 15 21 8 9
15 24 15 34 0 10 7 20 15 24 9 3 15 18 15 36 0 17 7 38 15 46 9 10 15 34 15
65 0 27 4 49 10 49 5 0 14 18 20 40 6 21 15 42 20 45 16 10 12 22 -14 39 -19
12 -27 13 -33 3z"/>
<path d="M2640 2797 c0 -1 4 -16 9 -34 7 -24 6 -35 -5 -44 -8 -6 -14 -30 -14
-54 0 -26 -6 -48 -15 -55 -9 -8 -15 -30 -15 -56 0 -24 -4 -44 -9 -44 -10 0
-51 -79 -51 -97 0 -6 -7 -16 -15 -23 -8 -7 -15 -21 -15 -31 0 -10 -8 -22 -17
-28 -14 -8 -15 -12 -6 -22 10 -10 14 -9 19 5 4 10 18 30 30 44 13 14 24 30 24
37 0 7 9 24 20 38 11 14 20 35 20 47 0 12 7 28 15 36 8 9 15 28 15 43 0 16 6
34 14 40 7 6 16 31 19 55 4 23 14 57 24 75 18 32 18 32 -6 52 -20 16 -41 25
-41 16z"/>
<path d="M2090 2780 c-7 -5 -27 -6 -45 -3 -42 7 -54 -11 -46 -70 7 -55 25 -67
29 -19 2 20 9 32 18 32 20 0 19 -83 -1 -100 -8 -7 -15 -25 -15 -40 0 -16 -7
-30 -15 -34 -8 -3 -15 -17 -15 -31 0 -15 -7 -33 -15 -41 -8 -9 -15 -24 -15
-35 0 -10 -4 -19 -10 -19 -5 0 -12 -11 -16 -24 -3 -14 -12 -27 -20 -30 -8 -3
-14 -12 -14 -20 0 -7 -7 -16 -15 -20 -8 -3 -15 -10 -15 -16 0 -5 7 -10 15 -10
8 0 15 7 15 15 0 8 7 15 15 15 8 0 15 6 15 14 0 8 7 16 15 20 8 3 15 12 15 19
0 8 7 20 15 27 8 7 15 21 15 32 0 11 7 26 15 34 8 9 15 24 15 35 0 11 7 27 15
35 8 9 15 31 15 50 0 19 4 34 9 34 5 0 13 15 16 33 4 17 13 39 20 47 22 24 29
66 12 73 -7 3 -20 1 -27 -3z"/>
<path d="M2145 2780 c-4 -6 -4 -23 0 -39 4 -19 1 -32 -10 -41 -8 -7 -15 -28
-15 -50 0 -24 -5 -40 -15 -44 -8 -3 -15 -18 -15 -33 0 -15 -7 -37 -15 -47 -8
-11 -15 -30 -15 -42 0 -12 -7 -27 -15 -34 -8 -7 -15 -21 -15 -32 0 -10 -7 -21
-15 -24 -8 -4 -15 -10 -15 -15 0 -4 -11 -25 -25 -45 -14 -20 -24 -44 -24 -53
1 -13 2 -13 6 2 2 9 8 17 13 17 13 0 60 53 60 68 0 7 7 15 15 18 8 4 15 16 15
29 0 12 7 28 15 35 8 7 15 21 15 32 0 11 7 26 15 34 8 9 15 30 15 48 0 19 7
39 15 46 8 7 15 21 15 31 0 10 9 37 21 59 14 26 19 49 15 65 -6 25 -30 34 -41
15z"/>
<path d="M2212 2777 c-7 -8 -9 -27 -6 -45 6 -31 -14 -109 -42 -164 -8 -14 -14
-37 -14 -51 0 -13 -7 -30 -15 -37 -8 -7 -15 -21 -15 -31 0 -11 -4 -19 -10 -19
-5 0 -12 -11 -16 -25 -3 -13 -12 -29 -20 -36 -19 -15 -18 -39 1 -39 8 0 15 6
15 14 0 7 7 19 15 26 8 7 15 20 15 30 0 10 7 20 15 24 8 3 15 14 15 24 0 11 7
25 15 32 8 7 15 26 15 42 0 16 14 56 30 90 17 33 30 68 30 77 0 10 12 28 26
42 l27 24 -8 -25 c-4 -14 -9 -41 -12 -60 -3 -19 -12 -44 -19 -55 -8 -11 -14
-31 -14 -45 0 -14 -7 -34 -15 -44 -8 -11 -15 -30 -15 -42 0 -12 -7 -27 -15
-34 -8 -7 -15 -19 -15 -27 0 -8 -13 -32 -30 -53 -16 -21 -30 -41 -30 -45 0 -3
-7 -13 -15 -22 -8 -8 -12 -19 -9 -25 4 -6 11 -3 17 8 6 11 16 24 22 29 25 22
75 94 75 108 0 8 7 20 15 27 8 7 15 22 15 34 0 11 7 30 15 40 8 11 15 30 15
42 0 13 4 25 9 28 5 3 12 22 15 42 4 20 16 53 27 74 13 24 18 47 14 60 -7 21
-30 27 -40 10 -6 -10 -22 -8 -61 7 -6 2 -16 -2 -22 -10z"/>
<path d="M4202 2694 c-32 -22 -27 -48 13 -75 19 -13 35 -28 35 -32 0 -4 9 -20
19 -35 14 -19 20 -46 22 -92 2 -89 2 -90 -21 -90 -15 0 -20 -7 -20 -25 0 -14
7 -28 15 -31 8 -3 17 -15 21 -26 5 -16 11 -18 32 -13 65 16 141 27 192 26 154
-2 383 1 394 5 7 3 32 1 56 -5 28 -6 50 -6 65 1 17 8 33 5 70 -11 50 -22 145
-29 145 -10 0 6 7 17 15 25 26 26 19 64 -14 77 -28 10 -29 12 -24 66 3 35 14
69 29 92 13 19 24 40 24 47 0 6 14 19 31 27 24 13 30 22 27 42 -2 14 -13 32
-25 40 -19 13 -23 12 -46 -13 -24 -25 -31 -27 -121 -29 -53 -1 -99 -5 -103 -8
-11 -12 5 -20 44 -21 28 -1 39 -6 41 -20 3 -16 -1 -17 -40 -11 -23 4 -51 11
-60 16 -12 7 -28 5 -48 -6 -51 -26 -31 -49 35 -38 25 4 41 1 53 -10 16 -15 19
-15 30 3 12 20 42 28 42 12 0 -5 10 -8 23 -8 16 1 21 -4 19 -19 -1 -11 -3 -37
-3 -57 0 -38 -15 -51 -25 -23 -8 20 -24 9 -24 -16 0 -12 10 -23 25 -29 30 -12
32 -40 5 -65 -20 -18 -35 -14 -35 7 0 6 -6 13 -12 16 -7 2 -13 -3 -13 -10 0
-15 -65 -19 -87 -5 -7 5 -31 2 -54 -4 -36 -11 -42 -11 -51 4 -13 24 -48 22
-48 -3 0 -11 -7 -20 -15 -20 -10 0 -15 7 -13 18 3 15 -5 17 -67 16 -38 -1 -85
-5 -103 -9 -20 -5 -37 -3 -46 4 -9 7 -22 8 -37 3 -32 -12 -239 -14 -239 -2 0
5 4 11 10 15 5 3 9 37 9 75 0 38 2 73 5 78 5 8 65 23 149 37 24 4 44 2 53 -5
9 -8 23 -9 41 -4 16 5 69 9 120 9 91 0 92 0 86 23 -4 19 -1 22 21 22 19 0 29
-7 35 -24 5 -13 16 -26 25 -29 18 -7 42 18 26 28 -5 3 -10 15 -10 26 0 25 38
40 84 32 28 -4 36 -2 36 10 0 19 -56 40 -78 28 -29 -14 -83 -21 -212 -27 -102
-5 -130 -3 -155 10 -38 20 -93 20 -115 1 -11 -10 -41 -16 -88 -18 -65 -2 -73
0 -99 26 -34 31 -41 33 -71 11z m354 -40 c13 -3 24 -9 24 -14 0 -4 10 -11 22
-17 18 -8 11 -11 -42 -16 -36 -3 -81 -2 -100 3 -30 7 -31 8 -9 9 18 1 30 9 38
27 8 17 17 24 27 20 9 -3 27 -9 40 -12z m144 -48 c-6 -8 -18 -12 -26 -9 -23 9
-16 23 12 23 22 0 24 -2 14 -14z"/>
<path d="M3056 2685 c-3 -9 -6 -32 -6 -52 0 -48 24 -38 28 12 4 41 -11 68 -22
40z"/>
<path d="M1857 2663 c-4 -3 -7 -16 -7 -29 0 -12 -7 -24 -15 -28 -9 -3 -15 -18
-15 -36 0 -20 -5 -30 -15 -30 -10 0 -15 -10 -15 -30 0 -20 -5 -30 -15 -30 -10
0 -15 -10 -15 -29 0 -16 -6 -31 -15 -35 -8 -3 -15 -12 -15 -21 0 -8 -7 -15
-15 -15 -9 0 -15 9 -15 24 0 13 7 26 15 30 8 3 15 15 15 26 0 11 7 20 15 20
10 0 15 10 15 31 0 37 -23 35 -28 -2 -2 -13 -10 -28 -18 -32 -8 -4 -14 -14
-14 -21 0 -8 -7 -16 -15 -20 -8 -3 -15 -15 -15 -26 0 -12 -13 -35 -30 -52 -29
-29 -38 -48 -22 -48 12 0 52 44 52 58 0 7 7 12 15 12 8 0 15 -9 15 -19 0 -27
19 -36 27 -14 4 10 13 24 20 31 7 7 13 19 13 27 0 7 7 15 15 19 8 3 15 14 15
24 0 11 7 25 15 32 8 7 15 23 15 35 0 13 7 25 15 29 8 3 15 16 15 30 0 13 7
26 15 30 16 6 20 33 7 54 -5 7 -11 9 -15 5z"/>
<path d="M1977 2643 c-4 -3 -7 -19 -7 -35 0 -40 24 -31 28 10 3 30 -6 41 -21
25z"/>
<path d="M2336 2634 c-3 -9 -6 -24 -6 -34 0 -10 -7 -31 -14 -47 -8 -15 -17
-35 -20 -43 -3 -8 -10 -22 -15 -30 -5 -8 -17 -33 -27 -55 -11 -22 -25 -44 -31
-48 -7 -4 -13 -17 -13 -27 0 -11 -7 -20 -15 -20 -8 0 -15 -7 -15 -15 0 -30 35
-9 67 41 33 50 83 164 83 186 0 14 7 28 15 32 9 3 15 18 15 35 0 34 -15 49
-24 25z"/>
<path d="M1764 2586 c-6 -17 2 -36 17 -36 12 0 12 37 -1 45 -6 3 -13 -1 -16
-9z"/>
<path d="M2967 2593 c-4 -3 -7 -21 -7 -39 0 -19 -6 -34 -15 -38 -9 -3 -15 -18
-15 -39 0 -19 -7 -40 -15 -47 -8 -7 -15 -21 -15 -31 0 -10 -4 -20 -9 -24 -17
-10 -55 -95 -46 -102 4 -5 10 -3 12 4 2 6 13 21 24 34 10 12 19 26 19 31 0 5
7 16 15 24 8 9 15 24 15 34 0 10 7 20 15 24 9 3 15 19 15 38 1 18 7 44 15 58
24 41 17 99 -8 73z"/>
<path d="M3026 2564 c-3 -9 -6 -28 -6 -42 0 -15 -7 -36 -15 -46 -8 -11 -15
-27 -15 -36 0 -9 -11 -37 -25 -61 -14 -24 -28 -52 -31 -61 -3 -9 -12 -19 -20
-22 -19 -7 -18 -36 1 -36 8 0 15 9 15 20 0 11 7 20 15 20 8 0 15 7 15 15 0 9
7 18 15 21 8 4 15 14 15 23 0 9 7 25 15 35 8 11 15 31 15 45 0 14 7 35 15 45
16 22 20 82 6 90 -5 3 -12 -1 -15 -10z"/>
<path d="M1947 2563 c-4 -3 -7 -16 -7 -28 0 -13 -7 -28 -15 -35 -8 -7 -15 -20
-15 -30 0 -10 -7 -23 -15 -30 -8 -7 -15 -20 -15 -30 0 -10 -7 -20 -15 -24 -8
-3 -15 -12 -15 -21 0 -8 -4 -15 -9 -15 -11 0 -24 -31 -16 -38 7 -8 73 67 81
93 4 10 13 25 20 33 8 7 14 22 14 33 0 11 7 27 15 35 8 9 15 26 15 40 0 23
-10 31 -23 17z"/>
<path d="M1613 2533 c-4 -10 -12 -22 -20 -26 -7 -4 -13 -19 -13 -31 0 -13 -7
-26 -15 -30 -8 -3 -15 -13 -15 -21 0 -9 -7 -23 -15 -32 -8 -8 -13 -19 -9 -24
7 -13 24 -1 24 17 0 8 7 14 15 14 8 0 15 -9 15 -19 0 -10 -7 -21 -15 -25 -8
-3 -15 -10 -15 -16 0 -5 7 -10 15 -10 8 0 15 7 15 15 0 8 7 15 15 15 8 0 15 9
15 19 0 11 3 21 8 23 12 5 52 66 52 79 0 7 8 21 17 31 12 14 14 21 5 30 -8 8
-14 5 -21 -15 -6 -15 -15 -27 -21 -27 -5 0 -10 -11 -10 -24 0 -13 -7 -26 -15
-30 -8 -3 -15 -15 -15 -26 0 -11 -7 -20 -15 -20 -9 0 -15 9 -15 25 0 16 6 25
15 25 10 0 15 10 15 30 0 20 5 30 15 30 8 0 15 9 15 20 0 25 -18 26 -27 3z"/>
<path d="M4724 2505 c-18 -27 -13 -55 10 -55 16 0 26 21 26 56 0 31 -15 31
-36 -1z"/>
<path d="M1433 2453 c-4 -10 -12 -22 -20 -26 -7 -4 -13 -15 -13 -22 0 -8 -7
-15 -15 -15 -8 0 -15 7 -15 15 0 8 -7 15 -15 15 -8 0 -15 -7 -15 -15 0 -8 -7
-15 -15 -15 -8 0 -15 -7 -15 -15 0 -8 7 -15 15 -15 8 0 15 7 15 15 0 8 7 15
15 15 8 0 15 -7 15 -15 0 -8 -4 -15 -10 -15 -5 0 -10 -7 -10 -15 0 -14 3 -13
25 2 13 10 25 22 25 26 0 4 14 21 30 37 30 29 40 60 20 60 -6 0 -14 -8 -17
-17z"/>
<path d="M4380 2455 c0 -16 27 -32 37 -21 7 7 -16 36 -28 36 -5 0 -9 -7 -9
-15z"/>
<path d="M5010 2448 c0 -12 1 -19 3 -17 1 2 9 12 16 22 12 14 11 17 -3 17 -10
0 -16 -8 -16 -22z"/>
<path d="M1250 2376 c0 -8 -7 -17 -16 -20 -8 -3 -12 -11 -9 -16 4 -7 16 -2 30
12 22 22 24 38 4 38 -5 0 -9 -6 -9 -14z"/>
<path d="M1490 2346 c0 -8 -7 -16 -15 -20 -8 -3 -15 -10 -15 -16 0 -5 7 -10
15 -10 8 0 15 7 15 15 0 8 7 15 15 15 8 0 15 7 15 15 0 8 -7 15 -15 15 -8 0
-15 -6 -15 -14z"/>
<path d="M1670 2315 c0 -8 -7 -15 -15 -15 -8 0 -15 -7 -15 -15 0 -8 7 -15 15
-15 8 0 15 6 15 14 0 8 7 16 15 20 8 3 15 10 15 16 0 5 -7 10 -15 10 -8 0 -15
-7 -15 -15z"/>
<path d="M3717 2324 c-4 -4 -7 -18 -7 -31 0 -26 -27 -31 -61 -10 -17 10 -23
10 -26 0 -6 -18 -30 -16 -37 3 -7 18 -26 10 -26 -11 0 -24 36 -37 60 -23 17
11 22 10 30 -2 13 -22 62 -1 78 34 13 26 5 55 -11 40z"/>
<path d="M5370 2315 c0 -8 5 -15 10 -15 6 0 10 7 10 15 0 8 -4 15 -10 15 -5 0
-10 -7 -10 -15z"/>
<path d="M3357 2313 c-10 -10 -8 -43 2 -43 9 0 21 24 21 41 0 11 -14 12 -23 2z"/>
<path d="M3930 2290 c0 -19 3 -21 12 -12 9 9 9 15 0 24 -9 9 -12 7 -12 -12z"/>
<path d="M1080 2281 c0 -19 35 -39 47 -27 4 3 -1 6 -10 6 -9 0 -17 6 -17 14 0
8 -4 18 -10 21 -5 3 -10 -3 -10 -14z"/>
<path d="M1436 2293 c-11 -11 -6 -23 9 -23 8 0 15 4 15 9 0 13 -16 22 -24 14z"/>
<path d="M1790 2279 c0 -11 5 -17 10 -14 6 3 10 13 10 21 0 8 -4 14 -10 14 -5
0 -10 -9 -10 -21z"/>
<path d="M3055 2290 c-8 -13 4 -32 16 -25 12 8 12 35 0 35 -6 0 -13 -4 -16
-10z"/>
<path d="M3401 2275 c-13 -14 -18 -25 -11 -25 15 0 42 28 38 40 -2 5 -14 -2
-27 -15z"/>
<path d="M3773 2280 c-3 -11 -12 -20 -19 -20 -8 0 -14 -4 -14 -10 0 -14 7 -13
35 6 14 9 25 23 25 30 0 21 -21 17 -27 -6z"/>
<path d="M3840 2280 c0 -11 5 -20 10 -20 6 0 10 9 10 20 0 11 -4 20 -10 20 -5
0 -10 -9 -10 -20z"/>
<path d="M780 2280 c0 -6 -10 -15 -22 -20 -22 -8 -22 -9 -2 -9 20 -1 44 16 44
31 0 4 -4 8 -10 8 -5 0 -10 -5 -10 -10z"/>
<path d="M851 2270 l-23 -20 87 0 c62 0 91 4 101 14 22 23 17 26 -17 9 -26
-13 -33 -13 -39 -2 -7 11 -13 11 -34 -1 -23 -12 -28 -11 -39 3 -11 15 -14 14
-36 -3z"/>
<path d="M1160 2275 c0 -8 5 -15 10 -15 6 0 10 7 10 15 0 8 -4 15 -10 15 -5 0
-10 -7 -10 -15z"/>
<path d="M1224 2276 c-3 -9 -14 -16 -23 -17 -9 -1 -5 -4 9 -9 27 -8 80 -2 94
10 4 5 5 13 1 20 -5 8 -11 6 -20 -7 -13 -17 -14 -17 -34 1 -19 17 -21 17 -27
2z"/>
<path d="M1488 2269 c-10 -10 -15 -19 -12 -19 13 0 44 21 44 30 0 15 -13 11
-32 -11z"/>
<path d="M1700 2269 c-10 -18 -9 -20 7 -17 10 2 19 11 21 21 5 24 -15 21 -28
-4z"/>
<path d="M1860 2275 c0 -8 5 -15 10 -15 6 0 10 7 10 15 0 8 -4 15 -10 15 -5 0
-10 -7 -10 -15z"/>
<path d="M2010 2275 c0 -8 5 -15 10 -15 6 0 10 7 10 15 0 8 -4 15 -10 15 -5 0
-10 -7 -10 -15z"/>
<path d="M2297 2269 c-18 -20 -17 -20 5 -17 12 2 24 11 26 21 5 23 -10 22 -31
-4z"/>
<path d="M2452 2279 c2 -6 8 -10 13 -10 5 0 11 4 13 10 2 6 -4 11 -13 11 -9 0
-15 -5 -13 -11z"/>
<path d="M3107 2270 c-16 -20 -16 -20 23 -20 40 0 40 0 20 20 -11 11 -21 20
-23 20 -1 0 -10 -9 -20 -20z"/>
<path d="M0 2225 c0 -25 2 -45 5 -45 12 0 25 42 19 65 -10 40 -24 29 -24 -20z"/>
<path d="M617 2263 c-13 -12 -7 -23 13 -23 11 0 20 7 20 15 0 15 -21 21 -33 8z"/>
<path d="M3893 2263 c-20 -8 -15 -23 7 -23 11 0 20 7 20 15 0 15 -6 17 -27 8z"/>
<path d="M103 2233 c-10 -14 -32 -41 -48 -58 -45 -48 -71 -115 -45 -115 6 0
10 5 10 10 0 13 37 50 50 50 18 0 10 -21 -20 -53 -16 -18 -30 -37 -30 -44 0
-6 -5 -13 -11 -15 -6 -2 -9 -13 -7 -23 5 -20 5 -20 13 0 5 11 32 43 59 70 40
40 51 57 52 85 1 19 5 54 9 78 9 49 -5 56 -32 15z"/>
<path d="M4935 2220 c3 -5 13 -10 21 -10 8 0 14 5 14 10 0 6 -9 10 -21 10 -11
0 -17 -4 -14 -10z"/>
<path d="M4427 2062 c-9 -21 -17 -52 -16 -68 l0 -29 10 25 c6 13 16 32 24 40
10 11 12 25 7 44 l-7 27 -18 -39z"/>
<path d="M4856 2068 c-3 -13 -6 -33 -6 -46 0 -36 24 -21 28 18 4 40 -13 62
-22 28z"/>
<path d="M4292 2050 c0 -19 2 -27 5 -17 2 9 2 25 0 35 -3 9 -5 1 -5 -18z"/>
<path d="M4497 2073 c-10 -10 -8 -83 2 -83 10 0 21 34 21 68 0 22 -10 29 -23
15z"/>
<path d="M411 2057 c-8 -8 -8 -14 0 -24 13 -15 49 -18 49 -3 0 6 0 13 1 17 1
13 -38 22 -50 10z"/>
<path d="M4707 2064 c-4 -4 -7 -20 -7 -36 0 -35 23 -34 28 1 4 25 -10 46 -21
35z"/>
<path d="M865 2051 c-6 -11 9 -23 19 -14 9 9 7 23 -3 23 -6 0 -12 -4 -16 -9z"/>
<path d="M1647 2045 c-4 -8 -2 -17 3 -20 6 -4 10 -4 10 -1 0 2 3 11 6 20 3 9
2 16 -4 16 -5 0 -12 -7 -15 -15z"/>
<path d="M4350 2031 c0 -17 2 -31 4 -31 8 0 13 51 5 56 -5 3 -9 -9 -9 -25z"/>
<path d="M330 2045 c0 -2 9 -19 20 -37 16 -27 20 -29 26 -14 4 11 -1 24 -14
37 -21 19 -32 24 -32 14z"/>
<path d="M2366 2033 c-4 -9 -2 -21 4 -27 7 -7 10 -2 10 17 0 31 -5 34 -14 10z"/>
<path d="M1133 2025 c-3 -9 -3 -18 0 -21 9 -9 27 6 27 22 0 19 -19 18 -27 -1z"/>
<path d="M2221 2028 c0 -9 -4 -25 -7 -35 -5 -14 -4 -15 5 -7 7 7 11 22 8 35
-2 13 -5 16 -6 7z"/>
<path d="M500 2019 c0 -7 -7 -17 -17 -24 -11 -8 -13 -14 -4 -19 6 -4 14 0 17
8 3 9 12 16 20 16 8 0 14 7 14 15 0 8 -7 15 -15 15 -8 0 -15 -5 -15 -11z"/>
<path d="M564 2014 c-4 -10 -12 -22 -18 -26 -8 -5 -8 -8 0 -8 5 0 19 6 30 14
15 12 16 17 7 27 -10 10 -14 8 -19 -7z"/>
<path d="M775 2019 c-10 -15 3 -25 16 -12 7 7 7 13 1 17 -6 3 -14 1 -17 -5z"/>
<path d="M987 2016 c-3 -8 -2 -18 3 -21 13 -8 24 15 12 27 -6 6 -11 4 -15 -6z"/>
<path d="M1345 2019 c-4 -6 -5 -13 -2 -16 7 -7 27 6 27 18 0 12 -17 12 -25 -2z"/>
<path d="M3448 2010 c-7 -24 -3 -38 8 -28 3 4 4 17 2 30 l-3 23 -7 -25z"/>
<path d="M1410 1999 c0 -11 5 -17 10 -14 6 3 10 13 10 21 0 8 -4 14 -10 14 -5
0 -10 -9 -10 -21z"/>
<path d="M3805 1999 c-4 -11 -4 -23 0 -27 7 -7 25 17 25 36 0 20 -18 14 -25
-9z"/>
<path d="M3960 1993 c0 -22 2 -25 10 -13 13 20 13 40 0 40 -5 0 -10 -12 -10
-27z"/>
<path d="M3506 1994 c-9 -22 -8 -24 9 -24 8 0 15 6 15 14 0 22 -17 28 -24 10z"/>
<path d="M3656 1994 c-9 -22 -8 -24 9 -24 8 0 15 9 15 20 0 24 -15 27 -24 4z"/>
<path d="M195 1974 c-9 -14 -15 -27 -13 -30 8 -7 48 27 48 42 0 22 -16 17 -35
-12z"/>
<path d="M2485 1991 c-6 -11 9 -23 19 -14 9 9 7 23 -3 23 -6 0 -12 -4 -16 -9z"/>
<path d="M1890 1972 c0 -7 -7 -12 -15 -12 -8 0 -15 -4 -15 -10 0 -5 4 -10 9
-10 13 0 35 29 27 37 -3 3 -6 1 -6 -5z"/>
<path d="M1584 1959 c-3 -6 -1 -16 5 -22 8 -8 11 -5 11 11 0 24 -5 28 -16 11z"/>
<path d="M3960 1731 c0 -17 5 -33 10 -36 6 -3 10 -1 10 4 0 6 5 11 10 11 21 0
11 -85 -25 -205 -5 -15 1 -24 24 -38 16 -9 32 -17 35 -17 3 0 6 61 6 136 0
129 -1 137 -22 155 -33 27 -48 24 -48 -10z"/>
<path d="M0 1685 c0 -22 2 -24 19 -13 15 9 17 15 9 25 -16 20 -28 15 -28 -12z"/>
<path d="M3867 1636 c-3 -8 -2 -29 3 -46 5 -18 7 -44 4 -58 -4 -19 1 -34 16
-50 25 -26 45 -20 35 12 -4 11 -10 50 -13 86 -5 48 -11 66 -23 68 -9 2 -19 -4
-22 -12z"/>
<path d="M2394 1601 c-7 -8 -4 -46 5 -60 8 -12 12 -12 25 -2 20 17 32 8 39
-29 4 -20 15 -34 31 -40 36 -13 38 -25 11 -48 -14 -12 -25 -31 -25 -42 0 -11
0 -23 0 -27 0 -10 137 -15 143 -6 3 5 6 46 8 93 l4 85 -58 3 c-63 2 -101 16
-94 35 4 12 65 15 83 4 14 -8 94 4 94 15 0 5 -6 11 -12 13 -17 6 -249 11 -254
6z m204 -159 c5 -30 -6 -58 -17 -46 -5 5 -12 24 -16 42 -6 29 -5 33 12 30 10
-2 19 -13 21 -26z"/>
<path d="M0 1488 c1 -31 1 -32 15 -14 19 25 19 46 0 46 -10 0 -15 -10 -15 -32z"/>
<path d="M2685 1450 c-8 -13 40 -31 60 -24 8 4 15 12 15 20 0 16 -65 20 -75 4z"/>
<path d="M1285 1430 c-3 -5 -19 -7 -35 -3 -27 5 -30 3 -30 -21 0 -18 5 -26 18
-26 10 0 27 -7 39 -15 18 -13 22 -12 38 5 22 25 33 25 65 0 26 -21 85 -27 95
-10 6 10 100 7 268 -7 59 -5 74 -2 124 21 51 25 55 29 40 43 -13 13 -19 14
-30 4 -10 -7 -23 -8 -38 -3 -34 12 -425 15 -448 3 -13 -7 -24 -6 -37 4 -22 17
-60 19 -69 5z"/>
<path d="M4005 1429 c-4 -6 -21 -9 -39 -7 -17 2 -32 -1 -33 -7 -1 -5 11 -9 27
-7 21 2 30 -2 35 -17 6 -21 29 -28 38 -13 7 11 -4 62 -14 62 -4 0 -11 -5 -14
-11z"/>
<path d="M2746 1388 c-21 -21 -44 -37 -51 -34 -13 5 -35 -12 -35 -26 0 -12 28
-10 50 4 10 7 23 9 27 5 4 -5 2 -11 -4 -15 -6 -4 -14 -21 -17 -38 -4 -18 -16
-40 -27 -50 -28 -25 -24 -34 15 -34 36 0 48 15 39 49 -9 33 5 71 26 71 10 0
21 6 24 14 4 10 24 14 68 15 65 0 83 6 59 21 -8 5 -15 20 -15 32 0 21 -5 23
-60 24 -57 1 -62 0 -99 -38z"/>
<path d="M2991 1422 c-6 -2 -11 -11 -11 -21 0 -9 -5 -22 -12 -29 -17 -17 -8
-22 48 -26 27 -2 57 -7 67 -11 10 -4 35 -2 55 4 48 16 265 10 286 -9 13 -10
20 -10 39 3 30 20 298 19 305 -1 6 -20 25 -13 57 19 17 17 40 35 53 40 37 14
25 29 -25 30 -169 3 -853 4 -862 1z m359 -37 c0 -8 -7 -15 -15 -15 -8 0 -15 7
-15 15 0 8 7 15 15 15 8 0 15 -7 15 -15z"/>
<path d="M3905 1359 c-10 -15 -2 -19 24 -12 17 4 19 8 9 14 -18 12 -26 11 -33
-2z"/>
<path d="M2416 1343 c-5 -12 1 -23 19 -36 23 -17 25 -24 19 -63 l-6 -44 95 0
c53 0 98 3 100 8 3 4 -1 30 -8 57 l-12 50 -49 -4 c-100 -7 -98 -7 -112 22 -15
31 -37 35 -46 10z m174 -73 c0 -5 -12 -10 -26 -10 -14 0 -23 4 -19 10 3 6 15
10 26 10 10 0 19 -4 19 -10z"/>
<path d="M1462 1306 c-3 -6 -6 -19 -7 -30 -1 -12 -5 -29 -10 -38 -5 -12 -3
-18 6 -18 8 -1 73 -1 144 -2 l130 -1 0 47 0 47 -128 2 c-73 1 -131 -2 -135 -7z"/>
<path d="M1790 1260 l0 -50 98 0 c53 0 114 -3 135 -6 l37 -7 0 54 0 55 -135 2
-135 2 0 -50z"/>
<path d="M2120 1256 l0 -56 135 0 135 0 0 43 c0 23 -4 48 -9 55 -10 16 -63 12
-69 -6 -2 -7 2 -10 12 -6 22 9 32 -24 14 -43 -14 -13 -18 -13 -37 3 -11 10
-21 26 -21 36 0 19 -40 34 -65 24 -8 -3 -15 -15 -15 -26 0 -27 -18 -26 -22 3
-2 16 -11 23 -30 25 -28 3 -28 2 -28 -52z"/>
<path d="M2789 1273 c-8 -75 -10 -73 117 -75 63 -1 126 -2 142 -2 26 -1 27 0
26 54 l-1 55 -69 1 c-53 1 -72 -2 -82 -15 -11 -13 -14 -14 -21 -2 -5 8 -31 16
-59 19 l-50 4 -3 -39z"/>
<path d="M3140 1249 l0 -56 135 -1 c74 -1 137 2 139 7 3 4 3 30 0 57 l-6 49
-134 0 -134 0 0 -56z"/>
<path d="M3476 1300 c-1 -3 -1 -27 -1 -55 l0 -50 139 -3 c77 -1 143 1 147 5 4
4 5 31 2 58 l-5 50 -140 0 c-77 0 -141 -2 -142 -5z"/>
<path d="M5999 965 c-13 -13 -36 -16 -103 -16 l-87 1 3 -33 3 -32 82 1 c93 2
113 7 113 29 0 22 31 18 37 -5 5 -20 13 -21 217 -20 116 0 222 -1 236 -3 20
-2 26 3 28 23 6 46 11 54 27 40 9 -7 13 -21 10 -31 -7 -22 28 -43 57 -36 11 3
45 2 76 -3 31 -5 58 -8 60 -6 2 2 5 20 6 40 4 43 9 51 31 42 9 -3 16 -16 15
-28 -4 -48 -8 -47 157 -42 125 4 158 7 167 20 10 14 14 13 30 -5 23 -25 34
-26 58 -4 16 14 21 15 28 4 12 -20 36 -7 44 24 4 15 5 30 2 32 -3 3 -34 6 -69
8 -35 1 -69 5 -75 9 -6 3 -14 1 -17 -4 -4 -7 -19 -9 -35 -5 -24 5 -29 3 -32
-16 -4 -32 -25 -34 -40 -4 -14 25 -15 25 -162 30 -82 3 -154 1 -160 -4 -6 -5
-38 -5 -74 0 -35 5 -112 6 -170 3 -158 -9 -393 -9 -422 -1 -18 6 -30 3 -41 -8z"/>
<path d="M7497 964 c-3 -4 -39 -7 -79 -8 -70 -1 -73 -2 -76 -26 -4 -44 9 -52
62 -40 39 8 51 7 72 -6 13 -9 26 -15 28 -13 2 2 7 23 11 45 6 38 -3 62 -18 48z"/>
<path d="M7553 957 c-3 -4 2 -19 11 -32 9 -13 16 -31 16 -40 0 -22 31 -18 37
5 6 23 16 25 43 8 15 -10 22 -10 32 0 6 6 25 12 40 12 21 0 28 -5 28 -20 0
-19 7 -20 145 -20 l145 0 2 30 c0 17 1 36 2 43 1 6 -8 11 -19 10 -11 -2 -36
-4 -55 -5 -27 -2 -35 -8 -40 -28 -9 -36 -46 -35 -42 1 3 22 -2 29 -29 38 -34
12 -48 3 -49 -26 0 -22 -30 -14 -39 9 -8 22 -14 23 -116 23 -59 0 -109 -4
-112 -8z"/>
<path d="M5493 951 c-5 -3 -9 -35 -9 -70 1 -63 2 -65 31 -72 17 -5 370 -9 786
-11 622 -2 759 -5 772 -17 14 -11 75 -12 354 -6 186 4 354 7 373 6 19 0 297
-3 618 -7 l582 -6 0 21 c0 19 -6 21 -54 21 -52 0 -81 13 -54 23 7 2 10 8 6 12
-4 4 -13 4 -20 -2 -44 -33 -105 -34 -898 -19 -195 3 -708 9 -1140 12 -1271 8
-1309 9 -1322 22 -22 22 3 27 128 27 l124 -1 9 31 c9 36 -1 41 -55 26 -23 -6
-54 -7 -83 -1 -67 13 -138 18 -148 11z"/>
</g>
</svg>
