<?xml version="1.0" standalone="no"?>
<!DOCTYPE svg PUBLIC "-//W3C//DTD SVG 20010904//EN"
 "http://www.w3.org/TR/2001/REC-SVG-20010904/DTD/svg10.dtd">
<svg version="1.0" xmlns="http://www.w3.org/2000/svg"
 width="88.000000pt" height="37.000000pt" viewBox="0 0 88.000000 37.000000"
 preserveAspectRatio="xMidYMid meet">
<metadata>
Created by potrace 1.10, written by Peter Selinger 2001-2011
</metadata>
<g transform="translate(0.000000,37.000000) scale(0.050000,-0.050000)"
fill="#0000001a" stroke="none">
<path d="M170 555 c18 -93 17 -123 -2 -250 -7 -47 -7 -108 0 -135 l13 -50 686
0 687 0 -2 149 c-1 92 -12 159 -28 175 -20 20 -17 31 19 59 37 27 41 38 20 63
-21 25 -19 35 11 52 26 15 -173 21 -692 21 l-727 1 15 -85z"/>
</g>
</svg>
