<?xml version="1.0" standalone="no"?>
<!DOCTYPE svg PUBLIC "-//W3C//DTD SVG 20010904//EN"
 "http://www.w3.org/TR/2001/REC-SVG-20010904/DTD/svg10.dtd">
<svg version="1.0" xmlns="http://www.w3.org/2000/svg"
 width="900.000000pt" height="273.000000pt" viewBox="0 0 900.000000 273.000000"
 preserveAspectRatio="xMidYMid meet">
<metadata>
Created by potrace 1.10, written by Peter Selinger 2001-2011
</metadata>
<g transform="translate(0.000000,273.000000) scale(0.100000,-0.100000)"
fill="#000000" stroke="none">
<path d="M930 1561 c-72 -39 -130 -125 -130 -195 0 -56 32 -126 76 -165 91
-80 209 -76 297 11 26 26 47 54 47 62 0 8 7 22 16 30 14 15 371 16 3778 16
l3763 0 19 21 c14 15 16 24 7 37 -9 16 -254 17 -3789 22 -2078 3 -3780 6
-3781 8 -1 1 -6 17 -13 36 -35 108 -189 170 -290 117z"/>
</g>
</svg>
